%TF.GenerationSoftware,KiCad,Pcbnew,9.0.7*%
%TF.CreationDate,2026-07-07T23:04:11+05:30*%
%TF.ProjectId,UAV PAYLOAD CONTROLLER,55415620-5041-4594-9c4f-414420434f4e,1*%
%TF.SameCoordinates,Original*%
%TF.FileFunction,Copper,L4,Bot*%
%TF.FilePolarity,Positive*%
%FSLAX46Y46*%
G04 Gerber Fmt 4.6, Leading zero omitted, Abs format (unit mm)*
G04 Created by KiCad (PCBNEW 9.0.7) date 2026-07-07 23:04:11*
%MOMM*%
%LPD*%
G01*
G04 APERTURE LIST*
G04 Aperture macros list*
%AMRoundRect*
0 Rectangle with rounded corners*
0 $1 Rounding radius*
0 $2 $3 $4 $5 $6 $7 $8 $9 X,Y pos of 4 corners*
0 Add a 4 corners polygon primitive as box body*
4,1,4,$2,$3,$4,$5,$6,$7,$8,$9,$2,$3,0*
0 Add four circle primitives for the rounded corners*
1,1,$1+$1,$2,$3*
1,1,$1+$1,$4,$5*
1,1,$1+$1,$6,$7*
1,1,$1+$1,$8,$9*
0 Add four rect primitives between the rounded corners*
20,1,$1+$1,$2,$3,$4,$5,0*
20,1,$1+$1,$4,$5,$6,$7,0*
20,1,$1+$1,$6,$7,$8,$9,0*
20,1,$1+$1,$8,$9,$2,$3,0*%
G04 Aperture macros list end*
%TA.AperFunction,ComponentPad*%
%ADD10R,1.700000X1.700000*%
%TD*%
%TA.AperFunction,ComponentPad*%
%ADD11C,1.700000*%
%TD*%
%TA.AperFunction,ComponentPad*%
%ADD12RoundRect,0.250000X-0.750000X0.600000X-0.750000X-0.600000X0.750000X-0.600000X0.750000X0.600000X0*%
%TD*%
%TA.AperFunction,ComponentPad*%
%ADD13O,2.000000X1.700000*%
%TD*%
%TA.AperFunction,ComponentPad*%
%ADD14RoundRect,0.250000X-0.600000X-0.725000X0.600000X-0.725000X0.600000X0.725000X-0.600000X0.725000X0*%
%TD*%
%TA.AperFunction,ComponentPad*%
%ADD15O,1.700000X1.950000*%
%TD*%
%TA.AperFunction,HeatsinkPad*%
%ADD16O,1.000000X2.100000*%
%TD*%
%TA.AperFunction,HeatsinkPad*%
%ADD17O,1.000000X1.600000*%
%TD*%
%TA.AperFunction,ViaPad*%
%ADD18C,0.600000*%
%TD*%
%TA.AperFunction,Conductor*%
%ADD19C,0.250000*%
%TD*%
%TA.AperFunction,Conductor*%
%ADD20C,0.300000*%
%TD*%
G04 APERTURE END LIST*
D10*
%TO.P,J4,1,Pin_1*%
%TO.N,/5V_rail*%
X160122500Y-125642500D03*
D11*
%TO.P,J4,2,Pin_2*%
%TO.N,GND*%
X162662500Y-125642500D03*
%TO.P,J4,3,Pin_3*%
%TO.N,/FLOW_SENSOR/OUT*%
X165202500Y-125642500D03*
%TD*%
D12*
%TO.P,J6,1,Pin_1*%
%TO.N,/PUMP_UNIT/PUMP+*%
X124850000Y-74575000D03*
D13*
%TO.P,J6,2,Pin_2*%
%TO.N,/PUMP_UNIT/PUMP-*%
X124850000Y-77075000D03*
%TD*%
D14*
%TO.P,J5,1,Pin_1*%
%TO.N,/TANK_SENSOR/LOADCELL_EP (E+)*%
X145805000Y-122650000D03*
D15*
%TO.P,J5,2,Pin_2*%
%TO.N,GND*%
X148305000Y-122650000D03*
%TO.P,J5,3,Pin_3*%
%TO.N,/TANK_SENSOR/LOADCELL_AP (A+)*%
X150805000Y-122650000D03*
%TO.P,J5,4,Pin_4*%
%TO.N,/TANK_SENSOR/LOADCELL_AN (A-)*%
X153305000Y-122650000D03*
%TD*%
D10*
%TO.P,J10,1,Pin_1*%
%TO.N,/3V3_rail*%
X151090000Y-64600000D03*
D11*
%TO.P,J10,2,Pin_2*%
%TO.N,GND*%
X153630000Y-64600000D03*
%TO.P,J10,3,Pin_3*%
%TO.N,/STM32_UNIT/SWDIO_PA13*%
X156170000Y-64600000D03*
%TO.P,J10,4,Pin_4*%
%TO.N,/STM32_UNIT/SWCLK_PA14*%
X158710000Y-64600000D03*
%TO.P,J10,5,Pin_5*%
%TO.N,/STM32_UNIT/nRESET*%
X161250000Y-64600000D03*
%TD*%
D16*
%TO.P,J8,S1,SHIELD*%
%TO.N,GND*%
X170818000Y-108130000D03*
D17*
X170818000Y-103950000D03*
D16*
X162178000Y-108130000D03*
D17*
X162178000Y-103950000D03*
%TD*%
D10*
%TO.P,J9,1,Pin_1*%
%TO.N,/USB_INTERFACE/RST*%
X172935000Y-113470000D03*
D11*
%TO.P,J9,2,Pin_2*%
%TO.N,/STM32_UNIT/UART_FC_TX_PA2*%
X172935000Y-116010000D03*
%TO.P,J9,3,Pin_3*%
%TO.N,/STM32_UNIT/UART_FC_RX_PA3*%
X172935000Y-118550000D03*
%TO.P,J9,4,Pin_4*%
%TO.N,/5V_rail*%
X172935000Y-121090000D03*
%TO.P,J9,5,Pin_5*%
%TO.N,GND*%
X172935000Y-123630000D03*
%TD*%
D10*
%TO.P,J1,1,Pin_1*%
%TO.N,/POWER_SUPPLY/12V_INPUT*%
X121840000Y-124237500D03*
D11*
%TO.P,J1,2,Pin_2*%
%TO.N,GND*%
X121840000Y-121697500D03*
%TD*%
D18*
%TO.N,Net-(D1-K)*%
X133076000Y-115350000D03*
X131400000Y-115350000D03*
%TO.N,/12V_PROTECTED*%
X124222140Y-119409402D03*
X139525000Y-74525000D03*
X120150000Y-126800000D03*
X129125000Y-116750000D03*
%TO.N,/5V_rail*%
X172007018Y-114813883D03*
X160947392Y-112302608D03*
X162600000Y-114850000D03*
X174450000Y-120975000D03*
X132950000Y-127925000D03*
X170675000Y-121100000D03*
X161125000Y-120775000D03*
X161125000Y-124150000D03*
X139425000Y-107250000D03*
X169300000Y-112475000D03*
X170153964Y-112182862D03*
X158025000Y-125075000D03*
X132625000Y-104700000D03*
X158050000Y-120850000D03*
X162025000Y-114450000D03*
X158950000Y-120250000D03*
X121615000Y-109856656D03*
%TO.N,Net-(J2-In)*%
X126975000Y-83300000D03*
X138975000Y-66025000D03*
%TO.N,/STM32_UNIT/nRESET*%
X150375000Y-108100000D03*
X153475000Y-106400000D03*
X161275000Y-66000000D03*
X162975000Y-100500000D03*
%TO.N,/USB_INTERFACE/RST*%
X169010776Y-114234529D03*
X170935000Y-114050000D03*
%TO.N,/USB_INTERFACE/D+*%
X166335000Y-106750000D03*
X172275000Y-100950000D03*
%TO.N,/USB_INTERFACE/D-*%
X167273143Y-107728104D03*
X164652562Y-113494579D03*
X166875000Y-110970000D03*
X172235000Y-102150000D03*
%TO.N,/SD/SD_SPI_DETB_PB4*%
X148062577Y-93986519D03*
X143725002Y-92400000D03*
%TO.N,/TANK_SENSOR/LOADCELL_AN (A-)*%
X153905000Y-118650000D03*
X152220000Y-118250000D03*
%TO.N,/STM32_UNIT/SWCLK_PA14*%
X155900000Y-66750000D03*
X148150000Y-89625000D03*
%TO.N,/STM32_UNIT/SWDIO_PA13*%
X149250000Y-66425000D03*
X152800000Y-87200000D03*
%TO.N,/STM32_UNIT/UART_FC_RX_PA3*%
X160975000Y-100900000D03*
X170129285Y-115513425D03*
%TO.N,/STM32_UNIT/UART_FC_TX_PA2*%
X170375000Y-118800000D03*
X171256392Y-116472806D03*
X159775000Y-109100000D03*
X168972027Y-118744762D03*
X160503052Y-103256284D03*
X159575000Y-100300000D03*
%TO.N,+3V3*%
X127675000Y-116990000D03*
X124675000Y-108890000D03*
%TO.N,/IMU/IMU_INT_PB0*%
X167775000Y-97300000D03*
X158843756Y-93573819D03*
%TO.N,/IMU/IMU_SPI_MOSI_PA7*%
X164275000Y-93200000D03*
X164675000Y-97300000D03*
%TO.N,/IMU/IMU_SPI_MISO_PA6*%
X160499117Y-98550001D03*
X162875000Y-98550000D03*
%TO.N,/IMU/IMU_CS_PA4*%
X162392603Y-95287505D03*
X162065380Y-96709620D03*
%TO.N,/LoRA_MODULE/LORA_RESET_PC7*%
X165275000Y-67100000D03*
X156575000Y-89800000D03*
%TO.N,/LoRA_MODULE/LORA_NSS_PB12*%
X162475000Y-89500000D03*
X158575000Y-90525000D03*
%TO.N,/LoRA_MODULE/LORA_SPI_MOSI_PB15*%
X163275000Y-88875000D03*
X157538831Y-89734755D03*
%TO.N,/LoRA_MODULE/LORA_SPI_MISO_PB14*%
X162575000Y-88200000D03*
X159675000Y-88200000D03*
%TO.N,/SD/SD_SPI_MOSI_PC12*%
X148109053Y-94785170D03*
X150656936Y-93785021D03*
%TO.N,/SD/SD_SPI_CS_PB5*%
X150725000Y-94650000D03*
X148925000Y-98800000D03*
%TO.N,/SD/SD_SPI_MISO_PC11*%
X150693031Y-91981969D03*
X146375653Y-92676193D03*
%TO.N,/FLOW_SENSOR/FLOW_OUT_PB7*%
X165150000Y-120625000D03*
X151000000Y-95525000D03*
%TO.N,/PUMP_UNIT/PUMP_STM_PWM_PB10*%
X132300000Y-84850000D03*
X157500764Y-92424236D03*
X149475000Y-89575000D03*
X138100000Y-89275000D03*
%TO.N,/LoRA_MODULE/LORA_DIO0_PC6*%
X163575000Y-67000000D03*
X157183000Y-86800000D03*
%TO.N,/STM32_UNIT/HX711_SCK_PB9*%
X148975000Y-105300000D03*
X151000000Y-97200000D03*
%TO.N,/STM32_UNIT/HX711_DOUT_PB8*%
X148289004Y-104888402D03*
X148102055Y-96727055D03*
%TO.N,/GPS/GPS_TXD_PA10_RXD*%
X150855887Y-84175000D03*
X154275000Y-87000000D03*
%TO.N,/GPS/GPS_PPS_PB1*%
X152675000Y-72300000D03*
X159275000Y-92900000D03*
%TO.N,/GPS/GPS_RXD_PA9_TXD*%
X147475000Y-86700000D03*
X151227908Y-81867794D03*
%TD*%
D19*
%TO.N,Net-(D1-K)*%
X133076000Y-115350000D02*
X131400000Y-115350000D01*
D20*
%TO.N,/12V_PROTECTED*%
X124250000Y-120850000D02*
X124250000Y-119437262D01*
X124250000Y-119437262D02*
X124222140Y-119409402D01*
X120150000Y-126800000D02*
X120675000Y-126275000D01*
D19*
X139525000Y-74525000D02*
X138799000Y-75251000D01*
D20*
X120675000Y-126275000D02*
X123800000Y-126275000D01*
D19*
X138799000Y-107076000D02*
X129125000Y-116750000D01*
D20*
X123800000Y-126275000D02*
X124250000Y-125825000D01*
D19*
X138799000Y-75251000D02*
X138799000Y-107076000D01*
D20*
X124250000Y-125825000D02*
X124250000Y-120850000D01*
%TO.N,/5V_rail*%
X169300000Y-112475000D02*
X169375000Y-112400000D01*
X126771656Y-104700000D02*
X132625000Y-104700000D01*
X161125000Y-116325000D02*
X162600000Y-114850000D01*
X167333500Y-124441500D02*
X161416500Y-124441500D01*
D19*
X162600000Y-114850000D02*
X162600000Y-116600000D01*
D20*
X148150000Y-107250000D02*
X150150000Y-109250000D01*
D19*
X162600000Y-116600000D02*
X158950000Y-120250000D01*
D20*
X169936826Y-112400000D02*
X170153964Y-112182862D01*
X162025000Y-113380216D02*
X160947392Y-112302608D01*
X172011901Y-114809000D02*
X173432471Y-114809000D01*
X161125000Y-120775000D02*
X161125000Y-116325000D01*
X169375000Y-112400000D02*
X169936826Y-112400000D01*
X170675000Y-121100000D02*
X167333500Y-124441500D01*
X139425000Y-107250000D02*
X148150000Y-107250000D01*
X173432471Y-114809000D02*
X174450000Y-115826529D01*
X150150000Y-112950000D02*
X158050000Y-120850000D01*
X150150000Y-109250000D02*
X150150000Y-112950000D01*
X172007018Y-114813883D02*
X172011901Y-114809000D01*
X174450000Y-115826529D02*
X174450000Y-120975000D01*
X162025000Y-114450000D02*
X162025000Y-113380216D01*
X121615000Y-109856656D02*
X126771656Y-104700000D01*
X161416500Y-124441500D02*
X161125000Y-124150000D01*
X158025000Y-125075000D02*
X155175000Y-127925000D01*
X155175000Y-127925000D02*
X132950000Y-127925000D01*
D19*
%TO.N,Net-(J2-In)*%
X132225000Y-68475000D02*
X134675000Y-66025000D01*
X126975000Y-83300000D02*
X132225000Y-78050000D01*
X134675000Y-66025000D02*
X138975000Y-66025000D01*
X132225000Y-78050000D02*
X132225000Y-68475000D01*
%TO.N,/STM32_UNIT/nRESET*%
X150375000Y-108100000D02*
X151775000Y-108100000D01*
X165460298Y-100500000D02*
X162975000Y-100500000D01*
X165435298Y-66375000D02*
X168401000Y-69340702D01*
X168401000Y-97559298D02*
X165460298Y-100500000D01*
X168401000Y-69340702D02*
X168401000Y-97559298D01*
X151775000Y-108100000D02*
X153475000Y-106400000D01*
X161275000Y-66000000D02*
X161650000Y-66375000D01*
X161650000Y-66375000D02*
X165435298Y-66375000D01*
%TO.N,/USB_INTERFACE/RST*%
X169206164Y-114039141D02*
X170924141Y-114039141D01*
X169010776Y-114234529D02*
X169206164Y-114039141D01*
X170924141Y-114039141D02*
X170935000Y-114050000D01*
%TO.N,/USB_INTERFACE/D+*%
X172275000Y-100950000D02*
X171825000Y-100950000D01*
X166335000Y-101850000D02*
X166335000Y-106750000D01*
X167185000Y-101000000D02*
X166335000Y-101850000D01*
X171825000Y-100950000D02*
X171775000Y-101000000D01*
X171775000Y-101000000D02*
X167185000Y-101000000D01*
%TO.N,/USB_INTERFACE/D-*%
X167273143Y-103611857D02*
X167273143Y-107728104D01*
X168735000Y-102150000D02*
X167273143Y-103611857D01*
X164652562Y-113494579D02*
X164652562Y-113013830D01*
X172235000Y-102150000D02*
X168735000Y-102150000D01*
X164523057Y-112184943D02*
X165738000Y-110970000D01*
X165738000Y-110970000D02*
X166875000Y-110970000D01*
X164523057Y-112884325D02*
X164523057Y-112184943D01*
X164652562Y-113013830D02*
X164523057Y-112884325D01*
%TO.N,/SD/SD_SPI_DETB_PB4*%
X148018000Y-93941942D02*
X146016942Y-93941942D01*
X144475000Y-92400000D02*
X143725002Y-92400000D01*
X148062577Y-93986519D02*
X148018000Y-93941942D01*
X146016942Y-93941942D02*
X144475000Y-92400000D01*
%TO.N,/TANK_SENSOR/LOADCELL_AN (A-)*%
X153905000Y-118650000D02*
X153505000Y-118250000D01*
X153505000Y-118250000D02*
X152220000Y-118250000D01*
%TO.N,/STM32_UNIT/SWCLK_PA14*%
X146849000Y-67940702D02*
X146849000Y-88324000D01*
X155900000Y-66750000D02*
X154949000Y-65799000D01*
X146849000Y-88324000D02*
X148150000Y-89625000D01*
X148990702Y-65799000D02*
X146849000Y-67940702D01*
X154949000Y-65799000D02*
X148990702Y-65799000D01*
%TO.N,/STM32_UNIT/SWDIO_PA13*%
X148725000Y-66950000D02*
X148725000Y-72275000D01*
X154534298Y-87626000D02*
X153226000Y-87626000D01*
X154901000Y-87259298D02*
X154534298Y-87626000D01*
X154901000Y-78451000D02*
X154901000Y-87259298D01*
X148725000Y-72275000D02*
X154901000Y-78451000D01*
X149250000Y-66425000D02*
X148725000Y-66950000D01*
X153226000Y-87626000D02*
X152800000Y-87200000D01*
%TO.N,/STM32_UNIT/UART_FC_RX_PA3*%
X170870298Y-113100000D02*
X168175000Y-113100000D01*
X168175000Y-113100000D02*
X167775000Y-112700000D01*
X167775000Y-111700000D02*
X167775000Y-110775636D01*
X167775000Y-112700000D02*
X167775000Y-111700000D01*
X167775000Y-110775636D02*
X167299364Y-110300000D01*
X161175000Y-110300000D02*
X161175000Y-101100000D01*
X167299364Y-110300000D02*
X161175000Y-110300000D01*
X170129285Y-115513425D02*
X170356873Y-115513425D01*
X161175000Y-101100000D02*
X160975000Y-100900000D01*
X171561000Y-114309298D02*
X171561000Y-113790702D01*
X171561000Y-113790702D02*
X170870298Y-113100000D01*
X170356873Y-115513425D02*
X171561000Y-114309298D01*
%TO.N,/STM32_UNIT/UART_FC_TX_PA2*%
X160503052Y-103151625D02*
X159575000Y-102223573D01*
X168972027Y-118744762D02*
X167875000Y-117647735D01*
X164437190Y-114200000D02*
X159775000Y-109537810D01*
X171256392Y-116472806D02*
X170875000Y-116854198D01*
X170675000Y-118800000D02*
X170575000Y-118800000D01*
X170575000Y-118800000D02*
X170375000Y-118800000D01*
X170875000Y-118600000D02*
X170675000Y-118800000D01*
X160503052Y-103256284D02*
X160503052Y-103151625D01*
X167875000Y-117647735D02*
X167875000Y-114700000D01*
X167275000Y-114200000D02*
X164437190Y-114200000D01*
X170875000Y-116854198D02*
X170875000Y-118600000D01*
X167375000Y-114200000D02*
X167275000Y-114200000D01*
X159775000Y-109537810D02*
X159775000Y-109100000D01*
X167875000Y-114700000D02*
X167375000Y-114200000D01*
X159575000Y-102223573D02*
X159575000Y-100300000D01*
%TO.N,+3V3*%
X127675000Y-109790000D02*
X126875000Y-108990000D01*
X126875000Y-108990000D02*
X126775000Y-108890000D01*
X126775000Y-108890000D02*
X124675000Y-108890000D01*
X127675000Y-116990000D02*
X127675000Y-109790000D01*
%TO.N,/IMU/IMU_INT_PB0*%
X159776001Y-99201001D02*
X158775000Y-98200000D01*
X167775000Y-97300000D02*
X165873999Y-99201001D01*
D20*
X158775000Y-93642575D02*
X158843756Y-93573819D01*
D19*
X158775000Y-98200000D02*
X158775000Y-93642575D01*
X165873999Y-99201001D02*
X159776001Y-99201001D01*
%TO.N,/IMU/IMU_SPI_MOSI_PA7*%
X164275000Y-96400000D02*
X164275000Y-93200000D01*
X164275000Y-96900000D02*
X164275000Y-96400000D01*
X164675000Y-97300000D02*
X164275000Y-96900000D01*
%TO.N,/IMU/IMU_SPI_MISO_PA6*%
X162975000Y-98550000D02*
X162875000Y-98550000D01*
X160499117Y-98550001D02*
X162975000Y-98550000D01*
D20*
%TO.N,/IMU/IMU_CS_PA4*%
X162392603Y-95287505D02*
X162392603Y-96382397D01*
X162392603Y-96382397D02*
X162065380Y-96709620D01*
D19*
%TO.N,/LoRA_MODULE/LORA_RESET_PC7*%
X158975000Y-88014702D02*
X158975000Y-88700000D01*
X157289702Y-89100000D02*
X156932351Y-89457351D01*
X158975000Y-88700000D02*
X158775000Y-88700000D01*
X156932351Y-89457351D02*
X156589702Y-89800000D01*
X159415702Y-87574000D02*
X158975000Y-88014702D01*
X164775000Y-67600000D02*
X164775000Y-67700000D01*
X158775000Y-88700000D02*
X158375000Y-89100000D01*
X164575000Y-86000000D02*
X163001000Y-87574000D01*
X165275000Y-85300000D02*
X164575000Y-86000000D01*
X165275000Y-83200000D02*
X165275000Y-85300000D01*
X156589702Y-89800000D02*
X156575000Y-89800000D01*
X159775000Y-87574000D02*
X159415702Y-87574000D01*
X164775000Y-67700000D02*
X164775000Y-81100000D01*
X158375000Y-89100000D02*
X157289702Y-89100000D01*
X164775000Y-82700000D02*
X165275000Y-83200000D01*
X163001000Y-87574000D02*
X159775000Y-87574000D01*
X164775000Y-81100000D02*
X164775000Y-82700000D01*
X165275000Y-67100000D02*
X164775000Y-67600000D01*
%TO.N,/LoRA_MODULE/LORA_NSS_PB12*%
X161400000Y-90600000D02*
X161900000Y-90100000D01*
X161900000Y-90075000D02*
X162475000Y-89500000D01*
X158650000Y-90600000D02*
X161400000Y-90600000D01*
X158575000Y-90525000D02*
X158650000Y-90600000D01*
X161900000Y-90100000D02*
X161900000Y-90075000D01*
%TO.N,/LoRA_MODULE/LORA_SPI_MOSI_PB15*%
X157538831Y-89734755D02*
X157643954Y-89734755D01*
X157809199Y-89900000D02*
X160775000Y-89900000D01*
X161800000Y-88875000D02*
X163275000Y-88875000D01*
X160775000Y-89900000D02*
X161800000Y-88875000D01*
X157643954Y-89734755D02*
X157809199Y-89900000D01*
%TO.N,/LoRA_MODULE/LORA_SPI_MISO_PB14*%
X162575000Y-88200000D02*
X159675000Y-88200000D01*
%TO.N,/SD/SD_SPI_MOSI_PC12*%
X148109053Y-94785170D02*
X149656787Y-94785170D01*
X149656787Y-94785170D02*
X150656936Y-93785021D01*
%TO.N,/SD/SD_SPI_CS_PB5*%
X150375000Y-95000000D02*
X150375000Y-97500000D01*
X149075000Y-98800000D02*
X148925000Y-98800000D01*
X150725000Y-94650000D02*
X150375000Y-95000000D01*
X150375000Y-97500000D02*
X149075000Y-98800000D01*
%TO.N,/SD/SD_SPI_MISO_PC11*%
X150175000Y-92700000D02*
X150693031Y-92181969D01*
X150151193Y-92676193D02*
X150175000Y-92700000D01*
X150693031Y-92181969D02*
X150693031Y-91981969D01*
X146375653Y-92676193D02*
X150151193Y-92676193D01*
D20*
%TO.N,/FLOW_SENSOR/FLOW_OUT_PB7*%
X152325000Y-98550000D02*
X152025000Y-98550000D01*
X152025000Y-98550000D02*
X151650000Y-98175000D01*
X158924000Y-99022166D02*
X158455710Y-98553876D01*
X151651000Y-96176000D02*
X151000000Y-95525000D01*
X152328876Y-98553876D02*
X152325000Y-98550000D01*
X151650000Y-97675000D02*
X151651000Y-97674000D01*
X151650000Y-98175000D02*
X151650000Y-97675000D01*
X158924000Y-109359976D02*
X158924000Y-99022166D01*
X165150000Y-115585976D02*
X158924000Y-109359976D01*
X158455710Y-98553876D02*
X152328876Y-98553876D01*
X151651000Y-97674000D02*
X151651000Y-96176000D01*
X165150000Y-120625000D02*
X165150000Y-115585976D01*
D19*
%TO.N,/PUMP_UNIT/PUMP_STM_PWM_PB10*%
X153050000Y-93150000D02*
X156775000Y-93150000D01*
X132800000Y-88750000D02*
X133325000Y-89275000D01*
X156775000Y-93150000D02*
X157500764Y-92424236D01*
X132800000Y-85350000D02*
X132800000Y-88500000D01*
X149475000Y-89575000D02*
X153050000Y-93150000D01*
X132300000Y-84850000D02*
X132800000Y-85350000D01*
X132800000Y-88500000D02*
X132800000Y-88750000D01*
X133325000Y-89275000D02*
X138100000Y-89275000D01*
%TO.N,/LoRA_MODULE/LORA_DIO0_PC6*%
X163075000Y-69000000D02*
X163075000Y-81000000D01*
X163175000Y-67000000D02*
X163075000Y-67100000D01*
X161175000Y-86300000D02*
X160675000Y-86800000D01*
X160675000Y-86800000D02*
X157183000Y-86800000D01*
X163075000Y-81000000D02*
X161175000Y-82900000D01*
X161175000Y-82900000D02*
X161175000Y-85324000D01*
X161175000Y-85324000D02*
X161175000Y-86300000D01*
X163075000Y-67100000D02*
X163075000Y-69000000D01*
X163575000Y-67000000D02*
X163175000Y-67000000D01*
%TO.N,/STM32_UNIT/HX711_SCK_PB9*%
X151000000Y-103275000D02*
X151000000Y-97200000D01*
X148975000Y-105300000D02*
X151000000Y-103275000D01*
%TO.N,/STM32_UNIT/HX711_DOUT_PB8*%
X148102055Y-104701453D02*
X148102055Y-96727055D01*
X148289004Y-104888402D02*
X148102055Y-104701453D01*
D20*
%TO.N,/GPS/GPS_TXD_PA10_RXD*%
X154275000Y-87000000D02*
X151450000Y-84175000D01*
X151450000Y-84175000D02*
X150855887Y-84175000D01*
D19*
%TO.N,/GPS/GPS_PPS_PB1*%
X155775000Y-89885298D02*
X158789702Y-92900000D01*
X158789702Y-92900000D02*
X159275000Y-92900000D01*
X155575000Y-73200000D02*
X155775000Y-73400000D01*
X153375000Y-73200000D02*
X155275000Y-73200000D01*
X155775000Y-73400000D02*
X155775000Y-89800000D01*
X152675000Y-72500000D02*
X152975000Y-72800000D01*
X152675000Y-72300000D02*
X152675000Y-72500000D01*
X155775000Y-89800000D02*
X155775000Y-89885298D01*
X152975000Y-72800000D02*
X153375000Y-73200000D01*
X155275000Y-73200000D02*
X155575000Y-73200000D01*
D20*
%TO.N,/GPS/GPS_RXD_PA9_TXD*%
X147775000Y-81800000D02*
X147475000Y-82100000D01*
X151227908Y-81867794D02*
X151160114Y-81800000D01*
X147475000Y-82100000D02*
X147475000Y-86700000D01*
X151160114Y-81800000D02*
X147775000Y-81800000D01*
%TD*%
%TA.AperFunction,Conductor*%
%TO.N,GND*%
G36*
X173042070Y-62120185D02*
G01*
X173087825Y-62172989D01*
X173097769Y-62242147D01*
X173068744Y-62305703D01*
X173062712Y-62312181D01*
X172927045Y-62447847D01*
X172802471Y-62619308D01*
X172706255Y-62808141D01*
X172640761Y-63009710D01*
X172615722Y-63167804D01*
X172607608Y-63219032D01*
X172607608Y-63279910D01*
X172607608Y-63430968D01*
X172611762Y-63457196D01*
X172636801Y-63615289D01*
X172640762Y-63640293D01*
X172706254Y-63841856D01*
X172802471Y-64030691D01*
X172927043Y-64202150D01*
X173076904Y-64352011D01*
X173248363Y-64476583D01*
X173437198Y-64572800D01*
X173638761Y-64638292D01*
X173848086Y-64671446D01*
X173848087Y-64671446D01*
X174060021Y-64671446D01*
X174060022Y-64671446D01*
X174269347Y-64638292D01*
X174470910Y-64572800D01*
X174659745Y-64476583D01*
X174831204Y-64352011D01*
X174937819Y-64245396D01*
X174999142Y-64211911D01*
X175068834Y-64216895D01*
X175124767Y-64258767D01*
X175149184Y-64324231D01*
X175149500Y-64333077D01*
X175149500Y-120722793D01*
X175139778Y-120755898D01*
X175129950Y-120789623D01*
X175129851Y-120789709D01*
X175129815Y-120789832D01*
X175103708Y-120812453D01*
X175077237Y-120835484D01*
X175077108Y-120835502D01*
X175077011Y-120835587D01*
X175042635Y-120840529D01*
X175008099Y-120845566D01*
X175007981Y-120845512D01*
X175007853Y-120845531D01*
X174976043Y-120831003D01*
X174944485Y-120816668D01*
X174944383Y-120816545D01*
X174944297Y-120816506D01*
X174921319Y-120790041D01*
X174916664Y-120782829D01*
X174916392Y-120781814D01*
X174850500Y-120667686D01*
X174827480Y-120644666D01*
X174820319Y-120633572D01*
X174814003Y-120612221D01*
X174803334Y-120592682D01*
X174800541Y-120566713D01*
X174800500Y-120566572D01*
X174800519Y-120566505D01*
X174800500Y-120566324D01*
X174800500Y-115780387D01*
X174800500Y-115780385D01*
X174776614Y-115691241D01*
X174765033Y-115671182D01*
X174730473Y-115611323D01*
X174730470Y-115611320D01*
X174730469Y-115611317D01*
X174665212Y-115546060D01*
X174459497Y-115340345D01*
X173828136Y-114708982D01*
X173794651Y-114647659D01*
X173799635Y-114577967D01*
X173841507Y-114522034D01*
X173855163Y-114514258D01*
X173929552Y-114464552D01*
X173939608Y-114449502D01*
X173973867Y-114398231D01*
X173973867Y-114398229D01*
X173973868Y-114398229D01*
X173985499Y-114339752D01*
X173985500Y-114339750D01*
X173985500Y-112600249D01*
X173985499Y-112600247D01*
X173973868Y-112541770D01*
X173973867Y-112541769D01*
X173929552Y-112475447D01*
X173863230Y-112431132D01*
X173863229Y-112431131D01*
X173804752Y-112419500D01*
X173804748Y-112419500D01*
X172065252Y-112419500D01*
X172065247Y-112419500D01*
X172006770Y-112431131D01*
X172006769Y-112431132D01*
X171940447Y-112475447D01*
X171896132Y-112541769D01*
X171896131Y-112541770D01*
X171884500Y-112600247D01*
X171884500Y-113354513D01*
X171864815Y-113421552D01*
X171812011Y-113467307D01*
X171742853Y-113477251D01*
X171679297Y-113448226D01*
X171672819Y-113442194D01*
X171070162Y-112839537D01*
X171070160Y-112839535D01*
X171010029Y-112804818D01*
X170995938Y-112796682D01*
X170954544Y-112785591D01*
X170913151Y-112774500D01*
X170913150Y-112774500D01*
X170569502Y-112774500D01*
X170502463Y-112754815D01*
X170456708Y-112702011D01*
X170446764Y-112632853D01*
X170475789Y-112569297D01*
X170481821Y-112562819D01*
X170504471Y-112540169D01*
X170554464Y-112490176D01*
X170620356Y-112376048D01*
X170654464Y-112248754D01*
X170654464Y-112116970D01*
X170620356Y-111989676D01*
X170554464Y-111875548D01*
X170461278Y-111782362D01*
X170404214Y-111749416D01*
X170347151Y-111716470D01*
X170283503Y-111699416D01*
X170219856Y-111682362D01*
X170088072Y-111682362D01*
X169960776Y-111716470D01*
X169846650Y-111782362D01*
X169846647Y-111782364D01*
X169753466Y-111875545D01*
X169753464Y-111875548D01*
X169692777Y-111980660D01*
X169642209Y-112028875D01*
X169573602Y-112042097D01*
X169523391Y-112026046D01*
X169493192Y-112008611D01*
X169493188Y-112008609D01*
X169493186Y-112008608D01*
X169365892Y-111974500D01*
X169234108Y-111974500D01*
X169106812Y-112008608D01*
X168992686Y-112074500D01*
X168992683Y-112074502D01*
X168899502Y-112167683D01*
X168899500Y-112167686D01*
X168833608Y-112281812D01*
X168808358Y-112376048D01*
X168799500Y-112409108D01*
X168799500Y-112540892D01*
X168805375Y-112562819D01*
X168820270Y-112618407D01*
X168818607Y-112688257D01*
X168779444Y-112746119D01*
X168715216Y-112773623D01*
X168700495Y-112774500D01*
X168361189Y-112774500D01*
X168331748Y-112765855D01*
X168301762Y-112759332D01*
X168296746Y-112755577D01*
X168294150Y-112754815D01*
X168273508Y-112738181D01*
X168136819Y-112601492D01*
X168103334Y-112540169D01*
X168100500Y-112513811D01*
X168100500Y-110732783D01*
X168094271Y-110709535D01*
X168078318Y-110649997D01*
X168035465Y-110575774D01*
X167499226Y-110039535D01*
X167462114Y-110018108D01*
X167425004Y-109996682D01*
X167383610Y-109985591D01*
X167342217Y-109974500D01*
X167342216Y-109974500D01*
X161624500Y-109974500D01*
X161557461Y-109954815D01*
X161511706Y-109902011D01*
X161500500Y-109850500D01*
X161500500Y-107524234D01*
X163032500Y-107524234D01*
X163032500Y-107675766D01*
X163038860Y-107699502D01*
X163071719Y-107822136D01*
X163109602Y-107887750D01*
X163147485Y-107953365D01*
X163254635Y-108060515D01*
X163385865Y-108136281D01*
X163532234Y-108175500D01*
X163532236Y-108175500D01*
X163683764Y-108175500D01*
X163683766Y-108175500D01*
X163830135Y-108136281D01*
X163961365Y-108060515D01*
X164068515Y-107953365D01*
X164144281Y-107822135D01*
X164183500Y-107675766D01*
X164183500Y-107524234D01*
X164144281Y-107377865D01*
X164068515Y-107246635D01*
X163961365Y-107139485D01*
X163895750Y-107101602D01*
X163830136Y-107063719D01*
X163747663Y-107041621D01*
X163683766Y-107024500D01*
X163532234Y-107024500D01*
X163385863Y-107063719D01*
X163254635Y-107139485D01*
X163254632Y-107139487D01*
X163147487Y-107246632D01*
X163147485Y-107246635D01*
X163071719Y-107377863D01*
X163034890Y-107515315D01*
X163032500Y-107524234D01*
X161500500Y-107524234D01*
X161500500Y-106684108D01*
X165834500Y-106684108D01*
X165834500Y-106815891D01*
X165868608Y-106943187D01*
X165901554Y-107000250D01*
X165934500Y-107057314D01*
X166027686Y-107150500D01*
X166141814Y-107216392D01*
X166269108Y-107250500D01*
X166269110Y-107250500D01*
X166400890Y-107250500D01*
X166400892Y-107250500D01*
X166528186Y-107216392D01*
X166642314Y-107150500D01*
X166735500Y-107057314D01*
X166735500Y-107057313D01*
X166735962Y-107056852D01*
X166755398Y-107046239D01*
X166772132Y-107031739D01*
X166785463Y-107029822D01*
X166797285Y-107023367D01*
X166819371Y-107024946D01*
X166841290Y-107021795D01*
X166853541Y-107027390D01*
X166866977Y-107028351D01*
X166884703Y-107041621D01*
X166904846Y-107050820D01*
X166912128Y-107062151D01*
X166922910Y-107070223D01*
X166930647Y-107090968D01*
X166942620Y-107109598D01*
X166945771Y-107131516D01*
X166947327Y-107135687D01*
X166947643Y-107144533D01*
X166947643Y-107294428D01*
X166927958Y-107361467D01*
X166911324Y-107382109D01*
X166872645Y-107420787D01*
X166872643Y-107420790D01*
X166806751Y-107534916D01*
X166772643Y-107662212D01*
X166772643Y-107793995D01*
X166806751Y-107921291D01*
X166839697Y-107978354D01*
X166872643Y-108035418D01*
X166965829Y-108128604D01*
X167079957Y-108194496D01*
X167207251Y-108228604D01*
X167207253Y-108228604D01*
X167339033Y-108228604D01*
X167339035Y-108228604D01*
X167466329Y-108194496D01*
X167580457Y-108128604D01*
X167673643Y-108035418D01*
X167739535Y-107921290D01*
X167773643Y-107793996D01*
X167773643Y-107662212D01*
X167746672Y-107561555D01*
X167743094Y-107548200D01*
X167743094Y-107548199D01*
X167739535Y-107534918D01*
X167733368Y-107524236D01*
X167733367Y-107524234D01*
X168812500Y-107524234D01*
X168812500Y-107675766D01*
X168818860Y-107699502D01*
X168851719Y-107822136D01*
X168889602Y-107887750D01*
X168927485Y-107953365D01*
X169034635Y-108060515D01*
X169165865Y-108136281D01*
X169312234Y-108175500D01*
X169312236Y-108175500D01*
X169463764Y-108175500D01*
X169463766Y-108175500D01*
X169610135Y-108136281D01*
X169741365Y-108060515D01*
X169848515Y-107953365D01*
X169924281Y-107822135D01*
X169963500Y-107675766D01*
X169963500Y-107524234D01*
X169924281Y-107377865D01*
X169848515Y-107246635D01*
X169741365Y-107139485D01*
X169675750Y-107101602D01*
X169610136Y-107063719D01*
X169527663Y-107041621D01*
X169463766Y-107024500D01*
X169312234Y-107024500D01*
X169165863Y-107063719D01*
X169034635Y-107139485D01*
X169034632Y-107139487D01*
X168927487Y-107246632D01*
X168927485Y-107246635D01*
X168851719Y-107377863D01*
X168814890Y-107515315D01*
X168812500Y-107524234D01*
X167733367Y-107524234D01*
X167673643Y-107420790D01*
X167634962Y-107382109D01*
X167601477Y-107320786D01*
X167598643Y-107294428D01*
X167598643Y-103798046D01*
X167618328Y-103731007D01*
X167634962Y-103710365D01*
X168833508Y-102511819D01*
X168894831Y-102478334D01*
X168921189Y-102475500D01*
X171801324Y-102475500D01*
X171868363Y-102495185D01*
X171889005Y-102511819D01*
X171927686Y-102550500D01*
X171994453Y-102589048D01*
X172040653Y-102615722D01*
X172041814Y-102616392D01*
X172169108Y-102650500D01*
X172169110Y-102650500D01*
X172300890Y-102650500D01*
X172300892Y-102650500D01*
X172428186Y-102616392D01*
X172542314Y-102550500D01*
X172635500Y-102457314D01*
X172701392Y-102343186D01*
X172735500Y-102215892D01*
X172735500Y-102084108D01*
X172701392Y-101956814D01*
X172635500Y-101842686D01*
X172542314Y-101749500D01*
X172476421Y-101711456D01*
X172428185Y-101683607D01*
X172396556Y-101675132D01*
X172336896Y-101638767D01*
X172306368Y-101575919D01*
X172314663Y-101506544D01*
X172359150Y-101452666D01*
X172396552Y-101435585D01*
X172468186Y-101416392D01*
X172582314Y-101350500D01*
X172675500Y-101257314D01*
X172741392Y-101143186D01*
X172775500Y-101015892D01*
X172775500Y-100884108D01*
X172741392Y-100756814D01*
X172675500Y-100642686D01*
X172582314Y-100549500D01*
X172525250Y-100516554D01*
X172468187Y-100483608D01*
X172404539Y-100466554D01*
X172340892Y-100449500D01*
X172209108Y-100449500D01*
X172081812Y-100483608D01*
X171967686Y-100549500D01*
X171967683Y-100549502D01*
X171929006Y-100588180D01*
X171868412Y-100621504D01*
X171855032Y-100624499D01*
X171782147Y-100624499D01*
X171699361Y-100646682D01*
X171663538Y-100667363D01*
X171645039Y-100671505D01*
X171632253Y-100670667D01*
X171617952Y-100674500D01*
X167235465Y-100674500D01*
X167235449Y-100674499D01*
X167227853Y-100674499D01*
X167142148Y-100674499D01*
X167072409Y-100693186D01*
X167072408Y-100693185D01*
X167059363Y-100696681D01*
X167059355Y-100696685D01*
X166985144Y-100739530D01*
X166985136Y-100739536D01*
X166074537Y-101650135D01*
X166074533Y-101650141D01*
X166031682Y-101724359D01*
X166029924Y-101730921D01*
X166024946Y-101749502D01*
X166009500Y-101807147D01*
X166009500Y-106316324D01*
X165989815Y-106383363D01*
X165973181Y-106404005D01*
X165934502Y-106442683D01*
X165934500Y-106442686D01*
X165868608Y-106556812D01*
X165834500Y-106684108D01*
X161500500Y-106684108D01*
X161500500Y-101160375D01*
X161500500Y-101142856D01*
X161500501Y-101142853D01*
X161500501Y-101057147D01*
X161478318Y-100974361D01*
X161477727Y-100973338D01*
X161476409Y-100962506D01*
X161477002Y-100958930D01*
X161475500Y-100947519D01*
X161475500Y-100834110D01*
X161475500Y-100834108D01*
X161441392Y-100706814D01*
X161375500Y-100592686D01*
X161282314Y-100499500D01*
X161195712Y-100449500D01*
X161168187Y-100433608D01*
X161104539Y-100416554D01*
X161040892Y-100399500D01*
X160909108Y-100399500D01*
X160781812Y-100433608D01*
X160667686Y-100499500D01*
X160667683Y-100499502D01*
X160574502Y-100592683D01*
X160574500Y-100592686D01*
X160508608Y-100706812D01*
X160482750Y-100803317D01*
X160474500Y-100834108D01*
X160474500Y-100965892D01*
X160476769Y-100974361D01*
X160508608Y-101093187D01*
X160537283Y-101142853D01*
X160574500Y-101207314D01*
X160667686Y-101300500D01*
X160781814Y-101366392D01*
X160781816Y-101366392D01*
X160787500Y-101369674D01*
X160835715Y-101420241D01*
X160849500Y-101477061D01*
X160849500Y-102669358D01*
X160842457Y-102693343D01*
X160839489Y-102718170D01*
X160832781Y-102726293D01*
X160829815Y-102736397D01*
X160810922Y-102752767D01*
X160795003Y-102772048D01*
X160784970Y-102775255D01*
X160777011Y-102782152D01*
X160752265Y-102785710D01*
X160728451Y-102793323D01*
X160712545Y-102791421D01*
X160707853Y-102792096D01*
X160693407Y-102789133D01*
X160599115Y-102763868D01*
X160543527Y-102731774D01*
X159936819Y-102125065D01*
X159903334Y-102063742D01*
X159900500Y-102037384D01*
X159900500Y-100733676D01*
X159920185Y-100666637D01*
X159936819Y-100645995D01*
X159940131Y-100642683D01*
X159975500Y-100607314D01*
X160041392Y-100493186D01*
X160075500Y-100365892D01*
X160075500Y-100234108D01*
X160041392Y-100106814D01*
X159975500Y-99992686D01*
X159882314Y-99899500D01*
X159825250Y-99866554D01*
X159768187Y-99833608D01*
X159660903Y-99804862D01*
X159640892Y-99799500D01*
X159509108Y-99799500D01*
X159430592Y-99820537D01*
X159405598Y-99819942D01*
X159380853Y-99823501D01*
X159371272Y-99819125D01*
X159360743Y-99818875D01*
X159340039Y-99804862D01*
X159317297Y-99794476D01*
X159311602Y-99785614D01*
X159302881Y-99779712D01*
X159293039Y-99756731D01*
X159279523Y-99735698D01*
X159277243Y-99719842D01*
X159275377Y-99715484D01*
X159274500Y-99700763D01*
X159274500Y-99459189D01*
X159294185Y-99392150D01*
X159346989Y-99346395D01*
X159416147Y-99336451D01*
X159479703Y-99365476D01*
X159486181Y-99371508D01*
X159576139Y-99461466D01*
X159650362Y-99504319D01*
X159733148Y-99526501D01*
X159733150Y-99526501D01*
X165674107Y-99526501D01*
X165741146Y-99546186D01*
X165786901Y-99598990D01*
X165796845Y-99668148D01*
X165767820Y-99731704D01*
X165761788Y-99738182D01*
X165361790Y-100138181D01*
X165300467Y-100171666D01*
X165274109Y-100174500D01*
X163408676Y-100174500D01*
X163341637Y-100154815D01*
X163320995Y-100138181D01*
X163282316Y-100099502D01*
X163282314Y-100099500D01*
X163225250Y-100066554D01*
X163168187Y-100033608D01*
X163104539Y-100016554D01*
X163040892Y-99999500D01*
X162909108Y-99999500D01*
X162781812Y-100033608D01*
X162667686Y-100099500D01*
X162667683Y-100099502D01*
X162574502Y-100192683D01*
X162574500Y-100192686D01*
X162508608Y-100306812D01*
X162492778Y-100365892D01*
X162474500Y-100434108D01*
X162474500Y-100565892D01*
X162501889Y-100668108D01*
X162508608Y-100693185D01*
X162508607Y-100693185D01*
X162510626Y-100696682D01*
X162574500Y-100807314D01*
X162667686Y-100900500D01*
X162781814Y-100966392D01*
X162909108Y-101000500D01*
X162909110Y-101000500D01*
X163040890Y-101000500D01*
X163040892Y-101000500D01*
X163168186Y-100966392D01*
X163282314Y-100900500D01*
X163320995Y-100861819D01*
X163382318Y-100828334D01*
X163408676Y-100825500D01*
X165503149Y-100825500D01*
X165503151Y-100825500D01*
X165585937Y-100803318D01*
X165660160Y-100760465D01*
X168590652Y-97829970D01*
X168590657Y-97829967D01*
X168600860Y-97819763D01*
X168600862Y-97819763D01*
X168661465Y-97759160D01*
X168704318Y-97684936D01*
X168709287Y-97666392D01*
X168726501Y-97602151D01*
X168726501Y-97516445D01*
X168726500Y-97516441D01*
X168726500Y-69297849D01*
X168704318Y-69215064D01*
X168704318Y-69215063D01*
X168661465Y-69140840D01*
X165635160Y-66114535D01*
X165598048Y-66093108D01*
X165560938Y-66071682D01*
X165519544Y-66060591D01*
X165478151Y-66049500D01*
X165478150Y-66049500D01*
X161899437Y-66049500D01*
X161832398Y-66029815D01*
X161786643Y-65977011D01*
X161776498Y-65941690D01*
X161775500Y-65934114D01*
X161775500Y-65934108D01*
X161741392Y-65806814D01*
X161684749Y-65708706D01*
X161668277Y-65640809D01*
X161691129Y-65574782D01*
X161742335Y-65534021D01*
X161742224Y-65533814D01*
X161743357Y-65533208D01*
X161744694Y-65532143D01*
X161747598Y-65530941D01*
X161919655Y-65415977D01*
X162065977Y-65269655D01*
X162180941Y-65097598D01*
X162260130Y-64906420D01*
X162300500Y-64703465D01*
X162300500Y-64496535D01*
X162260130Y-64293580D01*
X162180941Y-64102402D01*
X162065977Y-63930345D01*
X162065975Y-63930342D01*
X161919657Y-63784024D01*
X161751655Y-63671770D01*
X161747598Y-63669059D01*
X161678141Y-63640289D01*
X161556420Y-63589870D01*
X161556412Y-63589868D01*
X161353469Y-63549500D01*
X161353465Y-63549500D01*
X161146535Y-63549500D01*
X161146530Y-63549500D01*
X160943587Y-63589868D01*
X160943579Y-63589870D01*
X160752403Y-63669058D01*
X160580342Y-63784024D01*
X160434024Y-63930342D01*
X160319058Y-64102403D01*
X160239870Y-64293579D01*
X160239868Y-64293587D01*
X160199500Y-64496530D01*
X160199500Y-64703469D01*
X160239868Y-64906412D01*
X160239870Y-64906420D01*
X160319058Y-65097596D01*
X160434024Y-65269657D01*
X160580342Y-65415975D01*
X160580345Y-65415977D01*
X160752402Y-65530941D01*
X160770740Y-65538537D01*
X160795664Y-65548861D01*
X160850068Y-65592701D01*
X160872133Y-65658995D01*
X160855599Y-65725422D01*
X160808609Y-65806810D01*
X160808609Y-65806811D01*
X160808609Y-65806812D01*
X160808608Y-65806814D01*
X160774500Y-65934108D01*
X160774500Y-66065892D01*
X160781199Y-66090892D01*
X160808608Y-66193187D01*
X160823042Y-66218187D01*
X160874500Y-66307314D01*
X160967686Y-66400500D01*
X161081814Y-66466392D01*
X161209108Y-66500500D01*
X161263811Y-66500500D01*
X161330850Y-66520185D01*
X161351492Y-66536819D01*
X161450138Y-66635465D01*
X161524361Y-66678318D01*
X161607147Y-66700500D01*
X162716276Y-66700500D01*
X162783315Y-66720185D01*
X162829070Y-66772989D01*
X162839014Y-66842147D01*
X162817756Y-66892612D01*
X162818599Y-66893099D01*
X162814726Y-66899807D01*
X162814649Y-66899990D01*
X162814533Y-66900140D01*
X162771681Y-66974361D01*
X162771682Y-66974362D01*
X162749500Y-67057147D01*
X162749500Y-80813811D01*
X162729815Y-80880850D01*
X162713181Y-80901492D01*
X160914537Y-82700135D01*
X160914533Y-82700141D01*
X160871681Y-82774361D01*
X160871682Y-82774362D01*
X160849500Y-82857147D01*
X160849500Y-86113811D01*
X160829815Y-86180850D01*
X160813181Y-86201492D01*
X160576492Y-86438181D01*
X160515169Y-86471666D01*
X160488811Y-86474500D01*
X157616676Y-86474500D01*
X157549637Y-86454815D01*
X157528995Y-86438181D01*
X157490316Y-86399502D01*
X157490314Y-86399500D01*
X157392199Y-86342853D01*
X157376187Y-86333608D01*
X157312539Y-86316554D01*
X157248892Y-86299500D01*
X157117108Y-86299500D01*
X156989812Y-86333608D01*
X156875686Y-86399500D01*
X156875683Y-86399502D01*
X156782502Y-86492683D01*
X156782500Y-86492686D01*
X156716608Y-86606812D01*
X156709294Y-86634110D01*
X156682500Y-86734108D01*
X156682500Y-86865892D01*
X156689813Y-86893186D01*
X156716608Y-86993187D01*
X156745540Y-87043297D01*
X156782500Y-87107314D01*
X156875686Y-87200500D01*
X156989814Y-87266392D01*
X157117108Y-87300500D01*
X157117110Y-87300500D01*
X157248890Y-87300500D01*
X157248892Y-87300500D01*
X157376186Y-87266392D01*
X157490314Y-87200500D01*
X157528995Y-87161819D01*
X157590318Y-87128334D01*
X157616676Y-87125500D01*
X159104513Y-87125500D01*
X159171552Y-87145185D01*
X159217307Y-87197989D01*
X159227251Y-87267147D01*
X159198226Y-87330703D01*
X159192194Y-87337181D01*
X158714537Y-87814837D01*
X158714535Y-87814840D01*
X158673183Y-87886464D01*
X158671682Y-87889063D01*
X158660896Y-87929318D01*
X158660896Y-87929319D01*
X158660895Y-87929318D01*
X158649500Y-87971847D01*
X158649500Y-88325010D01*
X158629815Y-88392049D01*
X158587502Y-88432396D01*
X158575141Y-88439532D01*
X158575136Y-88439536D01*
X158276492Y-88738181D01*
X158215169Y-88771666D01*
X158188811Y-88774500D01*
X157340167Y-88774500D01*
X157340151Y-88774499D01*
X157332555Y-88774499D01*
X157246849Y-88774499D01*
X157213735Y-88783372D01*
X157164061Y-88796682D01*
X157164060Y-88796683D01*
X157089843Y-88839532D01*
X157089838Y-88839536D01*
X157029235Y-88900140D01*
X156715048Y-89214326D01*
X156666195Y-89263180D01*
X156604872Y-89296666D01*
X156578513Y-89299500D01*
X156509108Y-89299500D01*
X156381814Y-89333608D01*
X156381813Y-89333608D01*
X156381811Y-89333609D01*
X156381810Y-89333609D01*
X156286500Y-89388637D01*
X156218600Y-89405110D01*
X156152573Y-89382257D01*
X156109382Y-89327336D01*
X156100500Y-89281250D01*
X156100500Y-73452855D01*
X156100501Y-73452842D01*
X156100501Y-73357148D01*
X156100501Y-73357147D01*
X156078318Y-73274361D01*
X156056891Y-73237250D01*
X156035465Y-73200138D01*
X155974862Y-73139535D01*
X155974860Y-73139533D01*
X155774862Y-72939535D01*
X155737750Y-72918108D01*
X155700640Y-72896682D01*
X155659246Y-72885591D01*
X155617853Y-72874500D01*
X155617852Y-72874500D01*
X153561189Y-72874500D01*
X153494150Y-72854815D01*
X153473508Y-72838181D01*
X153189292Y-72553965D01*
X153155807Y-72492642D01*
X153157198Y-72434193D01*
X153175500Y-72365892D01*
X153175500Y-72234108D01*
X153141392Y-72106814D01*
X153075500Y-71992686D01*
X152982314Y-71899500D01*
X152925250Y-71866554D01*
X152868187Y-71833608D01*
X152804539Y-71816554D01*
X152740892Y-71799500D01*
X152609108Y-71799500D01*
X152481812Y-71833608D01*
X152367686Y-71899500D01*
X152367683Y-71899502D01*
X152274502Y-71992683D01*
X152274500Y-71992686D01*
X152208608Y-72106812D01*
X152189938Y-72176492D01*
X152174500Y-72234108D01*
X152174500Y-72365892D01*
X152183810Y-72400639D01*
X152208608Y-72493187D01*
X152213321Y-72501350D01*
X152274500Y-72607314D01*
X152367686Y-72700500D01*
X152367687Y-72700501D01*
X152367689Y-72700502D01*
X152465904Y-72757206D01*
X152491585Y-72776912D01*
X152714535Y-72999862D01*
X153114534Y-73399861D01*
X153114535Y-73399862D01*
X153175138Y-73460465D01*
X153175140Y-73460466D01*
X153175144Y-73460469D01*
X153249355Y-73503314D01*
X153249362Y-73503318D01*
X153332147Y-73525500D01*
X153417852Y-73525500D01*
X155232147Y-73525500D01*
X155325500Y-73525500D01*
X155392539Y-73545185D01*
X155438294Y-73597989D01*
X155449500Y-73649500D01*
X155449500Y-78298520D01*
X155429815Y-78365559D01*
X155377011Y-78411314D01*
X155307853Y-78421258D01*
X155244297Y-78392233D01*
X155206523Y-78333455D01*
X155205725Y-78330614D01*
X155204318Y-78325363D01*
X155204318Y-78325361D01*
X155188821Y-78298520D01*
X155161465Y-78251138D01*
X149086819Y-72176492D01*
X149053334Y-72115169D01*
X149050500Y-72088811D01*
X149050500Y-67136189D01*
X149059144Y-67106748D01*
X149065668Y-67076762D01*
X149069422Y-67071746D01*
X149070185Y-67069150D01*
X149086819Y-67048508D01*
X149173508Y-66961819D01*
X149234831Y-66928334D01*
X149261189Y-66925500D01*
X149315890Y-66925500D01*
X149315892Y-66925500D01*
X149443186Y-66891392D01*
X149557314Y-66825500D01*
X149650500Y-66732314D01*
X149716392Y-66618186D01*
X149750500Y-66490892D01*
X149750500Y-66359108D01*
X149729462Y-66280592D01*
X149731125Y-66210743D01*
X149770288Y-66152881D01*
X149834516Y-66125377D01*
X149849237Y-66124500D01*
X154762811Y-66124500D01*
X154829850Y-66144185D01*
X154850492Y-66160819D01*
X155363181Y-66673508D01*
X155396666Y-66734831D01*
X155399500Y-66761189D01*
X155399500Y-66815892D01*
X155403228Y-66829805D01*
X155433608Y-66943187D01*
X155466554Y-67000250D01*
X155499500Y-67057314D01*
X155592686Y-67150500D01*
X155706814Y-67216392D01*
X155834108Y-67250500D01*
X155834110Y-67250500D01*
X155965890Y-67250500D01*
X155965892Y-67250500D01*
X156093186Y-67216392D01*
X156207314Y-67150500D01*
X156300500Y-67057314D01*
X156366392Y-66943186D01*
X156400500Y-66815892D01*
X156400500Y-66684108D01*
X156366392Y-66556814D01*
X156300500Y-66442686D01*
X156207314Y-66349500D01*
X156150250Y-66316554D01*
X156093187Y-66283608D01*
X156029539Y-66266554D01*
X155965892Y-66249500D01*
X155965891Y-66249500D01*
X155911189Y-66249500D01*
X155844150Y-66229815D01*
X155823508Y-66213181D01*
X155148864Y-65538537D01*
X155148862Y-65538535D01*
X155111750Y-65517108D01*
X155074640Y-65495682D01*
X155033246Y-65484591D01*
X154991853Y-65473500D01*
X154991852Y-65473500D01*
X152264500Y-65473500D01*
X152197461Y-65453815D01*
X152151706Y-65401011D01*
X152140500Y-65349500D01*
X152140500Y-64496530D01*
X155119500Y-64496530D01*
X155119500Y-64703469D01*
X155159868Y-64906412D01*
X155159870Y-64906420D01*
X155239058Y-65097596D01*
X155354024Y-65269657D01*
X155500342Y-65415975D01*
X155500345Y-65415977D01*
X155672402Y-65530941D01*
X155863580Y-65610130D01*
X156017815Y-65640809D01*
X156066530Y-65650499D01*
X156066534Y-65650500D01*
X156066535Y-65650500D01*
X156273466Y-65650500D01*
X156273467Y-65650499D01*
X156476420Y-65610130D01*
X156667598Y-65530941D01*
X156839655Y-65415977D01*
X156985977Y-65269655D01*
X157100941Y-65097598D01*
X157180130Y-64906420D01*
X157220500Y-64703465D01*
X157220500Y-64496535D01*
X157220499Y-64496530D01*
X157659500Y-64496530D01*
X157659500Y-64703469D01*
X157699868Y-64906412D01*
X157699870Y-64906420D01*
X157779058Y-65097596D01*
X157894024Y-65269657D01*
X158040342Y-65415975D01*
X158040345Y-65415977D01*
X158212402Y-65530941D01*
X158403580Y-65610130D01*
X158557815Y-65640809D01*
X158606530Y-65650499D01*
X158606534Y-65650500D01*
X158606535Y-65650500D01*
X158813466Y-65650500D01*
X158813467Y-65650499D01*
X159016420Y-65610130D01*
X159207598Y-65530941D01*
X159379655Y-65415977D01*
X159525977Y-65269655D01*
X159640941Y-65097598D01*
X159720130Y-64906420D01*
X159760500Y-64703465D01*
X159760500Y-64496535D01*
X159720130Y-64293580D01*
X159640941Y-64102402D01*
X159525977Y-63930345D01*
X159525975Y-63930342D01*
X159379657Y-63784024D01*
X159211655Y-63671770D01*
X159207598Y-63669059D01*
X159138141Y-63640289D01*
X159016420Y-63589870D01*
X159016412Y-63589868D01*
X158813469Y-63549500D01*
X158813465Y-63549500D01*
X158606535Y-63549500D01*
X158606530Y-63549500D01*
X158403587Y-63589868D01*
X158403579Y-63589870D01*
X158212403Y-63669058D01*
X158040342Y-63784024D01*
X157894024Y-63930342D01*
X157779058Y-64102403D01*
X157699870Y-64293579D01*
X157699868Y-64293587D01*
X157659500Y-64496530D01*
X157220499Y-64496530D01*
X157180130Y-64293580D01*
X157100941Y-64102402D01*
X156985977Y-63930345D01*
X156985975Y-63930342D01*
X156839657Y-63784024D01*
X156671655Y-63671770D01*
X156667598Y-63669059D01*
X156598141Y-63640289D01*
X156476420Y-63589870D01*
X156476412Y-63589868D01*
X156273469Y-63549500D01*
X156273465Y-63549500D01*
X156066535Y-63549500D01*
X156066530Y-63549500D01*
X155863587Y-63589868D01*
X155863579Y-63589870D01*
X155672403Y-63669058D01*
X155500342Y-63784024D01*
X155354024Y-63930342D01*
X155239058Y-64102403D01*
X155159870Y-64293579D01*
X155159868Y-64293587D01*
X155119500Y-64496530D01*
X152140500Y-64496530D01*
X152140500Y-63730249D01*
X152140499Y-63730247D01*
X152128868Y-63671770D01*
X152128867Y-63671769D01*
X152084552Y-63605447D01*
X152018230Y-63561132D01*
X152018229Y-63561131D01*
X151959752Y-63549500D01*
X151959748Y-63549500D01*
X150220252Y-63549500D01*
X150220247Y-63549500D01*
X150161770Y-63561131D01*
X150161769Y-63561132D01*
X150095447Y-63605447D01*
X150051132Y-63671769D01*
X150051131Y-63671770D01*
X150039500Y-63730247D01*
X150039500Y-65349500D01*
X150019815Y-65416539D01*
X149967011Y-65462294D01*
X149915500Y-65473500D01*
X148947849Y-65473500D01*
X148865061Y-65495682D01*
X148790840Y-65538535D01*
X148790837Y-65538537D01*
X146588537Y-67740837D01*
X146588535Y-67740840D01*
X146545680Y-67815065D01*
X146533517Y-67860463D01*
X146523500Y-67897847D01*
X146523500Y-67897849D01*
X146523500Y-88281147D01*
X146523500Y-88366853D01*
X146534591Y-88408246D01*
X146545682Y-88449640D01*
X146560037Y-88474502D01*
X146588535Y-88523862D01*
X146588537Y-88523864D01*
X147613181Y-89548508D01*
X147646666Y-89609831D01*
X147649500Y-89636189D01*
X147649500Y-89690892D01*
X147662976Y-89741185D01*
X147683608Y-89818187D01*
X147697614Y-89842445D01*
X147749500Y-89932314D01*
X147842686Y-90025500D01*
X147956814Y-90091392D01*
X148084108Y-90125500D01*
X148084110Y-90125500D01*
X148215890Y-90125500D01*
X148215892Y-90125500D01*
X148343186Y-90091392D01*
X148457314Y-90025500D01*
X148550500Y-89932314D01*
X148616392Y-89818186D01*
X148650500Y-89690892D01*
X148650500Y-89559108D01*
X148616392Y-89431814D01*
X148550500Y-89317686D01*
X148457314Y-89224500D01*
X148400250Y-89191554D01*
X148343187Y-89158608D01*
X148279539Y-89141554D01*
X148215892Y-89124500D01*
X148215891Y-89124500D01*
X148161189Y-89124500D01*
X148094150Y-89104815D01*
X148073508Y-89088181D01*
X147210819Y-88225492D01*
X147177334Y-88164169D01*
X147174500Y-88137811D01*
X147174500Y-87299236D01*
X147194185Y-87232197D01*
X147246989Y-87186442D01*
X147316147Y-87176498D01*
X147330571Y-87179456D01*
X147409108Y-87200500D01*
X147409111Y-87200500D01*
X147540890Y-87200500D01*
X147540892Y-87200500D01*
X147668186Y-87166392D01*
X147782314Y-87100500D01*
X147875500Y-87007314D01*
X147941392Y-86893186D01*
X147975500Y-86765892D01*
X147975500Y-86634108D01*
X147941392Y-86506814D01*
X147939678Y-86503846D01*
X147910950Y-86454087D01*
X147875500Y-86392686D01*
X147861819Y-86379005D01*
X147828334Y-86317682D01*
X147825500Y-86291324D01*
X147825500Y-82296544D01*
X147834144Y-82267103D01*
X147840668Y-82237117D01*
X147844422Y-82232101D01*
X147845185Y-82229505D01*
X147861819Y-82208863D01*
X147883863Y-82186819D01*
X147945186Y-82153334D01*
X147971544Y-82150500D01*
X150751438Y-82150500D01*
X150818477Y-82170185D01*
X150839119Y-82186819D01*
X150920594Y-82268294D01*
X151034722Y-82334186D01*
X151162016Y-82368294D01*
X151162018Y-82368294D01*
X151293798Y-82368294D01*
X151293800Y-82368294D01*
X151421094Y-82334186D01*
X151535222Y-82268294D01*
X151628408Y-82175108D01*
X151694300Y-82060980D01*
X151728408Y-81933686D01*
X151728408Y-81801902D01*
X151694300Y-81674608D01*
X151628408Y-81560480D01*
X151535222Y-81467294D01*
X151478158Y-81434348D01*
X151421095Y-81401402D01*
X151357447Y-81384348D01*
X151293800Y-81367294D01*
X151162016Y-81367294D01*
X151034722Y-81401402D01*
X151034719Y-81401403D01*
X150980188Y-81432887D01*
X150918188Y-81449500D01*
X147728856Y-81449500D01*
X147639712Y-81473386D01*
X147639709Y-81473387D01*
X147559791Y-81519527D01*
X147559786Y-81519531D01*
X147386181Y-81693137D01*
X147324858Y-81726622D01*
X147255166Y-81721638D01*
X147199233Y-81679766D01*
X147174816Y-81614302D01*
X147174500Y-81605456D01*
X147174500Y-68126890D01*
X147194185Y-68059851D01*
X147210814Y-68039214D01*
X148187819Y-67062208D01*
X148249142Y-67028724D01*
X148318834Y-67033708D01*
X148374767Y-67075580D01*
X148399184Y-67141044D01*
X148399500Y-67149890D01*
X148399500Y-72317852D01*
X148421682Y-72400640D01*
X148441052Y-72434189D01*
X148464535Y-72474862D01*
X148464537Y-72474864D01*
X154539181Y-78549508D01*
X154572666Y-78610831D01*
X154575500Y-78637189D01*
X154575500Y-86400763D01*
X154569638Y-86420725D01*
X154568615Y-86441507D01*
X154559992Y-86453574D01*
X154555815Y-86467802D01*
X154540093Y-86481424D01*
X154527996Y-86498356D01*
X154514217Y-86503846D01*
X154503011Y-86513557D01*
X154482417Y-86516518D01*
X154463089Y-86524220D01*
X154441505Y-86522400D01*
X154433853Y-86523501D01*
X154427838Y-86522484D01*
X154423583Y-86521657D01*
X154340892Y-86499500D01*
X154309605Y-86499500D01*
X154297881Y-86497221D01*
X154277030Y-86486429D01*
X154254504Y-86479815D01*
X154237006Y-86465714D01*
X154235830Y-86465106D01*
X154235466Y-86464473D01*
X154233862Y-86463181D01*
X152957931Y-85187250D01*
X151665212Y-83894530D01*
X151665211Y-83894529D01*
X151665208Y-83894527D01*
X151585290Y-83848387D01*
X151585289Y-83848386D01*
X151585288Y-83848386D01*
X151496144Y-83824500D01*
X151496143Y-83824500D01*
X151264563Y-83824500D01*
X151197524Y-83804815D01*
X151176882Y-83788181D01*
X151163203Y-83774502D01*
X151163201Y-83774500D01*
X151106137Y-83741554D01*
X151049074Y-83708608D01*
X150985426Y-83691554D01*
X150921779Y-83674500D01*
X150789995Y-83674500D01*
X150662699Y-83708608D01*
X150548573Y-83774500D01*
X150548570Y-83774502D01*
X150455389Y-83867683D01*
X150455387Y-83867686D01*
X150389495Y-83981812D01*
X150355387Y-84109108D01*
X150355387Y-84240891D01*
X150389495Y-84368187D01*
X150422441Y-84425250D01*
X150455387Y-84482314D01*
X150548573Y-84575500D01*
X150662701Y-84641392D01*
X150789995Y-84675500D01*
X150789997Y-84675500D01*
X150921777Y-84675500D01*
X150921779Y-84675500D01*
X151049073Y-84641392D01*
X151163201Y-84575500D01*
X151171327Y-84567373D01*
X151232647Y-84533888D01*
X151302338Y-84538870D01*
X151346690Y-84567372D01*
X153738181Y-86958862D01*
X153771666Y-87020185D01*
X153772221Y-87022881D01*
X153774500Y-87034604D01*
X153774500Y-87065892D01*
X153796657Y-87148583D01*
X153797484Y-87152838D01*
X153794607Y-87183478D01*
X153793875Y-87214257D01*
X153791371Y-87217956D01*
X153790954Y-87222402D01*
X153771964Y-87246628D01*
X153754712Y-87272119D01*
X153750607Y-87273876D01*
X153747852Y-87277392D01*
X153718779Y-87287506D01*
X153690484Y-87299623D01*
X153682600Y-87300092D01*
X153681861Y-87300350D01*
X153681151Y-87300178D01*
X153675763Y-87300500D01*
X153424500Y-87300500D01*
X153357461Y-87280815D01*
X153311706Y-87228011D01*
X153300500Y-87176500D01*
X153300500Y-87134110D01*
X153300500Y-87134108D01*
X153266392Y-87006814D01*
X153200500Y-86892686D01*
X153107314Y-86799500D01*
X153049100Y-86765890D01*
X152993187Y-86733608D01*
X152929539Y-86716554D01*
X152865892Y-86699500D01*
X152734108Y-86699500D01*
X152606812Y-86733608D01*
X152492686Y-86799500D01*
X152492683Y-86799502D01*
X152399502Y-86892683D01*
X152399500Y-86892686D01*
X152333608Y-87006812D01*
X152319232Y-87060465D01*
X152299500Y-87134108D01*
X152299500Y-87265892D01*
X152316554Y-87329539D01*
X152333608Y-87393187D01*
X152366554Y-87450250D01*
X152399500Y-87507314D01*
X152492686Y-87600500D01*
X152606814Y-87666392D01*
X152734108Y-87700500D01*
X152788811Y-87700500D01*
X152855850Y-87720185D01*
X152876492Y-87736819D01*
X153026138Y-87886465D01*
X153100361Y-87929318D01*
X153183147Y-87951500D01*
X153183149Y-87951500D01*
X154577149Y-87951500D01*
X154577151Y-87951500D01*
X154659937Y-87929318D01*
X154734160Y-87886465D01*
X155161465Y-87459160D01*
X155204318Y-87384937D01*
X155205725Y-87379684D01*
X155242089Y-87320024D01*
X155304935Y-87289494D01*
X155374311Y-87297788D01*
X155428189Y-87342273D01*
X155449465Y-87408824D01*
X155449500Y-87411777D01*
X155449500Y-89757147D01*
X155449500Y-89842445D01*
X155449500Y-89928151D01*
X155450616Y-89932316D01*
X155471682Y-90010938D01*
X155480088Y-90025497D01*
X155514535Y-90085160D01*
X155514537Y-90085162D01*
X157243800Y-91814425D01*
X157277285Y-91875748D01*
X157272301Y-91945440D01*
X157230429Y-92001373D01*
X157218120Y-92009493D01*
X157193450Y-92023736D01*
X157193447Y-92023738D01*
X157100266Y-92116919D01*
X157100264Y-92116922D01*
X157034372Y-92231048D01*
X157000264Y-92358344D01*
X157000264Y-92413047D01*
X156980579Y-92480086D01*
X156963945Y-92500728D01*
X156676492Y-92788181D01*
X156615169Y-92821666D01*
X156588811Y-92824500D01*
X153236189Y-92824500D01*
X153169150Y-92804815D01*
X153148508Y-92788181D01*
X150011819Y-89651492D01*
X149978334Y-89590169D01*
X149975500Y-89563811D01*
X149975500Y-89509110D01*
X149975500Y-89509108D01*
X149941392Y-89381814D01*
X149875500Y-89267686D01*
X149782314Y-89174500D01*
X149695712Y-89124500D01*
X149668187Y-89108608D01*
X149604539Y-89091554D01*
X149540892Y-89074500D01*
X149409108Y-89074500D01*
X149281812Y-89108608D01*
X149167686Y-89174500D01*
X149167683Y-89174502D01*
X149074502Y-89267683D01*
X149074500Y-89267686D01*
X149008608Y-89381812D01*
X148974500Y-89509108D01*
X148974500Y-89640891D01*
X149008608Y-89768187D01*
X149031200Y-89807316D01*
X149074500Y-89882314D01*
X149167686Y-89975500D01*
X149281814Y-90041392D01*
X149409108Y-90075500D01*
X149463811Y-90075500D01*
X149530850Y-90095185D01*
X149551492Y-90111819D01*
X150709461Y-91269788D01*
X150742946Y-91331111D01*
X150737962Y-91400803D01*
X150696090Y-91456736D01*
X150635078Y-91479492D01*
X150635199Y-91480408D01*
X150631218Y-91480932D01*
X150630626Y-91481153D01*
X150629136Y-91481206D01*
X150627139Y-91481469D01*
X150499843Y-91515577D01*
X150385717Y-91581469D01*
X150385714Y-91581471D01*
X150292533Y-91674652D01*
X150292531Y-91674655D01*
X150226639Y-91788781D01*
X150192531Y-91916077D01*
X150192531Y-92047862D01*
X150210831Y-92116160D01*
X150210545Y-92128158D01*
X150214740Y-92139404D01*
X150209729Y-92162439D01*
X150209168Y-92186009D01*
X150202068Y-92197655D01*
X150199889Y-92207677D01*
X150178738Y-92235932D01*
X150100299Y-92314373D01*
X150038977Y-92347859D01*
X150012617Y-92350693D01*
X146809329Y-92350693D01*
X146742290Y-92331008D01*
X146721648Y-92314374D01*
X146682969Y-92275695D01*
X146682967Y-92275693D01*
X146614099Y-92235932D01*
X146568840Y-92209801D01*
X146480045Y-92186009D01*
X146441545Y-92175693D01*
X146309761Y-92175693D01*
X146182465Y-92209801D01*
X146068339Y-92275693D01*
X146068336Y-92275695D01*
X145975155Y-92368876D01*
X145975153Y-92368879D01*
X145909261Y-92483005D01*
X145875153Y-92610301D01*
X145875153Y-92742084D01*
X145909261Y-92869380D01*
X145961227Y-92959387D01*
X145975153Y-92983507D01*
X146068339Y-93076693D01*
X146182467Y-93142585D01*
X146309761Y-93176693D01*
X146309763Y-93176693D01*
X146441543Y-93176693D01*
X146441545Y-93176693D01*
X146568839Y-93142585D01*
X146682967Y-93076693D01*
X146721648Y-93038012D01*
X146782971Y-93004527D01*
X146809329Y-93001693D01*
X150026971Y-93001693D01*
X150059063Y-93005918D01*
X150093284Y-93015087D01*
X150132147Y-93025500D01*
X150132149Y-93025500D01*
X150217851Y-93025500D01*
X150217853Y-93025500D01*
X150300639Y-93003318D01*
X150334952Y-92983507D01*
X150374862Y-92960465D01*
X150876449Y-92458876D01*
X150902123Y-92439176D01*
X151000345Y-92382469D01*
X151093531Y-92289283D01*
X151159423Y-92175155D01*
X151193531Y-92047861D01*
X151193531Y-92047852D01*
X151194592Y-92039801D01*
X151197364Y-92040165D01*
X151213216Y-91986181D01*
X151266020Y-91940426D01*
X151335178Y-91930482D01*
X151398734Y-91959507D01*
X151405212Y-91965539D01*
X152789534Y-93349861D01*
X152789535Y-93349862D01*
X152850138Y-93410465D01*
X152850140Y-93410466D01*
X152850144Y-93410469D01*
X152924355Y-93453314D01*
X152924362Y-93453318D01*
X153007147Y-93475500D01*
X153007149Y-93475500D01*
X156817851Y-93475500D01*
X156817853Y-93475500D01*
X156900639Y-93453318D01*
X156974862Y-93410465D01*
X157424272Y-92961055D01*
X157485595Y-92927570D01*
X157511953Y-92924736D01*
X157566654Y-92924736D01*
X157566656Y-92924736D01*
X157693950Y-92890628D01*
X157808078Y-92824736D01*
X157901264Y-92731550D01*
X157915507Y-92706879D01*
X157966070Y-92658666D01*
X158034676Y-92645441D01*
X158099542Y-92671407D01*
X158110574Y-92681199D01*
X158481887Y-93052512D01*
X158515372Y-93113835D01*
X158510388Y-93183527D01*
X158481887Y-93227874D01*
X158443258Y-93266502D01*
X158443256Y-93266505D01*
X158377364Y-93380631D01*
X158357888Y-93453318D01*
X158343256Y-93507927D01*
X158343256Y-93639711D01*
X158353838Y-93679205D01*
X158377364Y-93767006D01*
X158400392Y-93806890D01*
X158432887Y-93863174D01*
X158449500Y-93925173D01*
X158449500Y-98079376D01*
X158429815Y-98146415D01*
X158377011Y-98192170D01*
X158325500Y-98203376D01*
X152401934Y-98203376D01*
X152399270Y-98203347D01*
X152384300Y-98203025D01*
X152371144Y-98199500D01*
X152220230Y-98199500D01*
X152218880Y-98199471D01*
X152186796Y-98189296D01*
X152154505Y-98179815D01*
X152152953Y-98178564D01*
X152152279Y-98178351D01*
X152151453Y-98177356D01*
X152133863Y-98163181D01*
X152036819Y-98066137D01*
X152003334Y-98004814D01*
X152000500Y-97978456D01*
X152000500Y-97735865D01*
X152001500Y-97720606D01*
X152001500Y-96129858D01*
X152001500Y-96129856D01*
X151977614Y-96040712D01*
X151949139Y-95991392D01*
X151931470Y-95960788D01*
X151536819Y-95566137D01*
X151503334Y-95504814D01*
X151500500Y-95478456D01*
X151500500Y-95459110D01*
X151500500Y-95459108D01*
X151466392Y-95331814D01*
X151400500Y-95217686D01*
X151307314Y-95124500D01*
X151205946Y-95065975D01*
X151157731Y-95015408D01*
X151144509Y-94946800D01*
X151160561Y-94896587D01*
X151191389Y-94843191D01*
X151191388Y-94843191D01*
X151191392Y-94843186D01*
X151225500Y-94715892D01*
X151225500Y-94584108D01*
X151191392Y-94456814D01*
X151125500Y-94342686D01*
X151053973Y-94271159D01*
X151020488Y-94209836D01*
X151025472Y-94140144D01*
X151053976Y-94095794D01*
X151057436Y-94092335D01*
X151123328Y-93978207D01*
X151157436Y-93850913D01*
X151157436Y-93719129D01*
X151123328Y-93591835D01*
X151057436Y-93477707D01*
X150964250Y-93384521D01*
X150904217Y-93349861D01*
X150850123Y-93318629D01*
X150782452Y-93300497D01*
X150722828Y-93284521D01*
X150591044Y-93284521D01*
X150463748Y-93318629D01*
X150349622Y-93384521D01*
X150349619Y-93384523D01*
X150256438Y-93477704D01*
X150256436Y-93477707D01*
X150190544Y-93591833D01*
X150156436Y-93719129D01*
X150156436Y-93773832D01*
X150136751Y-93840871D01*
X150120117Y-93861513D01*
X149558279Y-94423351D01*
X149496956Y-94456836D01*
X149470598Y-94459670D01*
X148582105Y-94459670D01*
X148515066Y-94439985D01*
X148469311Y-94387181D01*
X148459367Y-94318023D01*
X148474716Y-94273672D01*
X148528969Y-94179705D01*
X148563077Y-94052411D01*
X148563077Y-93920627D01*
X148528969Y-93793333D01*
X148463077Y-93679205D01*
X148369891Y-93586019D01*
X148300568Y-93545995D01*
X148255764Y-93520127D01*
X148179901Y-93499800D01*
X148128469Y-93486019D01*
X147996685Y-93486019D01*
X147869389Y-93520127D01*
X147755259Y-93586021D01*
X147749010Y-93590817D01*
X147683841Y-93616012D01*
X147673523Y-93616442D01*
X146203131Y-93616442D01*
X146136092Y-93596757D01*
X146115450Y-93580123D01*
X144674864Y-92139537D01*
X144674862Y-92139535D01*
X144634376Y-92116160D01*
X144600640Y-92096682D01*
X144559246Y-92085591D01*
X144517853Y-92074500D01*
X144517852Y-92074500D01*
X144158678Y-92074500D01*
X144091639Y-92054815D01*
X144070997Y-92038181D01*
X144032318Y-91999502D01*
X144032316Y-91999500D01*
X143931016Y-91941014D01*
X143918189Y-91933608D01*
X143852761Y-91916077D01*
X143790894Y-91899500D01*
X143659110Y-91899500D01*
X143531814Y-91933608D01*
X143417688Y-91999500D01*
X143417685Y-91999502D01*
X143324504Y-92092683D01*
X143324502Y-92092686D01*
X143258610Y-92206812D01*
X143236513Y-92289282D01*
X143224502Y-92334108D01*
X143224502Y-92465892D01*
X143229088Y-92483007D01*
X143258610Y-92593187D01*
X143291556Y-92650250D01*
X143324502Y-92707314D01*
X143417688Y-92800500D01*
X143531816Y-92866392D01*
X143659110Y-92900500D01*
X143659112Y-92900500D01*
X143790892Y-92900500D01*
X143790894Y-92900500D01*
X143918188Y-92866392D01*
X144032316Y-92800500D01*
X144070997Y-92761819D01*
X144097924Y-92747115D01*
X144123743Y-92730523D01*
X144129943Y-92729631D01*
X144132320Y-92728334D01*
X144158678Y-92725500D01*
X144288811Y-92725500D01*
X144355850Y-92745185D01*
X144376492Y-92761819D01*
X145756476Y-94141803D01*
X145756477Y-94141804D01*
X145817080Y-94202407D01*
X145817082Y-94202408D01*
X145817086Y-94202411D01*
X145829947Y-94209836D01*
X145891304Y-94245260D01*
X145974089Y-94267442D01*
X146059795Y-94267442D01*
X147584324Y-94267442D01*
X147613764Y-94276086D01*
X147643751Y-94282610D01*
X147648766Y-94286364D01*
X147651363Y-94287127D01*
X147672005Y-94303761D01*
X147691618Y-94323374D01*
X147725103Y-94384697D01*
X147720119Y-94454389D01*
X147711324Y-94473055D01*
X147642662Y-94591980D01*
X147642662Y-94591981D01*
X147608553Y-94719278D01*
X147608553Y-94851061D01*
X147642661Y-94978357D01*
X147643720Y-94980191D01*
X147708553Y-95092484D01*
X147801739Y-95185670D01*
X147915867Y-95251562D01*
X148043161Y-95285670D01*
X148043163Y-95285670D01*
X148174943Y-95285670D01*
X148174945Y-95285670D01*
X148302239Y-95251562D01*
X148416367Y-95185670D01*
X148455048Y-95146989D01*
X148516371Y-95113504D01*
X148542729Y-95110670D01*
X149699638Y-95110670D01*
X149699640Y-95110670D01*
X149782426Y-95088488D01*
X149856649Y-95045635D01*
X149856649Y-95045634D01*
X149863499Y-95041680D01*
X149931399Y-95025206D01*
X149997426Y-95048058D01*
X150040617Y-95102978D01*
X150049500Y-95149066D01*
X150049500Y-97313810D01*
X150029815Y-97380849D01*
X150013181Y-97401491D01*
X149139531Y-98275140D01*
X149078208Y-98308625D01*
X149019759Y-98307234D01*
X148990896Y-98299500D01*
X148990892Y-98299500D01*
X148859108Y-98299500D01*
X148731814Y-98333608D01*
X148731813Y-98333608D01*
X148731811Y-98333609D01*
X148731810Y-98333609D01*
X148613555Y-98401885D01*
X148545655Y-98418358D01*
X148479628Y-98395506D01*
X148436438Y-98340585D01*
X148427555Y-98294498D01*
X148427555Y-97160731D01*
X148447240Y-97093692D01*
X148463874Y-97073050D01*
X148502555Y-97034369D01*
X148568447Y-96920241D01*
X148602555Y-96792947D01*
X148602555Y-96661163D01*
X148568447Y-96533869D01*
X148502555Y-96419741D01*
X148409369Y-96326555D01*
X148337157Y-96284863D01*
X148295242Y-96260663D01*
X148230172Y-96243228D01*
X148167947Y-96226555D01*
X148036163Y-96226555D01*
X147908867Y-96260663D01*
X147794741Y-96326555D01*
X147794738Y-96326557D01*
X147701557Y-96419738D01*
X147701555Y-96419741D01*
X147635663Y-96533867D01*
X147618585Y-96597605D01*
X147601555Y-96661163D01*
X147601555Y-96792947D01*
X147608948Y-96820538D01*
X147635663Y-96920242D01*
X147648718Y-96942853D01*
X147701555Y-97034369D01*
X147701557Y-97034371D01*
X147740236Y-97073050D01*
X147773721Y-97134373D01*
X147776555Y-97160731D01*
X147776555Y-104744309D01*
X147785087Y-104776150D01*
X147787594Y-104814384D01*
X147788504Y-104814384D01*
X147788504Y-104954293D01*
X147822612Y-105081589D01*
X147855558Y-105138652D01*
X147888504Y-105195716D01*
X147981690Y-105288902D01*
X148095818Y-105354794D01*
X148223112Y-105388902D01*
X148223114Y-105388902D01*
X148354894Y-105388902D01*
X148354896Y-105388902D01*
X148354897Y-105388901D01*
X148362952Y-105387841D01*
X148363211Y-105389810D01*
X148422301Y-105391210D01*
X148480168Y-105430366D01*
X148504332Y-105477230D01*
X148508608Y-105493186D01*
X148574500Y-105607314D01*
X148667686Y-105700500D01*
X148781814Y-105766392D01*
X148909108Y-105800500D01*
X148909110Y-105800500D01*
X149040890Y-105800500D01*
X149040892Y-105800500D01*
X149168186Y-105766392D01*
X149282314Y-105700500D01*
X149375500Y-105607314D01*
X149441392Y-105493186D01*
X149475500Y-105365892D01*
X149475500Y-105311189D01*
X149495185Y-105244150D01*
X149511819Y-105223508D01*
X150385827Y-104349500D01*
X151260465Y-103474862D01*
X151303317Y-103400639D01*
X151303318Y-103400638D01*
X151325500Y-103317853D01*
X151325500Y-98645544D01*
X151345185Y-98578505D01*
X151397989Y-98532750D01*
X151467147Y-98522806D01*
X151530703Y-98551831D01*
X151537181Y-98557863D01*
X151809788Y-98830470D01*
X151853689Y-98855816D01*
X151887780Y-98875499D01*
X151887781Y-98875499D01*
X151887784Y-98875501D01*
X151889712Y-98876614D01*
X151978856Y-98900500D01*
X152251942Y-98900500D01*
X152274652Y-98903489D01*
X152274675Y-98903315D01*
X152282731Y-98904375D01*
X152282732Y-98904376D01*
X158259166Y-98904376D01*
X158326205Y-98924061D01*
X158346847Y-98940695D01*
X158537181Y-99131029D01*
X158570666Y-99192352D01*
X158573500Y-99218710D01*
X158573500Y-109406119D01*
X158597304Y-109494958D01*
X158597330Y-109495057D01*
X158597383Y-109495257D01*
X158597388Y-109495268D01*
X158643525Y-109575181D01*
X158643531Y-109575189D01*
X160735256Y-111666914D01*
X160768741Y-111728237D01*
X160763757Y-111797929D01*
X160721885Y-111853862D01*
X160709577Y-111861981D01*
X160640081Y-111902106D01*
X160640075Y-111902110D01*
X160546894Y-111995291D01*
X160546892Y-111995294D01*
X160481000Y-112109420D01*
X160465389Y-112167683D01*
X160446892Y-112236716D01*
X160446892Y-112368500D01*
X160448915Y-112376049D01*
X160481000Y-112495795D01*
X160491402Y-112513811D01*
X160546892Y-112609922D01*
X160640078Y-112703108D01*
X160754206Y-112769000D01*
X160881500Y-112803108D01*
X160900848Y-112803108D01*
X160967887Y-112822793D01*
X160988529Y-112839427D01*
X161638181Y-113489079D01*
X161671666Y-113550402D01*
X161674500Y-113576760D01*
X161674500Y-114041324D01*
X161654815Y-114108363D01*
X161638181Y-114129005D01*
X161624502Y-114142683D01*
X161624500Y-114142686D01*
X161558608Y-114256812D01*
X161536385Y-114339752D01*
X161524500Y-114384108D01*
X161524500Y-114515892D01*
X161536806Y-114561819D01*
X161558608Y-114643187D01*
X161577079Y-114675179D01*
X161624500Y-114757314D01*
X161717686Y-114850500D01*
X161822534Y-114911034D01*
X161870750Y-114961601D01*
X161883973Y-115030208D01*
X161858005Y-115095073D01*
X161848215Y-115106102D01*
X160844532Y-116109785D01*
X160844530Y-116109787D01*
X160844530Y-116109788D01*
X160805709Y-116177028D01*
X160805708Y-116177028D01*
X160798387Y-116189709D01*
X160798386Y-116189712D01*
X160774500Y-116278856D01*
X160774500Y-117913811D01*
X160754815Y-117980850D01*
X160738181Y-118001492D01*
X159026492Y-119713181D01*
X158965169Y-119746666D01*
X158938811Y-119749500D01*
X158884108Y-119749500D01*
X158756812Y-119783608D01*
X158642686Y-119849500D01*
X158642683Y-119849502D01*
X158549502Y-119942683D01*
X158549500Y-119942686D01*
X158483608Y-120056812D01*
X158449500Y-120184108D01*
X158449500Y-120287948D01*
X158429815Y-120354987D01*
X158377011Y-120400742D01*
X158307853Y-120410686D01*
X158292871Y-120407578D01*
X158277389Y-120403355D01*
X158243186Y-120383608D01*
X158115892Y-120349500D01*
X158079937Y-120349500D01*
X158063915Y-120345130D01*
X158047734Y-120335167D01*
X158029505Y-120329815D01*
X158008863Y-120313181D01*
X150536819Y-112841137D01*
X150503334Y-112779814D01*
X150500500Y-112753456D01*
X150500500Y-109203858D01*
X150500500Y-109203856D01*
X150476614Y-109114712D01*
X150462267Y-109089862D01*
X150430470Y-109034788D01*
X150207038Y-108811356D01*
X150173553Y-108750033D01*
X150178537Y-108680341D01*
X150220409Y-108624408D01*
X150285873Y-108599991D01*
X150302960Y-108600500D01*
X150309108Y-108600500D01*
X150440890Y-108600500D01*
X150440892Y-108600500D01*
X150568186Y-108566392D01*
X150682314Y-108500500D01*
X150720995Y-108461819D01*
X150782318Y-108428334D01*
X150808676Y-108425500D01*
X151817851Y-108425500D01*
X151817853Y-108425500D01*
X151900639Y-108403318D01*
X151974862Y-108360465D01*
X153398508Y-106936819D01*
X153459831Y-106903334D01*
X153486189Y-106900500D01*
X153540890Y-106900500D01*
X153540892Y-106900500D01*
X153668186Y-106866392D01*
X153782314Y-106800500D01*
X153875500Y-106707314D01*
X153941392Y-106593186D01*
X153975500Y-106465892D01*
X153975500Y-106334108D01*
X153941392Y-106206814D01*
X153875500Y-106092686D01*
X153782314Y-105999500D01*
X153725250Y-105966554D01*
X153668187Y-105933608D01*
X153604539Y-105916554D01*
X153540892Y-105899500D01*
X153409108Y-105899500D01*
X153281812Y-105933608D01*
X153167686Y-105999500D01*
X153167683Y-105999502D01*
X153074502Y-106092683D01*
X153074500Y-106092686D01*
X153008608Y-106206812D01*
X152974500Y-106334108D01*
X152974500Y-106388811D01*
X152954815Y-106455850D01*
X152938181Y-106476492D01*
X151676492Y-107738181D01*
X151615169Y-107771666D01*
X151588811Y-107774500D01*
X150808676Y-107774500D01*
X150741637Y-107754815D01*
X150720995Y-107738181D01*
X150682316Y-107699502D01*
X150682314Y-107699500D01*
X150617733Y-107662214D01*
X150568187Y-107633608D01*
X150504539Y-107616554D01*
X150440892Y-107599500D01*
X150309108Y-107599500D01*
X150181812Y-107633608D01*
X150067686Y-107699500D01*
X150067683Y-107699502D01*
X149974502Y-107792683D01*
X149974500Y-107792686D01*
X149908608Y-107906812D01*
X149874500Y-108034108D01*
X149874500Y-108174019D01*
X149872717Y-108174019D01*
X149863495Y-108233135D01*
X149817113Y-108285389D01*
X149749843Y-108304271D01*
X149683043Y-108283787D01*
X149663643Y-108267961D01*
X148365213Y-106969531D01*
X148365208Y-106969527D01*
X148285290Y-106923387D01*
X148285289Y-106923386D01*
X148285288Y-106923386D01*
X148196144Y-106899500D01*
X148196143Y-106899500D01*
X139833676Y-106899500D01*
X139766637Y-106879815D01*
X139745995Y-106863181D01*
X139732316Y-106849502D01*
X139732314Y-106849500D01*
X139647439Y-106800497D01*
X139618187Y-106783608D01*
X139554539Y-106766554D01*
X139490892Y-106749500D01*
X139359108Y-106749500D01*
X139280592Y-106770537D01*
X139210743Y-106768875D01*
X139152881Y-106729712D01*
X139125377Y-106665484D01*
X139124500Y-106650763D01*
X139124500Y-75437189D01*
X139144185Y-75370150D01*
X139160819Y-75349508D01*
X139448508Y-75061819D01*
X139509831Y-75028334D01*
X139536189Y-75025500D01*
X139590890Y-75025500D01*
X139590892Y-75025500D01*
X139718186Y-74991392D01*
X139832314Y-74925500D01*
X139925500Y-74832314D01*
X139991392Y-74718186D01*
X140025500Y-74590892D01*
X140025500Y-74459108D01*
X139991392Y-74331814D01*
X139925500Y-74217686D01*
X139832314Y-74124500D01*
X139775250Y-74091554D01*
X139718187Y-74058608D01*
X139654539Y-74041554D01*
X139590892Y-74024500D01*
X139459108Y-74024500D01*
X139331812Y-74058608D01*
X139217686Y-74124500D01*
X139217683Y-74124502D01*
X139124502Y-74217683D01*
X139124500Y-74217686D01*
X139058608Y-74331812D01*
X139024500Y-74459108D01*
X139024500Y-74513811D01*
X139004815Y-74580850D01*
X138988181Y-74601492D01*
X138538537Y-75051135D01*
X138538533Y-75051141D01*
X138495682Y-75125359D01*
X138493117Y-75134936D01*
X138473500Y-75208147D01*
X138473500Y-88697937D01*
X138453815Y-88764976D01*
X138401011Y-88810731D01*
X138331853Y-88820675D01*
X138301359Y-88810126D01*
X138300700Y-88811720D01*
X138293188Y-88808609D01*
X138293187Y-88808608D01*
X138293186Y-88808608D01*
X138165892Y-88774500D01*
X138034108Y-88774500D01*
X137906812Y-88808608D01*
X137792686Y-88874500D01*
X137792683Y-88874502D01*
X137754005Y-88913181D01*
X137692682Y-88946666D01*
X137666324Y-88949500D01*
X133511189Y-88949500D01*
X133444150Y-88929815D01*
X133423508Y-88913181D01*
X133161819Y-88651492D01*
X133128334Y-88590169D01*
X133125500Y-88563811D01*
X133125500Y-85307149D01*
X133125500Y-85307147D01*
X133103318Y-85224362D01*
X133103318Y-85224361D01*
X133081891Y-85187250D01*
X133064608Y-85157314D01*
X133060467Y-85150141D01*
X133060466Y-85150140D01*
X133060465Y-85150138D01*
X132999862Y-85089535D01*
X132999861Y-85089534D01*
X132995541Y-85085214D01*
X132995530Y-85085204D01*
X132836817Y-84926490D01*
X132803334Y-84865169D01*
X132800500Y-84838811D01*
X132800500Y-84784110D01*
X132800500Y-84784108D01*
X132766392Y-84656814D01*
X132700500Y-84542686D01*
X132607314Y-84449500D01*
X132550250Y-84416554D01*
X132493187Y-84383608D01*
X132429539Y-84366554D01*
X132365892Y-84349500D01*
X132234108Y-84349500D01*
X132106812Y-84383608D01*
X131992686Y-84449500D01*
X131992683Y-84449502D01*
X131899502Y-84542683D01*
X131899500Y-84542686D01*
X131833608Y-84656812D01*
X131799500Y-84784108D01*
X131799500Y-84915891D01*
X131833608Y-85043187D01*
X131860368Y-85089535D01*
X131899500Y-85157314D01*
X131992686Y-85250500D01*
X132106814Y-85316392D01*
X132234108Y-85350500D01*
X132288812Y-85350500D01*
X132318252Y-85359144D01*
X132348239Y-85365668D01*
X132353254Y-85369422D01*
X132355851Y-85370185D01*
X132376493Y-85386819D01*
X132438181Y-85448507D01*
X132471666Y-85509830D01*
X132474500Y-85536188D01*
X132474500Y-88457147D01*
X132474500Y-88707147D01*
X132474500Y-88792853D01*
X132478856Y-88809110D01*
X132496682Y-88875640D01*
X132510828Y-88900140D01*
X132539535Y-88949862D01*
X133125138Y-89535465D01*
X133189414Y-89572575D01*
X133196196Y-89576491D01*
X133199361Y-89578318D01*
X133282147Y-89600500D01*
X137666324Y-89600500D01*
X137733363Y-89620185D01*
X137754005Y-89636819D01*
X137792686Y-89675500D01*
X137883967Y-89728201D01*
X137906810Y-89741390D01*
X137906814Y-89741392D01*
X138034108Y-89775500D01*
X138034110Y-89775500D01*
X138165890Y-89775500D01*
X138165892Y-89775500D01*
X138293186Y-89741392D01*
X138293193Y-89741387D01*
X138300700Y-89738280D01*
X138301903Y-89741185D01*
X138355371Y-89728201D01*
X138421403Y-89751038D01*
X138464607Y-89805949D01*
X138473500Y-89852062D01*
X138473500Y-106889811D01*
X138453815Y-106956850D01*
X138437181Y-106977492D01*
X129201492Y-116213181D01*
X129140169Y-116246666D01*
X129113811Y-116249500D01*
X129059108Y-116249500D01*
X128931812Y-116283608D01*
X128817686Y-116349500D01*
X128817683Y-116349502D01*
X128724502Y-116442683D01*
X128724500Y-116442686D01*
X128658608Y-116556812D01*
X128625693Y-116679655D01*
X128624500Y-116684108D01*
X128624500Y-116815892D01*
X128639177Y-116870669D01*
X128658608Y-116943187D01*
X128685073Y-116989024D01*
X128724500Y-117057314D01*
X128817686Y-117150500D01*
X128931814Y-117216392D01*
X129059108Y-117250500D01*
X129059110Y-117250500D01*
X129190890Y-117250500D01*
X129190892Y-117250500D01*
X129318186Y-117216392D01*
X129432314Y-117150500D01*
X129525500Y-117057314D01*
X129591392Y-116943186D01*
X129625500Y-116815892D01*
X129625500Y-116761188D01*
X129645185Y-116694149D01*
X129661814Y-116673512D01*
X130767560Y-115567765D01*
X130828881Y-115534282D01*
X130898573Y-115539266D01*
X130954506Y-115581138D01*
X130962626Y-115593447D01*
X130999500Y-115657314D01*
X131092686Y-115750500D01*
X131206814Y-115816392D01*
X131334108Y-115850500D01*
X131334110Y-115850500D01*
X131465890Y-115850500D01*
X131465892Y-115850500D01*
X131593186Y-115816392D01*
X131707314Y-115750500D01*
X131745995Y-115711819D01*
X131807318Y-115678334D01*
X131833676Y-115675500D01*
X132642324Y-115675500D01*
X132709363Y-115695185D01*
X132730005Y-115711819D01*
X132768686Y-115750500D01*
X132882814Y-115816392D01*
X133010108Y-115850500D01*
X133010110Y-115850500D01*
X133141890Y-115850500D01*
X133141892Y-115850500D01*
X133269186Y-115816392D01*
X133383314Y-115750500D01*
X133476500Y-115657314D01*
X133542392Y-115543186D01*
X133576500Y-115415892D01*
X133576500Y-115284108D01*
X133542392Y-115156814D01*
X133476500Y-115042686D01*
X133383314Y-114949500D01*
X133305852Y-114904777D01*
X133269187Y-114883608D01*
X133205539Y-114866554D01*
X133141892Y-114849500D01*
X133010108Y-114849500D01*
X132882812Y-114883608D01*
X132768686Y-114949500D01*
X132768683Y-114949502D01*
X132730005Y-114988181D01*
X132668682Y-115021666D01*
X132642324Y-115024500D01*
X131833676Y-115024500D01*
X131766637Y-115004815D01*
X131759729Y-115000038D01*
X131752428Y-114994614D01*
X131707314Y-114949500D01*
X131637252Y-114909050D01*
X131631501Y-114904777D01*
X131614599Y-114882370D01*
X131595232Y-114862058D01*
X131593843Y-114854855D01*
X131589425Y-114848997D01*
X131587320Y-114821004D01*
X131582010Y-114793451D01*
X131584736Y-114786641D01*
X131584186Y-114779324D01*
X131597546Y-114754641D01*
X131607978Y-114728586D01*
X131617392Y-114717980D01*
X131617447Y-114717879D01*
X131617515Y-114717841D01*
X131617758Y-114717567D01*
X138820012Y-107515313D01*
X138881333Y-107481830D01*
X138951025Y-107486814D01*
X139006958Y-107528686D01*
X139015076Y-107540993D01*
X139024496Y-107557308D01*
X139024498Y-107557311D01*
X139024500Y-107557314D01*
X139117686Y-107650500D01*
X139231814Y-107716392D01*
X139359108Y-107750500D01*
X139359110Y-107750500D01*
X139490890Y-107750500D01*
X139490892Y-107750500D01*
X139618186Y-107716392D01*
X139732314Y-107650500D01*
X139745995Y-107636819D01*
X139807318Y-107603334D01*
X139833676Y-107600500D01*
X147953456Y-107600500D01*
X148020495Y-107620185D01*
X148041137Y-107636819D01*
X149763181Y-109358863D01*
X149796666Y-109420186D01*
X149799500Y-109446544D01*
X149799500Y-112996144D01*
X149815846Y-113057148D01*
X149815846Y-113057149D01*
X149823384Y-113085284D01*
X149823385Y-113085286D01*
X149823386Y-113085288D01*
X149824526Y-113087262D01*
X149869527Y-113165208D01*
X149869531Y-113165213D01*
X157513181Y-120808863D01*
X157546666Y-120870186D01*
X157549500Y-120896544D01*
X157549500Y-120915891D01*
X157583608Y-121043187D01*
X157606200Y-121082316D01*
X157649500Y-121157314D01*
X157742686Y-121250500D01*
X157856814Y-121316392D01*
X157984108Y-121350500D01*
X157984110Y-121350500D01*
X158115890Y-121350500D01*
X158115892Y-121350500D01*
X158243186Y-121316392D01*
X158357314Y-121250500D01*
X158450500Y-121157314D01*
X158516392Y-121043186D01*
X158550500Y-120915892D01*
X158550500Y-120812051D01*
X158570185Y-120745012D01*
X158622989Y-120699257D01*
X158692147Y-120689313D01*
X158736499Y-120704663D01*
X158756814Y-120716392D01*
X158884108Y-120750500D01*
X158884110Y-120750500D01*
X159015890Y-120750500D01*
X159015892Y-120750500D01*
X159143186Y-120716392D01*
X159257314Y-120650500D01*
X159350500Y-120557314D01*
X159416392Y-120443186D01*
X159450500Y-120315892D01*
X159450500Y-120261188D01*
X159470185Y-120194149D01*
X159486819Y-120173507D01*
X160562819Y-119097507D01*
X160624142Y-119064022D01*
X160693834Y-119069006D01*
X160749767Y-119110878D01*
X160774184Y-119176342D01*
X160774500Y-119185188D01*
X160774500Y-120366324D01*
X160754815Y-120433363D01*
X160738181Y-120454005D01*
X160724502Y-120467683D01*
X160724500Y-120467686D01*
X160658608Y-120581812D01*
X160635599Y-120667686D01*
X160624500Y-120709108D01*
X160624500Y-120840892D01*
X160630956Y-120864985D01*
X160658608Y-120968187D01*
X160691554Y-121025250D01*
X160724500Y-121082314D01*
X160817686Y-121175500D01*
X160931814Y-121241392D01*
X161059108Y-121275500D01*
X161059110Y-121275500D01*
X161190890Y-121275500D01*
X161190892Y-121275500D01*
X161318186Y-121241392D01*
X161432314Y-121175500D01*
X161525500Y-121082314D01*
X161591392Y-120968186D01*
X161625500Y-120840892D01*
X161625500Y-120709108D01*
X161591392Y-120581814D01*
X161525500Y-120467686D01*
X161511819Y-120454005D01*
X161478334Y-120392682D01*
X161475500Y-120366324D01*
X161475500Y-118236187D01*
X161495185Y-118169148D01*
X161511814Y-118148511D01*
X162789652Y-116870672D01*
X162789657Y-116870669D01*
X162799860Y-116860465D01*
X162799862Y-116860465D01*
X162860465Y-116799862D01*
X162903318Y-116725638D01*
X162908273Y-116707147D01*
X162925501Y-116642852D01*
X162925501Y-116557147D01*
X162925500Y-116557143D01*
X162925500Y-115283676D01*
X162945185Y-115216637D01*
X162961819Y-115195995D01*
X163000500Y-115157314D01*
X163066392Y-115043186D01*
X163100500Y-114915892D01*
X163100500Y-114784108D01*
X163066392Y-114656814D01*
X163000500Y-114542686D01*
X162907314Y-114449500D01*
X162818514Y-114398231D01*
X162793187Y-114383608D01*
X162729539Y-114366554D01*
X162665892Y-114349500D01*
X162611376Y-114349500D01*
X162544337Y-114329815D01*
X162505396Y-114289876D01*
X162496189Y-114274720D01*
X162491392Y-114256814D01*
X162425500Y-114142686D01*
X162401266Y-114118452D01*
X162393520Y-114105700D01*
X162388214Y-114085775D01*
X162378334Y-114067682D01*
X162375500Y-114041324D01*
X162375500Y-113606520D01*
X162395185Y-113539481D01*
X162447989Y-113493726D01*
X162517147Y-113483782D01*
X162580703Y-113512807D01*
X162587181Y-113518839D01*
X164763181Y-115694839D01*
X164796666Y-115756162D01*
X164799500Y-115782520D01*
X164799500Y-120216324D01*
X164779815Y-120283363D01*
X164763181Y-120304005D01*
X164749502Y-120317683D01*
X164749500Y-120317686D01*
X164683608Y-120431812D01*
X164678869Y-120449500D01*
X164649500Y-120559108D01*
X164649500Y-120690892D01*
X164665472Y-120750500D01*
X164683608Y-120818187D01*
X164699416Y-120845566D01*
X164749500Y-120932314D01*
X164842686Y-121025500D01*
X164956814Y-121091392D01*
X165084108Y-121125500D01*
X165084110Y-121125500D01*
X165215890Y-121125500D01*
X165215892Y-121125500D01*
X165343186Y-121091392D01*
X165457314Y-121025500D01*
X165550500Y-120932314D01*
X165616392Y-120818186D01*
X165650500Y-120690892D01*
X165650500Y-120559108D01*
X165616392Y-120431814D01*
X165550500Y-120317686D01*
X165536819Y-120304005D01*
X165503334Y-120242682D01*
X165500500Y-120216324D01*
X165500500Y-115539834D01*
X165500500Y-115539832D01*
X165476614Y-115450688D01*
X165476613Y-115450687D01*
X165476613Y-115450685D01*
X165462967Y-115427051D01*
X165462965Y-115427048D01*
X165430470Y-115370764D01*
X164796887Y-114737181D01*
X164763402Y-114675858D01*
X164768386Y-114606166D01*
X164810258Y-114550233D01*
X164875722Y-114525816D01*
X164884568Y-114525500D01*
X167188811Y-114525500D01*
X167255850Y-114545185D01*
X167276492Y-114561819D01*
X167513181Y-114798507D01*
X167546666Y-114859830D01*
X167549500Y-114886188D01*
X167549500Y-117690587D01*
X167571682Y-117773375D01*
X167593108Y-117810485D01*
X167614535Y-117847597D01*
X167614537Y-117847599D01*
X168435208Y-118668270D01*
X168468693Y-118729593D01*
X168471527Y-118755951D01*
X168471527Y-118810653D01*
X168505635Y-118937949D01*
X168537527Y-118993186D01*
X168571527Y-119052076D01*
X168664713Y-119145262D01*
X168778841Y-119211154D01*
X168906135Y-119245262D01*
X168906137Y-119245262D01*
X169037917Y-119245262D01*
X169037919Y-119245262D01*
X169165213Y-119211154D01*
X169279341Y-119145262D01*
X169372527Y-119052076D01*
X169438419Y-118937948D01*
X169472527Y-118810654D01*
X169472527Y-118678870D01*
X169438419Y-118551576D01*
X169437250Y-118549552D01*
X169429590Y-118536283D01*
X169372527Y-118437448D01*
X169279341Y-118344262D01*
X169201811Y-118299500D01*
X169165214Y-118278370D01*
X169101566Y-118261316D01*
X169037919Y-118244262D01*
X169037918Y-118244262D01*
X168983216Y-118244262D01*
X168916177Y-118224577D01*
X168895535Y-118207943D01*
X168236819Y-117549227D01*
X168203334Y-117487904D01*
X168200500Y-117461546D01*
X168200500Y-114657149D01*
X168200500Y-114657147D01*
X168188568Y-114612616D01*
X168178318Y-114574361D01*
X168156891Y-114537250D01*
X168135465Y-114500138D01*
X168074862Y-114439535D01*
X168074859Y-114439533D01*
X167574862Y-113939535D01*
X167537750Y-113918108D01*
X167500640Y-113896682D01*
X167459246Y-113885591D01*
X167417853Y-113874500D01*
X167417852Y-113874500D01*
X165225917Y-113874500D01*
X165158878Y-113854815D01*
X165113123Y-113802011D01*
X165103179Y-113732853D01*
X165116140Y-113695402D01*
X165115842Y-113695279D01*
X165117921Y-113690258D01*
X165118531Y-113688497D01*
X165118954Y-113687765D01*
X165153062Y-113560471D01*
X165153062Y-113428687D01*
X165118954Y-113301393D01*
X165118069Y-113299861D01*
X165106696Y-113280161D01*
X165053062Y-113187265D01*
X165014382Y-113148585D01*
X164980897Y-113087262D01*
X164978063Y-113060904D01*
X164978063Y-112970978D01*
X164978063Y-112970977D01*
X164955880Y-112888191D01*
X164944726Y-112868872D01*
X164925089Y-112834859D01*
X164925086Y-112834856D01*
X164919765Y-112825639D01*
X164913027Y-112813968D01*
X164880901Y-112781842D01*
X164877303Y-112777525D01*
X164865546Y-112750416D01*
X164851391Y-112724493D01*
X164850430Y-112715563D01*
X164849503Y-112713424D01*
X164849923Y-112710848D01*
X164848557Y-112698135D01*
X164848557Y-112371132D01*
X164868242Y-112304093D01*
X164884876Y-112283451D01*
X165836508Y-111331819D01*
X165897831Y-111298334D01*
X165924189Y-111295500D01*
X166441324Y-111295500D01*
X166508363Y-111315185D01*
X166529005Y-111331819D01*
X166567686Y-111370500D01*
X166681814Y-111436392D01*
X166809108Y-111470500D01*
X166809110Y-111470500D01*
X166940890Y-111470500D01*
X166940892Y-111470500D01*
X167068186Y-111436392D01*
X167182314Y-111370500D01*
X167237819Y-111314995D01*
X167299142Y-111281510D01*
X167368834Y-111286494D01*
X167424767Y-111328366D01*
X167449184Y-111393830D01*
X167449500Y-111402676D01*
X167449500Y-111657147D01*
X167449500Y-112657147D01*
X167449500Y-112742853D01*
X167470920Y-112822793D01*
X167471682Y-112825638D01*
X167471681Y-112825638D01*
X167479705Y-112839535D01*
X167514535Y-112899862D01*
X167914534Y-113299861D01*
X167914535Y-113299862D01*
X167975138Y-113360465D01*
X167975140Y-113360466D01*
X167975144Y-113360469D01*
X168049355Y-113403314D01*
X168049362Y-113403318D01*
X168132147Y-113425500D01*
X168217852Y-113425500D01*
X170554317Y-113425500D01*
X170576960Y-113432148D01*
X170600451Y-113434402D01*
X170609863Y-113441810D01*
X170621356Y-113445185D01*
X170636807Y-113463016D01*
X170655355Y-113477615D01*
X170659268Y-113488938D01*
X170667111Y-113497989D01*
X170670469Y-113521345D01*
X170678179Y-113543652D01*
X170675350Y-113555290D01*
X170677055Y-113567147D01*
X170667251Y-113588614D01*
X170661678Y-113611545D01*
X170651460Y-113623190D01*
X170648030Y-113630703D01*
X170639849Y-113639279D01*
X170631327Y-113647397D01*
X170627686Y-113649500D01*
X170598793Y-113678392D01*
X170597715Y-113679420D01*
X170567928Y-113694760D01*
X170538541Y-113710807D01*
X170536302Y-113711047D01*
X170535599Y-113711410D01*
X170534189Y-113711274D01*
X170512183Y-113713641D01*
X169163307Y-113713641D01*
X169109905Y-113727950D01*
X169102985Y-113729804D01*
X169070894Y-113734029D01*
X168944884Y-113734029D01*
X168817588Y-113768137D01*
X168703462Y-113834029D01*
X168703459Y-113834031D01*
X168610278Y-113927212D01*
X168610276Y-113927215D01*
X168544384Y-114041341D01*
X168510276Y-114168637D01*
X168510276Y-114300420D01*
X168544384Y-114427716D01*
X168557539Y-114450500D01*
X168610276Y-114541843D01*
X168703462Y-114635029D01*
X168817590Y-114700921D01*
X168944884Y-114735029D01*
X168944886Y-114735029D01*
X169076666Y-114735029D01*
X169076668Y-114735029D01*
X169203962Y-114700921D01*
X169318090Y-114635029D01*
X169411276Y-114541843D01*
X169477168Y-114427715D01*
X169477168Y-114427714D01*
X169477788Y-114426641D01*
X169528355Y-114378425D01*
X169585175Y-114364641D01*
X170490465Y-114364641D01*
X170511935Y-114370945D01*
X170534248Y-114372628D01*
X170548090Y-114381561D01*
X170557504Y-114384326D01*
X170565159Y-114389662D01*
X170572042Y-114394856D01*
X170627686Y-114450500D01*
X170704689Y-114494958D01*
X170710773Y-114499549D01*
X170727238Y-114521722D01*
X170746294Y-114541707D01*
X170747771Y-114549373D01*
X170752428Y-114555644D01*
X170754291Y-114583196D01*
X170759518Y-114610314D01*
X170756615Y-114617564D01*
X170757142Y-114625355D01*
X170743814Y-114649539D01*
X170733550Y-114675179D01*
X170723760Y-114686209D01*
X170405008Y-115004962D01*
X170343685Y-115038447D01*
X170285236Y-115037056D01*
X170195177Y-115012925D01*
X170063393Y-115012925D01*
X169936097Y-115047033D01*
X169821971Y-115112925D01*
X169821968Y-115112927D01*
X169728787Y-115206108D01*
X169728785Y-115206111D01*
X169662893Y-115320237D01*
X169637990Y-115413178D01*
X169628785Y-115447533D01*
X169628785Y-115579317D01*
X169637359Y-115611317D01*
X169662893Y-115706612D01*
X169677065Y-115731158D01*
X169728785Y-115820739D01*
X169821971Y-115913925D01*
X169936099Y-115979817D01*
X170063393Y-116013925D01*
X170063395Y-116013925D01*
X170195175Y-116013925D01*
X170195177Y-116013925D01*
X170322471Y-115979817D01*
X170436599Y-115913925D01*
X170529785Y-115820739D01*
X170548806Y-115787791D01*
X170568508Y-115762115D01*
X171346905Y-114983718D01*
X171408226Y-114950235D01*
X171477918Y-114955219D01*
X171533851Y-114997091D01*
X171541971Y-115009400D01*
X171563699Y-115047033D01*
X171606518Y-115121197D01*
X171699704Y-115214383D01*
X171813832Y-115280275D01*
X171939579Y-115313968D01*
X171999237Y-115350332D01*
X172029767Y-115413178D01*
X172021473Y-115482554D01*
X172010588Y-115502631D01*
X172004057Y-115512404D01*
X171924870Y-115703579D01*
X171924868Y-115703587D01*
X171884500Y-115906530D01*
X171884500Y-116096946D01*
X171864815Y-116163985D01*
X171812011Y-116209740D01*
X171742853Y-116219684D01*
X171679297Y-116190659D01*
X171663059Y-116171004D01*
X171661840Y-116171941D01*
X171656894Y-116165495D01*
X171656892Y-116165492D01*
X171563706Y-116072306D01*
X171506642Y-116039360D01*
X171449579Y-116006414D01*
X171385931Y-115989360D01*
X171322284Y-115972306D01*
X171190500Y-115972306D01*
X171063204Y-116006414D01*
X170949078Y-116072306D01*
X170949075Y-116072308D01*
X170855894Y-116165489D01*
X170855892Y-116165492D01*
X170790000Y-116279618D01*
X170755892Y-116406914D01*
X170755892Y-116461617D01*
X170736207Y-116528656D01*
X170719573Y-116549298D01*
X170614537Y-116654333D01*
X170614535Y-116654336D01*
X170603467Y-116673507D01*
X170571682Y-116728559D01*
X170552578Y-116799858D01*
X170552577Y-116799862D01*
X170549500Y-116811343D01*
X170549500Y-118175500D01*
X170529815Y-118242539D01*
X170477011Y-118288294D01*
X170425500Y-118299500D01*
X170309108Y-118299500D01*
X170181812Y-118333608D01*
X170067686Y-118399500D01*
X170067683Y-118399502D01*
X169974502Y-118492683D01*
X169974500Y-118492686D01*
X169908608Y-118606812D01*
X169874500Y-118734108D01*
X169874500Y-118865891D01*
X169908608Y-118993187D01*
X169937430Y-119043107D01*
X169974500Y-119107314D01*
X170067686Y-119200500D01*
X170181814Y-119266392D01*
X170309108Y-119300500D01*
X170309110Y-119300500D01*
X170440890Y-119300500D01*
X170440892Y-119300500D01*
X170568186Y-119266392D01*
X170682314Y-119200500D01*
X170748261Y-119134551D01*
X170793871Y-119108222D01*
X170793129Y-119106429D01*
X170800637Y-119103319D01*
X170802769Y-119102088D01*
X170874862Y-119060465D01*
X171074860Y-118860466D01*
X171074862Y-118860465D01*
X171135465Y-118799862D01*
X171173428Y-118734108D01*
X171178318Y-118725639D01*
X171200501Y-118642853D01*
X171200501Y-118557147D01*
X171200501Y-118549552D01*
X171200500Y-118549534D01*
X171200500Y-117097306D01*
X171220185Y-117030267D01*
X171272989Y-116984512D01*
X171314374Y-116975508D01*
X171314224Y-116974367D01*
X171322275Y-116973306D01*
X171322284Y-116973306D01*
X171449578Y-116939198D01*
X171563706Y-116873306D01*
X171656892Y-116780120D01*
X171722784Y-116665992D01*
X171756892Y-116538698D01*
X171756892Y-116534274D01*
X171757947Y-116530679D01*
X171757953Y-116530638D01*
X171757959Y-116530638D01*
X171776577Y-116467235D01*
X171829381Y-116421480D01*
X171898539Y-116411536D01*
X171962095Y-116440561D01*
X171995452Y-116486819D01*
X172001530Y-116501492D01*
X172004059Y-116507598D01*
X172119024Y-116679657D01*
X172265342Y-116825975D01*
X172265345Y-116825977D01*
X172437402Y-116940941D01*
X172628580Y-117020130D01*
X172791276Y-117052492D01*
X172831530Y-117060499D01*
X172831534Y-117060500D01*
X172831535Y-117060500D01*
X173038466Y-117060500D01*
X173038467Y-117060499D01*
X173241420Y-117020130D01*
X173432598Y-116940941D01*
X173604655Y-116825977D01*
X173750977Y-116679655D01*
X173865941Y-116507598D01*
X173865946Y-116507585D01*
X173866139Y-116507227D01*
X173866294Y-116507069D01*
X173869325Y-116502533D01*
X173870185Y-116503107D01*
X173915099Y-116457381D01*
X173983236Y-116441917D01*
X174048917Y-116465745D01*
X174091288Y-116521300D01*
X174099500Y-116565675D01*
X174099500Y-117994324D01*
X174079815Y-118061363D01*
X174027011Y-118107118D01*
X173957853Y-118117062D01*
X173894297Y-118088037D01*
X173869690Y-118057222D01*
X173869325Y-118057467D01*
X173866450Y-118053165D01*
X173866143Y-118052780D01*
X173865941Y-118052403D01*
X173865941Y-118052402D01*
X173750977Y-117880345D01*
X173750975Y-117880342D01*
X173604657Y-117734024D01*
X173518626Y-117676541D01*
X173432598Y-117619059D01*
X173241420Y-117539870D01*
X173241412Y-117539868D01*
X173038469Y-117499500D01*
X173038465Y-117499500D01*
X172831535Y-117499500D01*
X172831530Y-117499500D01*
X172628587Y-117539868D01*
X172628579Y-117539870D01*
X172437403Y-117619058D01*
X172265342Y-117734024D01*
X172119024Y-117880342D01*
X172004058Y-118052403D01*
X171924870Y-118243579D01*
X171924868Y-118243587D01*
X171884500Y-118446530D01*
X171884500Y-118653469D01*
X171924868Y-118856412D01*
X171924870Y-118856420D01*
X171966661Y-118957313D01*
X172004059Y-119047598D01*
X172037407Y-119097507D01*
X172119024Y-119219657D01*
X172265342Y-119365975D01*
X172265345Y-119365977D01*
X172437402Y-119480941D01*
X172628580Y-119560130D01*
X172831530Y-119600499D01*
X172831534Y-119600500D01*
X172831535Y-119600500D01*
X173038466Y-119600500D01*
X173038467Y-119600499D01*
X173241420Y-119560130D01*
X173432598Y-119480941D01*
X173604655Y-119365977D01*
X173750977Y-119219655D01*
X173865941Y-119047598D01*
X173865946Y-119047585D01*
X173866139Y-119047227D01*
X173866294Y-119047069D01*
X173869325Y-119042533D01*
X173870185Y-119043107D01*
X173915099Y-118997381D01*
X173983236Y-118981917D01*
X174048917Y-119005745D01*
X174091288Y-119061300D01*
X174099500Y-119105675D01*
X174099500Y-120534324D01*
X174079815Y-120601363D01*
X174027011Y-120647118D01*
X173957853Y-120657062D01*
X173894297Y-120628037D01*
X173869690Y-120597222D01*
X173869325Y-120597467D01*
X173866450Y-120593165D01*
X173866143Y-120592780D01*
X173865941Y-120592403D01*
X173865941Y-120592402D01*
X173750977Y-120420345D01*
X173750975Y-120420342D01*
X173604657Y-120274024D01*
X173485114Y-120194149D01*
X173432598Y-120159059D01*
X173241420Y-120079870D01*
X173241412Y-120079868D01*
X173038469Y-120039500D01*
X173038465Y-120039500D01*
X172831535Y-120039500D01*
X172831530Y-120039500D01*
X172628587Y-120079868D01*
X172628579Y-120079870D01*
X172437403Y-120159058D01*
X172265342Y-120274024D01*
X172119024Y-120420342D01*
X172004058Y-120592403D01*
X171924870Y-120783579D01*
X171924868Y-120783587D01*
X171884500Y-120986530D01*
X171884500Y-121193469D01*
X171924868Y-121396412D01*
X171924870Y-121396420D01*
X171976972Y-121522206D01*
X172004059Y-121587598D01*
X172036947Y-121636819D01*
X172119024Y-121759657D01*
X172265342Y-121905975D01*
X172265345Y-121905977D01*
X172437402Y-122020941D01*
X172628580Y-122100130D01*
X172831530Y-122140499D01*
X172831534Y-122140500D01*
X172831535Y-122140500D01*
X173038466Y-122140500D01*
X173038467Y-122140499D01*
X173241420Y-122100130D01*
X173432598Y-122020941D01*
X173604655Y-121905977D01*
X173750977Y-121759655D01*
X173865941Y-121587598D01*
X173938102Y-121413384D01*
X173981943Y-121358983D01*
X174048237Y-121336918D01*
X174115936Y-121354197D01*
X174140344Y-121373158D01*
X174142686Y-121375500D01*
X174256814Y-121441392D01*
X174384108Y-121475500D01*
X174384110Y-121475500D01*
X174515890Y-121475500D01*
X174515892Y-121475500D01*
X174643186Y-121441392D01*
X174757314Y-121375500D01*
X174850500Y-121282314D01*
X174905732Y-121186650D01*
X174918113Y-121165206D01*
X174968680Y-121116990D01*
X175037287Y-121103768D01*
X175102152Y-121129736D01*
X175142680Y-121186650D01*
X175149500Y-121227206D01*
X175149500Y-129192488D01*
X175129815Y-129259527D01*
X175077011Y-129305282D01*
X175007853Y-129315226D01*
X174944297Y-129286201D01*
X174931213Y-129273024D01*
X174931069Y-129272855D01*
X174931065Y-129272850D01*
X174781204Y-129122989D01*
X174609745Y-128998417D01*
X174420910Y-128902200D01*
X174219347Y-128836708D01*
X174219345Y-128836707D01*
X174219344Y-128836707D01*
X174058545Y-128811239D01*
X174010022Y-128803554D01*
X173798086Y-128803554D01*
X173749562Y-128811239D01*
X173588764Y-128836707D01*
X173387195Y-128902201D01*
X173198362Y-128998417D01*
X173026901Y-129122991D01*
X172877045Y-129272847D01*
X172752471Y-129444308D01*
X172656255Y-129633141D01*
X172590761Y-129834710D01*
X172571575Y-129955850D01*
X172557608Y-130044032D01*
X172557608Y-130104910D01*
X172557608Y-130255968D01*
X172590762Y-130465293D01*
X172640214Y-130617491D01*
X172656255Y-130666858D01*
X172719945Y-130791856D01*
X172752471Y-130855691D01*
X172877043Y-131027150D01*
X173026904Y-131177011D01*
X173026907Y-131177013D01*
X173030609Y-131180175D01*
X173029359Y-131181637D01*
X173067046Y-131230495D01*
X173073036Y-131300107D01*
X173040439Y-131361907D01*
X172979606Y-131396273D01*
X172951502Y-131399500D01*
X121054023Y-131399500D01*
X120986984Y-131379815D01*
X120941229Y-131327011D01*
X120931285Y-131257853D01*
X120960310Y-131194297D01*
X120966342Y-131187819D01*
X120977153Y-131177008D01*
X121002011Y-131152150D01*
X121126583Y-130980691D01*
X121222800Y-130791856D01*
X121288292Y-130590293D01*
X121321446Y-130380968D01*
X121321446Y-130169032D01*
X121288292Y-129959707D01*
X121222800Y-129758144D01*
X121126583Y-129569309D01*
X121002011Y-129397850D01*
X120852150Y-129247989D01*
X120680691Y-129123417D01*
X120491856Y-129027200D01*
X120290293Y-128961708D01*
X120290291Y-128961707D01*
X120290290Y-128961707D01*
X120129491Y-128936239D01*
X120080968Y-128928554D01*
X119869032Y-128928554D01*
X119820508Y-128936239D01*
X119659710Y-128961707D01*
X119458141Y-129027201D01*
X119269308Y-129123417D01*
X119097847Y-129247991D01*
X119062181Y-129283658D01*
X119000858Y-129317143D01*
X118931166Y-129312159D01*
X118875233Y-129270287D01*
X118850816Y-129204823D01*
X118850500Y-129195977D01*
X118850500Y-127859108D01*
X132449500Y-127859108D01*
X132449500Y-127990891D01*
X132483608Y-128118187D01*
X132516554Y-128175250D01*
X132549500Y-128232314D01*
X132642686Y-128325500D01*
X132756814Y-128391392D01*
X132884108Y-128425500D01*
X132884110Y-128425500D01*
X133015890Y-128425500D01*
X133015892Y-128425500D01*
X133143186Y-128391392D01*
X133257314Y-128325500D01*
X133270995Y-128311819D01*
X133332318Y-128278334D01*
X133358676Y-128275500D01*
X155221142Y-128275500D01*
X155221144Y-128275500D01*
X155310288Y-128251614D01*
X155320912Y-128245480D01*
X155390212Y-128205470D01*
X157983863Y-125611819D01*
X158045186Y-125578334D01*
X158071544Y-125575500D01*
X158090890Y-125575500D01*
X158090892Y-125575500D01*
X158218186Y-125541392D01*
X158332314Y-125475500D01*
X158425500Y-125382314D01*
X158491392Y-125268186D01*
X158525500Y-125140892D01*
X158525500Y-125009108D01*
X158491392Y-124881814D01*
X158491390Y-124881810D01*
X158460705Y-124828662D01*
X158460704Y-124828661D01*
X158450903Y-124811685D01*
X158428422Y-124772747D01*
X159072000Y-124772747D01*
X159072000Y-126512252D01*
X159083631Y-126570729D01*
X159083632Y-126570730D01*
X159127947Y-126637052D01*
X159194269Y-126681367D01*
X159194270Y-126681368D01*
X159252747Y-126692999D01*
X159252750Y-126693000D01*
X159252752Y-126693000D01*
X160992250Y-126693000D01*
X160992251Y-126692999D01*
X161007068Y-126690052D01*
X161050729Y-126681368D01*
X161050729Y-126681367D01*
X161050731Y-126681367D01*
X161117052Y-126637052D01*
X161161367Y-126570731D01*
X161161367Y-126570729D01*
X161161368Y-126570729D01*
X161172999Y-126512252D01*
X161173000Y-126512250D01*
X161173000Y-124900718D01*
X161192685Y-124833679D01*
X161245489Y-124787924D01*
X161314647Y-124777980D01*
X161329079Y-124780940D01*
X161370356Y-124792000D01*
X164275372Y-124792000D01*
X164342411Y-124811685D01*
X164388166Y-124864489D01*
X164398110Y-124933647D01*
X164378474Y-124984890D01*
X164271559Y-125144899D01*
X164271559Y-125144900D01*
X164192370Y-125336079D01*
X164192368Y-125336087D01*
X164152000Y-125539030D01*
X164152000Y-125745969D01*
X164192368Y-125948912D01*
X164192370Y-125948920D01*
X164271558Y-126140096D01*
X164386524Y-126312157D01*
X164532842Y-126458475D01*
X164532845Y-126458477D01*
X164704902Y-126573441D01*
X164896080Y-126652630D01*
X165040552Y-126681367D01*
X165099030Y-126692999D01*
X165099034Y-126693000D01*
X165099035Y-126693000D01*
X165305966Y-126693000D01*
X165305967Y-126692999D01*
X165508920Y-126652630D01*
X165700098Y-126573441D01*
X165872155Y-126458477D01*
X166018477Y-126312155D01*
X166133441Y-126140098D01*
X166212630Y-125948920D01*
X166253000Y-125745965D01*
X166253000Y-125539035D01*
X166212630Y-125336080D01*
X166133441Y-125144902D01*
X166133440Y-125144900D01*
X166133440Y-125144899D01*
X166026526Y-124984890D01*
X166005648Y-124918213D01*
X166024133Y-124850833D01*
X166076112Y-124804143D01*
X166129628Y-124792000D01*
X167379642Y-124792000D01*
X167379644Y-124792000D01*
X167468788Y-124768114D01*
X167469529Y-124767686D01*
X167548712Y-124721970D01*
X170633863Y-121636819D01*
X170695186Y-121603334D01*
X170721544Y-121600500D01*
X170740890Y-121600500D01*
X170740892Y-121600500D01*
X170868186Y-121566392D01*
X170982314Y-121500500D01*
X171075500Y-121407314D01*
X171141392Y-121293186D01*
X171175500Y-121165892D01*
X171175500Y-121034108D01*
X171141392Y-120906814D01*
X171075500Y-120792686D01*
X170982314Y-120699500D01*
X170925250Y-120666554D01*
X170868187Y-120633608D01*
X170788368Y-120612221D01*
X170740892Y-120599500D01*
X170609108Y-120599500D01*
X170481812Y-120633608D01*
X170367686Y-120699500D01*
X170367683Y-120699502D01*
X170274502Y-120792683D01*
X170274500Y-120792686D01*
X170208608Y-120906812D01*
X170174500Y-121034108D01*
X170174500Y-121053456D01*
X170154815Y-121120495D01*
X170138181Y-121141137D01*
X167224637Y-124054681D01*
X167163314Y-124088166D01*
X167136956Y-124091000D01*
X161722495Y-124091000D01*
X161655456Y-124071315D01*
X161609701Y-124018511D01*
X161602722Y-123999098D01*
X161591392Y-123956814D01*
X161525500Y-123842686D01*
X161432314Y-123749500D01*
X161356868Y-123705941D01*
X161318187Y-123683608D01*
X161254539Y-123666554D01*
X161190892Y-123649500D01*
X161059108Y-123649500D01*
X160931812Y-123683608D01*
X160817686Y-123749500D01*
X160817683Y-123749502D01*
X160724502Y-123842683D01*
X160724500Y-123842686D01*
X160658608Y-123956812D01*
X160647279Y-123999093D01*
X160624500Y-124084108D01*
X160624500Y-124215892D01*
X160658608Y-124343186D01*
X160694874Y-124406001D01*
X160711347Y-124473899D01*
X160688495Y-124539926D01*
X160633574Y-124583117D01*
X160587487Y-124592000D01*
X159252747Y-124592000D01*
X159194270Y-124603631D01*
X159194269Y-124603632D01*
X159127947Y-124647947D01*
X159083632Y-124714269D01*
X159083631Y-124714270D01*
X159072000Y-124772747D01*
X158428422Y-124772747D01*
X158425500Y-124767686D01*
X158332314Y-124674500D01*
X158275250Y-124641554D01*
X158218187Y-124608608D01*
X158123051Y-124583117D01*
X158090892Y-124574500D01*
X157959108Y-124574500D01*
X157831812Y-124608608D01*
X157717686Y-124674500D01*
X157717683Y-124674502D01*
X157624502Y-124767683D01*
X157624500Y-124767686D01*
X157558608Y-124881812D01*
X157524500Y-125009108D01*
X157524500Y-125028456D01*
X157504815Y-125095495D01*
X157488181Y-125116137D01*
X155066137Y-127538181D01*
X155004814Y-127571666D01*
X154978456Y-127574500D01*
X133358676Y-127574500D01*
X133291637Y-127554815D01*
X133270995Y-127538181D01*
X133257316Y-127524502D01*
X133257314Y-127524500D01*
X133200250Y-127491554D01*
X133143187Y-127458608D01*
X133079539Y-127441554D01*
X133015892Y-127424500D01*
X132884108Y-127424500D01*
X132756812Y-127458608D01*
X132642686Y-127524500D01*
X132642683Y-127524502D01*
X132549502Y-127617683D01*
X132549500Y-127617686D01*
X132483608Y-127731812D01*
X132449500Y-127859108D01*
X118850500Y-127859108D01*
X118850500Y-126734108D01*
X119649500Y-126734108D01*
X119649500Y-126865891D01*
X119683608Y-126993187D01*
X119716554Y-127050250D01*
X119749500Y-127107314D01*
X119842686Y-127200500D01*
X119956814Y-127266392D01*
X120084108Y-127300500D01*
X120084110Y-127300500D01*
X120215890Y-127300500D01*
X120215892Y-127300500D01*
X120343186Y-127266392D01*
X120457314Y-127200500D01*
X120550500Y-127107314D01*
X120616392Y-126993186D01*
X120650500Y-126865892D01*
X120650500Y-126846544D01*
X120659144Y-126817103D01*
X120665668Y-126787117D01*
X120669422Y-126782101D01*
X120670185Y-126779505D01*
X120686819Y-126758863D01*
X120783863Y-126661819D01*
X120845186Y-126628334D01*
X120871544Y-126625500D01*
X123846142Y-126625500D01*
X123846144Y-126625500D01*
X123935288Y-126601614D01*
X124015212Y-126555470D01*
X124530470Y-126040212D01*
X124576614Y-125960288D01*
X124586203Y-125924500D01*
X124600500Y-125871144D01*
X124600500Y-121870730D01*
X144754500Y-121870730D01*
X144754500Y-123429269D01*
X144757353Y-123459699D01*
X144757353Y-123459701D01*
X144802206Y-123587880D01*
X144802207Y-123587882D01*
X144882850Y-123697150D01*
X144992118Y-123777793D01*
X145013089Y-123785131D01*
X145120299Y-123822646D01*
X145150730Y-123825500D01*
X145150734Y-123825500D01*
X146459270Y-123825500D01*
X146489699Y-123822646D01*
X146489701Y-123822646D01*
X146553790Y-123800219D01*
X146617882Y-123777793D01*
X146727150Y-123697150D01*
X146807793Y-123587882D01*
X146830219Y-123523790D01*
X146852646Y-123459701D01*
X146852646Y-123459699D01*
X146855500Y-123429269D01*
X146855500Y-122421530D01*
X149754500Y-122421530D01*
X149754500Y-122878469D01*
X149794868Y-123081412D01*
X149794870Y-123081420D01*
X149874058Y-123272596D01*
X149989024Y-123444657D01*
X150135342Y-123590975D01*
X150135345Y-123590977D01*
X150307402Y-123705941D01*
X150498580Y-123785130D01*
X150687187Y-123822646D01*
X150701530Y-123825499D01*
X150701534Y-123825500D01*
X150701535Y-123825500D01*
X150908466Y-123825500D01*
X150908467Y-123825499D01*
X151111420Y-123785130D01*
X151302598Y-123705941D01*
X151474655Y-123590977D01*
X151620977Y-123444655D01*
X151735941Y-123272598D01*
X151815130Y-123081420D01*
X151855500Y-122878465D01*
X151855500Y-122421535D01*
X151855499Y-122421530D01*
X152254500Y-122421530D01*
X152254500Y-122878469D01*
X152294868Y-123081412D01*
X152294870Y-123081420D01*
X152374058Y-123272596D01*
X152489024Y-123444657D01*
X152635342Y-123590975D01*
X152635345Y-123590977D01*
X152807402Y-123705941D01*
X152998580Y-123785130D01*
X153187187Y-123822646D01*
X153201530Y-123825499D01*
X153201534Y-123825500D01*
X153201535Y-123825500D01*
X153408466Y-123825500D01*
X153408467Y-123825499D01*
X153611420Y-123785130D01*
X153802598Y-123705941D01*
X153974655Y-123590977D01*
X154120977Y-123444655D01*
X154235941Y-123272598D01*
X154315130Y-123081420D01*
X154355500Y-122878465D01*
X154355500Y-122421535D01*
X154315130Y-122218580D01*
X154235941Y-122027402D01*
X154120977Y-121855345D01*
X154120975Y-121855342D01*
X153974657Y-121709024D01*
X153816479Y-121603334D01*
X153802598Y-121594059D01*
X153735804Y-121566392D01*
X153611420Y-121514870D01*
X153611412Y-121514868D01*
X153408469Y-121474500D01*
X153408465Y-121474500D01*
X153201535Y-121474500D01*
X153201530Y-121474500D01*
X152998587Y-121514868D01*
X152998579Y-121514870D01*
X152807403Y-121594058D01*
X152635342Y-121709024D01*
X152489024Y-121855342D01*
X152374058Y-122027403D01*
X152294870Y-122218579D01*
X152294868Y-122218587D01*
X152254500Y-122421530D01*
X151855499Y-122421530D01*
X151815130Y-122218580D01*
X151735941Y-122027402D01*
X151620977Y-121855345D01*
X151620975Y-121855342D01*
X151474657Y-121709024D01*
X151316479Y-121603334D01*
X151302598Y-121594059D01*
X151235804Y-121566392D01*
X151111420Y-121514870D01*
X151111412Y-121514868D01*
X150908469Y-121474500D01*
X150908465Y-121474500D01*
X150701535Y-121474500D01*
X150701530Y-121474500D01*
X150498587Y-121514868D01*
X150498579Y-121514870D01*
X150307403Y-121594058D01*
X150135342Y-121709024D01*
X149989024Y-121855342D01*
X149874058Y-122027403D01*
X149794870Y-122218579D01*
X149794868Y-122218587D01*
X149754500Y-122421530D01*
X146855500Y-122421530D01*
X146855500Y-121870730D01*
X146852646Y-121840300D01*
X146852646Y-121840298D01*
X146807793Y-121712119D01*
X146807792Y-121712117D01*
X146727150Y-121602850D01*
X146617882Y-121522207D01*
X146617880Y-121522206D01*
X146489700Y-121477353D01*
X146459270Y-121474500D01*
X146459266Y-121474500D01*
X145150734Y-121474500D01*
X145150730Y-121474500D01*
X145120300Y-121477353D01*
X145120298Y-121477353D01*
X144992119Y-121522206D01*
X144992117Y-121522207D01*
X144882850Y-121602850D01*
X144802207Y-121712117D01*
X144802206Y-121712119D01*
X144757353Y-121840298D01*
X144757353Y-121840300D01*
X144754500Y-121870730D01*
X124600500Y-121870730D01*
X124600500Y-120803856D01*
X124600500Y-119787661D01*
X124619165Y-119724094D01*
X124618576Y-119723754D01*
X124619978Y-119721324D01*
X124620185Y-119720622D01*
X124621298Y-119719038D01*
X124622636Y-119716719D01*
X124622640Y-119716716D01*
X124688532Y-119602588D01*
X124722640Y-119475294D01*
X124722640Y-119343510D01*
X124688532Y-119216216D01*
X124685609Y-119211154D01*
X124670618Y-119185188D01*
X124622640Y-119102088D01*
X124529454Y-119008902D01*
X124440105Y-118957316D01*
X124415327Y-118943010D01*
X124351679Y-118925956D01*
X124288032Y-118908902D01*
X124156248Y-118908902D01*
X124028952Y-118943010D01*
X123914826Y-119008902D01*
X123914823Y-119008904D01*
X123821642Y-119102085D01*
X123821640Y-119102088D01*
X123755748Y-119216214D01*
X123721640Y-119343510D01*
X123721640Y-119475293D01*
X123755748Y-119602589D01*
X123788694Y-119659652D01*
X123821640Y-119716716D01*
X123821642Y-119716718D01*
X123863181Y-119758257D01*
X123896666Y-119819580D01*
X123899500Y-119845938D01*
X123899500Y-125628456D01*
X123890855Y-125657896D01*
X123884332Y-125687883D01*
X123880577Y-125692898D01*
X123879815Y-125695495D01*
X123863181Y-125716137D01*
X123691137Y-125888181D01*
X123629814Y-125921666D01*
X123603456Y-125924500D01*
X120628856Y-125924500D01*
X120539712Y-125948386D01*
X120539709Y-125948387D01*
X120459791Y-125994527D01*
X120459786Y-125994531D01*
X120191137Y-126263181D01*
X120129814Y-126296666D01*
X120103456Y-126299500D01*
X120084108Y-126299500D01*
X119956812Y-126333608D01*
X119842686Y-126399500D01*
X119842683Y-126399502D01*
X119749502Y-126492683D01*
X119749500Y-126492686D01*
X119683608Y-126606812D01*
X119649500Y-126734108D01*
X118850500Y-126734108D01*
X118850500Y-123367747D01*
X120789500Y-123367747D01*
X120789500Y-125107252D01*
X120801131Y-125165729D01*
X120801132Y-125165730D01*
X120845447Y-125232052D01*
X120911769Y-125276367D01*
X120911770Y-125276368D01*
X120970247Y-125287999D01*
X120970250Y-125288000D01*
X120970252Y-125288000D01*
X122709750Y-125288000D01*
X122709751Y-125287999D01*
X122724568Y-125285052D01*
X122768229Y-125276368D01*
X122768229Y-125276367D01*
X122768231Y-125276367D01*
X122834552Y-125232052D01*
X122878867Y-125165731D01*
X122878867Y-125165729D01*
X122878868Y-125165729D01*
X122890499Y-125107252D01*
X122890500Y-125107250D01*
X122890500Y-123367749D01*
X122890499Y-123367747D01*
X122878868Y-123309270D01*
X122878867Y-123309269D01*
X122834552Y-123242947D01*
X122768230Y-123198632D01*
X122768229Y-123198631D01*
X122709752Y-123187000D01*
X122709748Y-123187000D01*
X120970252Y-123187000D01*
X120970247Y-123187000D01*
X120911770Y-123198631D01*
X120911769Y-123198632D01*
X120845447Y-123242947D01*
X120801132Y-123309269D01*
X120801131Y-123309270D01*
X120789500Y-123367747D01*
X118850500Y-123367747D01*
X118850500Y-118184108D01*
X151719500Y-118184108D01*
X151719500Y-118315892D01*
X151727102Y-118344262D01*
X151753608Y-118443187D01*
X151761475Y-118456812D01*
X151819500Y-118557314D01*
X151912686Y-118650500D01*
X152006371Y-118704589D01*
X152025944Y-118715890D01*
X152026814Y-118716392D01*
X152154108Y-118750500D01*
X152154110Y-118750500D01*
X152285890Y-118750500D01*
X152285892Y-118750500D01*
X152413186Y-118716392D01*
X152527314Y-118650500D01*
X152565995Y-118611819D01*
X152627318Y-118578334D01*
X152653676Y-118575500D01*
X153280500Y-118575500D01*
X153347539Y-118595185D01*
X153393294Y-118647989D01*
X153404500Y-118699500D01*
X153404500Y-118715892D01*
X153408171Y-118729593D01*
X153438608Y-118843187D01*
X153463226Y-118885826D01*
X153504500Y-118957314D01*
X153597686Y-119050500D01*
X153711814Y-119116392D01*
X153839108Y-119150500D01*
X153839110Y-119150500D01*
X153970890Y-119150500D01*
X153970892Y-119150500D01*
X154098186Y-119116392D01*
X154212314Y-119050500D01*
X154305500Y-118957314D01*
X154371392Y-118843186D01*
X154405500Y-118715892D01*
X154405500Y-118584108D01*
X154371392Y-118456814D01*
X154305500Y-118342686D01*
X154212314Y-118249500D01*
X154155250Y-118216554D01*
X154098187Y-118183608D01*
X154034539Y-118166554D01*
X153970892Y-118149500D01*
X153970891Y-118149500D01*
X153916189Y-118149500D01*
X153849150Y-118129815D01*
X153828508Y-118113181D01*
X153704864Y-117989537D01*
X153704862Y-117989535D01*
X153662666Y-117965173D01*
X153630640Y-117946682D01*
X153589246Y-117935591D01*
X153547853Y-117924500D01*
X153547852Y-117924500D01*
X152653676Y-117924500D01*
X152586637Y-117904815D01*
X152565995Y-117888181D01*
X152527316Y-117849502D01*
X152527314Y-117849500D01*
X152470250Y-117816554D01*
X152413187Y-117783608D01*
X152349539Y-117766554D01*
X152285892Y-117749500D01*
X152154108Y-117749500D01*
X152026812Y-117783608D01*
X151912686Y-117849500D01*
X151912683Y-117849502D01*
X151819502Y-117942683D01*
X151819500Y-117942686D01*
X151753608Y-118056812D01*
X151729039Y-118148506D01*
X151719500Y-118184108D01*
X118850500Y-118184108D01*
X118850500Y-109790764D01*
X121114500Y-109790764D01*
X121114500Y-109922548D01*
X121123146Y-109954815D01*
X121148608Y-110049843D01*
X121181554Y-110106906D01*
X121214500Y-110163970D01*
X121307686Y-110257156D01*
X121421814Y-110323048D01*
X121549108Y-110357156D01*
X121549110Y-110357156D01*
X121680890Y-110357156D01*
X121680892Y-110357156D01*
X121808186Y-110323048D01*
X121922314Y-110257156D01*
X122015500Y-110163970D01*
X122081392Y-110049842D01*
X122115500Y-109922548D01*
X122115500Y-109903200D01*
X122135185Y-109836161D01*
X122151819Y-109815519D01*
X123143230Y-108824108D01*
X124174500Y-108824108D01*
X124174500Y-108955891D01*
X124208608Y-109083187D01*
X124241554Y-109140250D01*
X124274500Y-109197314D01*
X124367686Y-109290500D01*
X124466521Y-109347563D01*
X124476496Y-109353322D01*
X124481814Y-109356392D01*
X124609108Y-109390500D01*
X124609110Y-109390500D01*
X124740890Y-109390500D01*
X124740892Y-109390500D01*
X124868186Y-109356392D01*
X124982314Y-109290500D01*
X125020995Y-109251819D01*
X125082318Y-109218334D01*
X125108676Y-109215500D01*
X126588811Y-109215500D01*
X126655850Y-109235185D01*
X126676492Y-109251819D01*
X127313181Y-109888508D01*
X127346666Y-109949831D01*
X127349500Y-109976189D01*
X127349500Y-116556324D01*
X127329815Y-116623363D01*
X127313181Y-116644005D01*
X127274502Y-116682683D01*
X127274500Y-116682686D01*
X127208608Y-116796812D01*
X127188113Y-116873303D01*
X127174500Y-116924108D01*
X127174500Y-117055892D01*
X127175735Y-117060500D01*
X127208608Y-117183187D01*
X127241554Y-117240250D01*
X127274500Y-117297314D01*
X127367686Y-117390500D01*
X127481814Y-117456392D01*
X127609108Y-117490500D01*
X127609110Y-117490500D01*
X127740890Y-117490500D01*
X127740892Y-117490500D01*
X127868186Y-117456392D01*
X127982314Y-117390500D01*
X128075500Y-117297314D01*
X128141392Y-117183186D01*
X128175500Y-117055892D01*
X128175500Y-116924108D01*
X128141392Y-116796814D01*
X128075500Y-116682686D01*
X128036819Y-116644005D01*
X128003334Y-116582682D01*
X128000500Y-116556324D01*
X128000500Y-109747149D01*
X128000499Y-109747145D01*
X127990677Y-109710487D01*
X127990676Y-109710486D01*
X127990674Y-109710476D01*
X127978318Y-109664361D01*
X127935465Y-109590138D01*
X127074862Y-108729535D01*
X126974862Y-108629535D01*
X126937750Y-108608108D01*
X126900640Y-108586682D01*
X126859246Y-108575591D01*
X126817853Y-108564500D01*
X126817852Y-108564500D01*
X125108676Y-108564500D01*
X125041637Y-108544815D01*
X125020995Y-108528181D01*
X124982316Y-108489502D01*
X124982314Y-108489500D01*
X124925250Y-108456554D01*
X124868187Y-108423608D01*
X124792458Y-108403317D01*
X124740892Y-108389500D01*
X124609108Y-108389500D01*
X124481812Y-108423608D01*
X124367686Y-108489500D01*
X124367683Y-108489502D01*
X124274502Y-108582683D01*
X124274500Y-108582686D01*
X124208608Y-108696812D01*
X124174500Y-108824108D01*
X123143230Y-108824108D01*
X126880519Y-105086819D01*
X126941842Y-105053334D01*
X126968200Y-105050500D01*
X132216324Y-105050500D01*
X132283363Y-105070185D01*
X132304005Y-105086819D01*
X132317686Y-105100500D01*
X132431814Y-105166392D01*
X132559108Y-105200500D01*
X132559110Y-105200500D01*
X132690890Y-105200500D01*
X132690892Y-105200500D01*
X132818186Y-105166392D01*
X132932314Y-105100500D01*
X133025500Y-105007314D01*
X133091392Y-104893186D01*
X133125500Y-104765892D01*
X133125500Y-104634108D01*
X133091392Y-104506814D01*
X133025500Y-104392686D01*
X132932314Y-104299500D01*
X132875250Y-104266554D01*
X132818187Y-104233608D01*
X132754539Y-104216554D01*
X132690892Y-104199500D01*
X132559108Y-104199500D01*
X132431812Y-104233608D01*
X132317686Y-104299500D01*
X132317683Y-104299502D01*
X132304005Y-104313181D01*
X132242682Y-104346666D01*
X132216324Y-104349500D01*
X126725512Y-104349500D01*
X126636368Y-104373386D01*
X126636365Y-104373387D01*
X126556447Y-104419527D01*
X126556442Y-104419531D01*
X121656137Y-109319837D01*
X121594814Y-109353322D01*
X121568456Y-109356156D01*
X121549108Y-109356156D01*
X121421812Y-109390264D01*
X121307686Y-109456156D01*
X121307683Y-109456158D01*
X121214502Y-109549339D01*
X121214500Y-109549342D01*
X121148608Y-109663468D01*
X121126187Y-109747147D01*
X121114500Y-109790764D01*
X118850500Y-109790764D01*
X118850500Y-84300000D01*
X122730000Y-84300000D01*
X124820000Y-84300000D01*
X124820000Y-83234108D01*
X126474500Y-83234108D01*
X126474500Y-83365891D01*
X126508608Y-83493187D01*
X126541554Y-83550250D01*
X126574500Y-83607314D01*
X126667686Y-83700500D01*
X126781814Y-83766392D01*
X126909108Y-83800500D01*
X126909110Y-83800500D01*
X127040890Y-83800500D01*
X127040892Y-83800500D01*
X127168186Y-83766392D01*
X127282314Y-83700500D01*
X127375500Y-83607314D01*
X127441392Y-83493186D01*
X127475500Y-83365892D01*
X127475500Y-83311189D01*
X127495185Y-83244150D01*
X127511819Y-83223508D01*
X129921516Y-80813811D01*
X132485465Y-78249862D01*
X132528318Y-78175639D01*
X132550500Y-78092853D01*
X132550500Y-78007147D01*
X132550500Y-68661189D01*
X132570185Y-68594150D01*
X132586819Y-68573508D01*
X134773508Y-66386819D01*
X134834831Y-66353334D01*
X134861189Y-66350500D01*
X138541324Y-66350500D01*
X138608363Y-66370185D01*
X138629005Y-66386819D01*
X138667686Y-66425500D01*
X138738513Y-66466392D01*
X138780944Y-66490890D01*
X138781814Y-66491392D01*
X138909108Y-66525500D01*
X138909110Y-66525500D01*
X139040890Y-66525500D01*
X139040892Y-66525500D01*
X139168186Y-66491392D01*
X139282314Y-66425500D01*
X139375500Y-66332314D01*
X139441392Y-66218186D01*
X139475500Y-66090892D01*
X139475500Y-65959108D01*
X139441392Y-65831814D01*
X139375500Y-65717686D01*
X139282314Y-65624500D01*
X139225250Y-65591554D01*
X139168187Y-65558608D01*
X139076425Y-65534021D01*
X139040892Y-65524500D01*
X138909108Y-65524500D01*
X138781812Y-65558608D01*
X138667686Y-65624500D01*
X138667683Y-65624502D01*
X138629005Y-65663181D01*
X138567682Y-65696666D01*
X138541324Y-65699500D01*
X134632147Y-65699500D01*
X134549359Y-65721682D01*
X134475138Y-65764535D01*
X134475135Y-65764537D01*
X131964537Y-68275135D01*
X131964533Y-68275141D01*
X131921681Y-68349361D01*
X131921682Y-68349362D01*
X131899500Y-68432147D01*
X131899500Y-77863811D01*
X131879815Y-77930850D01*
X131863181Y-77951492D01*
X127051492Y-82763181D01*
X126990169Y-82796666D01*
X126963811Y-82799500D01*
X126909108Y-82799500D01*
X126781812Y-82833608D01*
X126667686Y-82899500D01*
X126667683Y-82899502D01*
X126574502Y-82992683D01*
X126574500Y-82992686D01*
X126508608Y-83106812D01*
X126474500Y-83234108D01*
X124820000Y-83234108D01*
X124820000Y-82400000D01*
X122730000Y-82400000D01*
X122730000Y-84300000D01*
X118850500Y-84300000D01*
X118850500Y-76971530D01*
X123649500Y-76971530D01*
X123649500Y-77178469D01*
X123689868Y-77381412D01*
X123689870Y-77381420D01*
X123769058Y-77572596D01*
X123884024Y-77744657D01*
X124030342Y-77890975D01*
X124030345Y-77890977D01*
X124202402Y-78005941D01*
X124393580Y-78085130D01*
X124596530Y-78125499D01*
X124596534Y-78125500D01*
X124596535Y-78125500D01*
X125103466Y-78125500D01*
X125103467Y-78125499D01*
X125306420Y-78085130D01*
X125497598Y-78005941D01*
X125669655Y-77890977D01*
X125815977Y-77744655D01*
X125930941Y-77572598D01*
X126010130Y-77381420D01*
X126050500Y-77178465D01*
X126050500Y-76971535D01*
X126010130Y-76768580D01*
X125930941Y-76577402D01*
X125815977Y-76405345D01*
X125815975Y-76405342D01*
X125669657Y-76259024D01*
X125583626Y-76201541D01*
X125497598Y-76144059D01*
X125306420Y-76064870D01*
X125306412Y-76064868D01*
X125103469Y-76024500D01*
X125103465Y-76024500D01*
X124596535Y-76024500D01*
X124596530Y-76024500D01*
X124393587Y-76064868D01*
X124393579Y-76064870D01*
X124202403Y-76144058D01*
X124030342Y-76259024D01*
X123884024Y-76405342D01*
X123769058Y-76577403D01*
X123689870Y-76768579D01*
X123689868Y-76768587D01*
X123649500Y-76971530D01*
X118850500Y-76971530D01*
X118850500Y-73920730D01*
X123649500Y-73920730D01*
X123649500Y-75229269D01*
X123652353Y-75259699D01*
X123652353Y-75259701D01*
X123683779Y-75349508D01*
X123697207Y-75387882D01*
X123777850Y-75497150D01*
X123887118Y-75577793D01*
X123929845Y-75592744D01*
X124015299Y-75622646D01*
X124045730Y-75625500D01*
X124045734Y-75625500D01*
X125654270Y-75625500D01*
X125684699Y-75622646D01*
X125684701Y-75622646D01*
X125748790Y-75600219D01*
X125812882Y-75577793D01*
X125922150Y-75497150D01*
X126002793Y-75387882D01*
X126025219Y-75323790D01*
X126047646Y-75259701D01*
X126047646Y-75259699D01*
X126050500Y-75229269D01*
X126050500Y-73920730D01*
X126047646Y-73890300D01*
X126047646Y-73890298D01*
X126002793Y-73762119D01*
X126002792Y-73762117D01*
X125922150Y-73652850D01*
X125812882Y-73572207D01*
X125812880Y-73572206D01*
X125684700Y-73527353D01*
X125654270Y-73524500D01*
X125654266Y-73524500D01*
X124045734Y-73524500D01*
X124045730Y-73524500D01*
X124015300Y-73527353D01*
X124015298Y-73527353D01*
X123887119Y-73572206D01*
X123887117Y-73572207D01*
X123777850Y-73652850D01*
X123697207Y-73762117D01*
X123697206Y-73762119D01*
X123652353Y-73890298D01*
X123652353Y-73890300D01*
X123649500Y-73920730D01*
X118850500Y-73920730D01*
X118850500Y-64274969D01*
X118870185Y-64207930D01*
X118922989Y-64162175D01*
X118992147Y-64152231D01*
X119055703Y-64181256D01*
X119062181Y-64187288D01*
X119201904Y-64327011D01*
X119373363Y-64451583D01*
X119562198Y-64547800D01*
X119763761Y-64613292D01*
X119973086Y-64646446D01*
X119973087Y-64646446D01*
X120185021Y-64646446D01*
X120185022Y-64646446D01*
X120394347Y-64613292D01*
X120595910Y-64547800D01*
X120784745Y-64451583D01*
X120956204Y-64327011D01*
X121106065Y-64177150D01*
X121230637Y-64005691D01*
X121326854Y-63816856D01*
X121392346Y-63615293D01*
X121425500Y-63405968D01*
X121425500Y-63194032D01*
X121392346Y-62984707D01*
X121326854Y-62783144D01*
X121230637Y-62594309D01*
X121106065Y-62422850D01*
X120995396Y-62312181D01*
X120961911Y-62250858D01*
X120966895Y-62181166D01*
X121008767Y-62125233D01*
X121074231Y-62100816D01*
X121083077Y-62100500D01*
X172975031Y-62100500D01*
X173042070Y-62120185D01*
G37*
%TD.AperFunction*%
%TD*%
M02*
