%TF.GenerationSoftware,KiCad,Pcbnew,9.0.7*%
%TF.CreationDate,2026-07-07T23:04:11+05:30*%
%TF.ProjectId,UAV PAYLOAD CONTROLLER,55415620-5041-4594-9c4f-414420434f4e,1*%
%TF.SameCoordinates,Original*%
%TF.FileFunction,Copper,L2,Inr*%
%TF.FilePolarity,Positive*%
%FSLAX46Y46*%
G04 Gerber Fmt 4.6, Leading zero omitted, Abs format (unit mm)*
G04 Created by KiCad (PCBNEW 9.0.7) date 2026-07-07 23:04:11*
%MOMM*%
%LPD*%
G01*
G04 APERTURE LIST*
G04 Aperture macros list*
%AMRoundRect*
0 Rectangle with rounded corners*
0 $1 Rounding radius*
0 $2 $3 $4 $5 $6 $7 $8 $9 X,Y pos of 4 corners*
0 Add a 4 corners polygon primitive as box body*
4,1,4,$2,$3,$4,$5,$6,$7,$8,$9,$2,$3,0*
0 Add four circle primitives for the rounded corners*
1,1,$1+$1,$2,$3*
1,1,$1+$1,$4,$5*
1,1,$1+$1,$6,$7*
1,1,$1+$1,$8,$9*
0 Add four rect primitives between the rounded corners*
20,1,$1+$1,$2,$3,$4,$5,0*
20,1,$1+$1,$4,$5,$6,$7,0*
20,1,$1+$1,$6,$7,$8,$9,0*
20,1,$1+$1,$8,$9,$2,$3,0*%
G04 Aperture macros list end*
%TA.AperFunction,ComponentPad*%
%ADD10R,1.700000X1.700000*%
%TD*%
%TA.AperFunction,ComponentPad*%
%ADD11C,1.700000*%
%TD*%
%TA.AperFunction,ComponentPad*%
%ADD12RoundRect,0.250000X-0.750000X0.600000X-0.750000X-0.600000X0.750000X-0.600000X0.750000X0.600000X0*%
%TD*%
%TA.AperFunction,ComponentPad*%
%ADD13O,2.000000X1.700000*%
%TD*%
%TA.AperFunction,ComponentPad*%
%ADD14RoundRect,0.250000X-0.600000X-0.725000X0.600000X-0.725000X0.600000X0.725000X-0.600000X0.725000X0*%
%TD*%
%TA.AperFunction,ComponentPad*%
%ADD15O,1.700000X1.950000*%
%TD*%
%TA.AperFunction,HeatsinkPad*%
%ADD16O,1.000000X2.100000*%
%TD*%
%TA.AperFunction,HeatsinkPad*%
%ADD17O,1.000000X1.600000*%
%TD*%
%TA.AperFunction,ViaPad*%
%ADD18C,0.600000*%
%TD*%
G04 APERTURE END LIST*
D10*
%TO.N,/5V_rail*%
%TO.C,J4*%
X160122500Y-125642500D03*
D11*
%TO.N,GND*%
X162662500Y-125642500D03*
%TO.N,/FLOW_SENSOR/OUT*%
X165202500Y-125642500D03*
%TD*%
D12*
%TO.N,/PUMP_UNIT/PUMP+*%
%TO.C,J6*%
X124850000Y-74575000D03*
D13*
%TO.N,/PUMP_UNIT/PUMP-*%
X124850000Y-77075000D03*
%TD*%
D14*
%TO.N,/TANK_SENSOR/LOADCELL_EP (E+)*%
%TO.C,J5*%
X145805000Y-122650000D03*
D15*
%TO.N,GND*%
X148305000Y-122650000D03*
%TO.N,/TANK_SENSOR/LOADCELL_AP (A+)*%
X150805000Y-122650000D03*
%TO.N,/TANK_SENSOR/LOADCELL_AN (A-)*%
X153305000Y-122650000D03*
%TD*%
D10*
%TO.N,/3V3_rail*%
%TO.C,J10*%
X151090000Y-64600000D03*
D11*
%TO.N,GND*%
X153630000Y-64600000D03*
%TO.N,/STM32_UNIT/SWDIO_PA13*%
X156170000Y-64600000D03*
%TO.N,/STM32_UNIT/SWCLK_PA14*%
X158710000Y-64600000D03*
%TO.N,/STM32_UNIT/nRESET*%
X161250000Y-64600000D03*
%TD*%
D16*
%TO.N,GND*%
%TO.C,J8*%
X170818000Y-108130000D03*
D17*
X170818000Y-103950000D03*
D16*
X162178000Y-108130000D03*
D17*
X162178000Y-103950000D03*
%TD*%
D10*
%TO.N,/USB_INTERFACE/RST*%
%TO.C,J9*%
X172935000Y-113470000D03*
D11*
%TO.N,/STM32_UNIT/UART_FC_TX_PA2*%
X172935000Y-116010000D03*
%TO.N,/STM32_UNIT/UART_FC_RX_PA3*%
X172935000Y-118550000D03*
%TO.N,/5V_rail*%
X172935000Y-121090000D03*
%TO.N,GND*%
X172935000Y-123630000D03*
%TD*%
D10*
%TO.N,/POWER_SUPPLY/12V_INPUT*%
%TO.C,J1*%
X121840000Y-124237500D03*
D11*
%TO.N,GND*%
X121840000Y-121697500D03*
%TD*%
D18*
%TO.N,Net-(D1-K)*%
X133076000Y-115350000D03*
X131400000Y-115350000D03*
%TO.N,/12V_PROTECTED*%
X124222140Y-119409402D03*
X139525000Y-74525000D03*
X120150000Y-126800000D03*
X129125000Y-116750000D03*
%TO.N,GND*%
X163416681Y-112202559D03*
X165778212Y-115419092D03*
X147477055Y-97450000D03*
X165100000Y-92300000D03*
X130450000Y-81000000D03*
X156800000Y-105900000D03*
X158274000Y-106050000D03*
X163200000Y-103975000D03*
X147900000Y-118850000D03*
X162375000Y-86875000D03*
X153550000Y-62675000D03*
X151802380Y-86097620D03*
X148075000Y-65525000D03*
X146991942Y-100666942D03*
X147261841Y-95410169D03*
X121925000Y-87025000D03*
X124800000Y-128425000D03*
X142650000Y-102825000D03*
X127325000Y-120375000D03*
X146725000Y-107900000D03*
X146375000Y-105250000D03*
X170475000Y-123625000D03*
X127475000Y-107275000D03*
X167776000Y-93425000D03*
X137875000Y-76900000D03*
X134325000Y-75050000D03*
X154575000Y-109100000D03*
X159025000Y-113350000D03*
X162000000Y-97650000D03*
X172175000Y-65525000D03*
X140800000Y-127125000D03*
X121600000Y-81850000D03*
X163998818Y-111844651D03*
X159950000Y-120275000D03*
X142000000Y-64550000D03*
X128300000Y-105600000D03*
X142550000Y-85350000D03*
X158274000Y-104875000D03*
X165346981Y-112895981D03*
X160134892Y-111490108D03*
X119775000Y-118925000D03*
X172775000Y-86350000D03*
X168175000Y-63650000D03*
X154425000Y-110300000D03*
X125950000Y-69825000D03*
X122850000Y-117350000D03*
X140875000Y-84750000D03*
X151952198Y-87021341D03*
X127984442Y-109215558D03*
X152850000Y-110275000D03*
X127950000Y-91900000D03*
X156825000Y-97903876D03*
X123775000Y-104575000D03*
X121550000Y-84825000D03*
X159466652Y-91225000D03*
X126675000Y-120000000D03*
X160734994Y-115625000D03*
X146925000Y-103800000D03*
X161771002Y-100820114D03*
X158175000Y-82450000D03*
X119775000Y-121700000D03*
X143075000Y-69475000D03*
X161800000Y-109675000D03*
X169026000Y-90400000D03*
X167125000Y-113300000D03*
X171525000Y-93800000D03*
X139225000Y-67525000D03*
X153775000Y-72425000D03*
X168400000Y-112295558D03*
X144075000Y-94375000D03*
X128700000Y-127575000D03*
X162675000Y-127675000D03*
X172275000Y-103925000D03*
X128675000Y-119725000D03*
X145870000Y-118925000D03*
X147008058Y-89366942D03*
X170175000Y-63375000D03*
X122275000Y-107050000D03*
X156400000Y-86375000D03*
X123275000Y-118375000D03*
%TO.N,/5V_rail*%
X172007018Y-114813883D03*
X160947392Y-112302608D03*
X162600000Y-114850000D03*
X174450000Y-120975000D03*
X132950000Y-127925000D03*
X170675000Y-121100000D03*
X161125000Y-120775000D03*
X161125000Y-124150000D03*
X139425000Y-107250000D03*
X169300000Y-112475000D03*
X170153964Y-112182862D03*
X158025000Y-125075000D03*
X132625000Y-104700000D03*
X158050000Y-120850000D03*
X162025000Y-114450000D03*
X158950000Y-120250000D03*
X121615000Y-109856656D03*
%TO.N,/3V3_rail*%
X169026000Y-92000000D03*
X156400000Y-104500000D03*
X144250000Y-89925000D03*
X147220558Y-98670558D03*
X131826000Y-123000000D03*
X120880000Y-115105000D03*
X144075000Y-96725000D03*
X147174384Y-93105529D03*
X144900000Y-66025000D03*
X150400000Y-88000000D03*
X150375000Y-99075000D03*
X169450000Y-87125000D03*
X164200000Y-62600000D03*
X143150000Y-111825000D03*
X148750000Y-64625000D03*
X146200000Y-102625000D03*
X162125000Y-121025000D03*
X160233000Y-89900000D03*
X158125000Y-108725000D03*
X166825000Y-65475000D03*
X160475000Y-89050000D03*
X169875000Y-95000000D03*
X137450000Y-127275000D03*
X157625000Y-110425000D03*
X144175000Y-68025000D03*
X165541829Y-98541829D03*
X159600000Y-96900000D03*
X143675000Y-106600000D03*
X171850000Y-87275000D03*
X150375000Y-100200000D03*
X163123631Y-95825897D03*
X171500000Y-66475000D03*
X166850000Y-87325000D03*
X126350000Y-130375000D03*
X142975000Y-116825000D03*
X153400000Y-85150000D03*
%TO.N,Net-(J2-In)*%
X126975000Y-83300000D03*
X138975000Y-66025000D03*
%TO.N,/STM32_UNIT/nRESET*%
X150375000Y-108100000D03*
X153475000Y-106400000D03*
X161275000Y-66000000D03*
X162975000Y-100500000D03*
%TO.N,/USB_INTERFACE/RST*%
X169010776Y-114234529D03*
X170935000Y-114050000D03*
%TO.N,/USB_INTERFACE/D+*%
X166335000Y-106750000D03*
X172275000Y-100950000D03*
%TO.N,/USB_INTERFACE/D-*%
X167273143Y-107728104D03*
X164652562Y-113494579D03*
X166875000Y-110970000D03*
X172235000Y-102150000D03*
%TO.N,/SD/SD_SPI_DETB_PB4*%
X148062577Y-93986519D03*
X143725002Y-92400000D03*
%TO.N,/TANK_SENSOR/LOADCELL_AN (A-)*%
X153905000Y-118650000D03*
X152220000Y-118250000D03*
%TO.N,/STM32_UNIT/SWCLK_PA14*%
X155900000Y-66750000D03*
X148150000Y-89625000D03*
%TO.N,/STM32_UNIT/SWDIO_PA13*%
X149250000Y-66425000D03*
X152800000Y-87200000D03*
%TO.N,/STM32_UNIT/UART_FC_RX_PA3*%
X160975000Y-100900000D03*
X170129285Y-115513425D03*
%TO.N,/STM32_UNIT/UART_FC_TX_PA2*%
X170375000Y-118800000D03*
X171256392Y-116472806D03*
X159775000Y-109100000D03*
X168972027Y-118744762D03*
X160503052Y-103256284D03*
X159575000Y-100300000D03*
%TO.N,+3V3*%
X127675000Y-116990000D03*
X124675000Y-108890000D03*
%TO.N,/IMU/IMU_INT_PB0*%
X167775000Y-97300000D03*
X158843756Y-93573819D03*
%TO.N,/IMU/IMU_SPI_MOSI_PA7*%
X164275000Y-93200000D03*
X164675000Y-97300000D03*
%TO.N,/IMU/IMU_SPI_MISO_PA6*%
X160499117Y-98550001D03*
X162875000Y-98550000D03*
%TO.N,/IMU/IMU_CS_PA4*%
X162392603Y-95287505D03*
X162065380Y-96709620D03*
%TO.N,/LoRA_MODULE/LORA_RESET_PC7*%
X165275000Y-67100000D03*
X156575000Y-89800000D03*
%TO.N,/LoRA_MODULE/LORA_NSS_PB12*%
X162475000Y-89500000D03*
X158575000Y-90525000D03*
%TO.N,/LoRA_MODULE/LORA_SPI_MOSI_PB15*%
X163275000Y-88875000D03*
X157538831Y-89734755D03*
%TO.N,/LoRA_MODULE/LORA_SPI_MISO_PB14*%
X162575000Y-88200000D03*
X159675000Y-88200000D03*
%TO.N,/SD/SD_SPI_MOSI_PC12*%
X148109053Y-94785170D03*
X150656936Y-93785021D03*
%TO.N,/SD/SD_SPI_CS_PB5*%
X150725000Y-94650000D03*
X148925000Y-98800000D03*
%TO.N,/SD/SD_SPI_MISO_PC11*%
X150693031Y-91981969D03*
X146375653Y-92676193D03*
%TO.N,/FLOW_SENSOR/FLOW_OUT_PB7*%
X165150000Y-120625000D03*
X151000000Y-95525000D03*
%TO.N,/PUMP_UNIT/PUMP_STM_PWM_PB10*%
X132300000Y-84850000D03*
X157500764Y-92424236D03*
X149475000Y-89575000D03*
X138100000Y-89275000D03*
%TO.N,/LoRA_MODULE/LORA_DIO0_PC6*%
X163575000Y-67000000D03*
X157183000Y-86800000D03*
%TO.N,/STM32_UNIT/HX711_SCK_PB9*%
X148975000Y-105300000D03*
X151000000Y-97200000D03*
%TO.N,/STM32_UNIT/HX711_DOUT_PB8*%
X148289004Y-104888402D03*
X148102055Y-96727055D03*
%TO.N,/GPS/GPS_TXD_PA10_RXD*%
X150855887Y-84175000D03*
X154275000Y-87000000D03*
%TO.N,/GPS/GPS_PPS_PB1*%
X152675000Y-72300000D03*
X159275000Y-92900000D03*
%TO.N,/GPS/GPS_RXD_PA9_TXD*%
X147475000Y-86700000D03*
X151227908Y-81867794D03*
%TD*%
%TA.AperFunction,Conductor*%
%TO.N,GND*%
G36*
X163762724Y-62120185D02*
G01*
X163808479Y-62172989D01*
X163818423Y-62242147D01*
X163803072Y-62286501D01*
X163799502Y-62292683D01*
X163799500Y-62292686D01*
X163791985Y-62305703D01*
X163733608Y-62406812D01*
X163699500Y-62534108D01*
X163699500Y-62665892D01*
X163716554Y-62729539D01*
X163733608Y-62793187D01*
X163742242Y-62808141D01*
X163799500Y-62907314D01*
X163892686Y-63000500D01*
X164006814Y-63066392D01*
X164134108Y-63100500D01*
X164134110Y-63100500D01*
X164265890Y-63100500D01*
X164265892Y-63100500D01*
X164393186Y-63066392D01*
X164507314Y-63000500D01*
X164600500Y-62907314D01*
X164666392Y-62793186D01*
X164700500Y-62665892D01*
X164700500Y-62534108D01*
X164666392Y-62406814D01*
X164600500Y-62292686D01*
X164600497Y-62292683D01*
X164596928Y-62286501D01*
X164580455Y-62218601D01*
X164603307Y-62152574D01*
X164658228Y-62109383D01*
X164704315Y-62100500D01*
X172975031Y-62100500D01*
X173042070Y-62120185D01*
X173087825Y-62172989D01*
X173097769Y-62242147D01*
X173068744Y-62305703D01*
X173062712Y-62312181D01*
X172927045Y-62447847D01*
X172802471Y-62619308D01*
X172706255Y-62808141D01*
X172640761Y-63009710D01*
X172615722Y-63167804D01*
X172607608Y-63219032D01*
X172607608Y-63279910D01*
X172607608Y-63430968D01*
X172611762Y-63457196D01*
X172632775Y-63589870D01*
X172640762Y-63640293D01*
X172706254Y-63841856D01*
X172802471Y-64030691D01*
X172927043Y-64202150D01*
X173076904Y-64352011D01*
X173248363Y-64476583D01*
X173437198Y-64572800D01*
X173638761Y-64638292D01*
X173848086Y-64671446D01*
X173848087Y-64671446D01*
X174060021Y-64671446D01*
X174060022Y-64671446D01*
X174269347Y-64638292D01*
X174470910Y-64572800D01*
X174659745Y-64476583D01*
X174831204Y-64352011D01*
X174937819Y-64245396D01*
X174999142Y-64211911D01*
X175068834Y-64216895D01*
X175124767Y-64258767D01*
X175149184Y-64324231D01*
X175149500Y-64333077D01*
X175149500Y-120722793D01*
X175129815Y-120789832D01*
X175077011Y-120835587D01*
X175007853Y-120845531D01*
X174944297Y-120816506D01*
X174918113Y-120784794D01*
X174882316Y-120722793D01*
X174850500Y-120667686D01*
X174757314Y-120574500D01*
X174670712Y-120524500D01*
X174643187Y-120508608D01*
X174579539Y-120491554D01*
X174515892Y-120474500D01*
X174384108Y-120474500D01*
X174256812Y-120508608D01*
X174142686Y-120574500D01*
X174072978Y-120644208D01*
X174011654Y-120677692D01*
X173941963Y-120672707D01*
X173886029Y-120630836D01*
X173870735Y-120603976D01*
X173865942Y-120592404D01*
X173861994Y-120586496D01*
X173750977Y-120420345D01*
X173750975Y-120420342D01*
X173604657Y-120274024D01*
X173518626Y-120216541D01*
X173432598Y-120159059D01*
X173431509Y-120158608D01*
X173241420Y-120079870D01*
X173241412Y-120079868D01*
X173038469Y-120039500D01*
X173038465Y-120039500D01*
X172831535Y-120039500D01*
X172831530Y-120039500D01*
X172628587Y-120079868D01*
X172628579Y-120079870D01*
X172437403Y-120159058D01*
X172265342Y-120274024D01*
X172119024Y-120420342D01*
X172004058Y-120592403D01*
X171924870Y-120783579D01*
X171924868Y-120783587D01*
X171884500Y-120986530D01*
X171884500Y-121193469D01*
X171924868Y-121396412D01*
X171924870Y-121396420D01*
X171978336Y-121525499D01*
X172004059Y-121587598D01*
X172008376Y-121594059D01*
X172119024Y-121759657D01*
X172265342Y-121905975D01*
X172265345Y-121905977D01*
X172437402Y-122020941D01*
X172628580Y-122100130D01*
X172831530Y-122140499D01*
X172831534Y-122140500D01*
X172831535Y-122140500D01*
X173038466Y-122140500D01*
X173038467Y-122140499D01*
X173241420Y-122100130D01*
X173432598Y-122020941D01*
X173604655Y-121905977D01*
X173750977Y-121759655D01*
X173865941Y-121587598D01*
X173938102Y-121413384D01*
X173981943Y-121358983D01*
X174048237Y-121336918D01*
X174115936Y-121354197D01*
X174140344Y-121373158D01*
X174142686Y-121375500D01*
X174256814Y-121441392D01*
X174384108Y-121475500D01*
X174384110Y-121475500D01*
X174515890Y-121475500D01*
X174515892Y-121475500D01*
X174643186Y-121441392D01*
X174757314Y-121375500D01*
X174850500Y-121282314D01*
X174887524Y-121218187D01*
X174918113Y-121165206D01*
X174968680Y-121116990D01*
X175037287Y-121103768D01*
X175102152Y-121129736D01*
X175142680Y-121186650D01*
X175149500Y-121227206D01*
X175149500Y-129192488D01*
X175129815Y-129259527D01*
X175077011Y-129305282D01*
X175007853Y-129315226D01*
X174944297Y-129286201D01*
X174931213Y-129273024D01*
X174931069Y-129272855D01*
X174931065Y-129272850D01*
X174781204Y-129122989D01*
X174609745Y-128998417D01*
X174420910Y-128902200D01*
X174219347Y-128836708D01*
X174219345Y-128836707D01*
X174219344Y-128836707D01*
X174058545Y-128811239D01*
X174010022Y-128803554D01*
X173798086Y-128803554D01*
X173749562Y-128811239D01*
X173588764Y-128836707D01*
X173387195Y-128902201D01*
X173198362Y-128998417D01*
X173026901Y-129122991D01*
X172877045Y-129272847D01*
X172752471Y-129444308D01*
X172656255Y-129633141D01*
X172590761Y-129834710D01*
X172564433Y-130000939D01*
X172557608Y-130044032D01*
X172557608Y-130104910D01*
X172557608Y-130255968D01*
X172590762Y-130465293D01*
X172640214Y-130617491D01*
X172656255Y-130666858D01*
X172664130Y-130682313D01*
X172752471Y-130855691D01*
X172877043Y-131027150D01*
X173026904Y-131177011D01*
X173026907Y-131177013D01*
X173030609Y-131180175D01*
X173029359Y-131181637D01*
X173067046Y-131230495D01*
X173073036Y-131300107D01*
X173040439Y-131361907D01*
X172979606Y-131396273D01*
X172951502Y-131399500D01*
X121054023Y-131399500D01*
X120986984Y-131379815D01*
X120941229Y-131327011D01*
X120931285Y-131257853D01*
X120960310Y-131194297D01*
X120966342Y-131187819D01*
X120977153Y-131177008D01*
X121002011Y-131152150D01*
X121126583Y-130980691D01*
X121222800Y-130791856D01*
X121288292Y-130590293D01*
X121321446Y-130380968D01*
X121321446Y-130309108D01*
X125849500Y-130309108D01*
X125849500Y-130440891D01*
X125883608Y-130568187D01*
X125898598Y-130594150D01*
X125949500Y-130682314D01*
X126042686Y-130775500D01*
X126156814Y-130841392D01*
X126284108Y-130875500D01*
X126284110Y-130875500D01*
X126415890Y-130875500D01*
X126415892Y-130875500D01*
X126543186Y-130841392D01*
X126657314Y-130775500D01*
X126750500Y-130682314D01*
X126816392Y-130568186D01*
X126850500Y-130440892D01*
X126850500Y-130309108D01*
X126816392Y-130181814D01*
X126750500Y-130067686D01*
X126657314Y-129974500D01*
X126584584Y-129932509D01*
X126543187Y-129908608D01*
X126421262Y-129875939D01*
X126415892Y-129874500D01*
X126284108Y-129874500D01*
X126156812Y-129908608D01*
X126042686Y-129974500D01*
X126042683Y-129974502D01*
X125949502Y-130067683D01*
X125949500Y-130067686D01*
X125883608Y-130181812D01*
X125849500Y-130309108D01*
X121321446Y-130309108D01*
X121321446Y-130169032D01*
X121288292Y-129959707D01*
X121222800Y-129758144D01*
X121126583Y-129569309D01*
X121002011Y-129397850D01*
X120852150Y-129247989D01*
X120680691Y-129123417D01*
X120491856Y-129027200D01*
X120290293Y-128961708D01*
X120290291Y-128961707D01*
X120290290Y-128961707D01*
X120129491Y-128936239D01*
X120080968Y-128928554D01*
X119869032Y-128928554D01*
X119820508Y-128936239D01*
X119659710Y-128961707D01*
X119458141Y-129027201D01*
X119269308Y-129123417D01*
X119097847Y-129247991D01*
X119062181Y-129283658D01*
X119000858Y-129317143D01*
X118931166Y-129312159D01*
X118875233Y-129270287D01*
X118850816Y-129204823D01*
X118850500Y-129195977D01*
X118850500Y-127859108D01*
X132449500Y-127859108D01*
X132449500Y-127990891D01*
X132483608Y-128118187D01*
X132516554Y-128175250D01*
X132549500Y-128232314D01*
X132642686Y-128325500D01*
X132756814Y-128391392D01*
X132884108Y-128425500D01*
X132884110Y-128425500D01*
X133015890Y-128425500D01*
X133015892Y-128425500D01*
X133143186Y-128391392D01*
X133257314Y-128325500D01*
X133350500Y-128232314D01*
X133416392Y-128118186D01*
X133450500Y-127990892D01*
X133450500Y-127859108D01*
X133416392Y-127731814D01*
X133350500Y-127617686D01*
X133257314Y-127524500D01*
X133200250Y-127491554D01*
X133143187Y-127458608D01*
X133079539Y-127441554D01*
X133015892Y-127424500D01*
X132884108Y-127424500D01*
X132756812Y-127458608D01*
X132642686Y-127524500D01*
X132642683Y-127524502D01*
X132549502Y-127617683D01*
X132549500Y-127617686D01*
X132483608Y-127731812D01*
X132449500Y-127859108D01*
X118850500Y-127859108D01*
X118850500Y-126734108D01*
X119649500Y-126734108D01*
X119649500Y-126865892D01*
X119651807Y-126874502D01*
X119683608Y-126993187D01*
X119716554Y-127050250D01*
X119749500Y-127107314D01*
X119842686Y-127200500D01*
X119956814Y-127266392D01*
X120084108Y-127300500D01*
X120084110Y-127300500D01*
X120215890Y-127300500D01*
X120215892Y-127300500D01*
X120343186Y-127266392D01*
X120442405Y-127209108D01*
X136949500Y-127209108D01*
X136949500Y-127340891D01*
X136983608Y-127468187D01*
X137016121Y-127524500D01*
X137049500Y-127582314D01*
X137142686Y-127675500D01*
X137256814Y-127741392D01*
X137384108Y-127775500D01*
X137384110Y-127775500D01*
X137515890Y-127775500D01*
X137515892Y-127775500D01*
X137643186Y-127741392D01*
X137757314Y-127675500D01*
X137850500Y-127582314D01*
X137916392Y-127468186D01*
X137950500Y-127340892D01*
X137950500Y-127209108D01*
X137916392Y-127081814D01*
X137850500Y-126967686D01*
X137757314Y-126874500D01*
X137700250Y-126841554D01*
X137643187Y-126808608D01*
X137579539Y-126791554D01*
X137515892Y-126774500D01*
X137384108Y-126774500D01*
X137256812Y-126808608D01*
X137142686Y-126874500D01*
X137142683Y-126874502D01*
X137049502Y-126967683D01*
X137049500Y-126967686D01*
X136983608Y-127081812D01*
X136949500Y-127209108D01*
X120442405Y-127209108D01*
X120457314Y-127200500D01*
X120550500Y-127107314D01*
X120616392Y-126993186D01*
X120650500Y-126865892D01*
X120650500Y-126734108D01*
X120616392Y-126606814D01*
X120550500Y-126492686D01*
X120457314Y-126399500D01*
X120400250Y-126366554D01*
X120343187Y-126333608D01*
X120263129Y-126312157D01*
X120215892Y-126299500D01*
X120084108Y-126299500D01*
X119956812Y-126333608D01*
X119842686Y-126399500D01*
X119842683Y-126399502D01*
X119749502Y-126492683D01*
X119749500Y-126492686D01*
X119683608Y-126606812D01*
X119660515Y-126692999D01*
X119649500Y-126734108D01*
X118850500Y-126734108D01*
X118850500Y-123367747D01*
X120789500Y-123367747D01*
X120789500Y-125107252D01*
X120801131Y-125165729D01*
X120801132Y-125165730D01*
X120845447Y-125232052D01*
X120911769Y-125276367D01*
X120911770Y-125276368D01*
X120970247Y-125287999D01*
X120970250Y-125288000D01*
X120970252Y-125288000D01*
X122709750Y-125288000D01*
X122709751Y-125287999D01*
X122724568Y-125285052D01*
X122768229Y-125276368D01*
X122768229Y-125276367D01*
X122768231Y-125276367D01*
X122834552Y-125232052D01*
X122878867Y-125165731D01*
X122878867Y-125165729D01*
X122878868Y-125165729D01*
X122890499Y-125107252D01*
X122890500Y-125107250D01*
X122890500Y-125009108D01*
X157524500Y-125009108D01*
X157524500Y-125140892D01*
X157525575Y-125144903D01*
X157558608Y-125268187D01*
X157591554Y-125325250D01*
X157624500Y-125382314D01*
X157717686Y-125475500D01*
X157816521Y-125532563D01*
X157827731Y-125539035D01*
X157831814Y-125541392D01*
X157959108Y-125575500D01*
X157959110Y-125575500D01*
X158090890Y-125575500D01*
X158090892Y-125575500D01*
X158218186Y-125541392D01*
X158332314Y-125475500D01*
X158425500Y-125382314D01*
X158491392Y-125268186D01*
X158525500Y-125140892D01*
X158525500Y-125009108D01*
X158491392Y-124881814D01*
X158428422Y-124772747D01*
X159072000Y-124772747D01*
X159072000Y-126512252D01*
X159083631Y-126570729D01*
X159083632Y-126570730D01*
X159127947Y-126637052D01*
X159194269Y-126681367D01*
X159194270Y-126681368D01*
X159252747Y-126692999D01*
X159252750Y-126693000D01*
X159252752Y-126693000D01*
X160992250Y-126693000D01*
X160992251Y-126692999D01*
X161007068Y-126690052D01*
X161050729Y-126681368D01*
X161050729Y-126681367D01*
X161050731Y-126681367D01*
X161117052Y-126637052D01*
X161161367Y-126570731D01*
X161161367Y-126570729D01*
X161161368Y-126570729D01*
X161172999Y-126512252D01*
X161173000Y-126512250D01*
X161173000Y-125539030D01*
X164152000Y-125539030D01*
X164152000Y-125745969D01*
X164192368Y-125948912D01*
X164192370Y-125948920D01*
X164271558Y-126140096D01*
X164386524Y-126312157D01*
X164532842Y-126458475D01*
X164532845Y-126458477D01*
X164704902Y-126573441D01*
X164896080Y-126652630D01*
X165040552Y-126681367D01*
X165099030Y-126692999D01*
X165099034Y-126693000D01*
X165099035Y-126693000D01*
X165305966Y-126693000D01*
X165305967Y-126692999D01*
X165508920Y-126652630D01*
X165700098Y-126573441D01*
X165872155Y-126458477D01*
X166018477Y-126312155D01*
X166133441Y-126140098D01*
X166212630Y-125948920D01*
X166253000Y-125745965D01*
X166253000Y-125539035D01*
X166212630Y-125336080D01*
X166133441Y-125144902D01*
X166018477Y-124972845D01*
X166018475Y-124972842D01*
X165872157Y-124826524D01*
X165704155Y-124714270D01*
X165700098Y-124711559D01*
X165552689Y-124650500D01*
X165508920Y-124632370D01*
X165508912Y-124632368D01*
X165305969Y-124592000D01*
X165305965Y-124592000D01*
X165099035Y-124592000D01*
X165099030Y-124592000D01*
X164896087Y-124632368D01*
X164896079Y-124632370D01*
X164704903Y-124711558D01*
X164532842Y-124826524D01*
X164386524Y-124972842D01*
X164271558Y-125144903D01*
X164192370Y-125336079D01*
X164192368Y-125336087D01*
X164152000Y-125539030D01*
X161173000Y-125539030D01*
X161173000Y-124772749D01*
X161172403Y-124766687D01*
X161174252Y-124766504D01*
X161179697Y-124705568D01*
X161222553Y-124650385D01*
X161262997Y-124631179D01*
X161318186Y-124616392D01*
X161432314Y-124550500D01*
X161525500Y-124457314D01*
X161591392Y-124343186D01*
X161625500Y-124215892D01*
X161625500Y-124084108D01*
X161591392Y-123956814D01*
X161525500Y-123842686D01*
X161432314Y-123749500D01*
X161356868Y-123705941D01*
X161318187Y-123683608D01*
X161254539Y-123666554D01*
X161190892Y-123649500D01*
X161059108Y-123649500D01*
X160931812Y-123683608D01*
X160817686Y-123749500D01*
X160817683Y-123749502D01*
X160724502Y-123842683D01*
X160724500Y-123842686D01*
X160658608Y-123956812D01*
X160624500Y-124084108D01*
X160624500Y-124215892D01*
X160658608Y-124343186D01*
X160694874Y-124406001D01*
X160711347Y-124473899D01*
X160688495Y-124539926D01*
X160633574Y-124583117D01*
X160587487Y-124592000D01*
X159252747Y-124592000D01*
X159194270Y-124603631D01*
X159194269Y-124603632D01*
X159127947Y-124647947D01*
X159083632Y-124714269D01*
X159083631Y-124714270D01*
X159072000Y-124772747D01*
X158428422Y-124772747D01*
X158425500Y-124767686D01*
X158332314Y-124674500D01*
X158259343Y-124632370D01*
X158218187Y-124608608D01*
X158123051Y-124583117D01*
X158090892Y-124574500D01*
X157959108Y-124574500D01*
X157831812Y-124608608D01*
X157717686Y-124674500D01*
X157717683Y-124674502D01*
X157624502Y-124767683D01*
X157624500Y-124767686D01*
X157558608Y-124881812D01*
X157524500Y-125009108D01*
X122890500Y-125009108D01*
X122890500Y-123367749D01*
X122890499Y-123367747D01*
X122878868Y-123309270D01*
X122878867Y-123309269D01*
X122834552Y-123242947D01*
X122768230Y-123198632D01*
X122768229Y-123198631D01*
X122709752Y-123187000D01*
X122709748Y-123187000D01*
X120970252Y-123187000D01*
X120970247Y-123187000D01*
X120911770Y-123198631D01*
X120911769Y-123198632D01*
X120845447Y-123242947D01*
X120801132Y-123309269D01*
X120801131Y-123309270D01*
X120789500Y-123367747D01*
X118850500Y-123367747D01*
X118850500Y-122934108D01*
X131325500Y-122934108D01*
X131325500Y-123065891D01*
X131359608Y-123193187D01*
X131388338Y-123242947D01*
X131425500Y-123307314D01*
X131518686Y-123400500D01*
X131632814Y-123466392D01*
X131760108Y-123500500D01*
X131760110Y-123500500D01*
X131891890Y-123500500D01*
X131891892Y-123500500D01*
X132019186Y-123466392D01*
X132133314Y-123400500D01*
X132226500Y-123307314D01*
X132292392Y-123193186D01*
X132326500Y-123065892D01*
X132326500Y-122934108D01*
X132292392Y-122806814D01*
X132226500Y-122692686D01*
X132133314Y-122599500D01*
X132076250Y-122566554D01*
X132019187Y-122533608D01*
X131955539Y-122516554D01*
X131891892Y-122499500D01*
X131760108Y-122499500D01*
X131632812Y-122533608D01*
X131518686Y-122599500D01*
X131518683Y-122599502D01*
X131425502Y-122692683D01*
X131425500Y-122692686D01*
X131359608Y-122806812D01*
X131325500Y-122934108D01*
X118850500Y-122934108D01*
X118850500Y-121870730D01*
X144754500Y-121870730D01*
X144754500Y-123429269D01*
X144757353Y-123459699D01*
X144757353Y-123459701D01*
X144802206Y-123587880D01*
X144802207Y-123587882D01*
X144882850Y-123697150D01*
X144992118Y-123777793D01*
X145013089Y-123785131D01*
X145120299Y-123822646D01*
X145150730Y-123825500D01*
X145150734Y-123825500D01*
X146459270Y-123825500D01*
X146489699Y-123822646D01*
X146489701Y-123822646D01*
X146553790Y-123800219D01*
X146617882Y-123777793D01*
X146727150Y-123697150D01*
X146807793Y-123587882D01*
X146838370Y-123500499D01*
X146852646Y-123459701D01*
X146852646Y-123459699D01*
X146855500Y-123429269D01*
X146855500Y-122421530D01*
X149754500Y-122421530D01*
X149754500Y-122878469D01*
X149794868Y-123081412D01*
X149794870Y-123081420D01*
X149843421Y-123198633D01*
X149874059Y-123272598D01*
X149897257Y-123307316D01*
X149989024Y-123444657D01*
X150135342Y-123590975D01*
X150135345Y-123590977D01*
X150307402Y-123705941D01*
X150498580Y-123785130D01*
X150687187Y-123822646D01*
X150701530Y-123825499D01*
X150701534Y-123825500D01*
X150701535Y-123825500D01*
X150908466Y-123825500D01*
X150908467Y-123825499D01*
X151111420Y-123785130D01*
X151302598Y-123705941D01*
X151474655Y-123590977D01*
X151620977Y-123444655D01*
X151735941Y-123272598D01*
X151815130Y-123081420D01*
X151855500Y-122878465D01*
X151855500Y-122421535D01*
X151855499Y-122421530D01*
X152254500Y-122421530D01*
X152254500Y-122878469D01*
X152294868Y-123081412D01*
X152294870Y-123081420D01*
X152343421Y-123198633D01*
X152374059Y-123272598D01*
X152397257Y-123307316D01*
X152489024Y-123444657D01*
X152635342Y-123590975D01*
X152635345Y-123590977D01*
X152807402Y-123705941D01*
X152998580Y-123785130D01*
X153187187Y-123822646D01*
X153201530Y-123825499D01*
X153201534Y-123825500D01*
X153201535Y-123825500D01*
X153408466Y-123825500D01*
X153408467Y-123825499D01*
X153611420Y-123785130D01*
X153802598Y-123705941D01*
X153974655Y-123590977D01*
X154120977Y-123444655D01*
X154235941Y-123272598D01*
X154315130Y-123081420D01*
X154355500Y-122878465D01*
X154355500Y-122421535D01*
X154315130Y-122218580D01*
X154235941Y-122027402D01*
X154120977Y-121855345D01*
X154120975Y-121855342D01*
X153974657Y-121709024D01*
X153888626Y-121651541D01*
X153802598Y-121594059D01*
X153735804Y-121566392D01*
X153611420Y-121514870D01*
X153611412Y-121514868D01*
X153408469Y-121474500D01*
X153408465Y-121474500D01*
X153201535Y-121474500D01*
X153201530Y-121474500D01*
X152998587Y-121514868D01*
X152998579Y-121514870D01*
X152807403Y-121594058D01*
X152635342Y-121709024D01*
X152489024Y-121855342D01*
X152374058Y-122027403D01*
X152294870Y-122218579D01*
X152294868Y-122218587D01*
X152254500Y-122421530D01*
X151855499Y-122421530D01*
X151815130Y-122218580D01*
X151735941Y-122027402D01*
X151620977Y-121855345D01*
X151620975Y-121855342D01*
X151474657Y-121709024D01*
X151388626Y-121651541D01*
X151302598Y-121594059D01*
X151235804Y-121566392D01*
X151111420Y-121514870D01*
X151111412Y-121514868D01*
X150908469Y-121474500D01*
X150908465Y-121474500D01*
X150701535Y-121474500D01*
X150701530Y-121474500D01*
X150498587Y-121514868D01*
X150498579Y-121514870D01*
X150307403Y-121594058D01*
X150135342Y-121709024D01*
X149989024Y-121855342D01*
X149874058Y-122027403D01*
X149794870Y-122218579D01*
X149794868Y-122218587D01*
X149754500Y-122421530D01*
X146855500Y-122421530D01*
X146855500Y-121870730D01*
X146852646Y-121840300D01*
X146852646Y-121840298D01*
X146807793Y-121712119D01*
X146807792Y-121712117D01*
X146727150Y-121602850D01*
X146617882Y-121522207D01*
X146617880Y-121522206D01*
X146489700Y-121477353D01*
X146459270Y-121474500D01*
X146459266Y-121474500D01*
X145150734Y-121474500D01*
X145150730Y-121474500D01*
X145120300Y-121477353D01*
X145120298Y-121477353D01*
X144992119Y-121522206D01*
X144992117Y-121522207D01*
X144882850Y-121602850D01*
X144802207Y-121712117D01*
X144802206Y-121712119D01*
X144757353Y-121840298D01*
X144757353Y-121840300D01*
X144754500Y-121870730D01*
X118850500Y-121870730D01*
X118850500Y-120784108D01*
X157549500Y-120784108D01*
X157549500Y-120915891D01*
X157583608Y-121043187D01*
X157611151Y-121090892D01*
X157649500Y-121157314D01*
X157742686Y-121250500D01*
X157856814Y-121316392D01*
X157984108Y-121350500D01*
X157984110Y-121350500D01*
X158115890Y-121350500D01*
X158115892Y-121350500D01*
X158243186Y-121316392D01*
X158357314Y-121250500D01*
X158450500Y-121157314D01*
X158516392Y-121043186D01*
X158550500Y-120915892D01*
X158550500Y-120812051D01*
X158570185Y-120745012D01*
X158622989Y-120699257D01*
X158692147Y-120689313D01*
X158736499Y-120704663D01*
X158756814Y-120716392D01*
X158884108Y-120750500D01*
X158884110Y-120750500D01*
X159015890Y-120750500D01*
X159015892Y-120750500D01*
X159143186Y-120716392D01*
X159155802Y-120709108D01*
X160624500Y-120709108D01*
X160624500Y-120840891D01*
X160658608Y-120968187D01*
X160691554Y-121025250D01*
X160724500Y-121082314D01*
X160817686Y-121175500D01*
X160931814Y-121241392D01*
X161059108Y-121275500D01*
X161059110Y-121275500D01*
X161190890Y-121275500D01*
X161190892Y-121275500D01*
X161318186Y-121241392D01*
X161432314Y-121175500D01*
X161449897Y-121157916D01*
X161511217Y-121124431D01*
X161580909Y-121129414D01*
X161636844Y-121171284D01*
X161657351Y-121213496D01*
X161658607Y-121218185D01*
X161686456Y-121266421D01*
X161724500Y-121332314D01*
X161817686Y-121425500D01*
X161931814Y-121491392D01*
X162059108Y-121525500D01*
X162059110Y-121525500D01*
X162190890Y-121525500D01*
X162190892Y-121525500D01*
X162318186Y-121491392D01*
X162432314Y-121425500D01*
X162525500Y-121332314D01*
X162591392Y-121218186D01*
X162625500Y-121090892D01*
X162625500Y-120959108D01*
X162591392Y-120831814D01*
X162525500Y-120717686D01*
X162432314Y-120624500D01*
X162358380Y-120581814D01*
X162319053Y-120559108D01*
X164649500Y-120559108D01*
X164649500Y-120690892D01*
X164665472Y-120750500D01*
X164683608Y-120818187D01*
X164710627Y-120864985D01*
X164749500Y-120932314D01*
X164842686Y-121025500D01*
X164941089Y-121082313D01*
X164955944Y-121090890D01*
X164956814Y-121091392D01*
X165084108Y-121125500D01*
X165084110Y-121125500D01*
X165215890Y-121125500D01*
X165215892Y-121125500D01*
X165343186Y-121091392D01*
X165442405Y-121034108D01*
X170174500Y-121034108D01*
X170174500Y-121165892D01*
X170180062Y-121186650D01*
X170208608Y-121293187D01*
X170231200Y-121332316D01*
X170274500Y-121407314D01*
X170367686Y-121500500D01*
X170481814Y-121566392D01*
X170609108Y-121600500D01*
X170609110Y-121600500D01*
X170740890Y-121600500D01*
X170740892Y-121600500D01*
X170868186Y-121566392D01*
X170982314Y-121500500D01*
X171075500Y-121407314D01*
X171141392Y-121293186D01*
X171175500Y-121165892D01*
X171175500Y-121034108D01*
X171141392Y-120906814D01*
X171075500Y-120792686D01*
X170982314Y-120699500D01*
X170908380Y-120656814D01*
X170868187Y-120633608D01*
X170792395Y-120613300D01*
X170740892Y-120599500D01*
X170609108Y-120599500D01*
X170481812Y-120633608D01*
X170367686Y-120699500D01*
X170367683Y-120699502D01*
X170274502Y-120792683D01*
X170274500Y-120792686D01*
X170208608Y-120906812D01*
X170192163Y-120968187D01*
X170174500Y-121034108D01*
X165442405Y-121034108D01*
X165457314Y-121025500D01*
X165550500Y-120932314D01*
X165616392Y-120818186D01*
X165650500Y-120690892D01*
X165650500Y-120559108D01*
X165616392Y-120431814D01*
X165550500Y-120317686D01*
X165457314Y-120224500D01*
X165387353Y-120184108D01*
X165343187Y-120158608D01*
X165279539Y-120141554D01*
X165215892Y-120124500D01*
X165084108Y-120124500D01*
X164956812Y-120158608D01*
X164842686Y-120224500D01*
X164842683Y-120224502D01*
X164749502Y-120317683D01*
X164749500Y-120317686D01*
X164683608Y-120431812D01*
X164673997Y-120467683D01*
X164649500Y-120559108D01*
X162319053Y-120559108D01*
X162318187Y-120558608D01*
X162254539Y-120541554D01*
X162190892Y-120524500D01*
X162059108Y-120524500D01*
X161931812Y-120558608D01*
X161817686Y-120624500D01*
X161817682Y-120624503D01*
X161800100Y-120642085D01*
X161738776Y-120675569D01*
X161669085Y-120670583D01*
X161613152Y-120628710D01*
X161592647Y-120586498D01*
X161591392Y-120581814D01*
X161525500Y-120467686D01*
X161432314Y-120374500D01*
X161333910Y-120317686D01*
X161318187Y-120308608D01*
X161241081Y-120287948D01*
X161190892Y-120274500D01*
X161059108Y-120274500D01*
X160931812Y-120308608D01*
X160817686Y-120374500D01*
X160817683Y-120374502D01*
X160724502Y-120467683D01*
X160724500Y-120467686D01*
X160658608Y-120581812D01*
X160624500Y-120709108D01*
X159155802Y-120709108D01*
X159257314Y-120650500D01*
X159350500Y-120557314D01*
X159416392Y-120443186D01*
X159450500Y-120315892D01*
X159450500Y-120184108D01*
X159416392Y-120056814D01*
X159350500Y-119942686D01*
X159257314Y-119849500D01*
X159200250Y-119816554D01*
X159143187Y-119783608D01*
X159079539Y-119766554D01*
X159015892Y-119749500D01*
X158884108Y-119749500D01*
X158756812Y-119783608D01*
X158642686Y-119849500D01*
X158642683Y-119849502D01*
X158549502Y-119942683D01*
X158549500Y-119942686D01*
X158483608Y-120056812D01*
X158449500Y-120184108D01*
X158449500Y-120287948D01*
X158429815Y-120354987D01*
X158377011Y-120400742D01*
X158307853Y-120410686D01*
X158263502Y-120395336D01*
X158243191Y-120383610D01*
X158243188Y-120383609D01*
X158243187Y-120383608D01*
X158243186Y-120383608D01*
X158115892Y-120349500D01*
X157984108Y-120349500D01*
X157856812Y-120383608D01*
X157742686Y-120449500D01*
X157742683Y-120449502D01*
X157649502Y-120542683D01*
X157649500Y-120542686D01*
X157583608Y-120656812D01*
X157549500Y-120784108D01*
X118850500Y-120784108D01*
X118850500Y-119343510D01*
X123721640Y-119343510D01*
X123721640Y-119475293D01*
X123755748Y-119602589D01*
X123788694Y-119659652D01*
X123821640Y-119716716D01*
X123914826Y-119809902D01*
X124028954Y-119875794D01*
X124156248Y-119909902D01*
X124156250Y-119909902D01*
X124288030Y-119909902D01*
X124288032Y-119909902D01*
X124415326Y-119875794D01*
X124529454Y-119809902D01*
X124622640Y-119716716D01*
X124688532Y-119602588D01*
X124722640Y-119475294D01*
X124722640Y-119343510D01*
X124688532Y-119216216D01*
X124685609Y-119211154D01*
X124679457Y-119200497D01*
X124622640Y-119102088D01*
X124529454Y-119008902D01*
X124440105Y-118957316D01*
X124415327Y-118943010D01*
X124351679Y-118925956D01*
X124288032Y-118908902D01*
X124156248Y-118908902D01*
X124028952Y-118943010D01*
X123914826Y-119008902D01*
X123914823Y-119008904D01*
X123821642Y-119102085D01*
X123821640Y-119102088D01*
X123755748Y-119216214D01*
X123721640Y-119343510D01*
X118850500Y-119343510D01*
X118850500Y-118184108D01*
X151719500Y-118184108D01*
X151719500Y-118315892D01*
X151727102Y-118344262D01*
X151753608Y-118443187D01*
X151761475Y-118456812D01*
X151819500Y-118557314D01*
X151912686Y-118650500D01*
X151961828Y-118678872D01*
X152025944Y-118715890D01*
X152026814Y-118716392D01*
X152154108Y-118750500D01*
X152154110Y-118750500D01*
X152285890Y-118750500D01*
X152285892Y-118750500D01*
X152413186Y-118716392D01*
X152527314Y-118650500D01*
X152593706Y-118584108D01*
X153404500Y-118584108D01*
X153404500Y-118715892D01*
X153413773Y-118750499D01*
X153438608Y-118843187D01*
X153451717Y-118865892D01*
X153504500Y-118957314D01*
X153597686Y-119050500D01*
X153711814Y-119116392D01*
X153839108Y-119150500D01*
X153839110Y-119150500D01*
X153970890Y-119150500D01*
X153970892Y-119150500D01*
X154098186Y-119116392D01*
X154212314Y-119050500D01*
X154305500Y-118957314D01*
X154371392Y-118843186D01*
X154405500Y-118715892D01*
X154405500Y-118678870D01*
X168471527Y-118678870D01*
X168471527Y-118810653D01*
X168505635Y-118937949D01*
X168516815Y-118957313D01*
X168571527Y-119052076D01*
X168664713Y-119145262D01*
X168778841Y-119211154D01*
X168906135Y-119245262D01*
X168906137Y-119245262D01*
X169037917Y-119245262D01*
X169037919Y-119245262D01*
X169165213Y-119211154D01*
X169279341Y-119145262D01*
X169372527Y-119052076D01*
X169438419Y-118937948D01*
X169472527Y-118810654D01*
X169472527Y-118734108D01*
X169874500Y-118734108D01*
X169874500Y-118865891D01*
X169908608Y-118993187D01*
X169940022Y-119047596D01*
X169974500Y-119107314D01*
X170067686Y-119200500D01*
X170181814Y-119266392D01*
X170309108Y-119300500D01*
X170309110Y-119300500D01*
X170440890Y-119300500D01*
X170440892Y-119300500D01*
X170568186Y-119266392D01*
X170682314Y-119200500D01*
X170775500Y-119107314D01*
X170841392Y-118993186D01*
X170875500Y-118865892D01*
X170875500Y-118734108D01*
X170841392Y-118606814D01*
X170775500Y-118492686D01*
X170729344Y-118446530D01*
X171884500Y-118446530D01*
X171884500Y-118653469D01*
X171924868Y-118856412D01*
X171924870Y-118856420D01*
X171966661Y-118957313D01*
X172004059Y-119047598D01*
X172040466Y-119102085D01*
X172119024Y-119219657D01*
X172265342Y-119365975D01*
X172265345Y-119365977D01*
X172437402Y-119480941D01*
X172628580Y-119560130D01*
X172831530Y-119600499D01*
X172831534Y-119600500D01*
X172831535Y-119600500D01*
X173038466Y-119600500D01*
X173038467Y-119600499D01*
X173241420Y-119560130D01*
X173432598Y-119480941D01*
X173604655Y-119365977D01*
X173750977Y-119219655D01*
X173865941Y-119047598D01*
X173945130Y-118856420D01*
X173985500Y-118653465D01*
X173985500Y-118446535D01*
X173945130Y-118243580D01*
X173865941Y-118052402D01*
X173750977Y-117880345D01*
X173750975Y-117880342D01*
X173604657Y-117734024D01*
X173518626Y-117676541D01*
X173432598Y-117619059D01*
X173241420Y-117539870D01*
X173241412Y-117539868D01*
X173038469Y-117499500D01*
X173038465Y-117499500D01*
X172831535Y-117499500D01*
X172831530Y-117499500D01*
X172628587Y-117539868D01*
X172628579Y-117539870D01*
X172437403Y-117619058D01*
X172265342Y-117734024D01*
X172119024Y-117880342D01*
X172004058Y-118052403D01*
X171924870Y-118243579D01*
X171924868Y-118243587D01*
X171884500Y-118446530D01*
X170729344Y-118446530D01*
X170682314Y-118399500D01*
X170586643Y-118344264D01*
X170568187Y-118333608D01*
X170502061Y-118315890D01*
X170440892Y-118299500D01*
X170309108Y-118299500D01*
X170181812Y-118333608D01*
X170067686Y-118399500D01*
X170067683Y-118399502D01*
X169974502Y-118492683D01*
X169974500Y-118492686D01*
X169908608Y-118606812D01*
X169874500Y-118734108D01*
X169472527Y-118734108D01*
X169472527Y-118678870D01*
X169438419Y-118551576D01*
X169372527Y-118437448D01*
X169279341Y-118344262D01*
X169201811Y-118299500D01*
X169165214Y-118278370D01*
X169101566Y-118261316D01*
X169037919Y-118244262D01*
X168906135Y-118244262D01*
X168778839Y-118278370D01*
X168664713Y-118344262D01*
X168664710Y-118344264D01*
X168571529Y-118437445D01*
X168571527Y-118437448D01*
X168505635Y-118551574D01*
X168471527Y-118678870D01*
X154405500Y-118678870D01*
X154405500Y-118584108D01*
X154371392Y-118456814D01*
X154305500Y-118342686D01*
X154212314Y-118249500D01*
X154155250Y-118216554D01*
X154098187Y-118183608D01*
X154034539Y-118166554D01*
X153970892Y-118149500D01*
X153839108Y-118149500D01*
X153711812Y-118183608D01*
X153597686Y-118249500D01*
X153597683Y-118249502D01*
X153504502Y-118342683D01*
X153504500Y-118342686D01*
X153438608Y-118456812D01*
X153413217Y-118551574D01*
X153404500Y-118584108D01*
X152593706Y-118584108D01*
X152620500Y-118557314D01*
X152633023Y-118535622D01*
X152645520Y-118513980D01*
X152686390Y-118443189D01*
X152686392Y-118443186D01*
X152720500Y-118315892D01*
X152720500Y-118184108D01*
X152686392Y-118056814D01*
X152620500Y-117942686D01*
X152527314Y-117849500D01*
X152470250Y-117816554D01*
X152413187Y-117783608D01*
X152349539Y-117766554D01*
X152285892Y-117749500D01*
X152154108Y-117749500D01*
X152026812Y-117783608D01*
X151912686Y-117849500D01*
X151912683Y-117849502D01*
X151819502Y-117942683D01*
X151819500Y-117942686D01*
X151753608Y-118056812D01*
X151728773Y-118149500D01*
X151719500Y-118184108D01*
X118850500Y-118184108D01*
X118850500Y-116924108D01*
X127174500Y-116924108D01*
X127174500Y-117055892D01*
X127175735Y-117060500D01*
X127208608Y-117183187D01*
X127233036Y-117225497D01*
X127274500Y-117297314D01*
X127367686Y-117390500D01*
X127481814Y-117456392D01*
X127609108Y-117490500D01*
X127609110Y-117490500D01*
X127740890Y-117490500D01*
X127740892Y-117490500D01*
X127868186Y-117456392D01*
X127982314Y-117390500D01*
X128075500Y-117297314D01*
X128141392Y-117183186D01*
X128175500Y-117055892D01*
X128175500Y-116924108D01*
X128141392Y-116796814D01*
X128119622Y-116759108D01*
X128107426Y-116737983D01*
X128107425Y-116737982D01*
X128076321Y-116684108D01*
X128624500Y-116684108D01*
X128624500Y-116815891D01*
X128658608Y-116943187D01*
X128675997Y-116973305D01*
X128724500Y-117057314D01*
X128817686Y-117150500D01*
X128931814Y-117216392D01*
X129059108Y-117250500D01*
X129059110Y-117250500D01*
X129190890Y-117250500D01*
X129190892Y-117250500D01*
X129318186Y-117216392D01*
X129432314Y-117150500D01*
X129525500Y-117057314D01*
X129591392Y-116943186D01*
X129625500Y-116815892D01*
X129625500Y-116759108D01*
X142474500Y-116759108D01*
X142474500Y-116890892D01*
X142488512Y-116943186D01*
X142508608Y-117018187D01*
X142531200Y-117057316D01*
X142574500Y-117132314D01*
X142667686Y-117225500D01*
X142781814Y-117291392D01*
X142909108Y-117325500D01*
X142909110Y-117325500D01*
X143040890Y-117325500D01*
X143040892Y-117325500D01*
X143168186Y-117291392D01*
X143282314Y-117225500D01*
X143375500Y-117132314D01*
X143441392Y-117018186D01*
X143475500Y-116890892D01*
X143475500Y-116759108D01*
X143441392Y-116631814D01*
X143375500Y-116517686D01*
X143282314Y-116424500D01*
X143251854Y-116406914D01*
X170755892Y-116406914D01*
X170755892Y-116538697D01*
X170790000Y-116665993D01*
X170799638Y-116682686D01*
X170855892Y-116780120D01*
X170949078Y-116873306D01*
X171063206Y-116939198D01*
X171190500Y-116973306D01*
X171190502Y-116973306D01*
X171322282Y-116973306D01*
X171322284Y-116973306D01*
X171449578Y-116939198D01*
X171563706Y-116873306D01*
X171656892Y-116780120D01*
X171722784Y-116665992D01*
X171756892Y-116538698D01*
X171756892Y-116534274D01*
X171757947Y-116530679D01*
X171757953Y-116530638D01*
X171757959Y-116530638D01*
X171776577Y-116467235D01*
X171829381Y-116421480D01*
X171898539Y-116411536D01*
X171962095Y-116440561D01*
X171995452Y-116486819D01*
X171996563Y-116489500D01*
X172004059Y-116507598D01*
X172119024Y-116679657D01*
X172265342Y-116825975D01*
X172265345Y-116825977D01*
X172437402Y-116940941D01*
X172628580Y-117020130D01*
X172808359Y-117055890D01*
X172831530Y-117060499D01*
X172831534Y-117060500D01*
X172831535Y-117060500D01*
X173038466Y-117060500D01*
X173038467Y-117060499D01*
X173241420Y-117020130D01*
X173432598Y-116940941D01*
X173604655Y-116825977D01*
X173750977Y-116679655D01*
X173865941Y-116507598D01*
X173945130Y-116316420D01*
X173985500Y-116113465D01*
X173985500Y-115906535D01*
X173945130Y-115703580D01*
X173865941Y-115512402D01*
X173750977Y-115340345D01*
X173750975Y-115340342D01*
X173604657Y-115194024D01*
X173441642Y-115085102D01*
X173432598Y-115079059D01*
X173345993Y-115043186D01*
X173241420Y-114999870D01*
X173241412Y-114999868D01*
X173038469Y-114959500D01*
X173038465Y-114959500D01*
X172831535Y-114959500D01*
X172831530Y-114959500D01*
X172655709Y-114994473D01*
X172640887Y-114993146D01*
X172626451Y-114996752D01*
X172606792Y-114990096D01*
X172586117Y-114988246D01*
X172574364Y-114979116D01*
X172560272Y-114974345D01*
X172547333Y-114958117D01*
X172530940Y-114945383D01*
X172525253Y-114930425D01*
X172516713Y-114919715D01*
X172511947Y-114895429D01*
X172508162Y-114885473D01*
X172507518Y-114879176D01*
X172507518Y-114747991D01*
X172485816Y-114667000D01*
X172484806Y-114657117D01*
X172489445Y-114632142D01*
X172490050Y-114606743D01*
X172495719Y-114598366D01*
X172497567Y-114588422D01*
X172514974Y-114569917D01*
X172529213Y-114548881D01*
X172538509Y-114544899D01*
X172545441Y-114537532D01*
X172570088Y-114531376D01*
X172593441Y-114521377D01*
X172608162Y-114520500D01*
X173804750Y-114520500D01*
X173804751Y-114520499D01*
X173819568Y-114517552D01*
X173863229Y-114508868D01*
X173863229Y-114508867D01*
X173863231Y-114508867D01*
X173929552Y-114464552D01*
X173973867Y-114398231D01*
X173973867Y-114398229D01*
X173973868Y-114398229D01*
X173985499Y-114339752D01*
X173985500Y-114339750D01*
X173985500Y-112600249D01*
X173985499Y-112600247D01*
X173973868Y-112541770D01*
X173973867Y-112541769D01*
X173929552Y-112475447D01*
X173863230Y-112431132D01*
X173863229Y-112431131D01*
X173804752Y-112419500D01*
X173804748Y-112419500D01*
X172065252Y-112419500D01*
X172065247Y-112419500D01*
X172006770Y-112431131D01*
X172006769Y-112431132D01*
X171940447Y-112475447D01*
X171896132Y-112541769D01*
X171896131Y-112541770D01*
X171884500Y-112600247D01*
X171884500Y-114235364D01*
X171864815Y-114302403D01*
X171819737Y-114341463D01*
X171820871Y-114343427D01*
X171699704Y-114413383D01*
X171699701Y-114413385D01*
X171606520Y-114506566D01*
X171606518Y-114506569D01*
X171540626Y-114620695D01*
X171519130Y-114700921D01*
X171506518Y-114747991D01*
X171506518Y-114879775D01*
X171523572Y-114943422D01*
X171540626Y-115007070D01*
X171561478Y-115043186D01*
X171606518Y-115121197D01*
X171699704Y-115214383D01*
X171813832Y-115280275D01*
X171939579Y-115313968D01*
X171999237Y-115350332D01*
X172029767Y-115413178D01*
X172021473Y-115482554D01*
X172010588Y-115502631D01*
X172004057Y-115512404D01*
X171924870Y-115703579D01*
X171924868Y-115703587D01*
X171884500Y-115906530D01*
X171884500Y-116096946D01*
X171864815Y-116163985D01*
X171812011Y-116209740D01*
X171742853Y-116219684D01*
X171679297Y-116190659D01*
X171663059Y-116171004D01*
X171661840Y-116171941D01*
X171656894Y-116165495D01*
X171656892Y-116165492D01*
X171563706Y-116072306D01*
X171506642Y-116039360D01*
X171449579Y-116006414D01*
X171385931Y-115989360D01*
X171322284Y-115972306D01*
X171190500Y-115972306D01*
X171063204Y-116006414D01*
X170949078Y-116072306D01*
X170949075Y-116072308D01*
X170855894Y-116165489D01*
X170855892Y-116165492D01*
X170790000Y-116279618D01*
X170755892Y-116406914D01*
X143251854Y-116406914D01*
X143225250Y-116391554D01*
X143168187Y-116358608D01*
X143104539Y-116341554D01*
X143040892Y-116324500D01*
X142909108Y-116324500D01*
X142781812Y-116358608D01*
X142667686Y-116424500D01*
X142667683Y-116424502D01*
X142574502Y-116517683D01*
X142574500Y-116517686D01*
X142508608Y-116631812D01*
X142494978Y-116682683D01*
X142474500Y-116759108D01*
X129625500Y-116759108D01*
X129625500Y-116684108D01*
X129591392Y-116556814D01*
X129525500Y-116442686D01*
X129432314Y-116349500D01*
X129375004Y-116316412D01*
X129318187Y-116283608D01*
X129254539Y-116266554D01*
X129190892Y-116249500D01*
X129059108Y-116249500D01*
X128931812Y-116283608D01*
X128817686Y-116349500D01*
X128817683Y-116349502D01*
X128724502Y-116442683D01*
X128724500Y-116442686D01*
X128658608Y-116556812D01*
X128624500Y-116684108D01*
X128076321Y-116684108D01*
X128075500Y-116682686D01*
X127982314Y-116589500D01*
X127894321Y-116538697D01*
X127868187Y-116523608D01*
X127804539Y-116506554D01*
X127740892Y-116489500D01*
X127609108Y-116489500D01*
X127481812Y-116523608D01*
X127367686Y-116589500D01*
X127367683Y-116589502D01*
X127274502Y-116682683D01*
X127274500Y-116682686D01*
X127208608Y-116796812D01*
X127188113Y-116873303D01*
X127174500Y-116924108D01*
X118850500Y-116924108D01*
X118850500Y-115039108D01*
X120379500Y-115039108D01*
X120379500Y-115170892D01*
X120391153Y-115214382D01*
X120413608Y-115298187D01*
X120443715Y-115350332D01*
X120479500Y-115412314D01*
X120572686Y-115505500D01*
X120686814Y-115571392D01*
X120814108Y-115605500D01*
X120814110Y-115605500D01*
X120945890Y-115605500D01*
X120945892Y-115605500D01*
X121073186Y-115571392D01*
X121187314Y-115505500D01*
X121280500Y-115412314D01*
X121346392Y-115298186D01*
X121350164Y-115284108D01*
X130899500Y-115284108D01*
X130899500Y-115415891D01*
X130933608Y-115543187D01*
X130954467Y-115579315D01*
X130999500Y-115657314D01*
X131092686Y-115750500D01*
X131206814Y-115816392D01*
X131334108Y-115850500D01*
X131334110Y-115850500D01*
X131465890Y-115850500D01*
X131465892Y-115850500D01*
X131593186Y-115816392D01*
X131707314Y-115750500D01*
X131800500Y-115657314D01*
X131866392Y-115543186D01*
X131900500Y-115415892D01*
X131900500Y-115284108D01*
X132575500Y-115284108D01*
X132575500Y-115415891D01*
X132609608Y-115543187D01*
X132630467Y-115579315D01*
X132675500Y-115657314D01*
X132768686Y-115750500D01*
X132882814Y-115816392D01*
X133010108Y-115850500D01*
X133010110Y-115850500D01*
X133141890Y-115850500D01*
X133141892Y-115850500D01*
X133269186Y-115816392D01*
X133383314Y-115750500D01*
X133476500Y-115657314D01*
X133542392Y-115543186D01*
X133568022Y-115447533D01*
X169628785Y-115447533D01*
X169628785Y-115579317D01*
X169635801Y-115605500D01*
X169662893Y-115706612D01*
X169688231Y-115750497D01*
X169728785Y-115820739D01*
X169821971Y-115913925D01*
X169936099Y-115979817D01*
X170063393Y-116013925D01*
X170063395Y-116013925D01*
X170195175Y-116013925D01*
X170195177Y-116013925D01*
X170322471Y-115979817D01*
X170436599Y-115913925D01*
X170529785Y-115820739D01*
X170595677Y-115706611D01*
X170629785Y-115579317D01*
X170629785Y-115447533D01*
X170595677Y-115320239D01*
X170529785Y-115206111D01*
X170436599Y-115112925D01*
X170377940Y-115079058D01*
X170322472Y-115047033D01*
X170258824Y-115029979D01*
X170195177Y-115012925D01*
X170063393Y-115012925D01*
X169936097Y-115047033D01*
X169821971Y-115112925D01*
X169821968Y-115112927D01*
X169728787Y-115206108D01*
X169728785Y-115206111D01*
X169662893Y-115320237D01*
X169638222Y-115412313D01*
X169628785Y-115447533D01*
X133568022Y-115447533D01*
X133576500Y-115415892D01*
X133576500Y-115284108D01*
X133542392Y-115156814D01*
X133476500Y-115042686D01*
X133383314Y-114949500D01*
X133289661Y-114895429D01*
X133269187Y-114883608D01*
X133205539Y-114866554D01*
X133141892Y-114849500D01*
X133010108Y-114849500D01*
X132882812Y-114883608D01*
X132768686Y-114949500D01*
X132768683Y-114949502D01*
X132675502Y-115042683D01*
X132675500Y-115042686D01*
X132609608Y-115156812D01*
X132575500Y-115284108D01*
X131900500Y-115284108D01*
X131866392Y-115156814D01*
X131800500Y-115042686D01*
X131707314Y-114949500D01*
X131613661Y-114895429D01*
X131593187Y-114883608D01*
X131529539Y-114866554D01*
X131465892Y-114849500D01*
X131334108Y-114849500D01*
X131206812Y-114883608D01*
X131092686Y-114949500D01*
X131092683Y-114949502D01*
X130999502Y-115042683D01*
X130999500Y-115042686D01*
X130933608Y-115156812D01*
X130899500Y-115284108D01*
X121350164Y-115284108D01*
X121380500Y-115170892D01*
X121380500Y-115039108D01*
X121346392Y-114911814D01*
X121280500Y-114797686D01*
X121187314Y-114704500D01*
X121130250Y-114671554D01*
X121073187Y-114638608D01*
X121006333Y-114620695D01*
X120945892Y-114604500D01*
X120814108Y-114604500D01*
X120686812Y-114638608D01*
X120572686Y-114704500D01*
X120572683Y-114704502D01*
X120479502Y-114797683D01*
X120479500Y-114797686D01*
X120413608Y-114911812D01*
X120391815Y-114993146D01*
X120379500Y-115039108D01*
X118850500Y-115039108D01*
X118850500Y-114384108D01*
X161524500Y-114384108D01*
X161524500Y-114515892D01*
X161532272Y-114544899D01*
X161558608Y-114643187D01*
X161566475Y-114656812D01*
X161624500Y-114757314D01*
X161717686Y-114850500D01*
X161795505Y-114895429D01*
X161830944Y-114915890D01*
X161831814Y-114916392D01*
X161959108Y-114950500D01*
X161959110Y-114950500D01*
X162013625Y-114950500D01*
X162080664Y-114970185D01*
X162126419Y-115022989D01*
X162133401Y-115042412D01*
X162133608Y-115043187D01*
X162135829Y-115047033D01*
X162199500Y-115157314D01*
X162292686Y-115250500D01*
X162406814Y-115316392D01*
X162534108Y-115350500D01*
X162534110Y-115350500D01*
X162665890Y-115350500D01*
X162665892Y-115350500D01*
X162793186Y-115316392D01*
X162907314Y-115250500D01*
X163000500Y-115157314D01*
X163066392Y-115043186D01*
X163100500Y-114915892D01*
X163100500Y-114784108D01*
X163066392Y-114656814D01*
X163000500Y-114542686D01*
X162907314Y-114449500D01*
X162818514Y-114398231D01*
X162793187Y-114383608D01*
X162729539Y-114366554D01*
X162665892Y-114349500D01*
X162611376Y-114349500D01*
X162544337Y-114329815D01*
X162500404Y-114280827D01*
X162494831Y-114269649D01*
X162491392Y-114256814D01*
X162440483Y-114168637D01*
X168510276Y-114168637D01*
X168510276Y-114300421D01*
X168518152Y-114329815D01*
X168544384Y-114427716D01*
X168557537Y-114450497D01*
X168610276Y-114541843D01*
X168703462Y-114635029D01*
X168817590Y-114700921D01*
X168944884Y-114735029D01*
X168944886Y-114735029D01*
X169076666Y-114735029D01*
X169076668Y-114735029D01*
X169203962Y-114700921D01*
X169318090Y-114635029D01*
X169411276Y-114541843D01*
X169477168Y-114427715D01*
X169511276Y-114300421D01*
X169511276Y-114168637D01*
X169477168Y-114041343D01*
X169444123Y-113984108D01*
X170434500Y-113984108D01*
X170434500Y-114115892D01*
X170448633Y-114168637D01*
X170468608Y-114243187D01*
X170476475Y-114256812D01*
X170534500Y-114357314D01*
X170627686Y-114450500D01*
X170741814Y-114516392D01*
X170869108Y-114550500D01*
X170869110Y-114550500D01*
X171000890Y-114550500D01*
X171000892Y-114550500D01*
X171128186Y-114516392D01*
X171242314Y-114450500D01*
X171335500Y-114357314D01*
X171401392Y-114243186D01*
X171435500Y-114115892D01*
X171435500Y-113984108D01*
X171401392Y-113856814D01*
X171335500Y-113742686D01*
X171242314Y-113649500D01*
X171185250Y-113616554D01*
X171128187Y-113583608D01*
X171064539Y-113566554D01*
X171000892Y-113549500D01*
X170869108Y-113549500D01*
X170741812Y-113583608D01*
X170627686Y-113649500D01*
X170627683Y-113649502D01*
X170534502Y-113742683D01*
X170534500Y-113742686D01*
X170468608Y-113856812D01*
X170458355Y-113895078D01*
X170434500Y-113984108D01*
X169444123Y-113984108D01*
X169411276Y-113927215D01*
X169318090Y-113834029D01*
X169261026Y-113801083D01*
X169203963Y-113768137D01*
X169140315Y-113751083D01*
X169076668Y-113734029D01*
X168944884Y-113734029D01*
X168817588Y-113768137D01*
X168703462Y-113834029D01*
X168703459Y-113834031D01*
X168610278Y-113927212D01*
X168610276Y-113927215D01*
X168544384Y-114041341D01*
X168524409Y-114115890D01*
X168510276Y-114168637D01*
X162440483Y-114168637D01*
X162425500Y-114142686D01*
X162332314Y-114049500D01*
X162275250Y-114016554D01*
X162218187Y-113983608D01*
X162154539Y-113966554D01*
X162090892Y-113949500D01*
X161959108Y-113949500D01*
X161831812Y-113983608D01*
X161717686Y-114049500D01*
X161717683Y-114049502D01*
X161624502Y-114142683D01*
X161624500Y-114142686D01*
X161558608Y-114256812D01*
X161535400Y-114343427D01*
X161524500Y-114384108D01*
X118850500Y-114384108D01*
X118850500Y-113428687D01*
X164152062Y-113428687D01*
X164152062Y-113560471D01*
X164169116Y-113624118D01*
X164186170Y-113687766D01*
X164217877Y-113742683D01*
X164252062Y-113801893D01*
X164345248Y-113895079D01*
X164459376Y-113960971D01*
X164586670Y-113995079D01*
X164586672Y-113995079D01*
X164718452Y-113995079D01*
X164718454Y-113995079D01*
X164845748Y-113960971D01*
X164959876Y-113895079D01*
X165053062Y-113801893D01*
X165118954Y-113687765D01*
X165153062Y-113560471D01*
X165153062Y-113428687D01*
X165118954Y-113301393D01*
X165053062Y-113187265D01*
X164959876Y-113094079D01*
X164902812Y-113061133D01*
X164845749Y-113028187D01*
X164782101Y-113011133D01*
X164718454Y-112994079D01*
X164586670Y-112994079D01*
X164459374Y-113028187D01*
X164345248Y-113094079D01*
X164345245Y-113094081D01*
X164252064Y-113187262D01*
X164252062Y-113187265D01*
X164186170Y-113301391D01*
X164152062Y-113428687D01*
X118850500Y-113428687D01*
X118850500Y-111759108D01*
X142649500Y-111759108D01*
X142649500Y-111890892D01*
X142652506Y-111902110D01*
X142683608Y-112018187D01*
X142689779Y-112028875D01*
X142749500Y-112132314D01*
X142842686Y-112225500D01*
X142956814Y-112291392D01*
X143084108Y-112325500D01*
X143084110Y-112325500D01*
X143215890Y-112325500D01*
X143215892Y-112325500D01*
X143343186Y-112291392D01*
X143437887Y-112236716D01*
X160446892Y-112236716D01*
X160446892Y-112368500D01*
X160448915Y-112376049D01*
X160481000Y-112495795D01*
X160504913Y-112537212D01*
X160546892Y-112609922D01*
X160640078Y-112703108D01*
X160754206Y-112769000D01*
X160881500Y-112803108D01*
X160881502Y-112803108D01*
X161013282Y-112803108D01*
X161013284Y-112803108D01*
X161140578Y-112769000D01*
X161254706Y-112703108D01*
X161347892Y-112609922D01*
X161413784Y-112495794D01*
X161437011Y-112409108D01*
X168799500Y-112409108D01*
X168799500Y-112540892D01*
X168810880Y-112583362D01*
X168833608Y-112668187D01*
X168853770Y-112703108D01*
X168899500Y-112782314D01*
X168992686Y-112875500D01*
X169106814Y-112941392D01*
X169234108Y-112975500D01*
X169234110Y-112975500D01*
X169365890Y-112975500D01*
X169365892Y-112975500D01*
X169493186Y-112941392D01*
X169607314Y-112875500D01*
X169700500Y-112782314D01*
X169761187Y-112677200D01*
X169811753Y-112628987D01*
X169880360Y-112615763D01*
X169930575Y-112631816D01*
X169960775Y-112649253D01*
X169960777Y-112649253D01*
X169960778Y-112649254D01*
X170088072Y-112683362D01*
X170088074Y-112683362D01*
X170219854Y-112683362D01*
X170219856Y-112683362D01*
X170347150Y-112649254D01*
X170461278Y-112583362D01*
X170554464Y-112490176D01*
X170620356Y-112376048D01*
X170654464Y-112248754D01*
X170654464Y-112116970D01*
X170620356Y-111989676D01*
X170554464Y-111875548D01*
X170461278Y-111782362D01*
X170404214Y-111749416D01*
X170347151Y-111716470D01*
X170283503Y-111699416D01*
X170219856Y-111682362D01*
X170088072Y-111682362D01*
X169960776Y-111716470D01*
X169846650Y-111782362D01*
X169846647Y-111782364D01*
X169753466Y-111875545D01*
X169753464Y-111875548D01*
X169692777Y-111980660D01*
X169642209Y-112028875D01*
X169573602Y-112042097D01*
X169523389Y-112026046D01*
X169493187Y-112008608D01*
X169422523Y-111989674D01*
X169365892Y-111974500D01*
X169234108Y-111974500D01*
X169106812Y-112008608D01*
X168992686Y-112074500D01*
X168992683Y-112074502D01*
X168899502Y-112167683D01*
X168899500Y-112167686D01*
X168833608Y-112281812D01*
X168821902Y-112325500D01*
X168799500Y-112409108D01*
X161437011Y-112409108D01*
X161447892Y-112368500D01*
X161447892Y-112236716D01*
X161413784Y-112109422D01*
X161347892Y-111995294D01*
X161254706Y-111902108D01*
X161197642Y-111869162D01*
X161140579Y-111836216D01*
X161076931Y-111819162D01*
X161013284Y-111802108D01*
X160881500Y-111802108D01*
X160754204Y-111836216D01*
X160640078Y-111902108D01*
X160640075Y-111902110D01*
X160546894Y-111995291D01*
X160546892Y-111995294D01*
X160481000Y-112109420D01*
X160472563Y-112140908D01*
X160446892Y-112236716D01*
X143437887Y-112236716D01*
X143457314Y-112225500D01*
X143550500Y-112132314D01*
X143616392Y-112018186D01*
X143650500Y-111890892D01*
X143650500Y-111759108D01*
X143616392Y-111631814D01*
X143550500Y-111517686D01*
X143457314Y-111424500D01*
X143400250Y-111391554D01*
X143343187Y-111358608D01*
X143279539Y-111341554D01*
X143215892Y-111324500D01*
X143084108Y-111324500D01*
X142956812Y-111358608D01*
X142842686Y-111424500D01*
X142842683Y-111424502D01*
X142749502Y-111517683D01*
X142749500Y-111517686D01*
X142683608Y-111631812D01*
X142670064Y-111682362D01*
X142649500Y-111759108D01*
X118850500Y-111759108D01*
X118850500Y-110359108D01*
X157124500Y-110359108D01*
X157124500Y-110490891D01*
X157158608Y-110618187D01*
X157184298Y-110662683D01*
X157224500Y-110732314D01*
X157317686Y-110825500D01*
X157431814Y-110891392D01*
X157559108Y-110925500D01*
X157559110Y-110925500D01*
X157690890Y-110925500D01*
X157690892Y-110925500D01*
X157770729Y-110904108D01*
X166374500Y-110904108D01*
X166374500Y-111035891D01*
X166408608Y-111163187D01*
X166441554Y-111220250D01*
X166474500Y-111277314D01*
X166567686Y-111370500D01*
X166681814Y-111436392D01*
X166809108Y-111470500D01*
X166809110Y-111470500D01*
X166940890Y-111470500D01*
X166940892Y-111470500D01*
X167068186Y-111436392D01*
X167182314Y-111370500D01*
X167275500Y-111277314D01*
X167341392Y-111163186D01*
X167375500Y-111035892D01*
X167375500Y-110904108D01*
X167341392Y-110776814D01*
X167275500Y-110662686D01*
X167182314Y-110569500D01*
X167125250Y-110536554D01*
X167068187Y-110503608D01*
X167004539Y-110486554D01*
X166940892Y-110469500D01*
X166809108Y-110469500D01*
X166681812Y-110503608D01*
X166567686Y-110569500D01*
X166567683Y-110569502D01*
X166474502Y-110662683D01*
X166474500Y-110662686D01*
X166408608Y-110776812D01*
X166374500Y-110904108D01*
X157770729Y-110904108D01*
X157818186Y-110891392D01*
X157932314Y-110825500D01*
X158025500Y-110732314D01*
X158091392Y-110618186D01*
X158125500Y-110490892D01*
X158125500Y-110359108D01*
X158091392Y-110231814D01*
X158025500Y-110117686D01*
X157932314Y-110024500D01*
X157875250Y-109991554D01*
X157818187Y-109958608D01*
X157754539Y-109941554D01*
X157690892Y-109924500D01*
X157559108Y-109924500D01*
X157431812Y-109958608D01*
X157317686Y-110024500D01*
X157317683Y-110024502D01*
X157224502Y-110117683D01*
X157224500Y-110117686D01*
X157158608Y-110231812D01*
X157124500Y-110359108D01*
X118850500Y-110359108D01*
X118850500Y-109790764D01*
X121114500Y-109790764D01*
X121114500Y-109922547D01*
X121148608Y-110049843D01*
X121181554Y-110106906D01*
X121214500Y-110163970D01*
X121307686Y-110257156D01*
X121421814Y-110323048D01*
X121549108Y-110357156D01*
X121549110Y-110357156D01*
X121680890Y-110357156D01*
X121680892Y-110357156D01*
X121808186Y-110323048D01*
X121922314Y-110257156D01*
X122015500Y-110163970D01*
X122081392Y-110049842D01*
X122115500Y-109922548D01*
X122115500Y-109790764D01*
X122081392Y-109663470D01*
X122015500Y-109549342D01*
X121922314Y-109456156D01*
X121837721Y-109407316D01*
X121808187Y-109390264D01*
X121744539Y-109373210D01*
X121680892Y-109356156D01*
X121549108Y-109356156D01*
X121421812Y-109390264D01*
X121307686Y-109456156D01*
X121307683Y-109456158D01*
X121214502Y-109549339D01*
X121214500Y-109549342D01*
X121148608Y-109663468D01*
X121114500Y-109790764D01*
X118850500Y-109790764D01*
X118850500Y-108824108D01*
X124174500Y-108824108D01*
X124174500Y-108955891D01*
X124208608Y-109083187D01*
X124233036Y-109125497D01*
X124274500Y-109197314D01*
X124367686Y-109290500D01*
X124481814Y-109356392D01*
X124609108Y-109390500D01*
X124609110Y-109390500D01*
X124740890Y-109390500D01*
X124740892Y-109390500D01*
X124868186Y-109356392D01*
X124982314Y-109290500D01*
X125075500Y-109197314D01*
X125141392Y-109083186D01*
X125175500Y-108955892D01*
X125175500Y-108824108D01*
X125141392Y-108696814D01*
X125119622Y-108659108D01*
X157624500Y-108659108D01*
X157624500Y-108790891D01*
X157658608Y-108918187D01*
X157685046Y-108963978D01*
X157724500Y-109032314D01*
X157817686Y-109125500D01*
X157931814Y-109191392D01*
X158059108Y-109225500D01*
X158059110Y-109225500D01*
X158190890Y-109225500D01*
X158190892Y-109225500D01*
X158318186Y-109191392D01*
X158432314Y-109125500D01*
X158523706Y-109034108D01*
X159274500Y-109034108D01*
X159274500Y-109165892D01*
X159290472Y-109225500D01*
X159308608Y-109293187D01*
X159341554Y-109350250D01*
X159374500Y-109407314D01*
X159467686Y-109500500D01*
X159581814Y-109566392D01*
X159709108Y-109600500D01*
X159709110Y-109600500D01*
X159840890Y-109600500D01*
X159840892Y-109600500D01*
X159968186Y-109566392D01*
X160082314Y-109500500D01*
X160175500Y-109407314D01*
X160241392Y-109293186D01*
X160275500Y-109165892D01*
X160275500Y-109034108D01*
X160241392Y-108906814D01*
X160175500Y-108792686D01*
X160082314Y-108699500D01*
X160012353Y-108659108D01*
X159968187Y-108633608D01*
X159904539Y-108616554D01*
X159840892Y-108599500D01*
X159709108Y-108599500D01*
X159581812Y-108633608D01*
X159467686Y-108699500D01*
X159467683Y-108699502D01*
X159374502Y-108792683D01*
X159374500Y-108792686D01*
X159308608Y-108906812D01*
X159274981Y-109032313D01*
X159274500Y-109034108D01*
X158523706Y-109034108D01*
X158525500Y-109032314D01*
X158591392Y-108918186D01*
X158625500Y-108790892D01*
X158625500Y-108659108D01*
X158591392Y-108531814D01*
X158525500Y-108417686D01*
X158432314Y-108324500D01*
X158375250Y-108291554D01*
X158318187Y-108258608D01*
X158206208Y-108228604D01*
X158190892Y-108224500D01*
X158059108Y-108224500D01*
X157931812Y-108258608D01*
X157817686Y-108324500D01*
X157817683Y-108324502D01*
X157724502Y-108417683D01*
X157724500Y-108417686D01*
X157658608Y-108531812D01*
X157624500Y-108659108D01*
X125119622Y-108659108D01*
X125075500Y-108582686D01*
X124982314Y-108489500D01*
X124925250Y-108456554D01*
X124868187Y-108423608D01*
X124804539Y-108406554D01*
X124740892Y-108389500D01*
X124609108Y-108389500D01*
X124481812Y-108423608D01*
X124367686Y-108489500D01*
X124367683Y-108489502D01*
X124274502Y-108582683D01*
X124274500Y-108582686D01*
X124208608Y-108696812D01*
X124174500Y-108824108D01*
X118850500Y-108824108D01*
X118850500Y-108034108D01*
X149874500Y-108034108D01*
X149874500Y-108165892D01*
X149882164Y-108194495D01*
X149908608Y-108293187D01*
X149926687Y-108324500D01*
X149974500Y-108407314D01*
X150067686Y-108500500D01*
X150142327Y-108543594D01*
X150181810Y-108566390D01*
X150181814Y-108566392D01*
X150309108Y-108600500D01*
X150309110Y-108600500D01*
X150440890Y-108600500D01*
X150440892Y-108600500D01*
X150568186Y-108566392D01*
X150682314Y-108500500D01*
X150775500Y-108407314D01*
X150841392Y-108293186D01*
X150875500Y-108165892D01*
X150875500Y-108034108D01*
X150841392Y-107906814D01*
X150775500Y-107792686D01*
X150682314Y-107699500D01*
X150617733Y-107662214D01*
X150568187Y-107633608D01*
X150504539Y-107616554D01*
X150440892Y-107599500D01*
X150309108Y-107599500D01*
X150181812Y-107633608D01*
X150067686Y-107699500D01*
X150067683Y-107699502D01*
X149974502Y-107792683D01*
X149974500Y-107792686D01*
X149908608Y-107906812D01*
X149896134Y-107953367D01*
X149874500Y-108034108D01*
X118850500Y-108034108D01*
X118850500Y-107184108D01*
X138924500Y-107184108D01*
X138924500Y-107315891D01*
X138958608Y-107443187D01*
X138991554Y-107500250D01*
X139024500Y-107557314D01*
X139117686Y-107650500D01*
X139231814Y-107716392D01*
X139359108Y-107750500D01*
X139359110Y-107750500D01*
X139490890Y-107750500D01*
X139490892Y-107750500D01*
X139618186Y-107716392D01*
X139732314Y-107650500D01*
X139825500Y-107557314D01*
X139844599Y-107524234D01*
X163032500Y-107524234D01*
X163032500Y-107675766D01*
X163038860Y-107699502D01*
X163071719Y-107822136D01*
X163109602Y-107887750D01*
X163147485Y-107953365D01*
X163254635Y-108060515D01*
X163385865Y-108136281D01*
X163532234Y-108175500D01*
X163532236Y-108175500D01*
X163683764Y-108175500D01*
X163683766Y-108175500D01*
X163830135Y-108136281D01*
X163961365Y-108060515D01*
X164068515Y-107953365D01*
X164144281Y-107822135D01*
X164183500Y-107675766D01*
X164183500Y-107662212D01*
X166772643Y-107662212D01*
X166772643Y-107793995D01*
X166806751Y-107921291D01*
X166839697Y-107978354D01*
X166872643Y-108035418D01*
X166965829Y-108128604D01*
X167079957Y-108194496D01*
X167207251Y-108228604D01*
X167207253Y-108228604D01*
X167339033Y-108228604D01*
X167339035Y-108228604D01*
X167466329Y-108194496D01*
X167580457Y-108128604D01*
X167673643Y-108035418D01*
X167739535Y-107921290D01*
X167773643Y-107793996D01*
X167773643Y-107662212D01*
X167746672Y-107561555D01*
X167743094Y-107548200D01*
X167743094Y-107548199D01*
X167739535Y-107534918D01*
X167733368Y-107524236D01*
X167733367Y-107524234D01*
X168812500Y-107524234D01*
X168812500Y-107675766D01*
X168818860Y-107699502D01*
X168851719Y-107822136D01*
X168889602Y-107887750D01*
X168927485Y-107953365D01*
X169034635Y-108060515D01*
X169165865Y-108136281D01*
X169312234Y-108175500D01*
X169312236Y-108175500D01*
X169463764Y-108175500D01*
X169463766Y-108175500D01*
X169610135Y-108136281D01*
X169741365Y-108060515D01*
X169848515Y-107953365D01*
X169924281Y-107822135D01*
X169963500Y-107675766D01*
X169963500Y-107524234D01*
X169924281Y-107377865D01*
X169848515Y-107246635D01*
X169741365Y-107139485D01*
X169673840Y-107100499D01*
X169610136Y-107063719D01*
X169536950Y-107044109D01*
X169463766Y-107024500D01*
X169312234Y-107024500D01*
X169165863Y-107063719D01*
X169034635Y-107139485D01*
X169034632Y-107139487D01*
X168927487Y-107246632D01*
X168927485Y-107246635D01*
X168851719Y-107377863D01*
X168840218Y-107420787D01*
X168812500Y-107524234D01*
X167733367Y-107524234D01*
X167673643Y-107420790D01*
X167580457Y-107327604D01*
X167523393Y-107294658D01*
X167466330Y-107261712D01*
X167402682Y-107244658D01*
X167339035Y-107227604D01*
X167207251Y-107227604D01*
X167079955Y-107261712D01*
X166965829Y-107327604D01*
X166965826Y-107327606D01*
X166872645Y-107420787D01*
X166872643Y-107420790D01*
X166806751Y-107534916D01*
X166772643Y-107662212D01*
X164183500Y-107662212D01*
X164183500Y-107524234D01*
X164144281Y-107377865D01*
X164068515Y-107246635D01*
X163961365Y-107139485D01*
X163893840Y-107100499D01*
X163830136Y-107063719D01*
X163756950Y-107044109D01*
X163683766Y-107024500D01*
X163532234Y-107024500D01*
X163385863Y-107063719D01*
X163254635Y-107139485D01*
X163254632Y-107139487D01*
X163147487Y-107246632D01*
X163147485Y-107246635D01*
X163071719Y-107377863D01*
X163060218Y-107420787D01*
X163032500Y-107524234D01*
X139844599Y-107524234D01*
X139891392Y-107443186D01*
X139925500Y-107315892D01*
X139925500Y-107184108D01*
X139891392Y-107056814D01*
X139825500Y-106942686D01*
X139732314Y-106849500D01*
X139647439Y-106800497D01*
X139618187Y-106783608D01*
X139554539Y-106766554D01*
X139490892Y-106749500D01*
X139359108Y-106749500D01*
X139231812Y-106783608D01*
X139117686Y-106849500D01*
X139117683Y-106849502D01*
X139024502Y-106942683D01*
X139024500Y-106942686D01*
X138958608Y-107056812D01*
X138924500Y-107184108D01*
X118850500Y-107184108D01*
X118850500Y-106534108D01*
X143174500Y-106534108D01*
X143174500Y-106665892D01*
X143191554Y-106729539D01*
X143208608Y-106793187D01*
X143221717Y-106815892D01*
X143274500Y-106907314D01*
X143367686Y-107000500D01*
X143481814Y-107066392D01*
X143609108Y-107100500D01*
X143609110Y-107100500D01*
X143740890Y-107100500D01*
X143740892Y-107100500D01*
X143868186Y-107066392D01*
X143982314Y-107000500D01*
X144075500Y-106907314D01*
X144141392Y-106793186D01*
X144175500Y-106665892D01*
X144175500Y-106534108D01*
X144141392Y-106406814D01*
X144141389Y-106406808D01*
X144130520Y-106387982D01*
X144130519Y-106387981D01*
X144099415Y-106334108D01*
X152974500Y-106334108D01*
X152974500Y-106465891D01*
X153008608Y-106593187D01*
X153008609Y-106593188D01*
X153074500Y-106707314D01*
X153167686Y-106800500D01*
X153281814Y-106866392D01*
X153409108Y-106900500D01*
X153409110Y-106900500D01*
X153540890Y-106900500D01*
X153540892Y-106900500D01*
X153668186Y-106866392D01*
X153782314Y-106800500D01*
X153875500Y-106707314D01*
X153888898Y-106684108D01*
X165834500Y-106684108D01*
X165834500Y-106815891D01*
X165868608Y-106943187D01*
X165901554Y-107000250D01*
X165934500Y-107057314D01*
X166027686Y-107150500D01*
X166141814Y-107216392D01*
X166269108Y-107250500D01*
X166269110Y-107250500D01*
X166400890Y-107250500D01*
X166400892Y-107250500D01*
X166528186Y-107216392D01*
X166642314Y-107150500D01*
X166735500Y-107057314D01*
X166801392Y-106943186D01*
X166835500Y-106815892D01*
X166835500Y-106684108D01*
X166801392Y-106556814D01*
X166735500Y-106442686D01*
X166642314Y-106349500D01*
X166543910Y-106292686D01*
X166528187Y-106283608D01*
X166464539Y-106266554D01*
X166400892Y-106249500D01*
X166269108Y-106249500D01*
X166141812Y-106283608D01*
X166027686Y-106349500D01*
X166027683Y-106349502D01*
X165934502Y-106442683D01*
X165934500Y-106442686D01*
X165868608Y-106556812D01*
X165834500Y-106684108D01*
X153888898Y-106684108D01*
X153941392Y-106593186D01*
X153975500Y-106465892D01*
X153975500Y-106334108D01*
X153941392Y-106206814D01*
X153875500Y-106092686D01*
X153782314Y-105999500D01*
X153725250Y-105966554D01*
X153668187Y-105933608D01*
X153604539Y-105916554D01*
X153540892Y-105899500D01*
X153409108Y-105899500D01*
X153281812Y-105933608D01*
X153167686Y-105999500D01*
X153167683Y-105999502D01*
X153074502Y-106092683D01*
X153074500Y-106092686D01*
X153008608Y-106206812D01*
X152974500Y-106334108D01*
X144099415Y-106334108D01*
X144075500Y-106292686D01*
X143982314Y-106199500D01*
X143925250Y-106166554D01*
X143868187Y-106133608D01*
X143804539Y-106116554D01*
X143740892Y-106099500D01*
X143609108Y-106099500D01*
X143481812Y-106133608D01*
X143367686Y-106199500D01*
X143367683Y-106199502D01*
X143274502Y-106292683D01*
X143274500Y-106292686D01*
X143208608Y-106406812D01*
X143192778Y-106465892D01*
X143174500Y-106534108D01*
X118850500Y-106534108D01*
X118850500Y-104634108D01*
X132124500Y-104634108D01*
X132124500Y-104765892D01*
X132139671Y-104822510D01*
X132158608Y-104893187D01*
X132191554Y-104950250D01*
X132224500Y-105007314D01*
X132317686Y-105100500D01*
X132431814Y-105166392D01*
X132559108Y-105200500D01*
X132559110Y-105200500D01*
X132690890Y-105200500D01*
X132690892Y-105200500D01*
X132818186Y-105166392D01*
X132932314Y-105100500D01*
X133025500Y-105007314D01*
X133091392Y-104893186D01*
X133110329Y-104822510D01*
X147788504Y-104822510D01*
X147788504Y-104954294D01*
X147800885Y-105000500D01*
X147822612Y-105081589D01*
X147837175Y-105106812D01*
X147888504Y-105195716D01*
X147981690Y-105288902D01*
X148095818Y-105354794D01*
X148223112Y-105388902D01*
X148223114Y-105388902D01*
X148354894Y-105388902D01*
X148354896Y-105388902D01*
X148354897Y-105388901D01*
X148362952Y-105387841D01*
X148363211Y-105389810D01*
X148422301Y-105391210D01*
X148480168Y-105430366D01*
X148504332Y-105477230D01*
X148508608Y-105493186D01*
X148574500Y-105607314D01*
X148667686Y-105700500D01*
X148781814Y-105766392D01*
X148909108Y-105800500D01*
X148909110Y-105800500D01*
X149040890Y-105800500D01*
X149040892Y-105800500D01*
X149168186Y-105766392D01*
X149282314Y-105700500D01*
X149375500Y-105607314D01*
X149441392Y-105493186D01*
X149475500Y-105365892D01*
X149475500Y-105234108D01*
X149441392Y-105106814D01*
X149375500Y-104992686D01*
X149282314Y-104899500D01*
X149225250Y-104866554D01*
X149168187Y-104833608D01*
X149104539Y-104816554D01*
X149040892Y-104799500D01*
X148909108Y-104799500D01*
X148909106Y-104799500D01*
X148901052Y-104800561D01*
X148900793Y-104798595D01*
X148841676Y-104797182D01*
X148783818Y-104758014D01*
X148759670Y-104711168D01*
X148755396Y-104695216D01*
X148689504Y-104581088D01*
X148596318Y-104487902D01*
X148503148Y-104434110D01*
X148503145Y-104434108D01*
X155899500Y-104434108D01*
X155899500Y-104565891D01*
X155933608Y-104693187D01*
X155966554Y-104750250D01*
X155999500Y-104807314D01*
X156092686Y-104900500D01*
X156206814Y-104966392D01*
X156334108Y-105000500D01*
X156334110Y-105000500D01*
X156465890Y-105000500D01*
X156465892Y-105000500D01*
X156593186Y-104966392D01*
X156707314Y-104900500D01*
X156800500Y-104807314D01*
X156866392Y-104693186D01*
X156900500Y-104565892D01*
X156900500Y-104434108D01*
X156866392Y-104306814D01*
X156800500Y-104192686D01*
X156707314Y-104099500D01*
X156650250Y-104066554D01*
X156593187Y-104033608D01*
X156529539Y-104016554D01*
X156465892Y-103999500D01*
X156334108Y-103999500D01*
X156206812Y-104033608D01*
X156092686Y-104099500D01*
X156092683Y-104099502D01*
X155999502Y-104192683D01*
X155999500Y-104192686D01*
X155933608Y-104306812D01*
X155899500Y-104434108D01*
X148503145Y-104434108D01*
X148482191Y-104422010D01*
X148372750Y-104392686D01*
X148354896Y-104387902D01*
X148223112Y-104387902D01*
X148095816Y-104422010D01*
X147981690Y-104487902D01*
X147981687Y-104487904D01*
X147888506Y-104581085D01*
X147888504Y-104581088D01*
X147822612Y-104695214D01*
X147794912Y-104798595D01*
X147788504Y-104822510D01*
X133110329Y-104822510D01*
X133125500Y-104765892D01*
X133125500Y-104634108D01*
X133091392Y-104506814D01*
X133025500Y-104392686D01*
X132932314Y-104299500D01*
X132875250Y-104266554D01*
X132818187Y-104233608D01*
X132754539Y-104216554D01*
X132690892Y-104199500D01*
X132559108Y-104199500D01*
X132431812Y-104233608D01*
X132317686Y-104299500D01*
X132317683Y-104299502D01*
X132224502Y-104392683D01*
X132224500Y-104392686D01*
X132158608Y-104506812D01*
X132124500Y-104634108D01*
X118850500Y-104634108D01*
X118850500Y-103190392D01*
X160002552Y-103190392D01*
X160002552Y-103322175D01*
X160036660Y-103449471D01*
X160069606Y-103506534D01*
X160102552Y-103563598D01*
X160195738Y-103656784D01*
X160309866Y-103722676D01*
X160437160Y-103756784D01*
X160437162Y-103756784D01*
X160568942Y-103756784D01*
X160568944Y-103756784D01*
X160696238Y-103722676D01*
X160810366Y-103656784D01*
X160903552Y-103563598D01*
X160969444Y-103449470D01*
X161003552Y-103322176D01*
X161003552Y-103190392D01*
X160969444Y-103063098D01*
X160903552Y-102948970D01*
X160810366Y-102855784D01*
X160745245Y-102818186D01*
X160696239Y-102789892D01*
X160632591Y-102772838D01*
X160568944Y-102755784D01*
X160437160Y-102755784D01*
X160309864Y-102789892D01*
X160195738Y-102855784D01*
X160195735Y-102855786D01*
X160102554Y-102948967D01*
X160102552Y-102948970D01*
X160036660Y-103063096D01*
X160002552Y-103190392D01*
X118850500Y-103190392D01*
X118850500Y-102559108D01*
X145699500Y-102559108D01*
X145699500Y-102690891D01*
X145733608Y-102818187D01*
X145755315Y-102855784D01*
X145799500Y-102932314D01*
X145892686Y-103025500D01*
X145978211Y-103074878D01*
X146006810Y-103091390D01*
X146006814Y-103091392D01*
X146134108Y-103125500D01*
X146134110Y-103125500D01*
X146265890Y-103125500D01*
X146265892Y-103125500D01*
X146393186Y-103091392D01*
X146507314Y-103025500D01*
X146600500Y-102932314D01*
X146666392Y-102818186D01*
X146700500Y-102690892D01*
X146700500Y-102559108D01*
X146666392Y-102431814D01*
X146600500Y-102317686D01*
X146507314Y-102224500D01*
X146507312Y-102224499D01*
X146507310Y-102224497D01*
X146436072Y-102183368D01*
X146436071Y-102183368D01*
X146393187Y-102158608D01*
X146329539Y-102141554D01*
X146265892Y-102124500D01*
X146134108Y-102124500D01*
X146006812Y-102158608D01*
X145892686Y-102224500D01*
X145892683Y-102224502D01*
X145799502Y-102317683D01*
X145799500Y-102317686D01*
X145733608Y-102431812D01*
X145699500Y-102559108D01*
X118850500Y-102559108D01*
X118850500Y-102084108D01*
X171734500Y-102084108D01*
X171734500Y-102215892D01*
X171736807Y-102224502D01*
X171768608Y-102343187D01*
X171801554Y-102400250D01*
X171834500Y-102457314D01*
X171927686Y-102550500D01*
X172041814Y-102616392D01*
X172169108Y-102650500D01*
X172169110Y-102650500D01*
X172300890Y-102650500D01*
X172300892Y-102650500D01*
X172428186Y-102616392D01*
X172542314Y-102550500D01*
X172635500Y-102457314D01*
X172701392Y-102343186D01*
X172735500Y-102215892D01*
X172735500Y-102084108D01*
X172701392Y-101956814D01*
X172635500Y-101842686D01*
X172542314Y-101749500D01*
X172476421Y-101711456D01*
X172428185Y-101683607D01*
X172396556Y-101675132D01*
X172336896Y-101638767D01*
X172306368Y-101575919D01*
X172314663Y-101506544D01*
X172359150Y-101452666D01*
X172396552Y-101435585D01*
X172468186Y-101416392D01*
X172582314Y-101350500D01*
X172675500Y-101257314D01*
X172741392Y-101143186D01*
X172775500Y-101015892D01*
X172775500Y-100884108D01*
X172741392Y-100756814D01*
X172675500Y-100642686D01*
X172582314Y-100549500D01*
X172525250Y-100516554D01*
X172468187Y-100483608D01*
X172404539Y-100466554D01*
X172340892Y-100449500D01*
X172209108Y-100449500D01*
X172081812Y-100483608D01*
X171967686Y-100549500D01*
X171967683Y-100549502D01*
X171874502Y-100642683D01*
X171874500Y-100642686D01*
X171808608Y-100756812D01*
X171774500Y-100884108D01*
X171774500Y-101015891D01*
X171808608Y-101143187D01*
X171841554Y-101200250D01*
X171874500Y-101257314D01*
X171967686Y-101350500D01*
X172081814Y-101416392D01*
X172113442Y-101424866D01*
X172173102Y-101461231D01*
X172203631Y-101524078D01*
X172195336Y-101593453D01*
X172150851Y-101647331D01*
X172113442Y-101664415D01*
X172092985Y-101669896D01*
X172041812Y-101683608D01*
X171927686Y-101749500D01*
X171927683Y-101749502D01*
X171834502Y-101842683D01*
X171834500Y-101842686D01*
X171768608Y-101956812D01*
X171734500Y-102084108D01*
X118850500Y-102084108D01*
X118850500Y-100834108D01*
X160474500Y-100834108D01*
X160474500Y-100965891D01*
X160508608Y-101093187D01*
X160537476Y-101143186D01*
X160574500Y-101207314D01*
X160667686Y-101300500D01*
X160781814Y-101366392D01*
X160909108Y-101400500D01*
X160909110Y-101400500D01*
X161040890Y-101400500D01*
X161040892Y-101400500D01*
X161168186Y-101366392D01*
X161282314Y-101300500D01*
X161375500Y-101207314D01*
X161441392Y-101093186D01*
X161475500Y-100965892D01*
X161475500Y-100834108D01*
X161441392Y-100706814D01*
X161375500Y-100592686D01*
X161282314Y-100499500D01*
X161195712Y-100449500D01*
X161169053Y-100434108D01*
X162474500Y-100434108D01*
X162474500Y-100565892D01*
X162491554Y-100629539D01*
X162508608Y-100693187D01*
X162516475Y-100706812D01*
X162574500Y-100807314D01*
X162667686Y-100900500D01*
X162766521Y-100957563D01*
X162780944Y-100965890D01*
X162781814Y-100966392D01*
X162909108Y-101000500D01*
X162909110Y-101000500D01*
X163040890Y-101000500D01*
X163040892Y-101000500D01*
X163168186Y-100966392D01*
X163282314Y-100900500D01*
X163375500Y-100807314D01*
X163441392Y-100693186D01*
X163475500Y-100565892D01*
X163475500Y-100434108D01*
X163441392Y-100306814D01*
X163375500Y-100192686D01*
X163282314Y-100099500D01*
X163225250Y-100066554D01*
X163168187Y-100033608D01*
X163068188Y-100006814D01*
X163040892Y-99999500D01*
X162909108Y-99999500D01*
X162781812Y-100033608D01*
X162667686Y-100099500D01*
X162667683Y-100099502D01*
X162574502Y-100192683D01*
X162574500Y-100192686D01*
X162508608Y-100306812D01*
X162483773Y-100399500D01*
X162474500Y-100434108D01*
X161169053Y-100434108D01*
X161168187Y-100433608D01*
X161104539Y-100416554D01*
X161040892Y-100399500D01*
X160909108Y-100399500D01*
X160781812Y-100433608D01*
X160667686Y-100499500D01*
X160667683Y-100499502D01*
X160574502Y-100592683D01*
X160574500Y-100592686D01*
X160508608Y-100706812D01*
X160474500Y-100834108D01*
X118850500Y-100834108D01*
X118850500Y-98604666D01*
X146720058Y-98604666D01*
X146720058Y-98736450D01*
X146728427Y-98767683D01*
X146754166Y-98863745D01*
X146787112Y-98920808D01*
X146820058Y-98977872D01*
X146913244Y-99071058D01*
X147027372Y-99136950D01*
X147154666Y-99171058D01*
X147154668Y-99171058D01*
X147286448Y-99171058D01*
X147286450Y-99171058D01*
X147413744Y-99136950D01*
X147527872Y-99071058D01*
X147621058Y-98977872D01*
X147686950Y-98863744D01*
X147721058Y-98736450D01*
X147721058Y-98734108D01*
X148424500Y-98734108D01*
X148424500Y-98865891D01*
X148458608Y-98993187D01*
X148486980Y-99042328D01*
X148524500Y-99107314D01*
X148617686Y-99200500D01*
X148731814Y-99266392D01*
X148859108Y-99300500D01*
X148859110Y-99300500D01*
X148990890Y-99300500D01*
X148990892Y-99300500D01*
X149118186Y-99266392D01*
X149232314Y-99200500D01*
X149325500Y-99107314D01*
X149382199Y-99009108D01*
X149874500Y-99009108D01*
X149874500Y-99140892D01*
X149890472Y-99200500D01*
X149908608Y-99268187D01*
X149941554Y-99325250D01*
X149974500Y-99382314D01*
X150067686Y-99475500D01*
X150150393Y-99523251D01*
X150162278Y-99530113D01*
X150210493Y-99580681D01*
X150223715Y-99649288D01*
X150197747Y-99714152D01*
X150162278Y-99744887D01*
X150067686Y-99799500D01*
X150067683Y-99799502D01*
X149974502Y-99892683D01*
X149974500Y-99892686D01*
X149908608Y-100006812D01*
X149874500Y-100134108D01*
X149874500Y-100265891D01*
X149908608Y-100393187D01*
X149941121Y-100449500D01*
X149974500Y-100507314D01*
X150067686Y-100600500D01*
X150181814Y-100666392D01*
X150309108Y-100700500D01*
X150309110Y-100700500D01*
X150440890Y-100700500D01*
X150440892Y-100700500D01*
X150568186Y-100666392D01*
X150682314Y-100600500D01*
X150775500Y-100507314D01*
X150841392Y-100393186D01*
X150875500Y-100265892D01*
X150875500Y-100234108D01*
X159074500Y-100234108D01*
X159074500Y-100365891D01*
X159108608Y-100493187D01*
X159116766Y-100507316D01*
X159174500Y-100607314D01*
X159267686Y-100700500D01*
X159365221Y-100756812D01*
X159381810Y-100766390D01*
X159381814Y-100766392D01*
X159509108Y-100800500D01*
X159509110Y-100800500D01*
X159640890Y-100800500D01*
X159640892Y-100800500D01*
X159768186Y-100766392D01*
X159882314Y-100700500D01*
X159975500Y-100607314D01*
X160041392Y-100493186D01*
X160075500Y-100365892D01*
X160075500Y-100234108D01*
X160041392Y-100106814D01*
X159975500Y-99992686D01*
X159882314Y-99899500D01*
X159825250Y-99866554D01*
X159768187Y-99833608D01*
X159704539Y-99816554D01*
X159640892Y-99799500D01*
X159509108Y-99799500D01*
X159381812Y-99833608D01*
X159267686Y-99899500D01*
X159267683Y-99899502D01*
X159174502Y-99992683D01*
X159174500Y-99992686D01*
X159108608Y-100106812D01*
X159074500Y-100234108D01*
X150875500Y-100234108D01*
X150875500Y-100134108D01*
X150841392Y-100006814D01*
X150775500Y-99892686D01*
X150682314Y-99799500D01*
X150587722Y-99744887D01*
X150539506Y-99694320D01*
X150526284Y-99625713D01*
X150552252Y-99560848D01*
X150587722Y-99530113D01*
X150597075Y-99524712D01*
X150682314Y-99475500D01*
X150775500Y-99382314D01*
X150841392Y-99268186D01*
X150875500Y-99140892D01*
X150875500Y-99009108D01*
X150841392Y-98881814D01*
X150775500Y-98767686D01*
X150682314Y-98674500D01*
X150625250Y-98641554D01*
X150568187Y-98608608D01*
X150543700Y-98602047D01*
X150440892Y-98574500D01*
X150309108Y-98574500D01*
X150181812Y-98608608D01*
X150067686Y-98674500D01*
X150067683Y-98674502D01*
X149974502Y-98767683D01*
X149974500Y-98767686D01*
X149908608Y-98881812D01*
X149882869Y-98977874D01*
X149874500Y-99009108D01*
X149382199Y-99009108D01*
X149391392Y-98993186D01*
X149425500Y-98865892D01*
X149425500Y-98734108D01*
X149391392Y-98606814D01*
X149325500Y-98492686D01*
X149316923Y-98484109D01*
X159998617Y-98484109D01*
X159998617Y-98615892D01*
X160032725Y-98743188D01*
X160065671Y-98800251D01*
X160098617Y-98857315D01*
X160191803Y-98950501D01*
X160290638Y-99007564D01*
X160305927Y-99016391D01*
X160305931Y-99016393D01*
X160433225Y-99050501D01*
X160433227Y-99050501D01*
X160565007Y-99050501D01*
X160565009Y-99050501D01*
X160692303Y-99016393D01*
X160806431Y-98950501D01*
X160899617Y-98857315D01*
X160965509Y-98743187D01*
X160999617Y-98615893D01*
X160999617Y-98484109D01*
X160999617Y-98484108D01*
X162374500Y-98484108D01*
X162374500Y-98615892D01*
X162390204Y-98674500D01*
X162408608Y-98743187D01*
X162408609Y-98743188D01*
X162474500Y-98857314D01*
X162567686Y-98950500D01*
X162681814Y-99016392D01*
X162809108Y-99050500D01*
X162809110Y-99050500D01*
X162940890Y-99050500D01*
X162940892Y-99050500D01*
X163068186Y-99016392D01*
X163182314Y-98950500D01*
X163275500Y-98857314D01*
X163341392Y-98743186D01*
X163375500Y-98615892D01*
X163375500Y-98484108D01*
X163373311Y-98475937D01*
X165041329Y-98475937D01*
X165041329Y-98607721D01*
X165043519Y-98615893D01*
X165075437Y-98735016D01*
X165108383Y-98792079D01*
X165141329Y-98849143D01*
X165234515Y-98942329D01*
X165348643Y-99008221D01*
X165475937Y-99042329D01*
X165475939Y-99042329D01*
X165607719Y-99042329D01*
X165607721Y-99042329D01*
X165735015Y-99008221D01*
X165849143Y-98942329D01*
X165942329Y-98849143D01*
X166008221Y-98735015D01*
X166042329Y-98607721D01*
X166042329Y-98475937D01*
X166008221Y-98348643D01*
X165942329Y-98234515D01*
X165849143Y-98141329D01*
X165792079Y-98108383D01*
X165735016Y-98075437D01*
X165671368Y-98058383D01*
X165607721Y-98041329D01*
X165475937Y-98041329D01*
X165348641Y-98075437D01*
X165234515Y-98141329D01*
X165234512Y-98141331D01*
X165141331Y-98234512D01*
X165141329Y-98234515D01*
X165075437Y-98348641D01*
X165041329Y-98475937D01*
X163373311Y-98475937D01*
X163341392Y-98356814D01*
X163336674Y-98348643D01*
X163327994Y-98333608D01*
X163275500Y-98242686D01*
X163182314Y-98149500D01*
X163125250Y-98116554D01*
X163068187Y-98083608D01*
X163004539Y-98066554D01*
X162940892Y-98049500D01*
X162809108Y-98049500D01*
X162681812Y-98083608D01*
X162567686Y-98149500D01*
X162567683Y-98149502D01*
X162474502Y-98242683D01*
X162474500Y-98242686D01*
X162408608Y-98356812D01*
X162406885Y-98363244D01*
X162374500Y-98484108D01*
X160999617Y-98484108D01*
X160965509Y-98356815D01*
X160899617Y-98242687D01*
X160806431Y-98149501D01*
X160749367Y-98116555D01*
X160692304Y-98083609D01*
X160628656Y-98066555D01*
X160565009Y-98049501D01*
X160433225Y-98049501D01*
X160305929Y-98083609D01*
X160191803Y-98149501D01*
X160191800Y-98149503D01*
X160098619Y-98242684D01*
X160098617Y-98242687D01*
X160032725Y-98356813D01*
X159998617Y-98484109D01*
X149316923Y-98484109D01*
X149232314Y-98399500D01*
X149158378Y-98356813D01*
X149118187Y-98333608D01*
X149054539Y-98316554D01*
X148990892Y-98299500D01*
X148859108Y-98299500D01*
X148731812Y-98333608D01*
X148617686Y-98399500D01*
X148617683Y-98399502D01*
X148524502Y-98492683D01*
X148524500Y-98492686D01*
X148458608Y-98606812D01*
X148424500Y-98734108D01*
X147721058Y-98734108D01*
X147721058Y-98604666D01*
X147686950Y-98477372D01*
X147621058Y-98363244D01*
X147527872Y-98270058D01*
X147466305Y-98234512D01*
X147413745Y-98204166D01*
X147350097Y-98187112D01*
X147286450Y-98170058D01*
X147154666Y-98170058D01*
X147027370Y-98204166D01*
X146913244Y-98270058D01*
X146913241Y-98270060D01*
X146820060Y-98363241D01*
X146820058Y-98363244D01*
X146754166Y-98477370D01*
X146728141Y-98574500D01*
X146720058Y-98604666D01*
X118850500Y-98604666D01*
X118850500Y-96659108D01*
X143574500Y-96659108D01*
X143574500Y-96790892D01*
X143576807Y-96799502D01*
X143608608Y-96918187D01*
X143636151Y-96965892D01*
X143674500Y-97032314D01*
X143767686Y-97125500D01*
X143881814Y-97191392D01*
X144009108Y-97225500D01*
X144009110Y-97225500D01*
X144140890Y-97225500D01*
X144140892Y-97225500D01*
X144268186Y-97191392D01*
X144382314Y-97125500D01*
X144475500Y-97032314D01*
X144541392Y-96918186D01*
X144575500Y-96790892D01*
X144575500Y-96661163D01*
X147601555Y-96661163D01*
X147601555Y-96792947D01*
X147618609Y-96856594D01*
X147635663Y-96920242D01*
X147662019Y-96965891D01*
X147701555Y-97034369D01*
X147794741Y-97127555D01*
X147878669Y-97176011D01*
X147905309Y-97191392D01*
X147908869Y-97193447D01*
X148036163Y-97227555D01*
X148036165Y-97227555D01*
X148167945Y-97227555D01*
X148167947Y-97227555D01*
X148295241Y-97193447D01*
X148398019Y-97134108D01*
X150499500Y-97134108D01*
X150499500Y-97265891D01*
X150533608Y-97393187D01*
X150566554Y-97450250D01*
X150599500Y-97507314D01*
X150692686Y-97600500D01*
X150806814Y-97666392D01*
X150934108Y-97700500D01*
X150934110Y-97700500D01*
X151065890Y-97700500D01*
X151065892Y-97700500D01*
X151193186Y-97666392D01*
X151307314Y-97600500D01*
X151400500Y-97507314D01*
X151466392Y-97393186D01*
X151500500Y-97265892D01*
X151500500Y-97134108D01*
X151466392Y-97006814D01*
X151458233Y-96992683D01*
X151400503Y-96892691D01*
X151400502Y-96892690D01*
X151400500Y-96892686D01*
X151341922Y-96834108D01*
X159099500Y-96834108D01*
X159099500Y-96965892D01*
X159110464Y-97006810D01*
X159133608Y-97093187D01*
X159166554Y-97150250D01*
X159199500Y-97207314D01*
X159292686Y-97300500D01*
X159391521Y-97357563D01*
X159405944Y-97365890D01*
X159406814Y-97366392D01*
X159534108Y-97400500D01*
X159534110Y-97400500D01*
X159665890Y-97400500D01*
X159665892Y-97400500D01*
X159793186Y-97366392D01*
X159907314Y-97300500D01*
X159973706Y-97234108D01*
X164174500Y-97234108D01*
X164174500Y-97365891D01*
X164208608Y-97493187D01*
X164216766Y-97507316D01*
X164274500Y-97607314D01*
X164367686Y-97700500D01*
X164481814Y-97766392D01*
X164609108Y-97800500D01*
X164609110Y-97800500D01*
X164740890Y-97800500D01*
X164740892Y-97800500D01*
X164868186Y-97766392D01*
X164982314Y-97700500D01*
X165075500Y-97607314D01*
X165141392Y-97493186D01*
X165175500Y-97365892D01*
X165175500Y-97234108D01*
X167274500Y-97234108D01*
X167274500Y-97365891D01*
X167308608Y-97493187D01*
X167316766Y-97507316D01*
X167374500Y-97607314D01*
X167467686Y-97700500D01*
X167581814Y-97766392D01*
X167709108Y-97800500D01*
X167709110Y-97800500D01*
X167840890Y-97800500D01*
X167840892Y-97800500D01*
X167968186Y-97766392D01*
X168082314Y-97700500D01*
X168175500Y-97607314D01*
X168241392Y-97493186D01*
X168275500Y-97365892D01*
X168275500Y-97234108D01*
X168241392Y-97106814D01*
X168175500Y-96992686D01*
X168082314Y-96899500D01*
X168025250Y-96866554D01*
X167968187Y-96833608D01*
X167904539Y-96816554D01*
X167840892Y-96799500D01*
X167709108Y-96799500D01*
X167581812Y-96833608D01*
X167467686Y-96899500D01*
X167467683Y-96899502D01*
X167374502Y-96992683D01*
X167374500Y-96992686D01*
X167308608Y-97106812D01*
X167274500Y-97234108D01*
X165175500Y-97234108D01*
X165141392Y-97106814D01*
X165075500Y-96992686D01*
X164982314Y-96899500D01*
X164925250Y-96866554D01*
X164868187Y-96833608D01*
X164804539Y-96816554D01*
X164740892Y-96799500D01*
X164609108Y-96799500D01*
X164481812Y-96833608D01*
X164367686Y-96899500D01*
X164367683Y-96899502D01*
X164274502Y-96992683D01*
X164274500Y-96992686D01*
X164208608Y-97106812D01*
X164174500Y-97234108D01*
X159973706Y-97234108D01*
X160000500Y-97207314D01*
X160066392Y-97093186D01*
X160100500Y-96965892D01*
X160100500Y-96834108D01*
X160066392Y-96706814D01*
X160029969Y-96643728D01*
X161564880Y-96643728D01*
X161564880Y-96775512D01*
X161569552Y-96792947D01*
X161598988Y-96902807D01*
X161631934Y-96959870D01*
X161664880Y-97016934D01*
X161758066Y-97110120D01*
X161856901Y-97167183D01*
X161872190Y-97176010D01*
X161872194Y-97176012D01*
X161999488Y-97210120D01*
X161999490Y-97210120D01*
X162131270Y-97210120D01*
X162131272Y-97210120D01*
X162258566Y-97176012D01*
X162372694Y-97110120D01*
X162465880Y-97016934D01*
X162531772Y-96902806D01*
X162565880Y-96775512D01*
X162565880Y-96643728D01*
X162531772Y-96516434D01*
X162465880Y-96402306D01*
X162372694Y-96309120D01*
X162315630Y-96276174D01*
X162258567Y-96243228D01*
X162188671Y-96224500D01*
X162131272Y-96209120D01*
X161999488Y-96209120D01*
X161872192Y-96243228D01*
X161758066Y-96309120D01*
X161758063Y-96309122D01*
X161664882Y-96402303D01*
X161664880Y-96402306D01*
X161598988Y-96516432D01*
X161578556Y-96592689D01*
X161564880Y-96643728D01*
X160029969Y-96643728D01*
X160000500Y-96592686D01*
X159907314Y-96499500D01*
X159850250Y-96466554D01*
X159793187Y-96433608D01*
X159729539Y-96416554D01*
X159665892Y-96399500D01*
X159534108Y-96399500D01*
X159406812Y-96433608D01*
X159292686Y-96499500D01*
X159292683Y-96499502D01*
X159199502Y-96592683D01*
X159199500Y-96592686D01*
X159133608Y-96706812D01*
X159099634Y-96833608D01*
X159099500Y-96834108D01*
X151341922Y-96834108D01*
X151307314Y-96799500D01*
X151250250Y-96766554D01*
X151193187Y-96733608D01*
X151093188Y-96706814D01*
X151065892Y-96699500D01*
X150934108Y-96699500D01*
X150806812Y-96733608D01*
X150692686Y-96799500D01*
X150692683Y-96799502D01*
X150599502Y-96892683D01*
X150599500Y-96892686D01*
X150533608Y-97006812D01*
X150499500Y-97134108D01*
X148398019Y-97134108D01*
X148409369Y-97127555D01*
X148502555Y-97034369D01*
X148568447Y-96920241D01*
X148602555Y-96792947D01*
X148602555Y-96661163D01*
X148568447Y-96533869D01*
X148567259Y-96531812D01*
X148548604Y-96499500D01*
X148502555Y-96419741D01*
X148409369Y-96326555D01*
X148350017Y-96292288D01*
X148295242Y-96260663D01*
X148230172Y-96243228D01*
X148167947Y-96226555D01*
X148036163Y-96226555D01*
X147908867Y-96260663D01*
X147794741Y-96326555D01*
X147794738Y-96326557D01*
X147701557Y-96419738D01*
X147701555Y-96419741D01*
X147635663Y-96533867D01*
X147619904Y-96592683D01*
X147601555Y-96661163D01*
X144575500Y-96661163D01*
X144575500Y-96659108D01*
X144541392Y-96531814D01*
X144475500Y-96417686D01*
X144382314Y-96324500D01*
X144325250Y-96291554D01*
X144268187Y-96258608D01*
X144148561Y-96226555D01*
X144140892Y-96224500D01*
X144009108Y-96224500D01*
X143881812Y-96258608D01*
X143767686Y-96324500D01*
X143767683Y-96324502D01*
X143674502Y-96417683D01*
X143674500Y-96417686D01*
X143608608Y-96531812D01*
X143578621Y-96643728D01*
X143574500Y-96659108D01*
X118850500Y-96659108D01*
X118850500Y-93920627D01*
X147562077Y-93920627D01*
X147562077Y-94052410D01*
X147596185Y-94179706D01*
X147606668Y-94197862D01*
X147662077Y-94293833D01*
X147662079Y-94293835D01*
X147691618Y-94323374D01*
X147725103Y-94384697D01*
X147720119Y-94454389D01*
X147711324Y-94473055D01*
X147642662Y-94591980D01*
X147642662Y-94591981D01*
X147608553Y-94719278D01*
X147608553Y-94851061D01*
X147642661Y-94978357D01*
X147648220Y-94987985D01*
X147708553Y-95092484D01*
X147801739Y-95185670D01*
X147915867Y-95251562D01*
X148043161Y-95285670D01*
X148043163Y-95285670D01*
X148174943Y-95285670D01*
X148174945Y-95285670D01*
X148302239Y-95251562D01*
X148416367Y-95185670D01*
X148509553Y-95092484D01*
X148575445Y-94978356D01*
X148609553Y-94851062D01*
X148609553Y-94719278D01*
X148575445Y-94591984D01*
X148509553Y-94477856D01*
X148480011Y-94448314D01*
X148446526Y-94386991D01*
X148451510Y-94317299D01*
X148460305Y-94298632D01*
X148463075Y-94293835D01*
X148463077Y-94293833D01*
X148528969Y-94179705D01*
X148563077Y-94052411D01*
X148563077Y-93920627D01*
X148528969Y-93793333D01*
X148528966Y-93793327D01*
X148517232Y-93773003D01*
X148517231Y-93773002D01*
X148486127Y-93719129D01*
X150156436Y-93719129D01*
X150156436Y-93850912D01*
X150190544Y-93978208D01*
X150223490Y-94035271D01*
X150256436Y-94092335D01*
X150256438Y-94092337D01*
X150327962Y-94163861D01*
X150361447Y-94225184D01*
X150356463Y-94294876D01*
X150327967Y-94339218D01*
X150324504Y-94342680D01*
X150324500Y-94342686D01*
X150258608Y-94456812D01*
X150247170Y-94499500D01*
X150224500Y-94584108D01*
X150224500Y-94715892D01*
X150225408Y-94719280D01*
X150258608Y-94843187D01*
X150263155Y-94851062D01*
X150324500Y-94957314D01*
X150417686Y-95050500D01*
X150490403Y-95092483D01*
X150519052Y-95109024D01*
X150567268Y-95159591D01*
X150580490Y-95228198D01*
X150564440Y-95278410D01*
X150533608Y-95331812D01*
X150499500Y-95459108D01*
X150499500Y-95590891D01*
X150533608Y-95718187D01*
X150554225Y-95753896D01*
X150599500Y-95832314D01*
X150692686Y-95925500D01*
X150806814Y-95991392D01*
X150934108Y-96025500D01*
X150934110Y-96025500D01*
X151065890Y-96025500D01*
X151065892Y-96025500D01*
X151193186Y-95991392D01*
X151307314Y-95925500D01*
X151400500Y-95832314D01*
X151466392Y-95718186D01*
X151500500Y-95590892D01*
X151500500Y-95459108D01*
X151466392Y-95331814D01*
X151402767Y-95221613D01*
X161892103Y-95221613D01*
X161892103Y-95353396D01*
X161926211Y-95480692D01*
X161948086Y-95518580D01*
X161992103Y-95594819D01*
X162085289Y-95688005D01*
X162199417Y-95753897D01*
X162326711Y-95788005D01*
X162326713Y-95788005D01*
X162458493Y-95788005D01*
X162458495Y-95788005D01*
X162467742Y-95785527D01*
X162537590Y-95787186D01*
X162595454Y-95826346D01*
X162620581Y-95884058D01*
X162621028Y-95883939D01*
X162621826Y-95886918D01*
X162622777Y-95889102D01*
X162623130Y-95891786D01*
X162657239Y-96019084D01*
X162690185Y-96076147D01*
X162723131Y-96133211D01*
X162816317Y-96226397D01*
X162930445Y-96292289D01*
X163057739Y-96326397D01*
X163057741Y-96326397D01*
X163189521Y-96326397D01*
X163189523Y-96326397D01*
X163316817Y-96292289D01*
X163430945Y-96226397D01*
X163524131Y-96133211D01*
X163590023Y-96019083D01*
X163624131Y-95891789D01*
X163624131Y-95760005D01*
X163590023Y-95632711D01*
X163524131Y-95518583D01*
X163430945Y-95425397D01*
X163362928Y-95386127D01*
X163316818Y-95359505D01*
X163253170Y-95342451D01*
X163189523Y-95325397D01*
X163057739Y-95325397D01*
X163057737Y-95325397D01*
X163048482Y-95327877D01*
X162978632Y-95326212D01*
X162920771Y-95287047D01*
X162895656Y-95229342D01*
X162895206Y-95229463D01*
X162894399Y-95226452D01*
X162893453Y-95224278D01*
X162893103Y-95221617D01*
X162893103Y-95221613D01*
X162858995Y-95094319D01*
X162842581Y-95065890D01*
X162797603Y-94987985D01*
X162797602Y-94987984D01*
X162793103Y-94980191D01*
X162747020Y-94934108D01*
X169374500Y-94934108D01*
X169374500Y-95065892D01*
X169382117Y-95094319D01*
X169408608Y-95193187D01*
X169441554Y-95250250D01*
X169474500Y-95307314D01*
X169567686Y-95400500D01*
X169681814Y-95466392D01*
X169809108Y-95500500D01*
X169809110Y-95500500D01*
X169940890Y-95500500D01*
X169940892Y-95500500D01*
X170068186Y-95466392D01*
X170182314Y-95400500D01*
X170275500Y-95307314D01*
X170341392Y-95193186D01*
X170375500Y-95065892D01*
X170375500Y-94934108D01*
X170341392Y-94806814D01*
X170275500Y-94692686D01*
X170182314Y-94599500D01*
X170125250Y-94566554D01*
X170068187Y-94533608D01*
X170004539Y-94516554D01*
X169940892Y-94499500D01*
X169809108Y-94499500D01*
X169681812Y-94533608D01*
X169567686Y-94599500D01*
X169567683Y-94599502D01*
X169474502Y-94692683D01*
X169474500Y-94692686D01*
X169408608Y-94806812D01*
X169374500Y-94934108D01*
X162747020Y-94934108D01*
X162699917Y-94887005D01*
X162624024Y-94843188D01*
X162585790Y-94821113D01*
X162522142Y-94804059D01*
X162458495Y-94787005D01*
X162326711Y-94787005D01*
X162199415Y-94821113D01*
X162085289Y-94887005D01*
X162085286Y-94887007D01*
X161992105Y-94980188D01*
X161992103Y-94980191D01*
X161926211Y-95094317D01*
X161892103Y-95221613D01*
X151402767Y-95221613D01*
X151400500Y-95217686D01*
X151307314Y-95124500D01*
X151205946Y-95065975D01*
X151157731Y-95015408D01*
X151144509Y-94946800D01*
X151160561Y-94896587D01*
X151191389Y-94843191D01*
X151191388Y-94843191D01*
X151191392Y-94843186D01*
X151225500Y-94715892D01*
X151225500Y-94584108D01*
X151191392Y-94456814D01*
X151125500Y-94342686D01*
X151053973Y-94271159D01*
X151020488Y-94209836D01*
X151025472Y-94140144D01*
X151053976Y-94095794D01*
X151057436Y-94092335D01*
X151123328Y-93978207D01*
X151157436Y-93850913D01*
X151157436Y-93719129D01*
X151123328Y-93591835D01*
X151123326Y-93591831D01*
X151105989Y-93561802D01*
X151105988Y-93561801D01*
X151081927Y-93520127D01*
X151074883Y-93507927D01*
X158343256Y-93507927D01*
X158343256Y-93639711D01*
X158353838Y-93679205D01*
X158377364Y-93767006D01*
X158410310Y-93824069D01*
X158443256Y-93881133D01*
X158536442Y-93974319D01*
X158650570Y-94040211D01*
X158777864Y-94074319D01*
X158777866Y-94074319D01*
X158909646Y-94074319D01*
X158909648Y-94074319D01*
X159036942Y-94040211D01*
X159151070Y-93974319D01*
X159244256Y-93881133D01*
X159310148Y-93767005D01*
X159344256Y-93639711D01*
X159344256Y-93507927D01*
X159344256Y-93499800D01*
X159346438Y-93499800D01*
X159355435Y-93442078D01*
X159401811Y-93389819D01*
X159435518Y-93375145D01*
X159468186Y-93366392D01*
X159582314Y-93300500D01*
X159675500Y-93207314D01*
X159717766Y-93134108D01*
X163774500Y-93134108D01*
X163774500Y-93265892D01*
X163779492Y-93284521D01*
X163808608Y-93393187D01*
X163819956Y-93412842D01*
X163874500Y-93507314D01*
X163967686Y-93600500D01*
X164081814Y-93666392D01*
X164209108Y-93700500D01*
X164209110Y-93700500D01*
X164340890Y-93700500D01*
X164340892Y-93700500D01*
X164468186Y-93666392D01*
X164582314Y-93600500D01*
X164675500Y-93507314D01*
X164741392Y-93393186D01*
X164775500Y-93265892D01*
X164775500Y-93134108D01*
X164741392Y-93006814D01*
X164675500Y-92892686D01*
X164582314Y-92799500D01*
X164482869Y-92742085D01*
X164468187Y-92733608D01*
X164404539Y-92716554D01*
X164340892Y-92699500D01*
X164209108Y-92699500D01*
X164081812Y-92733608D01*
X163967686Y-92799500D01*
X163967683Y-92799502D01*
X163874502Y-92892683D01*
X163874500Y-92892686D01*
X163808608Y-93006812D01*
X163790788Y-93073319D01*
X163774500Y-93134108D01*
X159717766Y-93134108D01*
X159741392Y-93093186D01*
X159775500Y-92965892D01*
X159775500Y-92834108D01*
X159741392Y-92706814D01*
X159740361Y-92705029D01*
X159732563Y-92691521D01*
X159675500Y-92592686D01*
X159582314Y-92499500D01*
X159493739Y-92448361D01*
X159468187Y-92433608D01*
X159404539Y-92416554D01*
X159340892Y-92399500D01*
X159209108Y-92399500D01*
X159081812Y-92433608D01*
X158967686Y-92499500D01*
X158967683Y-92499502D01*
X158874502Y-92592683D01*
X158874500Y-92592686D01*
X158808608Y-92706812D01*
X158774500Y-92834108D01*
X158774500Y-92974019D01*
X158772321Y-92974019D01*
X158763310Y-93031760D01*
X158716926Y-93084011D01*
X158683238Y-93098673D01*
X158650570Y-93107426D01*
X158536442Y-93173319D01*
X158536439Y-93173321D01*
X158443258Y-93266502D01*
X158443256Y-93266505D01*
X158377364Y-93380631D01*
X158368733Y-93412843D01*
X158343256Y-93507927D01*
X151074883Y-93507927D01*
X151057436Y-93477707D01*
X150964250Y-93384521D01*
X150907186Y-93351575D01*
X150850123Y-93318629D01*
X150775801Y-93298715D01*
X150722828Y-93284521D01*
X150591044Y-93284521D01*
X150463748Y-93318629D01*
X150349622Y-93384521D01*
X150349619Y-93384523D01*
X150256438Y-93477704D01*
X150256436Y-93477707D01*
X150190544Y-93591833D01*
X150156436Y-93719129D01*
X148486127Y-93719129D01*
X148463077Y-93679205D01*
X148369891Y-93586019D01*
X148312827Y-93553073D01*
X148255764Y-93520127D01*
X148179901Y-93499800D01*
X148128469Y-93486019D01*
X147996685Y-93486019D01*
X147869389Y-93520127D01*
X147755263Y-93586019D01*
X147755260Y-93586021D01*
X147662079Y-93679202D01*
X147662077Y-93679205D01*
X147596185Y-93793331D01*
X147562077Y-93920627D01*
X118850500Y-93920627D01*
X118850500Y-92334108D01*
X143224502Y-92334108D01*
X143224502Y-92465892D01*
X143230996Y-92490127D01*
X143258610Y-92593187D01*
X143272603Y-92617423D01*
X143324502Y-92707314D01*
X143417688Y-92800500D01*
X143531816Y-92866392D01*
X143659110Y-92900500D01*
X143659112Y-92900500D01*
X143790892Y-92900500D01*
X143790894Y-92900500D01*
X143918188Y-92866392D01*
X144032316Y-92800500D01*
X144125502Y-92707314D01*
X144181513Y-92610301D01*
X145875153Y-92610301D01*
X145875153Y-92742084D01*
X145909261Y-92869380D01*
X145922717Y-92892686D01*
X145975153Y-92983507D01*
X146068339Y-93076693D01*
X146182467Y-93142585D01*
X146309761Y-93176693D01*
X146309763Y-93176693D01*
X146441542Y-93176693D01*
X146441545Y-93176693D01*
X146539866Y-93150348D01*
X146609713Y-93152011D01*
X146667576Y-93191173D01*
X146691732Y-93238030D01*
X146707992Y-93298716D01*
X146719489Y-93318629D01*
X146773884Y-93412843D01*
X146867070Y-93506029D01*
X146981198Y-93571921D01*
X147108492Y-93606029D01*
X147108494Y-93606029D01*
X147240274Y-93606029D01*
X147240276Y-93606029D01*
X147367570Y-93571921D01*
X147481698Y-93506029D01*
X147574884Y-93412843D01*
X147640776Y-93298715D01*
X147674884Y-93171421D01*
X147674884Y-93039637D01*
X147640776Y-92912343D01*
X147574884Y-92798215D01*
X147481698Y-92705029D01*
X147424634Y-92672083D01*
X147367571Y-92639137D01*
X147286531Y-92617423D01*
X147240276Y-92605029D01*
X147108492Y-92605029D01*
X147108490Y-92605029D01*
X147010171Y-92631373D01*
X146940321Y-92629710D01*
X146882459Y-92590547D01*
X146858305Y-92543693D01*
X146842045Y-92483007D01*
X146776153Y-92368879D01*
X146682967Y-92275693D01*
X146625903Y-92242747D01*
X146568840Y-92209801D01*
X146505192Y-92192747D01*
X146441545Y-92175693D01*
X146309761Y-92175693D01*
X146182465Y-92209801D01*
X146068339Y-92275693D01*
X146068336Y-92275695D01*
X145975155Y-92368876D01*
X145975153Y-92368879D01*
X145909261Y-92483005D01*
X145875153Y-92610301D01*
X144181513Y-92610301D01*
X144191394Y-92593186D01*
X144194430Y-92581853D01*
X144197586Y-92570079D01*
X144206105Y-92538282D01*
X144225502Y-92465892D01*
X144225502Y-92334108D01*
X144191394Y-92206814D01*
X144125502Y-92092686D01*
X144032316Y-91999500D01*
X143960166Y-91957844D01*
X143918189Y-91933608D01*
X143852761Y-91916077D01*
X150192531Y-91916077D01*
X150192531Y-92047861D01*
X150204541Y-92092683D01*
X150226639Y-92175156D01*
X150244916Y-92206812D01*
X150292531Y-92289283D01*
X150385717Y-92382469D01*
X150499845Y-92448361D01*
X150627139Y-92482469D01*
X150627141Y-92482469D01*
X150758921Y-92482469D01*
X150758923Y-92482469D01*
X150886217Y-92448361D01*
X151000345Y-92382469D01*
X151024470Y-92358344D01*
X157000264Y-92358344D01*
X157000264Y-92490127D01*
X157034372Y-92617423D01*
X157046909Y-92639137D01*
X157100264Y-92731550D01*
X157193450Y-92824736D01*
X157307578Y-92890628D01*
X157434872Y-92924736D01*
X157434874Y-92924736D01*
X157566654Y-92924736D01*
X157566656Y-92924736D01*
X157693950Y-92890628D01*
X157808078Y-92824736D01*
X157901264Y-92731550D01*
X157967156Y-92617422D01*
X158001264Y-92490128D01*
X158001264Y-92358344D01*
X157967156Y-92231050D01*
X157901264Y-92116922D01*
X157808078Y-92023736D01*
X157766100Y-91999500D01*
X157693951Y-91957844D01*
X157630303Y-91940790D01*
X157605365Y-91934108D01*
X168525500Y-91934108D01*
X168525500Y-92065892D01*
X168539173Y-92116919D01*
X168559608Y-92193187D01*
X168581469Y-92231050D01*
X168625500Y-92307314D01*
X168718686Y-92400500D01*
X168817521Y-92457563D01*
X168831944Y-92465890D01*
X168832814Y-92466392D01*
X168960108Y-92500500D01*
X168960110Y-92500500D01*
X169091890Y-92500500D01*
X169091892Y-92500500D01*
X169219186Y-92466392D01*
X169333314Y-92400500D01*
X169426500Y-92307314D01*
X169492392Y-92193186D01*
X169526500Y-92065892D01*
X169526500Y-91934108D01*
X169492392Y-91806814D01*
X169426500Y-91692686D01*
X169333314Y-91599500D01*
X169276250Y-91566554D01*
X169219187Y-91533608D01*
X169151893Y-91515577D01*
X169091892Y-91499500D01*
X168960108Y-91499500D01*
X168832812Y-91533608D01*
X168718686Y-91599500D01*
X168718683Y-91599502D01*
X168625502Y-91692683D01*
X168625500Y-91692686D01*
X168559608Y-91806812D01*
X168534773Y-91899500D01*
X168525500Y-91934108D01*
X157605365Y-91934108D01*
X157566656Y-91923736D01*
X157434872Y-91923736D01*
X157307576Y-91957844D01*
X157193450Y-92023736D01*
X157193447Y-92023738D01*
X157100266Y-92116919D01*
X157100264Y-92116922D01*
X157034372Y-92231048D01*
X157000264Y-92358344D01*
X151024470Y-92358344D01*
X151093531Y-92289283D01*
X151159423Y-92175155D01*
X151193531Y-92047861D01*
X151193531Y-91916077D01*
X151159423Y-91788783D01*
X151093531Y-91674655D01*
X151000345Y-91581469D01*
X150917448Y-91533608D01*
X150886218Y-91515577D01*
X150822570Y-91498523D01*
X150758923Y-91481469D01*
X150627139Y-91481469D01*
X150499843Y-91515577D01*
X150385717Y-91581469D01*
X150385714Y-91581471D01*
X150292533Y-91674652D01*
X150292531Y-91674655D01*
X150226639Y-91788781D01*
X150196973Y-91899500D01*
X150192531Y-91916077D01*
X143852761Y-91916077D01*
X143790894Y-91899500D01*
X143659110Y-91899500D01*
X143531814Y-91933608D01*
X143417688Y-91999500D01*
X143417685Y-91999502D01*
X143324504Y-92092683D01*
X143324502Y-92092686D01*
X143258610Y-92206812D01*
X143236798Y-92288219D01*
X143224502Y-92334108D01*
X118850500Y-92334108D01*
X118850500Y-90459108D01*
X158074500Y-90459108D01*
X158074500Y-90590891D01*
X158108608Y-90718187D01*
X158141554Y-90775250D01*
X158174500Y-90832314D01*
X158267686Y-90925500D01*
X158381814Y-90991392D01*
X158509108Y-91025500D01*
X158509110Y-91025500D01*
X158640890Y-91025500D01*
X158640892Y-91025500D01*
X158768186Y-90991392D01*
X158882314Y-90925500D01*
X158975500Y-90832314D01*
X159041392Y-90718186D01*
X159075500Y-90590892D01*
X159075500Y-90459108D01*
X159041392Y-90331814D01*
X158975500Y-90217686D01*
X158882314Y-90124500D01*
X158824968Y-90091391D01*
X158768187Y-90058608D01*
X158703322Y-90041228D01*
X158640892Y-90024500D01*
X158509108Y-90024500D01*
X158381812Y-90058608D01*
X158267686Y-90124500D01*
X158267683Y-90124502D01*
X158174502Y-90217683D01*
X158174500Y-90217686D01*
X158108608Y-90331812D01*
X158074500Y-90459108D01*
X118850500Y-90459108D01*
X118850500Y-89859108D01*
X143749500Y-89859108D01*
X143749500Y-89990892D01*
X143758505Y-90024500D01*
X143783608Y-90118187D01*
X143816554Y-90175250D01*
X143849500Y-90232314D01*
X143942686Y-90325500D01*
X144013513Y-90366392D01*
X144056810Y-90391390D01*
X144056814Y-90391392D01*
X144184108Y-90425500D01*
X144184110Y-90425500D01*
X144315890Y-90425500D01*
X144315892Y-90425500D01*
X144443186Y-90391392D01*
X144557314Y-90325500D01*
X144650500Y-90232314D01*
X144716392Y-90118186D01*
X144750500Y-89990892D01*
X144750500Y-89859108D01*
X144716392Y-89731814D01*
X144692764Y-89690890D01*
X144650503Y-89617691D01*
X144650502Y-89617690D01*
X144650500Y-89617686D01*
X144591922Y-89559108D01*
X147649500Y-89559108D01*
X147649500Y-89690891D01*
X147683608Y-89818187D01*
X147711151Y-89865892D01*
X147749500Y-89932314D01*
X147842686Y-90025500D01*
X147956814Y-90091392D01*
X148084108Y-90125500D01*
X148084110Y-90125500D01*
X148215890Y-90125500D01*
X148215892Y-90125500D01*
X148343186Y-90091392D01*
X148457314Y-90025500D01*
X148550500Y-89932314D01*
X148616392Y-89818186D01*
X148650500Y-89690892D01*
X148650500Y-89559108D01*
X148637103Y-89509108D01*
X148974500Y-89509108D01*
X148974500Y-89640892D01*
X148979050Y-89657872D01*
X149008608Y-89768187D01*
X149031200Y-89807316D01*
X149074500Y-89882314D01*
X149167686Y-89975500D01*
X149281814Y-90041392D01*
X149409108Y-90075500D01*
X149409110Y-90075500D01*
X149540890Y-90075500D01*
X149540892Y-90075500D01*
X149668186Y-90041392D01*
X149782314Y-89975500D01*
X149875500Y-89882314D01*
X149941392Y-89768186D01*
X149950523Y-89734108D01*
X156074500Y-89734108D01*
X156074500Y-89865891D01*
X156108608Y-89993187D01*
X156136345Y-90041228D01*
X156174500Y-90107314D01*
X156267686Y-90200500D01*
X156381814Y-90266392D01*
X156509108Y-90300500D01*
X156509110Y-90300500D01*
X156640890Y-90300500D01*
X156640892Y-90300500D01*
X156768186Y-90266392D01*
X156882314Y-90200500D01*
X156975500Y-90107314D01*
X156978178Y-90102674D01*
X157028738Y-90054457D01*
X157097344Y-90041228D01*
X157162211Y-90067191D01*
X157173249Y-90076987D01*
X157231517Y-90135255D01*
X157330352Y-90192318D01*
X157344522Y-90200499D01*
X157345645Y-90201147D01*
X157472939Y-90235255D01*
X157472941Y-90235255D01*
X157604721Y-90235255D01*
X157604723Y-90235255D01*
X157732017Y-90201147D01*
X157846145Y-90135255D01*
X157939331Y-90042069D01*
X158005223Y-89927941D01*
X158039331Y-89800647D01*
X158039331Y-89668863D01*
X158005223Y-89541569D01*
X157939331Y-89427441D01*
X157846145Y-89334255D01*
X157744379Y-89275500D01*
X157732018Y-89268363D01*
X157638065Y-89243189D01*
X157604723Y-89234255D01*
X157472939Y-89234255D01*
X157345643Y-89268363D01*
X157231517Y-89334255D01*
X157231514Y-89334257D01*
X157138333Y-89427438D01*
X157138329Y-89427444D01*
X157135648Y-89432088D01*
X157085080Y-89480302D01*
X157016473Y-89493524D01*
X156951609Y-89467555D01*
X156940581Y-89457767D01*
X156882316Y-89399502D01*
X156882314Y-89399500D01*
X156813943Y-89360026D01*
X156768187Y-89333608D01*
X156668188Y-89306814D01*
X156640892Y-89299500D01*
X156509108Y-89299500D01*
X156381812Y-89333608D01*
X156267686Y-89399500D01*
X156267683Y-89399502D01*
X156174502Y-89492683D01*
X156174500Y-89492686D01*
X156108608Y-89606812D01*
X156074500Y-89734108D01*
X149950523Y-89734108D01*
X149975500Y-89640892D01*
X149975500Y-89509108D01*
X149941392Y-89381814D01*
X149875500Y-89267686D01*
X149782314Y-89174500D01*
X149695712Y-89124500D01*
X149668187Y-89108608D01*
X149568188Y-89081814D01*
X149540892Y-89074500D01*
X149409108Y-89074500D01*
X149281812Y-89108608D01*
X149167686Y-89174500D01*
X149167683Y-89174502D01*
X149074502Y-89267683D01*
X149074500Y-89267686D01*
X149008608Y-89381812D01*
X148983772Y-89474504D01*
X148974500Y-89509108D01*
X148637103Y-89509108D01*
X148616392Y-89431814D01*
X148550500Y-89317686D01*
X148457314Y-89224500D01*
X148400250Y-89191554D01*
X148343187Y-89158608D01*
X148279539Y-89141554D01*
X148215892Y-89124500D01*
X148084108Y-89124500D01*
X147956812Y-89158608D01*
X147842686Y-89224500D01*
X147842683Y-89224502D01*
X147749502Y-89317683D01*
X147749500Y-89317686D01*
X147683608Y-89431812D01*
X147649500Y-89559108D01*
X144591922Y-89559108D01*
X144557314Y-89524500D01*
X144470719Y-89474504D01*
X144443187Y-89458608D01*
X144379539Y-89441554D01*
X144315892Y-89424500D01*
X144184108Y-89424500D01*
X144056812Y-89458608D01*
X143942686Y-89524500D01*
X143942683Y-89524502D01*
X143849502Y-89617683D01*
X143849500Y-89617686D01*
X143783608Y-89731812D01*
X143756199Y-89834108D01*
X143749500Y-89859108D01*
X118850500Y-89859108D01*
X118850500Y-89209108D01*
X137599500Y-89209108D01*
X137599500Y-89340891D01*
X137633608Y-89468187D01*
X137661440Y-89516392D01*
X137699500Y-89582314D01*
X137792686Y-89675500D01*
X137890218Y-89731810D01*
X137906810Y-89741390D01*
X137906814Y-89741392D01*
X138034108Y-89775500D01*
X138034110Y-89775500D01*
X138165890Y-89775500D01*
X138165892Y-89775500D01*
X138293186Y-89741392D01*
X138407314Y-89675500D01*
X138500500Y-89582314D01*
X138566392Y-89468186D01*
X138600500Y-89340892D01*
X138600500Y-89209108D01*
X138566392Y-89081814D01*
X138500500Y-88967686D01*
X138407314Y-88874500D01*
X138350250Y-88841554D01*
X138293187Y-88808608D01*
X138168601Y-88775226D01*
X138165892Y-88774500D01*
X138034108Y-88774500D01*
X137906812Y-88808608D01*
X137792686Y-88874500D01*
X137792683Y-88874502D01*
X137699502Y-88967683D01*
X137699500Y-88967686D01*
X137633608Y-89081812D01*
X137599500Y-89209108D01*
X118850500Y-89209108D01*
X118850500Y-87934108D01*
X149899500Y-87934108D01*
X149899500Y-88065892D01*
X149916554Y-88129539D01*
X149933608Y-88193187D01*
X149966554Y-88250250D01*
X149999500Y-88307314D01*
X150092686Y-88400500D01*
X150206814Y-88466392D01*
X150334108Y-88500500D01*
X150334110Y-88500500D01*
X150465890Y-88500500D01*
X150465892Y-88500500D01*
X150593186Y-88466392D01*
X150707314Y-88400500D01*
X150800500Y-88307314D01*
X150866392Y-88193186D01*
X150882222Y-88134108D01*
X159174500Y-88134108D01*
X159174500Y-88265892D01*
X159188058Y-88316490D01*
X159208608Y-88393187D01*
X159219200Y-88411532D01*
X159274500Y-88507314D01*
X159367686Y-88600500D01*
X159452560Y-88649502D01*
X159481434Y-88666173D01*
X159481814Y-88666392D01*
X159609108Y-88700500D01*
X159609110Y-88700500D01*
X159740889Y-88700500D01*
X159740892Y-88700500D01*
X159868186Y-88666392D01*
X159868190Y-88666389D01*
X159875205Y-88664510D01*
X159945055Y-88666173D01*
X160002918Y-88705335D01*
X160030422Y-88769564D01*
X160018836Y-88838466D01*
X160014687Y-88846284D01*
X160008608Y-88856811D01*
X159978941Y-88967534D01*
X159974500Y-88984108D01*
X159974500Y-89115892D01*
X159985946Y-89158608D01*
X160008608Y-89243187D01*
X160036864Y-89292126D01*
X160053337Y-89360026D01*
X160030485Y-89426053D01*
X159991479Y-89461513D01*
X159925689Y-89499498D01*
X159925683Y-89499502D01*
X159832502Y-89592683D01*
X159832500Y-89592686D01*
X159766608Y-89706812D01*
X159750163Y-89768187D01*
X159732500Y-89834108D01*
X159732500Y-89965892D01*
X159748472Y-90025500D01*
X159766608Y-90093187D01*
X159799554Y-90150250D01*
X159832500Y-90207314D01*
X159925686Y-90300500D01*
X160039814Y-90366392D01*
X160167108Y-90400500D01*
X160167110Y-90400500D01*
X160298890Y-90400500D01*
X160298892Y-90400500D01*
X160426186Y-90366392D01*
X160540314Y-90300500D01*
X160633500Y-90207314D01*
X160699392Y-90093186D01*
X160733500Y-89965892D01*
X160733500Y-89834108D01*
X160699392Y-89706814D01*
X160671134Y-89657871D01*
X160654662Y-89589971D01*
X160677514Y-89523944D01*
X160716518Y-89488487D01*
X160782314Y-89450500D01*
X160798706Y-89434108D01*
X161974500Y-89434108D01*
X161974500Y-89565892D01*
X161985464Y-89606812D01*
X162008608Y-89693187D01*
X162030908Y-89731811D01*
X162074500Y-89807314D01*
X162167686Y-89900500D01*
X162266521Y-89957563D01*
X162280944Y-89965890D01*
X162281814Y-89966392D01*
X162409108Y-90000500D01*
X162409110Y-90000500D01*
X162540890Y-90000500D01*
X162540892Y-90000500D01*
X162668186Y-89966392D01*
X162782314Y-89900500D01*
X162875500Y-89807314D01*
X162941392Y-89693186D01*
X162975500Y-89565892D01*
X162975500Y-89474504D01*
X162995185Y-89407465D01*
X163047989Y-89361710D01*
X163117147Y-89351766D01*
X163131571Y-89354724D01*
X163209108Y-89375500D01*
X163209111Y-89375500D01*
X163340890Y-89375500D01*
X163340892Y-89375500D01*
X163468186Y-89341392D01*
X163582314Y-89275500D01*
X163675500Y-89182314D01*
X163741392Y-89068186D01*
X163775500Y-88940892D01*
X163775500Y-88809108D01*
X163741392Y-88681814D01*
X163675500Y-88567686D01*
X163582314Y-88474500D01*
X163473251Y-88411532D01*
X163468187Y-88408608D01*
X163404539Y-88391554D01*
X163340892Y-88374500D01*
X163209108Y-88374500D01*
X163200981Y-88374500D01*
X163200981Y-88371340D01*
X163146652Y-88362869D01*
X163094395Y-88316490D01*
X163075500Y-88250695D01*
X163075500Y-88134110D01*
X163075500Y-88134108D01*
X163041392Y-88006814D01*
X162975500Y-87892686D01*
X162882314Y-87799500D01*
X162825250Y-87766554D01*
X162768187Y-87733608D01*
X162704539Y-87716554D01*
X162640892Y-87699500D01*
X162509108Y-87699500D01*
X162381812Y-87733608D01*
X162267686Y-87799500D01*
X162267683Y-87799502D01*
X162174502Y-87892683D01*
X162174500Y-87892686D01*
X162108608Y-88006812D01*
X162092778Y-88065892D01*
X162074500Y-88134108D01*
X162074500Y-88265892D01*
X162088058Y-88316490D01*
X162108608Y-88393187D01*
X162119200Y-88411532D01*
X162174500Y-88507314D01*
X162267686Y-88600500D01*
X162352560Y-88649502D01*
X162381434Y-88666173D01*
X162381814Y-88666392D01*
X162509108Y-88700500D01*
X162509110Y-88700500D01*
X162649019Y-88700500D01*
X162649019Y-88703671D01*
X162651174Y-88704006D01*
X162668147Y-88701566D01*
X162684984Y-88709255D01*
X162703274Y-88712095D01*
X162716105Y-88723467D01*
X162731703Y-88730591D01*
X162741709Y-88746162D01*
X162755561Y-88758439D01*
X162760388Y-88775226D01*
X162769477Y-88789369D01*
X162774500Y-88824304D01*
X162774500Y-88900495D01*
X162754815Y-88967534D01*
X162702011Y-89013289D01*
X162632853Y-89023233D01*
X162618407Y-89020270D01*
X162540892Y-88999500D01*
X162409108Y-88999500D01*
X162281812Y-89033608D01*
X162167686Y-89099500D01*
X162167683Y-89099502D01*
X162074502Y-89192683D01*
X162074500Y-89192686D01*
X162008608Y-89306812D01*
X161981639Y-89407465D01*
X161974500Y-89434108D01*
X160798706Y-89434108D01*
X160875500Y-89357314D01*
X160941392Y-89243186D01*
X160975500Y-89115892D01*
X160975500Y-88984108D01*
X160941392Y-88856814D01*
X160935312Y-88846284D01*
X160913560Y-88808608D01*
X160875500Y-88742686D01*
X160782314Y-88649500D01*
X160697439Y-88600497D01*
X160668187Y-88583608D01*
X160604539Y-88566554D01*
X160540892Y-88549500D01*
X160409108Y-88549500D01*
X160274793Y-88585489D01*
X160204943Y-88583826D01*
X160147081Y-88544663D01*
X160119577Y-88480434D01*
X160131164Y-88411532D01*
X160135303Y-88403731D01*
X160141392Y-88393186D01*
X160175500Y-88265892D01*
X160175500Y-88134108D01*
X160141392Y-88006814D01*
X160075500Y-87892686D01*
X159982314Y-87799500D01*
X159925250Y-87766554D01*
X159868187Y-87733608D01*
X159804539Y-87716554D01*
X159740892Y-87699500D01*
X159609108Y-87699500D01*
X159481812Y-87733608D01*
X159367686Y-87799500D01*
X159367683Y-87799502D01*
X159274502Y-87892683D01*
X159274500Y-87892686D01*
X159208608Y-88006812D01*
X159192778Y-88065892D01*
X159174500Y-88134108D01*
X150882222Y-88134108D01*
X150900500Y-88065892D01*
X150900500Y-87934108D01*
X150866392Y-87806814D01*
X150800500Y-87692686D01*
X150707314Y-87599500D01*
X150650250Y-87566554D01*
X150593187Y-87533608D01*
X150529539Y-87516554D01*
X150465892Y-87499500D01*
X150334108Y-87499500D01*
X150206812Y-87533608D01*
X150092686Y-87599500D01*
X150092683Y-87599502D01*
X149999502Y-87692683D01*
X149999500Y-87692686D01*
X149933608Y-87806812D01*
X149928601Y-87825499D01*
X149899500Y-87934108D01*
X118850500Y-87934108D01*
X118850500Y-86634108D01*
X146974500Y-86634108D01*
X146974500Y-86765892D01*
X146980419Y-86787981D01*
X147008608Y-86893187D01*
X147041554Y-86950250D01*
X147074500Y-87007314D01*
X147167686Y-87100500D01*
X147266521Y-87157563D01*
X147276458Y-87163300D01*
X147281814Y-87166392D01*
X147409108Y-87200500D01*
X147409110Y-87200500D01*
X147540890Y-87200500D01*
X147540892Y-87200500D01*
X147668186Y-87166392D01*
X147724103Y-87134108D01*
X152299500Y-87134108D01*
X152299500Y-87265892D01*
X152313512Y-87318186D01*
X152333608Y-87393187D01*
X152356200Y-87432316D01*
X152399500Y-87507314D01*
X152492686Y-87600500D01*
X152606814Y-87666392D01*
X152734108Y-87700500D01*
X152734110Y-87700500D01*
X152865890Y-87700500D01*
X152865892Y-87700500D01*
X152993186Y-87666392D01*
X153107314Y-87600500D01*
X153200500Y-87507314D01*
X153266392Y-87393186D01*
X153300500Y-87265892D01*
X153300500Y-87134108D01*
X153266392Y-87006814D01*
X153266389Y-87006808D01*
X153255520Y-86987982D01*
X153255519Y-86987981D01*
X153224415Y-86934108D01*
X153774500Y-86934108D01*
X153774500Y-87065892D01*
X153787117Y-87112981D01*
X153808608Y-87193187D01*
X153841554Y-87250250D01*
X153874500Y-87307314D01*
X153967686Y-87400500D01*
X154081814Y-87466392D01*
X154209108Y-87500500D01*
X154209110Y-87500500D01*
X154340890Y-87500500D01*
X154340892Y-87500500D01*
X154468186Y-87466392D01*
X154582314Y-87400500D01*
X154675500Y-87307314D01*
X154741392Y-87193186D01*
X154775500Y-87065892D01*
X154775500Y-86934108D01*
X154741392Y-86806814D01*
X154741389Y-86806808D01*
X154730520Y-86787982D01*
X154730519Y-86787981D01*
X154699415Y-86734108D01*
X156682500Y-86734108D01*
X156682500Y-86865892D01*
X156689680Y-86892689D01*
X156716608Y-86993187D01*
X156724766Y-87007316D01*
X156782500Y-87107314D01*
X156875686Y-87200500D01*
X156974521Y-87257563D01*
X156988944Y-87265890D01*
X156989814Y-87266392D01*
X157117108Y-87300500D01*
X157117110Y-87300500D01*
X157248890Y-87300500D01*
X157248892Y-87300500D01*
X157376186Y-87266392D01*
X157388802Y-87259108D01*
X166349500Y-87259108D01*
X166349500Y-87390892D01*
X166366554Y-87454539D01*
X166383608Y-87518187D01*
X166416554Y-87575250D01*
X166449500Y-87632314D01*
X166542686Y-87725500D01*
X166656814Y-87791392D01*
X166784108Y-87825500D01*
X166784110Y-87825500D01*
X166915890Y-87825500D01*
X166915892Y-87825500D01*
X167043186Y-87791392D01*
X167157314Y-87725500D01*
X167250500Y-87632314D01*
X167316392Y-87518186D01*
X167350500Y-87390892D01*
X167350500Y-87259108D01*
X167316392Y-87131814D01*
X167316389Y-87131808D01*
X167305520Y-87112982D01*
X167305519Y-87112981D01*
X167278331Y-87065891D01*
X167274415Y-87059108D01*
X168949500Y-87059108D01*
X168949500Y-87190892D01*
X168966554Y-87254539D01*
X168983608Y-87318187D01*
X168996717Y-87340892D01*
X169049500Y-87432314D01*
X169142686Y-87525500D01*
X169256814Y-87591392D01*
X169384108Y-87625500D01*
X169384110Y-87625500D01*
X169515890Y-87625500D01*
X169515892Y-87625500D01*
X169643186Y-87591392D01*
X169757314Y-87525500D01*
X169850500Y-87432314D01*
X169916392Y-87318186D01*
X169945619Y-87209108D01*
X171349500Y-87209108D01*
X171349500Y-87340892D01*
X171365472Y-87400500D01*
X171383608Y-87468187D01*
X171406200Y-87507316D01*
X171449500Y-87582314D01*
X171542686Y-87675500D01*
X171656814Y-87741392D01*
X171784108Y-87775500D01*
X171784110Y-87775500D01*
X171915890Y-87775500D01*
X171915892Y-87775500D01*
X172043186Y-87741392D01*
X172157314Y-87675500D01*
X172250500Y-87582314D01*
X172316392Y-87468186D01*
X172350500Y-87340892D01*
X172350500Y-87209108D01*
X172316392Y-87081814D01*
X172250500Y-86967686D01*
X172157314Y-86874500D01*
X172058910Y-86817686D01*
X172043187Y-86808608D01*
X171966204Y-86787981D01*
X171915892Y-86774500D01*
X171784108Y-86774500D01*
X171656812Y-86808608D01*
X171542686Y-86874500D01*
X171542683Y-86874502D01*
X171449502Y-86967683D01*
X171449500Y-86967686D01*
X171383608Y-87081812D01*
X171354381Y-87190890D01*
X171349500Y-87209108D01*
X169945619Y-87209108D01*
X169950500Y-87190892D01*
X169950500Y-87059108D01*
X169916392Y-86931814D01*
X169850500Y-86817686D01*
X169757314Y-86724500D01*
X169700250Y-86691554D01*
X169643187Y-86658608D01*
X169551757Y-86634110D01*
X169515892Y-86624500D01*
X169384108Y-86624500D01*
X169256812Y-86658608D01*
X169142686Y-86724500D01*
X169142683Y-86724502D01*
X169049502Y-86817683D01*
X169049500Y-86817686D01*
X168983608Y-86931812D01*
X168963512Y-87006814D01*
X168949500Y-87059108D01*
X167274415Y-87059108D01*
X167250500Y-87017686D01*
X167157314Y-86924500D01*
X167100250Y-86891554D01*
X167043187Y-86858608D01*
X166979539Y-86841554D01*
X166915892Y-86824500D01*
X166784108Y-86824500D01*
X166656812Y-86858608D01*
X166542686Y-86924500D01*
X166542683Y-86924502D01*
X166449502Y-87017683D01*
X166449500Y-87017686D01*
X166383608Y-87131812D01*
X166365204Y-87200499D01*
X166349500Y-87259108D01*
X157388802Y-87259108D01*
X157490314Y-87200500D01*
X157583500Y-87107314D01*
X157649392Y-86993186D01*
X157683500Y-86865892D01*
X157683500Y-86734108D01*
X157649392Y-86606814D01*
X157583500Y-86492686D01*
X157490314Y-86399500D01*
X157433250Y-86366554D01*
X157376187Y-86333608D01*
X157312539Y-86316554D01*
X157248892Y-86299500D01*
X157117108Y-86299500D01*
X156989812Y-86333608D01*
X156875686Y-86399500D01*
X156875683Y-86399502D01*
X156782502Y-86492683D01*
X156782500Y-86492686D01*
X156716608Y-86606812D01*
X156709294Y-86634110D01*
X156682500Y-86734108D01*
X154699415Y-86734108D01*
X154693869Y-86724502D01*
X154675500Y-86692686D01*
X154582314Y-86599500D01*
X154525250Y-86566554D01*
X154468187Y-86533608D01*
X154368188Y-86506814D01*
X154340892Y-86499500D01*
X154209108Y-86499500D01*
X154081812Y-86533608D01*
X153967686Y-86599500D01*
X153967683Y-86599502D01*
X153874502Y-86692683D01*
X153874500Y-86692686D01*
X153808608Y-86806812D01*
X153777074Y-86924500D01*
X153774500Y-86934108D01*
X153224415Y-86934108D01*
X153200500Y-86892686D01*
X153107314Y-86799500D01*
X153049100Y-86765890D01*
X152993187Y-86733608D01*
X152929539Y-86716554D01*
X152865892Y-86699500D01*
X152734108Y-86699500D01*
X152606812Y-86733608D01*
X152492686Y-86799500D01*
X152492683Y-86799502D01*
X152399502Y-86892683D01*
X152399500Y-86892686D01*
X152333608Y-87006812D01*
X152313512Y-87081814D01*
X152299500Y-87134108D01*
X147724103Y-87134108D01*
X147782314Y-87100500D01*
X147875500Y-87007314D01*
X147941392Y-86893186D01*
X147975500Y-86765892D01*
X147975500Y-86634108D01*
X147941392Y-86506814D01*
X147875500Y-86392686D01*
X147782314Y-86299500D01*
X147725250Y-86266554D01*
X147668187Y-86233608D01*
X147604539Y-86216554D01*
X147540892Y-86199500D01*
X147409108Y-86199500D01*
X147281812Y-86233608D01*
X147167686Y-86299500D01*
X147167683Y-86299502D01*
X147074502Y-86392683D01*
X147074500Y-86392686D01*
X147008608Y-86506812D01*
X146981814Y-86606812D01*
X146974500Y-86634108D01*
X118850500Y-86634108D01*
X118850500Y-84784108D01*
X131799500Y-84784108D01*
X131799500Y-84915891D01*
X131833608Y-85043187D01*
X131866554Y-85100250D01*
X131899500Y-85157314D01*
X131992686Y-85250500D01*
X132106814Y-85316392D01*
X132234108Y-85350500D01*
X132234110Y-85350500D01*
X132365890Y-85350500D01*
X132365892Y-85350500D01*
X132493186Y-85316392D01*
X132607314Y-85250500D01*
X132700500Y-85157314D01*
X132742766Y-85084108D01*
X152899500Y-85084108D01*
X152899500Y-85215891D01*
X152933608Y-85343187D01*
X152966554Y-85400250D01*
X152999500Y-85457314D01*
X153092686Y-85550500D01*
X153206814Y-85616392D01*
X153334108Y-85650500D01*
X153334110Y-85650500D01*
X153465890Y-85650500D01*
X153465892Y-85650500D01*
X153593186Y-85616392D01*
X153707314Y-85550500D01*
X153800500Y-85457314D01*
X153866392Y-85343186D01*
X153900500Y-85215892D01*
X153900500Y-85084108D01*
X153866392Y-84956814D01*
X153800500Y-84842686D01*
X153707314Y-84749500D01*
X153650250Y-84716554D01*
X153593187Y-84683608D01*
X153493188Y-84656814D01*
X153465892Y-84649500D01*
X153334108Y-84649500D01*
X153206812Y-84683608D01*
X153092686Y-84749500D01*
X153092683Y-84749502D01*
X152999502Y-84842683D01*
X152999500Y-84842686D01*
X152933608Y-84956812D01*
X152899500Y-85084108D01*
X132742766Y-85084108D01*
X132766392Y-85043186D01*
X132800500Y-84915892D01*
X132800500Y-84784108D01*
X132766392Y-84656814D01*
X132700500Y-84542686D01*
X132607314Y-84449500D01*
X132550250Y-84416554D01*
X132493187Y-84383608D01*
X132429539Y-84366554D01*
X132365892Y-84349500D01*
X132234108Y-84349500D01*
X132106812Y-84383608D01*
X131992686Y-84449500D01*
X131992683Y-84449502D01*
X131899502Y-84542683D01*
X131899500Y-84542686D01*
X131833608Y-84656812D01*
X131799500Y-84784108D01*
X118850500Y-84784108D01*
X118850500Y-84300000D01*
X122730000Y-84300000D01*
X124820000Y-84300000D01*
X124820000Y-84109108D01*
X150355387Y-84109108D01*
X150355387Y-84240891D01*
X150389495Y-84368187D01*
X150422441Y-84425250D01*
X150455387Y-84482314D01*
X150548573Y-84575500D01*
X150662701Y-84641392D01*
X150789995Y-84675500D01*
X150789997Y-84675500D01*
X150921777Y-84675500D01*
X150921779Y-84675500D01*
X151049073Y-84641392D01*
X151163201Y-84575500D01*
X151256387Y-84482314D01*
X151322279Y-84368186D01*
X151356387Y-84240892D01*
X151356387Y-84109108D01*
X151322279Y-83981814D01*
X151256387Y-83867686D01*
X151163201Y-83774500D01*
X151106137Y-83741554D01*
X151049074Y-83708608D01*
X150985426Y-83691554D01*
X150921779Y-83674500D01*
X150789995Y-83674500D01*
X150662699Y-83708608D01*
X150548573Y-83774500D01*
X150548570Y-83774502D01*
X150455389Y-83867683D01*
X150455387Y-83867686D01*
X150389495Y-83981812D01*
X150355387Y-84109108D01*
X124820000Y-84109108D01*
X124820000Y-83234108D01*
X126474500Y-83234108D01*
X126474500Y-83365891D01*
X126508608Y-83493187D01*
X126541554Y-83550250D01*
X126574500Y-83607314D01*
X126667686Y-83700500D01*
X126781814Y-83766392D01*
X126909108Y-83800500D01*
X126909110Y-83800500D01*
X127040890Y-83800500D01*
X127040892Y-83800500D01*
X127168186Y-83766392D01*
X127282314Y-83700500D01*
X127375500Y-83607314D01*
X127441392Y-83493186D01*
X127475500Y-83365892D01*
X127475500Y-83234108D01*
X127441392Y-83106814D01*
X127375500Y-82992686D01*
X127282314Y-82899500D01*
X127225250Y-82866554D01*
X127168187Y-82833608D01*
X127104539Y-82816554D01*
X127040892Y-82799500D01*
X126909108Y-82799500D01*
X126781812Y-82833608D01*
X126667686Y-82899500D01*
X126667683Y-82899502D01*
X126574502Y-82992683D01*
X126574500Y-82992686D01*
X126508608Y-83106812D01*
X126474500Y-83234108D01*
X124820000Y-83234108D01*
X124820000Y-82400000D01*
X122730000Y-82400000D01*
X122730000Y-84300000D01*
X118850500Y-84300000D01*
X118850500Y-81801902D01*
X150727408Y-81801902D01*
X150727408Y-81933685D01*
X150761516Y-82060981D01*
X150794462Y-82118044D01*
X150827408Y-82175108D01*
X150920594Y-82268294D01*
X151034722Y-82334186D01*
X151162016Y-82368294D01*
X151162018Y-82368294D01*
X151293798Y-82368294D01*
X151293800Y-82368294D01*
X151421094Y-82334186D01*
X151535222Y-82268294D01*
X151628408Y-82175108D01*
X151694300Y-82060980D01*
X151728408Y-81933686D01*
X151728408Y-81801902D01*
X151694300Y-81674608D01*
X151628408Y-81560480D01*
X151535222Y-81467294D01*
X151478158Y-81434348D01*
X151421095Y-81401402D01*
X151357447Y-81384348D01*
X151293800Y-81367294D01*
X151162016Y-81367294D01*
X151034720Y-81401402D01*
X150920594Y-81467294D01*
X150920591Y-81467296D01*
X150827410Y-81560477D01*
X150827408Y-81560480D01*
X150761516Y-81674606D01*
X150727408Y-81801902D01*
X118850500Y-81801902D01*
X118850500Y-76971530D01*
X123649500Y-76971530D01*
X123649500Y-77178469D01*
X123689868Y-77381412D01*
X123689870Y-77381420D01*
X123769058Y-77572596D01*
X123884024Y-77744657D01*
X124030342Y-77890975D01*
X124030345Y-77890977D01*
X124202402Y-78005941D01*
X124393580Y-78085130D01*
X124596530Y-78125499D01*
X124596534Y-78125500D01*
X124596535Y-78125500D01*
X125103466Y-78125500D01*
X125103467Y-78125499D01*
X125306420Y-78085130D01*
X125497598Y-78005941D01*
X125669655Y-77890977D01*
X125815977Y-77744655D01*
X125930941Y-77572598D01*
X126010130Y-77381420D01*
X126050500Y-77178465D01*
X126050500Y-76971535D01*
X126010130Y-76768580D01*
X125930941Y-76577402D01*
X125815977Y-76405345D01*
X125815975Y-76405342D01*
X125669657Y-76259024D01*
X125583626Y-76201541D01*
X125497598Y-76144059D01*
X125306420Y-76064870D01*
X125306412Y-76064868D01*
X125103469Y-76024500D01*
X125103465Y-76024500D01*
X124596535Y-76024500D01*
X124596530Y-76024500D01*
X124393587Y-76064868D01*
X124393579Y-76064870D01*
X124202403Y-76144058D01*
X124030342Y-76259024D01*
X123884024Y-76405342D01*
X123769058Y-76577403D01*
X123689870Y-76768579D01*
X123689868Y-76768587D01*
X123649500Y-76971530D01*
X118850500Y-76971530D01*
X118850500Y-73920730D01*
X123649500Y-73920730D01*
X123649500Y-75229269D01*
X123652353Y-75259699D01*
X123652353Y-75259701D01*
X123697206Y-75387880D01*
X123697207Y-75387882D01*
X123777850Y-75497150D01*
X123887118Y-75577793D01*
X123929845Y-75592744D01*
X124015299Y-75622646D01*
X124045730Y-75625500D01*
X124045734Y-75625500D01*
X125654270Y-75625500D01*
X125684699Y-75622646D01*
X125684701Y-75622646D01*
X125748790Y-75600219D01*
X125812882Y-75577793D01*
X125922150Y-75497150D01*
X126002793Y-75387882D01*
X126025219Y-75323790D01*
X126047646Y-75259701D01*
X126047646Y-75259699D01*
X126050500Y-75229269D01*
X126050500Y-74459108D01*
X139024500Y-74459108D01*
X139024500Y-74590891D01*
X139058608Y-74718187D01*
X139091554Y-74775250D01*
X139124500Y-74832314D01*
X139217686Y-74925500D01*
X139331814Y-74991392D01*
X139459108Y-75025500D01*
X139459110Y-75025500D01*
X139590890Y-75025500D01*
X139590892Y-75025500D01*
X139718186Y-74991392D01*
X139832314Y-74925500D01*
X139925500Y-74832314D01*
X139991392Y-74718186D01*
X140025500Y-74590892D01*
X140025500Y-74459108D01*
X139991392Y-74331814D01*
X139925500Y-74217686D01*
X139832314Y-74124500D01*
X139775250Y-74091554D01*
X139718187Y-74058608D01*
X139654539Y-74041554D01*
X139590892Y-74024500D01*
X139459108Y-74024500D01*
X139331812Y-74058608D01*
X139217686Y-74124500D01*
X139217683Y-74124502D01*
X139124502Y-74217683D01*
X139124500Y-74217686D01*
X139058608Y-74331812D01*
X139024500Y-74459108D01*
X126050500Y-74459108D01*
X126050500Y-73920730D01*
X126047646Y-73890300D01*
X126047646Y-73890298D01*
X126002793Y-73762119D01*
X126002792Y-73762117D01*
X125922150Y-73652850D01*
X125812882Y-73572207D01*
X125812880Y-73572206D01*
X125684700Y-73527353D01*
X125654270Y-73524500D01*
X125654266Y-73524500D01*
X124045734Y-73524500D01*
X124045730Y-73524500D01*
X124015300Y-73527353D01*
X124015298Y-73527353D01*
X123887119Y-73572206D01*
X123887117Y-73572207D01*
X123777850Y-73652850D01*
X123697207Y-73762117D01*
X123697206Y-73762119D01*
X123652353Y-73890298D01*
X123652353Y-73890300D01*
X123649500Y-73920730D01*
X118850500Y-73920730D01*
X118850500Y-72234108D01*
X152174500Y-72234108D01*
X152174500Y-72365891D01*
X152208608Y-72493187D01*
X152241554Y-72550250D01*
X152274500Y-72607314D01*
X152367686Y-72700500D01*
X152481814Y-72766392D01*
X152609108Y-72800500D01*
X152609110Y-72800500D01*
X152740890Y-72800500D01*
X152740892Y-72800500D01*
X152868186Y-72766392D01*
X152982314Y-72700500D01*
X153075500Y-72607314D01*
X153141392Y-72493186D01*
X153175500Y-72365892D01*
X153175500Y-72234108D01*
X153141392Y-72106814D01*
X153075500Y-71992686D01*
X152982314Y-71899500D01*
X152925250Y-71866554D01*
X152868187Y-71833608D01*
X152804539Y-71816554D01*
X152740892Y-71799500D01*
X152609108Y-71799500D01*
X152481812Y-71833608D01*
X152367686Y-71899500D01*
X152367683Y-71899502D01*
X152274502Y-71992683D01*
X152274500Y-71992686D01*
X152208608Y-72106812D01*
X152174500Y-72234108D01*
X118850500Y-72234108D01*
X118850500Y-67959108D01*
X143674500Y-67959108D01*
X143674500Y-68090891D01*
X143708608Y-68218187D01*
X143741554Y-68275250D01*
X143774500Y-68332314D01*
X143867686Y-68425500D01*
X143981814Y-68491392D01*
X144109108Y-68525500D01*
X144109110Y-68525500D01*
X144240890Y-68525500D01*
X144240892Y-68525500D01*
X144368186Y-68491392D01*
X144482314Y-68425500D01*
X144575500Y-68332314D01*
X144641392Y-68218186D01*
X144675500Y-68090892D01*
X144675500Y-67959108D01*
X144641392Y-67831814D01*
X144575500Y-67717686D01*
X144482314Y-67624500D01*
X144425250Y-67591554D01*
X144368187Y-67558608D01*
X144304539Y-67541554D01*
X144240892Y-67524500D01*
X144109108Y-67524500D01*
X143981812Y-67558608D01*
X143867686Y-67624500D01*
X143867683Y-67624502D01*
X143774502Y-67717683D01*
X143774500Y-67717686D01*
X143708608Y-67831812D01*
X143674500Y-67959108D01*
X118850500Y-67959108D01*
X118850500Y-65959108D01*
X138474500Y-65959108D01*
X138474500Y-66090892D01*
X138491554Y-66154539D01*
X138508608Y-66218187D01*
X138516475Y-66231812D01*
X138574500Y-66332314D01*
X138667686Y-66425500D01*
X138738513Y-66466392D01*
X138780944Y-66490890D01*
X138781814Y-66491392D01*
X138909108Y-66525500D01*
X138909110Y-66525500D01*
X139040890Y-66525500D01*
X139040892Y-66525500D01*
X139168186Y-66491392D01*
X139282314Y-66425500D01*
X139375500Y-66332314D01*
X139441392Y-66218186D01*
X139475500Y-66090892D01*
X139475500Y-65959108D01*
X144399500Y-65959108D01*
X144399500Y-66090892D01*
X144416554Y-66154539D01*
X144433608Y-66218187D01*
X144441475Y-66231812D01*
X144499500Y-66332314D01*
X144592686Y-66425500D01*
X144663513Y-66466392D01*
X144705944Y-66490890D01*
X144706814Y-66491392D01*
X144834108Y-66525500D01*
X144834110Y-66525500D01*
X144965890Y-66525500D01*
X144965892Y-66525500D01*
X145093186Y-66491392D01*
X145207314Y-66425500D01*
X145273706Y-66359108D01*
X148749500Y-66359108D01*
X148749500Y-66490892D01*
X148757502Y-66520756D01*
X148783608Y-66618187D01*
X148812476Y-66668186D01*
X148849500Y-66732314D01*
X148942686Y-66825500D01*
X149056814Y-66891392D01*
X149184108Y-66925500D01*
X149184110Y-66925500D01*
X149315890Y-66925500D01*
X149315892Y-66925500D01*
X149443186Y-66891392D01*
X149557314Y-66825500D01*
X149650500Y-66732314D01*
X149678332Y-66684108D01*
X155399500Y-66684108D01*
X155399500Y-66815892D01*
X155415472Y-66875500D01*
X155433608Y-66943187D01*
X155466554Y-67000250D01*
X155499500Y-67057314D01*
X155592686Y-67150500D01*
X155706814Y-67216392D01*
X155834108Y-67250500D01*
X155834110Y-67250500D01*
X155965890Y-67250500D01*
X155965892Y-67250500D01*
X156093186Y-67216392D01*
X156207314Y-67150500D01*
X156300500Y-67057314D01*
X156366392Y-66943186D01*
X156368824Y-66934108D01*
X163074500Y-66934108D01*
X163074500Y-67065891D01*
X163108608Y-67193187D01*
X163122005Y-67216391D01*
X163174500Y-67307314D01*
X163267686Y-67400500D01*
X163381814Y-67466392D01*
X163509108Y-67500500D01*
X163509110Y-67500500D01*
X163640890Y-67500500D01*
X163640892Y-67500500D01*
X163768186Y-67466392D01*
X163882314Y-67400500D01*
X163975500Y-67307314D01*
X164041392Y-67193186D01*
X164075500Y-67065892D01*
X164075500Y-67034108D01*
X164774500Y-67034108D01*
X164774500Y-67165891D01*
X164808608Y-67293187D01*
X164816766Y-67307316D01*
X164874500Y-67407314D01*
X164967686Y-67500500D01*
X165081814Y-67566392D01*
X165209108Y-67600500D01*
X165209110Y-67600500D01*
X165340890Y-67600500D01*
X165340892Y-67600500D01*
X165468186Y-67566392D01*
X165582314Y-67500500D01*
X165675500Y-67407314D01*
X165741392Y-67293186D01*
X165775500Y-67165892D01*
X165775500Y-67034108D01*
X165741392Y-66906814D01*
X165675500Y-66792686D01*
X165582314Y-66699500D01*
X165525250Y-66666554D01*
X165468187Y-66633608D01*
X165404539Y-66616554D01*
X165340892Y-66599500D01*
X165209108Y-66599500D01*
X165081812Y-66633608D01*
X164967686Y-66699500D01*
X164967683Y-66699502D01*
X164874502Y-66792683D01*
X164874500Y-66792686D01*
X164808608Y-66906812D01*
X164774500Y-67034108D01*
X164075500Y-67034108D01*
X164075500Y-66934108D01*
X164041392Y-66806814D01*
X163975500Y-66692686D01*
X163882314Y-66599500D01*
X163808380Y-66556814D01*
X163768187Y-66533608D01*
X163737926Y-66525500D01*
X163640892Y-66499500D01*
X163509108Y-66499500D01*
X163381812Y-66533608D01*
X163267686Y-66599500D01*
X163267683Y-66599502D01*
X163174502Y-66692683D01*
X163174500Y-66692686D01*
X163108608Y-66806812D01*
X163074500Y-66934108D01*
X156368824Y-66934108D01*
X156400500Y-66815892D01*
X156400500Y-66684108D01*
X156366392Y-66556814D01*
X156300500Y-66442686D01*
X156207314Y-66349500D01*
X156150250Y-66316554D01*
X156093187Y-66283608D01*
X156029539Y-66266554D01*
X155965892Y-66249500D01*
X155834108Y-66249500D01*
X155706812Y-66283608D01*
X155592686Y-66349500D01*
X155592683Y-66349502D01*
X155499502Y-66442683D01*
X155499500Y-66442686D01*
X155433608Y-66556812D01*
X155417163Y-66618187D01*
X155399500Y-66684108D01*
X149678332Y-66684108D01*
X149716392Y-66618186D01*
X149750500Y-66490892D01*
X149750500Y-66359108D01*
X149716392Y-66231814D01*
X149650500Y-66117686D01*
X149557314Y-66024500D01*
X149470712Y-65974500D01*
X149443187Y-65958608D01*
X149351757Y-65934110D01*
X149315892Y-65924500D01*
X149184108Y-65924500D01*
X149056812Y-65958608D01*
X148942686Y-66024500D01*
X148942683Y-66024502D01*
X148849502Y-66117683D01*
X148849500Y-66117686D01*
X148783608Y-66231812D01*
X148763378Y-66307313D01*
X148749500Y-66359108D01*
X145273706Y-66359108D01*
X145300500Y-66332314D01*
X145314934Y-66307314D01*
X145325520Y-66288980D01*
X145366390Y-66218189D01*
X145366392Y-66218186D01*
X145400500Y-66090892D01*
X145400500Y-65959108D01*
X145366392Y-65831814D01*
X145300500Y-65717686D01*
X145207314Y-65624500D01*
X145150250Y-65591554D01*
X145093187Y-65558608D01*
X145001425Y-65534021D01*
X144965892Y-65524500D01*
X144834108Y-65524500D01*
X144706812Y-65558608D01*
X144592686Y-65624500D01*
X144592683Y-65624502D01*
X144499502Y-65717683D01*
X144499500Y-65717686D01*
X144433608Y-65831812D01*
X144421902Y-65875500D01*
X144399500Y-65959108D01*
X139475500Y-65959108D01*
X139441392Y-65831814D01*
X139375500Y-65717686D01*
X139282314Y-65624500D01*
X139225250Y-65591554D01*
X139168187Y-65558608D01*
X139076425Y-65534021D01*
X139040892Y-65524500D01*
X138909108Y-65524500D01*
X138781812Y-65558608D01*
X138667686Y-65624500D01*
X138667683Y-65624502D01*
X138574502Y-65717683D01*
X138574500Y-65717686D01*
X138508608Y-65831812D01*
X138496902Y-65875500D01*
X138474500Y-65959108D01*
X118850500Y-65959108D01*
X118850500Y-64274969D01*
X118870185Y-64207930D01*
X118922989Y-64162175D01*
X118992147Y-64152231D01*
X119055703Y-64181256D01*
X119062181Y-64187288D01*
X119201904Y-64327011D01*
X119373363Y-64451583D01*
X119562198Y-64547800D01*
X119763761Y-64613292D01*
X119973086Y-64646446D01*
X119973087Y-64646446D01*
X120185021Y-64646446D01*
X120185022Y-64646446D01*
X120394347Y-64613292D01*
X120561108Y-64559108D01*
X148249500Y-64559108D01*
X148249500Y-64690891D01*
X148283608Y-64818187D01*
X148316554Y-64875250D01*
X148349500Y-64932314D01*
X148442686Y-65025500D01*
X148556814Y-65091392D01*
X148684108Y-65125500D01*
X148684110Y-65125500D01*
X148815890Y-65125500D01*
X148815892Y-65125500D01*
X148943186Y-65091392D01*
X149057314Y-65025500D01*
X149150500Y-64932314D01*
X149216392Y-64818186D01*
X149250500Y-64690892D01*
X149250500Y-64559108D01*
X149216392Y-64431814D01*
X149150500Y-64317686D01*
X149057314Y-64224500D01*
X148992861Y-64187288D01*
X148943187Y-64158608D01*
X148879539Y-64141554D01*
X148815892Y-64124500D01*
X148684108Y-64124500D01*
X148556812Y-64158608D01*
X148442686Y-64224500D01*
X148442683Y-64224502D01*
X148349502Y-64317683D01*
X148349500Y-64317686D01*
X148283608Y-64431812D01*
X148249500Y-64559108D01*
X120561108Y-64559108D01*
X120595910Y-64547800D01*
X120784745Y-64451583D01*
X120786011Y-64450663D01*
X120786012Y-64450663D01*
X120921794Y-64352011D01*
X120956204Y-64327011D01*
X121106065Y-64177150D01*
X121230637Y-64005691D01*
X121326854Y-63816856D01*
X121354995Y-63730247D01*
X150039500Y-63730247D01*
X150039500Y-65469752D01*
X150051131Y-65528229D01*
X150051132Y-65528230D01*
X150095447Y-65594552D01*
X150161769Y-65638867D01*
X150161770Y-65638868D01*
X150220247Y-65650499D01*
X150220250Y-65650500D01*
X150220252Y-65650500D01*
X151959750Y-65650500D01*
X151959751Y-65650499D01*
X151974568Y-65647552D01*
X152018229Y-65638868D01*
X152018229Y-65638867D01*
X152018231Y-65638867D01*
X152084552Y-65594552D01*
X152128867Y-65528231D01*
X152128867Y-65528229D01*
X152128868Y-65528229D01*
X152140499Y-65469752D01*
X152140500Y-65469750D01*
X152140500Y-64496530D01*
X155119500Y-64496530D01*
X155119500Y-64703469D01*
X155142319Y-64818186D01*
X155159870Y-64906420D01*
X155239059Y-65097598D01*
X155285888Y-65167683D01*
X155354024Y-65269657D01*
X155500342Y-65415975D01*
X155500345Y-65415977D01*
X155672402Y-65530941D01*
X155863580Y-65610130D01*
X156008052Y-65638867D01*
X156066530Y-65650499D01*
X156066534Y-65650500D01*
X156066535Y-65650500D01*
X156273466Y-65650500D01*
X156273467Y-65650499D01*
X156476420Y-65610130D01*
X156667598Y-65530941D01*
X156839655Y-65415977D01*
X156985977Y-65269655D01*
X157100941Y-65097598D01*
X157180130Y-64906420D01*
X157220500Y-64703465D01*
X157220500Y-64496535D01*
X157220499Y-64496530D01*
X157659500Y-64496530D01*
X157659500Y-64703469D01*
X157682319Y-64818186D01*
X157699870Y-64906420D01*
X157779059Y-65097598D01*
X157825888Y-65167683D01*
X157894024Y-65269657D01*
X158040342Y-65415975D01*
X158040345Y-65415977D01*
X158212402Y-65530941D01*
X158403580Y-65610130D01*
X158548052Y-65638867D01*
X158606530Y-65650499D01*
X158606534Y-65650500D01*
X158606535Y-65650500D01*
X158813466Y-65650500D01*
X158813467Y-65650499D01*
X159016420Y-65610130D01*
X159207598Y-65530941D01*
X159379655Y-65415977D01*
X159525977Y-65269655D01*
X159640941Y-65097598D01*
X159720130Y-64906420D01*
X159760500Y-64703465D01*
X159760500Y-64496535D01*
X159760499Y-64496530D01*
X160199500Y-64496530D01*
X160199500Y-64703469D01*
X160222319Y-64818186D01*
X160239870Y-64906420D01*
X160319059Y-65097598D01*
X160365888Y-65167683D01*
X160434024Y-65269657D01*
X160580342Y-65415975D01*
X160580345Y-65415977D01*
X160752402Y-65530941D01*
X160757875Y-65533208D01*
X160795664Y-65548861D01*
X160850068Y-65592701D01*
X160872133Y-65658995D01*
X160855599Y-65725422D01*
X160808609Y-65806810D01*
X160808609Y-65806811D01*
X160808609Y-65806812D01*
X160808608Y-65806814D01*
X160774500Y-65934108D01*
X160774500Y-66065892D01*
X160781199Y-66090892D01*
X160808608Y-66193187D01*
X160830909Y-66231812D01*
X160874500Y-66307314D01*
X160967686Y-66400500D01*
X161081814Y-66466392D01*
X161209108Y-66500500D01*
X161209110Y-66500500D01*
X161340890Y-66500500D01*
X161340892Y-66500500D01*
X161468186Y-66466392D01*
X161567405Y-66409108D01*
X170999500Y-66409108D01*
X170999500Y-66540891D01*
X171033608Y-66668187D01*
X171047751Y-66692683D01*
X171099500Y-66782314D01*
X171192686Y-66875500D01*
X171306814Y-66941392D01*
X171434108Y-66975500D01*
X171434110Y-66975500D01*
X171565890Y-66975500D01*
X171565892Y-66975500D01*
X171693186Y-66941392D01*
X171807314Y-66875500D01*
X171900500Y-66782314D01*
X171966392Y-66668186D01*
X172000500Y-66540892D01*
X172000500Y-66409108D01*
X171966392Y-66281814D01*
X171900500Y-66167686D01*
X171807314Y-66074500D01*
X171750250Y-66041554D01*
X171693187Y-66008608D01*
X171629539Y-65991554D01*
X171565892Y-65974500D01*
X171434108Y-65974500D01*
X171306812Y-66008608D01*
X171192686Y-66074500D01*
X171192683Y-66074502D01*
X171099502Y-66167683D01*
X171099500Y-66167686D01*
X171033608Y-66281812D01*
X170999500Y-66409108D01*
X161567405Y-66409108D01*
X161582314Y-66400500D01*
X161675500Y-66307314D01*
X161741392Y-66193186D01*
X161775500Y-66065892D01*
X161775500Y-65934108D01*
X161741392Y-65806814D01*
X161684749Y-65708706D01*
X161668277Y-65640809D01*
X161691129Y-65574782D01*
X161742335Y-65534021D01*
X161742224Y-65533814D01*
X161743357Y-65533208D01*
X161744694Y-65532143D01*
X161747598Y-65530941D01*
X161919655Y-65415977D01*
X161926524Y-65409108D01*
X166324500Y-65409108D01*
X166324500Y-65540892D01*
X166329247Y-65558608D01*
X166358608Y-65668187D01*
X166372753Y-65692686D01*
X166424500Y-65782314D01*
X166517686Y-65875500D01*
X166631814Y-65941392D01*
X166759108Y-65975500D01*
X166759110Y-65975500D01*
X166890890Y-65975500D01*
X166890892Y-65975500D01*
X167018186Y-65941392D01*
X167132314Y-65875500D01*
X167225500Y-65782314D01*
X167291392Y-65668186D01*
X167325500Y-65540892D01*
X167325500Y-65409108D01*
X167291392Y-65281814D01*
X167225500Y-65167686D01*
X167132314Y-65074500D01*
X167047439Y-65025497D01*
X167018187Y-65008608D01*
X166954539Y-64991554D01*
X166890892Y-64974500D01*
X166759108Y-64974500D01*
X166631812Y-65008608D01*
X166517686Y-65074500D01*
X166517683Y-65074502D01*
X166424502Y-65167683D01*
X166424500Y-65167686D01*
X166358608Y-65281812D01*
X166350171Y-65313300D01*
X166324500Y-65409108D01*
X161926524Y-65409108D01*
X162022333Y-65313300D01*
X162065974Y-65269658D01*
X162065975Y-65269657D01*
X162065977Y-65269655D01*
X162180941Y-65097598D01*
X162260130Y-64906420D01*
X162300500Y-64703465D01*
X162300500Y-64496535D01*
X162260130Y-64293580D01*
X162180941Y-64102402D01*
X162065977Y-63930345D01*
X162065975Y-63930342D01*
X161919657Y-63784024D01*
X161833626Y-63726541D01*
X161747598Y-63669059D01*
X161678141Y-63640289D01*
X161556420Y-63589870D01*
X161556412Y-63589868D01*
X161353469Y-63549500D01*
X161353465Y-63549500D01*
X161146535Y-63549500D01*
X161146530Y-63549500D01*
X160943587Y-63589868D01*
X160943579Y-63589870D01*
X160752403Y-63669058D01*
X160580342Y-63784024D01*
X160434024Y-63930342D01*
X160319058Y-64102403D01*
X160239870Y-64293579D01*
X160239868Y-64293587D01*
X160199500Y-64496530D01*
X159760499Y-64496530D01*
X159720130Y-64293580D01*
X159640941Y-64102402D01*
X159525977Y-63930345D01*
X159525975Y-63930342D01*
X159379657Y-63784024D01*
X159293626Y-63726541D01*
X159207598Y-63669059D01*
X159138141Y-63640289D01*
X159016420Y-63589870D01*
X159016412Y-63589868D01*
X158813469Y-63549500D01*
X158813465Y-63549500D01*
X158606535Y-63549500D01*
X158606530Y-63549500D01*
X158403587Y-63589868D01*
X158403579Y-63589870D01*
X158212403Y-63669058D01*
X158040342Y-63784024D01*
X157894024Y-63930342D01*
X157779058Y-64102403D01*
X157699870Y-64293579D01*
X157699868Y-64293587D01*
X157659500Y-64496530D01*
X157220499Y-64496530D01*
X157180130Y-64293580D01*
X157100941Y-64102402D01*
X156985977Y-63930345D01*
X156985975Y-63930342D01*
X156839657Y-63784024D01*
X156753626Y-63726541D01*
X156667598Y-63669059D01*
X156598141Y-63640289D01*
X156476420Y-63589870D01*
X156476412Y-63589868D01*
X156273469Y-63549500D01*
X156273465Y-63549500D01*
X156066535Y-63549500D01*
X156066530Y-63549500D01*
X155863587Y-63589868D01*
X155863579Y-63589870D01*
X155672403Y-63669058D01*
X155500342Y-63784024D01*
X155354024Y-63930342D01*
X155239058Y-64102403D01*
X155159870Y-64293579D01*
X155159868Y-64293587D01*
X155119500Y-64496530D01*
X152140500Y-64496530D01*
X152140500Y-63730249D01*
X152140499Y-63730247D01*
X152128868Y-63671770D01*
X152128867Y-63671769D01*
X152084552Y-63605447D01*
X152018230Y-63561132D01*
X152018229Y-63561131D01*
X151959752Y-63549500D01*
X151959748Y-63549500D01*
X150220252Y-63549500D01*
X150220247Y-63549500D01*
X150161770Y-63561131D01*
X150161769Y-63561132D01*
X150095447Y-63605447D01*
X150051132Y-63671769D01*
X150051131Y-63671770D01*
X150039500Y-63730247D01*
X121354995Y-63730247D01*
X121392346Y-63615293D01*
X121425500Y-63405968D01*
X121425500Y-63194032D01*
X121392346Y-62984707D01*
X121326854Y-62783144D01*
X121230637Y-62594309D01*
X121106065Y-62422850D01*
X120995396Y-62312181D01*
X120961911Y-62250858D01*
X120966895Y-62181166D01*
X121008767Y-62125233D01*
X121074231Y-62100816D01*
X121083077Y-62100500D01*
X163695685Y-62100500D01*
X163762724Y-62120185D01*
G37*
%TD.AperFunction*%
%TD*%
M02*
