M48
; DRILL file {KiCad 9.0.7} date 2026-07-07T23:05:03+0530
; FORMAT={-:-/ absolute / metric / decimal}
; #@! TF.CreationDate,2026-07-07T23:05:03+05:30
; #@! TF.GenerationSoftware,Kicad,Pcbnew,9.0.7
; #@! TF.FileFunction,Plated,1,3,Blind
FMAT,2
METRIC
; #@! TA.AperFunction,Plated,Buried,ViaDrill
T1C0.300
%
G90
G05
T1
X120.88Y-115.105
X126.35Y-130.375
X131.826Y-123.0
X137.45Y-127.275
X142.975Y-116.825
X143.15Y-111.825
X143.675Y-106.6
X144.075Y-96.725
X144.175Y-68.025
X144.25Y-89.925
X144.9Y-66.025
X146.2Y-102.625
X147.174Y-93.106
X147.221Y-98.671
X148.75Y-64.625
X150.375Y-99.075
X150.375Y-100.2
X150.4Y-88.0
X153.4Y-85.15
X156.4Y-104.5
X157.625Y-110.425
X158.125Y-108.725
X159.6Y-96.9
X160.233Y-89.9
X160.475Y-89.05
X162.125Y-121.025
X163.124Y-95.826
X164.2Y-62.6
X165.542Y-98.542
X166.825Y-65.475
X166.85Y-87.325
X169.026Y-92.0
X169.45Y-87.125
X169.875Y-95.0
X171.5Y-66.475
X171.85Y-87.275
M30
