%TF.GenerationSoftware,KiCad,Pcbnew,9.0.7*%
%TF.CreationDate,2026-07-07T23:04:11+05:30*%
%TF.ProjectId,UAV PAYLOAD CONTROLLER,55415620-5041-4594-9c4f-414420434f4e,1*%
%TF.SameCoordinates,Original*%
%TF.FileFunction,Legend,Bot*%
%TF.FilePolarity,Positive*%
%FSLAX46Y46*%
G04 Gerber Fmt 4.6, Leading zero omitted, Abs format (unit mm)*
G04 Created by KiCad (PCBNEW 9.0.7) date 2026-07-07 23:04:11*
%MOMM*%
%LPD*%
G01*
G04 APERTURE LIST*
G04 Aperture macros list*
%AMRoundRect*
0 Rectangle with rounded corners*
0 $1 Rounding radius*
0 $2 $3 $4 $5 $6 $7 $8 $9 X,Y pos of 4 corners*
0 Add a 4 corners polygon primitive as box body*
4,1,4,$2,$3,$4,$5,$6,$7,$8,$9,$2,$3,0*
0 Add four circle primitives for the rounded corners*
1,1,$1+$1,$2,$3*
1,1,$1+$1,$4,$5*
1,1,$1+$1,$6,$7*
1,1,$1+$1,$8,$9*
0 Add four rect primitives between the rounded corners*
20,1,$1+$1,$2,$3,$4,$5,0*
20,1,$1+$1,$4,$5,$6,$7,0*
20,1,$1+$1,$6,$7,$8,$9,0*
20,1,$1+$1,$8,$9,$2,$3,0*%
G04 Aperture macros list end*
%ADD10C,0.100000*%
%ADD11C,0.010000*%
%ADD12R,1.700000X1.700000*%
%ADD13C,1.700000*%
%ADD14RoundRect,0.250000X-0.750000X0.600000X-0.750000X-0.600000X0.750000X-0.600000X0.750000X0.600000X0*%
%ADD15O,2.000000X1.700000*%
%ADD16RoundRect,0.250000X-0.600000X-0.725000X0.600000X-0.725000X0.600000X0.725000X-0.600000X0.725000X0*%
%ADD17O,1.700000X1.950000*%
%ADD18C,0.650000*%
%ADD19O,1.000000X2.100000*%
%ADD20O,1.000000X1.600000*%
G04 APERTURE END LIST*
D10*
X146521115Y-66621312D02*
X146521115Y-65121312D01*
X146521115Y-65121312D02*
X146283020Y-65121312D01*
X146283020Y-65121312D02*
X146140163Y-65192741D01*
X146140163Y-65192741D02*
X146044925Y-65335598D01*
X146044925Y-65335598D02*
X145997306Y-65478455D01*
X145997306Y-65478455D02*
X145949687Y-65764169D01*
X145949687Y-65764169D02*
X145949687Y-65978455D01*
X145949687Y-65978455D02*
X145997306Y-66264169D01*
X145997306Y-66264169D02*
X146044925Y-66407026D01*
X146044925Y-66407026D02*
X146140163Y-66549884D01*
X146140163Y-66549884D02*
X146283020Y-66621312D01*
X146283020Y-66621312D02*
X146521115Y-66621312D01*
X145140163Y-66549884D02*
X145235401Y-66621312D01*
X145235401Y-66621312D02*
X145425877Y-66621312D01*
X145425877Y-66621312D02*
X145521115Y-66549884D01*
X145521115Y-66549884D02*
X145568734Y-66407026D01*
X145568734Y-66407026D02*
X145568734Y-65835598D01*
X145568734Y-65835598D02*
X145521115Y-65692741D01*
X145521115Y-65692741D02*
X145425877Y-65621312D01*
X145425877Y-65621312D02*
X145235401Y-65621312D01*
X145235401Y-65621312D02*
X145140163Y-65692741D01*
X145140163Y-65692741D02*
X145092544Y-65835598D01*
X145092544Y-65835598D02*
X145092544Y-65978455D01*
X145092544Y-65978455D02*
X145568734Y-66121312D01*
X144711591Y-66549884D02*
X144616353Y-66621312D01*
X144616353Y-66621312D02*
X144425877Y-66621312D01*
X144425877Y-66621312D02*
X144330639Y-66549884D01*
X144330639Y-66549884D02*
X144283020Y-66407026D01*
X144283020Y-66407026D02*
X144283020Y-66335598D01*
X144283020Y-66335598D02*
X144330639Y-66192741D01*
X144330639Y-66192741D02*
X144425877Y-66121312D01*
X144425877Y-66121312D02*
X144568734Y-66121312D01*
X144568734Y-66121312D02*
X144663972Y-66049884D01*
X144663972Y-66049884D02*
X144711591Y-65907026D01*
X144711591Y-65907026D02*
X144711591Y-65835598D01*
X144711591Y-65835598D02*
X144663972Y-65692741D01*
X144663972Y-65692741D02*
X144568734Y-65621312D01*
X144568734Y-65621312D02*
X144425877Y-65621312D01*
X144425877Y-65621312D02*
X144330639Y-65692741D01*
X143854448Y-66621312D02*
X143854448Y-65621312D01*
X143854448Y-65121312D02*
X143902067Y-65192741D01*
X143902067Y-65192741D02*
X143854448Y-65264169D01*
X143854448Y-65264169D02*
X143806829Y-65192741D01*
X143806829Y-65192741D02*
X143854448Y-65121312D01*
X143854448Y-65121312D02*
X143854448Y-65264169D01*
X142949687Y-65621312D02*
X142949687Y-66835598D01*
X142949687Y-66835598D02*
X142997306Y-66978455D01*
X142997306Y-66978455D02*
X143044925Y-67049884D01*
X143044925Y-67049884D02*
X143140163Y-67121312D01*
X143140163Y-67121312D02*
X143283020Y-67121312D01*
X143283020Y-67121312D02*
X143378258Y-67049884D01*
X142949687Y-66549884D02*
X143044925Y-66621312D01*
X143044925Y-66621312D02*
X143235401Y-66621312D01*
X143235401Y-66621312D02*
X143330639Y-66549884D01*
X143330639Y-66549884D02*
X143378258Y-66478455D01*
X143378258Y-66478455D02*
X143425877Y-66335598D01*
X143425877Y-66335598D02*
X143425877Y-65907026D01*
X143425877Y-65907026D02*
X143378258Y-65764169D01*
X143378258Y-65764169D02*
X143330639Y-65692741D01*
X143330639Y-65692741D02*
X143235401Y-65621312D01*
X143235401Y-65621312D02*
X143044925Y-65621312D01*
X143044925Y-65621312D02*
X142949687Y-65692741D01*
X142473496Y-65621312D02*
X142473496Y-66621312D01*
X142473496Y-65764169D02*
X142425877Y-65692741D01*
X142425877Y-65692741D02*
X142330639Y-65621312D01*
X142330639Y-65621312D02*
X142187782Y-65621312D01*
X142187782Y-65621312D02*
X142092544Y-65692741D01*
X142092544Y-65692741D02*
X142044925Y-65835598D01*
X142044925Y-65835598D02*
X142044925Y-66621312D01*
X141187782Y-66549884D02*
X141283020Y-66621312D01*
X141283020Y-66621312D02*
X141473496Y-66621312D01*
X141473496Y-66621312D02*
X141568734Y-66549884D01*
X141568734Y-66549884D02*
X141616353Y-66407026D01*
X141616353Y-66407026D02*
X141616353Y-65835598D01*
X141616353Y-65835598D02*
X141568734Y-65692741D01*
X141568734Y-65692741D02*
X141473496Y-65621312D01*
X141473496Y-65621312D02*
X141283020Y-65621312D01*
X141283020Y-65621312D02*
X141187782Y-65692741D01*
X141187782Y-65692741D02*
X141140163Y-65835598D01*
X141140163Y-65835598D02*
X141140163Y-65978455D01*
X141140163Y-65978455D02*
X141616353Y-66121312D01*
X140283020Y-66621312D02*
X140283020Y-65121312D01*
X140283020Y-66549884D02*
X140378258Y-66621312D01*
X140378258Y-66621312D02*
X140568734Y-66621312D01*
X140568734Y-66621312D02*
X140663972Y-66549884D01*
X140663972Y-66549884D02*
X140711591Y-66478455D01*
X140711591Y-66478455D02*
X140759210Y-66335598D01*
X140759210Y-66335598D02*
X140759210Y-65907026D01*
X140759210Y-65907026D02*
X140711591Y-65764169D01*
X140711591Y-65764169D02*
X140663972Y-65692741D01*
X140663972Y-65692741D02*
X140568734Y-65621312D01*
X140568734Y-65621312D02*
X140378258Y-65621312D01*
X140378258Y-65621312D02*
X140283020Y-65692741D01*
X139044924Y-66621312D02*
X139044924Y-65121312D01*
X139044924Y-65692741D02*
X138949686Y-65621312D01*
X138949686Y-65621312D02*
X138759210Y-65621312D01*
X138759210Y-65621312D02*
X138663972Y-65692741D01*
X138663972Y-65692741D02*
X138616353Y-65764169D01*
X138616353Y-65764169D02*
X138568734Y-65907026D01*
X138568734Y-65907026D02*
X138568734Y-66335598D01*
X138568734Y-66335598D02*
X138616353Y-66478455D01*
X138616353Y-66478455D02*
X138663972Y-66549884D01*
X138663972Y-66549884D02*
X138759210Y-66621312D01*
X138759210Y-66621312D02*
X138949686Y-66621312D01*
X138949686Y-66621312D02*
X139044924Y-66549884D01*
X138235400Y-65621312D02*
X137997305Y-66621312D01*
X137759210Y-65621312D02*
X137997305Y-66621312D01*
X137997305Y-66621312D02*
X138092543Y-66978455D01*
X138092543Y-66978455D02*
X138140162Y-67049884D01*
X138140162Y-67049884D02*
X138235400Y-67121312D01*
X146663972Y-67536228D02*
X146330639Y-69036228D01*
X146330639Y-69036228D02*
X145997306Y-67536228D01*
X144378258Y-67607657D02*
X144473496Y-67536228D01*
X144473496Y-67536228D02*
X144616353Y-67536228D01*
X144616353Y-67536228D02*
X144759210Y-67607657D01*
X144759210Y-67607657D02*
X144854448Y-67750514D01*
X144854448Y-67750514D02*
X144902067Y-67893371D01*
X144902067Y-67893371D02*
X144949686Y-68179085D01*
X144949686Y-68179085D02*
X144949686Y-68393371D01*
X144949686Y-68393371D02*
X144902067Y-68679085D01*
X144902067Y-68679085D02*
X144854448Y-68821942D01*
X144854448Y-68821942D02*
X144759210Y-68964800D01*
X144759210Y-68964800D02*
X144616353Y-69036228D01*
X144616353Y-69036228D02*
X144521115Y-69036228D01*
X144521115Y-69036228D02*
X144378258Y-68964800D01*
X144378258Y-68964800D02*
X144330639Y-68893371D01*
X144330639Y-68893371D02*
X144330639Y-68393371D01*
X144330639Y-68393371D02*
X144521115Y-68393371D01*
X143140162Y-69036228D02*
X143140162Y-67536228D01*
X143140162Y-67536228D02*
X142806829Y-68607657D01*
X142806829Y-68607657D02*
X142473496Y-67536228D01*
X142473496Y-67536228D02*
X142473496Y-69036228D01*
X141568734Y-69036228D02*
X141568734Y-68250514D01*
X141568734Y-68250514D02*
X141616353Y-68107657D01*
X141616353Y-68107657D02*
X141711591Y-68036228D01*
X141711591Y-68036228D02*
X141902067Y-68036228D01*
X141902067Y-68036228D02*
X141997305Y-68107657D01*
X141568734Y-68964800D02*
X141663972Y-69036228D01*
X141663972Y-69036228D02*
X141902067Y-69036228D01*
X141902067Y-69036228D02*
X141997305Y-68964800D01*
X141997305Y-68964800D02*
X142044924Y-68821942D01*
X142044924Y-68821942D02*
X142044924Y-68679085D01*
X142044924Y-68679085D02*
X141997305Y-68536228D01*
X141997305Y-68536228D02*
X141902067Y-68464800D01*
X141902067Y-68464800D02*
X141663972Y-68464800D01*
X141663972Y-68464800D02*
X141568734Y-68393371D01*
X141092543Y-68036228D02*
X141092543Y-69036228D01*
X141092543Y-68179085D02*
X141044924Y-68107657D01*
X141044924Y-68107657D02*
X140949686Y-68036228D01*
X140949686Y-68036228D02*
X140806829Y-68036228D01*
X140806829Y-68036228D02*
X140711591Y-68107657D01*
X140711591Y-68107657D02*
X140663972Y-68250514D01*
X140663972Y-68250514D02*
X140663972Y-69036228D01*
X139759210Y-69036228D02*
X139759210Y-68250514D01*
X139759210Y-68250514D02*
X139806829Y-68107657D01*
X139806829Y-68107657D02*
X139902067Y-68036228D01*
X139902067Y-68036228D02*
X140092543Y-68036228D01*
X140092543Y-68036228D02*
X140187781Y-68107657D01*
X139759210Y-68964800D02*
X139854448Y-69036228D01*
X139854448Y-69036228D02*
X140092543Y-69036228D01*
X140092543Y-69036228D02*
X140187781Y-68964800D01*
X140187781Y-68964800D02*
X140235400Y-68821942D01*
X140235400Y-68821942D02*
X140235400Y-68679085D01*
X140235400Y-68679085D02*
X140187781Y-68536228D01*
X140187781Y-68536228D02*
X140092543Y-68464800D01*
X140092543Y-68464800D02*
X139854448Y-68464800D01*
X139854448Y-68464800D02*
X139759210Y-68393371D01*
X139330638Y-68964800D02*
X139235400Y-69036228D01*
X139235400Y-69036228D02*
X139044924Y-69036228D01*
X139044924Y-69036228D02*
X138949686Y-68964800D01*
X138949686Y-68964800D02*
X138902067Y-68821942D01*
X138902067Y-68821942D02*
X138902067Y-68750514D01*
X138902067Y-68750514D02*
X138949686Y-68607657D01*
X138949686Y-68607657D02*
X139044924Y-68536228D01*
X139044924Y-68536228D02*
X139187781Y-68536228D01*
X139187781Y-68536228D02*
X139283019Y-68464800D01*
X139283019Y-68464800D02*
X139330638Y-68321942D01*
X139330638Y-68321942D02*
X139330638Y-68250514D01*
X139330638Y-68250514D02*
X139283019Y-68107657D01*
X139283019Y-68107657D02*
X139187781Y-68036228D01*
X139187781Y-68036228D02*
X139044924Y-68036228D01*
X139044924Y-68036228D02*
X138949686Y-68107657D01*
X138044924Y-69036228D02*
X138044924Y-68250514D01*
X138044924Y-68250514D02*
X138092543Y-68107657D01*
X138092543Y-68107657D02*
X138187781Y-68036228D01*
X138187781Y-68036228D02*
X138378257Y-68036228D01*
X138378257Y-68036228D02*
X138473495Y-68107657D01*
X138044924Y-68964800D02*
X138140162Y-69036228D01*
X138140162Y-69036228D02*
X138378257Y-69036228D01*
X138378257Y-69036228D02*
X138473495Y-68964800D01*
X138473495Y-68964800D02*
X138521114Y-68821942D01*
X138521114Y-68821942D02*
X138521114Y-68679085D01*
X138521114Y-68679085D02*
X138473495Y-68536228D01*
X138473495Y-68536228D02*
X138378257Y-68464800D01*
X138378257Y-68464800D02*
X138140162Y-68464800D01*
X138140162Y-68464800D02*
X138044924Y-68393371D01*
X135997304Y-69036228D02*
X136044924Y-69036228D01*
X136044924Y-69036228D02*
X136140162Y-68964800D01*
X136140162Y-68964800D02*
X136283019Y-68750514D01*
X136283019Y-68750514D02*
X136521114Y-68321942D01*
X136521114Y-68321942D02*
X136616352Y-68107657D01*
X136616352Y-68107657D02*
X136663971Y-67893371D01*
X136663971Y-67893371D02*
X136663971Y-67750514D01*
X136663971Y-67750514D02*
X136616352Y-67607657D01*
X136616352Y-67607657D02*
X136521114Y-67536228D01*
X136521114Y-67536228D02*
X136473495Y-67536228D01*
X136473495Y-67536228D02*
X136378257Y-67607657D01*
X136378257Y-67607657D02*
X136330638Y-67750514D01*
X136330638Y-67750514D02*
X136330638Y-67821942D01*
X136330638Y-67821942D02*
X136378257Y-67964800D01*
X136378257Y-67964800D02*
X136425876Y-68036228D01*
X136425876Y-68036228D02*
X136711590Y-68321942D01*
X136711590Y-68321942D02*
X136759209Y-68393371D01*
X136759209Y-68393371D02*
X136806828Y-68536228D01*
X136806828Y-68536228D02*
X136806828Y-68750514D01*
X136806828Y-68750514D02*
X136759209Y-68893371D01*
X136759209Y-68893371D02*
X136711590Y-68964800D01*
X136711590Y-68964800D02*
X136616352Y-69036228D01*
X136616352Y-69036228D02*
X136473495Y-69036228D01*
X136473495Y-69036228D02*
X136378257Y-68964800D01*
X136378257Y-68964800D02*
X136330638Y-68893371D01*
X136330638Y-68893371D02*
X136187781Y-68607657D01*
X136187781Y-68607657D02*
X136140162Y-68393371D01*
X136140162Y-68393371D02*
X136140162Y-68250514D01*
X134854447Y-68964800D02*
X134711590Y-69036228D01*
X134711590Y-69036228D02*
X134473495Y-69036228D01*
X134473495Y-69036228D02*
X134378257Y-68964800D01*
X134378257Y-68964800D02*
X134330638Y-68893371D01*
X134330638Y-68893371D02*
X134283019Y-68750514D01*
X134283019Y-68750514D02*
X134283019Y-68607657D01*
X134283019Y-68607657D02*
X134330638Y-68464800D01*
X134330638Y-68464800D02*
X134378257Y-68393371D01*
X134378257Y-68393371D02*
X134473495Y-68321942D01*
X134473495Y-68321942D02*
X134663971Y-68250514D01*
X134663971Y-68250514D02*
X134759209Y-68179085D01*
X134759209Y-68179085D02*
X134806828Y-68107657D01*
X134806828Y-68107657D02*
X134854447Y-67964800D01*
X134854447Y-67964800D02*
X134854447Y-67821942D01*
X134854447Y-67821942D02*
X134806828Y-67679085D01*
X134806828Y-67679085D02*
X134759209Y-67607657D01*
X134759209Y-67607657D02*
X134663971Y-67536228D01*
X134663971Y-67536228D02*
X134425876Y-67536228D01*
X134425876Y-67536228D02*
X134283019Y-67607657D01*
X133854447Y-69036228D02*
X133854447Y-67536228D01*
X133425876Y-69036228D02*
X133425876Y-68250514D01*
X133425876Y-68250514D02*
X133473495Y-68107657D01*
X133473495Y-68107657D02*
X133568733Y-68036228D01*
X133568733Y-68036228D02*
X133711590Y-68036228D01*
X133711590Y-68036228D02*
X133806828Y-68107657D01*
X133806828Y-68107657D02*
X133854447Y-68179085D01*
X132949685Y-69036228D02*
X132949685Y-68036228D01*
X132949685Y-68321942D02*
X132902066Y-68179085D01*
X132902066Y-68179085D02*
X132854447Y-68107657D01*
X132854447Y-68107657D02*
X132759209Y-68036228D01*
X132759209Y-68036228D02*
X132663971Y-68036228D01*
X131902066Y-68036228D02*
X131902066Y-69036228D01*
X132330637Y-68036228D02*
X132330637Y-68821942D01*
X132330637Y-68821942D02*
X132283018Y-68964800D01*
X132283018Y-68964800D02*
X132187780Y-69036228D01*
X132187780Y-69036228D02*
X132044923Y-69036228D01*
X132044923Y-69036228D02*
X131949685Y-68964800D01*
X131949685Y-68964800D02*
X131902066Y-68893371D01*
X131568732Y-68036228D02*
X131187780Y-68036228D01*
X131425875Y-67536228D02*
X131425875Y-68821942D01*
X131425875Y-68821942D02*
X131378256Y-68964800D01*
X131378256Y-68964800D02*
X131283018Y-69036228D01*
X131283018Y-69036228D02*
X131187780Y-69036228D01*
X130854446Y-69036228D02*
X130854446Y-67536228D01*
X130425875Y-69036228D02*
X130425875Y-68250514D01*
X130425875Y-68250514D02*
X130473494Y-68107657D01*
X130473494Y-68107657D02*
X130568732Y-68036228D01*
X130568732Y-68036228D02*
X130711589Y-68036228D01*
X130711589Y-68036228D02*
X130806827Y-68107657D01*
X130806827Y-68107657D02*
X130854446Y-68179085D01*
X129949684Y-69036228D02*
X129949684Y-68036228D01*
X129949684Y-67536228D02*
X129997303Y-67607657D01*
X129997303Y-67607657D02*
X129949684Y-67679085D01*
X129949684Y-67679085D02*
X129902065Y-67607657D01*
X129902065Y-67607657D02*
X129949684Y-67536228D01*
X129949684Y-67536228D02*
X129949684Y-67679085D01*
X128711589Y-69036228D02*
X128711589Y-67536228D01*
X128711589Y-67536228D02*
X128140161Y-69036228D01*
X128140161Y-69036228D02*
X128140161Y-67536228D01*
X127235399Y-69036228D02*
X127235399Y-68250514D01*
X127235399Y-68250514D02*
X127283018Y-68107657D01*
X127283018Y-68107657D02*
X127378256Y-68036228D01*
X127378256Y-68036228D02*
X127568732Y-68036228D01*
X127568732Y-68036228D02*
X127663970Y-68107657D01*
X127235399Y-68964800D02*
X127330637Y-69036228D01*
X127330637Y-69036228D02*
X127568732Y-69036228D01*
X127568732Y-69036228D02*
X127663970Y-68964800D01*
X127663970Y-68964800D02*
X127711589Y-68821942D01*
X127711589Y-68821942D02*
X127711589Y-68679085D01*
X127711589Y-68679085D02*
X127663970Y-68536228D01*
X127663970Y-68536228D02*
X127568732Y-68464800D01*
X127568732Y-68464800D02*
X127330637Y-68464800D01*
X127330637Y-68464800D02*
X127235399Y-68393371D01*
X126759208Y-69036228D02*
X126759208Y-68036228D01*
X126759208Y-68321942D02*
X126711589Y-68179085D01*
X126711589Y-68179085D02*
X126663970Y-68107657D01*
X126663970Y-68107657D02*
X126568732Y-68036228D01*
X126568732Y-68036228D02*
X126473494Y-68036228D01*
X125711589Y-69036228D02*
X125711589Y-68250514D01*
X125711589Y-68250514D02*
X125759208Y-68107657D01*
X125759208Y-68107657D02*
X125854446Y-68036228D01*
X125854446Y-68036228D02*
X126044922Y-68036228D01*
X126044922Y-68036228D02*
X126140160Y-68107657D01*
X125711589Y-68964800D02*
X125806827Y-69036228D01*
X125806827Y-69036228D02*
X126044922Y-69036228D01*
X126044922Y-69036228D02*
X126140160Y-68964800D01*
X126140160Y-68964800D02*
X126187779Y-68821942D01*
X126187779Y-68821942D02*
X126187779Y-68679085D01*
X126187779Y-68679085D02*
X126140160Y-68536228D01*
X126140160Y-68536228D02*
X126044922Y-68464800D01*
X126044922Y-68464800D02*
X125806827Y-68464800D01*
X125806827Y-68464800D02*
X125711589Y-68393371D01*
X125330636Y-68036228D02*
X125092541Y-69036228D01*
X124854446Y-68036228D02*
X125092541Y-69036228D01*
X125092541Y-69036228D02*
X125187779Y-69393371D01*
X125187779Y-69393371D02*
X125235398Y-69464800D01*
X125235398Y-69464800D02*
X125330636Y-69536228D01*
X124044922Y-69036228D02*
X124044922Y-68250514D01*
X124044922Y-68250514D02*
X124092541Y-68107657D01*
X124092541Y-68107657D02*
X124187779Y-68036228D01*
X124187779Y-68036228D02*
X124378255Y-68036228D01*
X124378255Y-68036228D02*
X124473493Y-68107657D01*
X124044922Y-68964800D02*
X124140160Y-69036228D01*
X124140160Y-69036228D02*
X124378255Y-69036228D01*
X124378255Y-69036228D02*
X124473493Y-68964800D01*
X124473493Y-68964800D02*
X124521112Y-68821942D01*
X124521112Y-68821942D02*
X124521112Y-68679085D01*
X124521112Y-68679085D02*
X124473493Y-68536228D01*
X124473493Y-68536228D02*
X124378255Y-68464800D01*
X124378255Y-68464800D02*
X124140160Y-68464800D01*
X124140160Y-68464800D02*
X124044922Y-68393371D01*
X123568731Y-68036228D02*
X123568731Y-69036228D01*
X123568731Y-68179085D02*
X123521112Y-68107657D01*
X123521112Y-68107657D02*
X123425874Y-68036228D01*
X123425874Y-68036228D02*
X123283017Y-68036228D01*
X123283017Y-68036228D02*
X123187779Y-68107657D01*
X123187779Y-68107657D02*
X123140160Y-68250514D01*
X123140160Y-68250514D02*
X123140160Y-69036228D01*
X122235398Y-69036228D02*
X122235398Y-68250514D01*
X122235398Y-68250514D02*
X122283017Y-68107657D01*
X122283017Y-68107657D02*
X122378255Y-68036228D01*
X122378255Y-68036228D02*
X122568731Y-68036228D01*
X122568731Y-68036228D02*
X122663969Y-68107657D01*
X122235398Y-68964800D02*
X122330636Y-69036228D01*
X122330636Y-69036228D02*
X122568731Y-69036228D01*
X122568731Y-69036228D02*
X122663969Y-68964800D01*
X122663969Y-68964800D02*
X122711588Y-68821942D01*
X122711588Y-68821942D02*
X122711588Y-68679085D01*
X122711588Y-68679085D02*
X122663969Y-68536228D01*
X122663969Y-68536228D02*
X122568731Y-68464800D01*
X122568731Y-68464800D02*
X122330636Y-68464800D01*
X122330636Y-68464800D02*
X122235398Y-68393371D01*
X121759207Y-68036228D02*
X121759207Y-69036228D01*
X121759207Y-68179085D02*
X121711588Y-68107657D01*
X121711588Y-68107657D02*
X121616350Y-68036228D01*
X121616350Y-68036228D02*
X121473493Y-68036228D01*
X121473493Y-68036228D02*
X121378255Y-68107657D01*
X121378255Y-68107657D02*
X121330636Y-68250514D01*
X121330636Y-68250514D02*
X121330636Y-69036228D01*
D11*
%TO.C,REF\u002A\u002A*%
X130280406Y-127724949D02*
X130306127Y-127740647D01*
X130332778Y-127762227D01*
X130332778Y-128409684D01*
X130306127Y-128431264D01*
X130274767Y-128448739D01*
X130238966Y-128449575D01*
X130207528Y-128429082D01*
X130203652Y-128424416D01*
X130198186Y-128414949D01*
X130193979Y-128401267D01*
X130190867Y-128380748D01*
X130188687Y-128350768D01*
X130187276Y-128308704D01*
X130186471Y-128251932D01*
X130186107Y-128177830D01*
X130186022Y-128083773D01*
X130186022Y-127762227D01*
X130212673Y-127740647D01*
X130236386Y-127725877D01*
X130259400Y-127719067D01*
X130280406Y-127724949D01*
G36*
X130280406Y-127724949D02*
G01*
X130306127Y-127740647D01*
X130332778Y-127762227D01*
X130332778Y-128409684D01*
X130306127Y-128431264D01*
X130274767Y-128448739D01*
X130238966Y-128449575D01*
X130207528Y-128429082D01*
X130203652Y-128424416D01*
X130198186Y-128414949D01*
X130193979Y-128401267D01*
X130190867Y-128380748D01*
X130188687Y-128350768D01*
X130187276Y-128308704D01*
X130186471Y-128251932D01*
X130186107Y-128177830D01*
X130186022Y-128083773D01*
X130186022Y-127762227D01*
X130212673Y-127740647D01*
X130236386Y-127725877D01*
X130259400Y-127719067D01*
X130280406Y-127724949D01*
G37*
X137411137Y-127723463D02*
X137445291Y-127746776D01*
X137473000Y-127774485D01*
X137473000Y-128087537D01*
X137472959Y-128171567D01*
X137472701Y-128245789D01*
X137472030Y-128302541D01*
X137470752Y-128344512D01*
X137468673Y-128374389D01*
X137465599Y-128394861D01*
X137461334Y-128408614D01*
X137455684Y-128418337D01*
X137448455Y-128426717D01*
X137416991Y-128448181D01*
X137381826Y-128449947D01*
X137348822Y-128430267D01*
X137343516Y-128424398D01*
X137338066Y-128415314D01*
X137333900Y-128401973D01*
X137330846Y-128381757D01*
X137328732Y-128352049D01*
X137327386Y-128310232D01*
X137326638Y-128253689D01*
X137326314Y-128179802D01*
X137326245Y-128085956D01*
X137326284Y-128010294D01*
X137326539Y-127932385D01*
X137327183Y-127872375D01*
X137328387Y-127827648D01*
X137330324Y-127795585D01*
X137333164Y-127773571D01*
X137337079Y-127758987D01*
X137342242Y-127749218D01*
X137348822Y-127741645D01*
X137378006Y-127722623D01*
X137411137Y-127723463D01*
G36*
X137411137Y-127723463D02*
G01*
X137445291Y-127746776D01*
X137473000Y-127774485D01*
X137473000Y-128087537D01*
X137472959Y-128171567D01*
X137472701Y-128245789D01*
X137472030Y-128302541D01*
X137470752Y-128344512D01*
X137468673Y-128374389D01*
X137465599Y-128394861D01*
X137461334Y-128408614D01*
X137455684Y-128418337D01*
X137448455Y-128426717D01*
X137416991Y-128448181D01*
X137381826Y-128449947D01*
X137348822Y-128430267D01*
X137343516Y-128424398D01*
X137338066Y-128415314D01*
X137333900Y-128401973D01*
X137330846Y-128381757D01*
X137328732Y-128352049D01*
X137327386Y-128310232D01*
X137326638Y-128253689D01*
X137326314Y-128179802D01*
X137326245Y-128085956D01*
X137326284Y-128010294D01*
X137326539Y-127932385D01*
X137327183Y-127872375D01*
X137328387Y-127827648D01*
X137330324Y-127795585D01*
X137333164Y-127773571D01*
X137337079Y-127758987D01*
X137342242Y-127749218D01*
X137348822Y-127741645D01*
X137378006Y-127722623D01*
X137411137Y-127723463D01*
G37*
X136879562Y-122482850D02*
X136962313Y-122510053D01*
X137037406Y-122555484D01*
X137109298Y-122621302D01*
X137147846Y-122665567D01*
X137187256Y-122723961D01*
X137212446Y-122784586D01*
X137225861Y-122853865D01*
X137229948Y-122938222D01*
X137229669Y-122984307D01*
X137227460Y-123025450D01*
X137221894Y-123057582D01*
X137211586Y-123088122D01*
X137195148Y-123124489D01*
X137181200Y-123151728D01*
X137122665Y-123237429D01*
X137050619Y-123306617D01*
X136966947Y-123357741D01*
X136873531Y-123389250D01*
X136840434Y-123396225D01*
X136799960Y-123403094D01*
X136766999Y-123404919D01*
X136732698Y-123401947D01*
X136688200Y-123394426D01*
X136636934Y-123382002D01*
X136546434Y-123344112D01*
X136467345Y-123289836D01*
X136401528Y-123221770D01*
X136350840Y-123142511D01*
X136317140Y-123054654D01*
X136302286Y-122960795D01*
X136308136Y-122863530D01*
X136334399Y-122767220D01*
X136379418Y-122678494D01*
X136440373Y-122603419D01*
X136515184Y-122543641D01*
X136601768Y-122500809D01*
X136698043Y-122476571D01*
X136801928Y-122472576D01*
X136879562Y-122482850D01*
G36*
X136879562Y-122482850D02*
G01*
X136962313Y-122510053D01*
X137037406Y-122555484D01*
X137109298Y-122621302D01*
X137147846Y-122665567D01*
X137187256Y-122723961D01*
X137212446Y-122784586D01*
X137225861Y-122853865D01*
X137229948Y-122938222D01*
X137229669Y-122984307D01*
X137227460Y-123025450D01*
X137221894Y-123057582D01*
X137211586Y-123088122D01*
X137195148Y-123124489D01*
X137181200Y-123151728D01*
X137122665Y-123237429D01*
X137050619Y-123306617D01*
X136966947Y-123357741D01*
X136873531Y-123389250D01*
X136840434Y-123396225D01*
X136799960Y-123403094D01*
X136766999Y-123404919D01*
X136732698Y-123401947D01*
X136688200Y-123394426D01*
X136636934Y-123382002D01*
X136546434Y-123344112D01*
X136467345Y-123289836D01*
X136401528Y-123221770D01*
X136350840Y-123142511D01*
X136317140Y-123054654D01*
X136302286Y-122960795D01*
X136308136Y-122863530D01*
X136334399Y-122767220D01*
X136379418Y-122678494D01*
X136440373Y-122603419D01*
X136515184Y-122543641D01*
X136601768Y-122500809D01*
X136698043Y-122476571D01*
X136801928Y-122472576D01*
X136879562Y-122482850D01*
G37*
X129580767Y-127719068D02*
X129674890Y-127719158D01*
X129749405Y-127719498D01*
X129806811Y-127720239D01*
X129849611Y-127721535D01*
X129880304Y-127723537D01*
X129901391Y-127726396D01*
X129915373Y-127730266D01*
X129924750Y-127735298D01*
X129932022Y-127741645D01*
X129950828Y-127774362D01*
X129952275Y-127811939D01*
X129935917Y-127845178D01*
X129934557Y-127846631D01*
X129923354Y-127854992D01*
X129906252Y-127860547D01*
X129879082Y-127863840D01*
X129837678Y-127865418D01*
X129777873Y-127865822D01*
X129638511Y-127865822D01*
X129638511Y-128129589D01*
X129638436Y-128205417D01*
X129638028Y-128272083D01*
X129637046Y-128321867D01*
X129635250Y-128357784D01*
X129632399Y-128382850D01*
X129628253Y-128400081D01*
X129622571Y-128412492D01*
X129615114Y-128423100D01*
X129612824Y-128425906D01*
X129581646Y-128448548D01*
X129547266Y-128450112D01*
X129514334Y-128430267D01*
X129507355Y-128422191D01*
X129501883Y-128411593D01*
X129497863Y-128395749D01*
X129495072Y-128371773D01*
X129493288Y-128336774D01*
X129492289Y-128287864D01*
X129491852Y-128222154D01*
X129491756Y-128136756D01*
X129491756Y-127865822D01*
X129345820Y-127865822D01*
X129334720Y-127865821D01*
X129278202Y-127865596D01*
X129239358Y-127864457D01*
X129213965Y-127861657D01*
X129197804Y-127856450D01*
X129186652Y-127848089D01*
X129176289Y-127835826D01*
X129160441Y-127805138D01*
X129163543Y-127771358D01*
X129189187Y-127738822D01*
X129194129Y-127735105D01*
X129204338Y-127730269D01*
X129219764Y-127726506D01*
X129242886Y-127723683D01*
X129276183Y-127721670D01*
X129322137Y-127720333D01*
X129383228Y-127719542D01*
X129461935Y-127719163D01*
X129560740Y-127719067D01*
X129580767Y-127719068D01*
G36*
X129580767Y-127719068D02*
G01*
X129674890Y-127719158D01*
X129749405Y-127719498D01*
X129806811Y-127720239D01*
X129849611Y-127721535D01*
X129880304Y-127723537D01*
X129901391Y-127726396D01*
X129915373Y-127730266D01*
X129924750Y-127735298D01*
X129932022Y-127741645D01*
X129950828Y-127774362D01*
X129952275Y-127811939D01*
X129935917Y-127845178D01*
X129934557Y-127846631D01*
X129923354Y-127854992D01*
X129906252Y-127860547D01*
X129879082Y-127863840D01*
X129837678Y-127865418D01*
X129777873Y-127865822D01*
X129638511Y-127865822D01*
X129638511Y-128129589D01*
X129638436Y-128205417D01*
X129638028Y-128272083D01*
X129637046Y-128321867D01*
X129635250Y-128357784D01*
X129632399Y-128382850D01*
X129628253Y-128400081D01*
X129622571Y-128412492D01*
X129615114Y-128423100D01*
X129612824Y-128425906D01*
X129581646Y-128448548D01*
X129547266Y-128450112D01*
X129514334Y-128430267D01*
X129507355Y-128422191D01*
X129501883Y-128411593D01*
X129497863Y-128395749D01*
X129495072Y-128371773D01*
X129493288Y-128336774D01*
X129492289Y-128287864D01*
X129491852Y-128222154D01*
X129491756Y-128136756D01*
X129491756Y-127865822D01*
X129345820Y-127865822D01*
X129334720Y-127865821D01*
X129278202Y-127865596D01*
X129239358Y-127864457D01*
X129213965Y-127861657D01*
X129197804Y-127856450D01*
X129186652Y-127848089D01*
X129176289Y-127835826D01*
X129160441Y-127805138D01*
X129163543Y-127771358D01*
X129189187Y-127738822D01*
X129194129Y-127735105D01*
X129204338Y-127730269D01*
X129219764Y-127726506D01*
X129242886Y-127723683D01*
X129276183Y-127721670D01*
X129322137Y-127720333D01*
X129383228Y-127719542D01*
X129461935Y-127719163D01*
X129560740Y-127719067D01*
X129580767Y-127719068D01*
G37*
X128904734Y-127741645D02*
X128910366Y-127747835D01*
X128915456Y-127756041D01*
X128919543Y-127767817D01*
X128922721Y-127785276D01*
X128925087Y-127810530D01*
X128926738Y-127845690D01*
X128927769Y-127892869D01*
X128928277Y-127954177D01*
X128928359Y-128031727D01*
X128928109Y-128127631D01*
X128927625Y-128244000D01*
X128927557Y-128258175D01*
X128926971Y-128319937D01*
X128925648Y-128363620D01*
X128923103Y-128393001D01*
X128918848Y-128411855D01*
X128912396Y-128423959D01*
X128903262Y-128433089D01*
X128869804Y-128450506D01*
X128834856Y-128447604D01*
X128803953Y-128423100D01*
X128794944Y-128409897D01*
X128787492Y-128391361D01*
X128783124Y-128365333D01*
X128781069Y-128326787D01*
X128780556Y-128270700D01*
X128780556Y-128148045D01*
X128283845Y-128148045D01*
X128283845Y-128282871D01*
X128283772Y-128318662D01*
X128283009Y-128364992D01*
X128280833Y-128395526D01*
X128276536Y-128414557D01*
X128269412Y-128426374D01*
X128258755Y-128435271D01*
X128226504Y-128450341D01*
X128191217Y-128447673D01*
X128160486Y-128423100D01*
X128155831Y-128416845D01*
X128149895Y-128406321D01*
X128145364Y-128392391D01*
X128142048Y-128372317D01*
X128139759Y-128343360D01*
X128138308Y-128302780D01*
X128137505Y-128247840D01*
X128137162Y-128175799D01*
X128137089Y-128083920D01*
X128137089Y-127774485D01*
X128164798Y-127746776D01*
X128196177Y-127724533D01*
X128229406Y-127721844D01*
X128261267Y-127741645D01*
X128269553Y-127751415D01*
X128276965Y-127767307D01*
X128281302Y-127791275D01*
X128283338Y-127828148D01*
X128283845Y-127882756D01*
X128283845Y-128001289D01*
X128780556Y-128001289D01*
X128780556Y-127885776D01*
X128780994Y-127834078D01*
X128782958Y-127799554D01*
X128787474Y-127776978D01*
X128795567Y-127761126D01*
X128808265Y-127746776D01*
X128839643Y-127724533D01*
X128872872Y-127721844D01*
X128904734Y-127741645D01*
G36*
X128904734Y-127741645D02*
G01*
X128910366Y-127747835D01*
X128915456Y-127756041D01*
X128919543Y-127767817D01*
X128922721Y-127785276D01*
X128925087Y-127810530D01*
X128926738Y-127845690D01*
X128927769Y-127892869D01*
X128928277Y-127954177D01*
X128928359Y-128031727D01*
X128928109Y-128127631D01*
X128927625Y-128244000D01*
X128927557Y-128258175D01*
X128926971Y-128319937D01*
X128925648Y-128363620D01*
X128923103Y-128393001D01*
X128918848Y-128411855D01*
X128912396Y-128423959D01*
X128903262Y-128433089D01*
X128869804Y-128450506D01*
X128834856Y-128447604D01*
X128803953Y-128423100D01*
X128794944Y-128409897D01*
X128787492Y-128391361D01*
X128783124Y-128365333D01*
X128781069Y-128326787D01*
X128780556Y-128270700D01*
X128780556Y-128148045D01*
X128283845Y-128148045D01*
X128283845Y-128282871D01*
X128283772Y-128318662D01*
X128283009Y-128364992D01*
X128280833Y-128395526D01*
X128276536Y-128414557D01*
X128269412Y-128426374D01*
X128258755Y-128435271D01*
X128226504Y-128450341D01*
X128191217Y-128447673D01*
X128160486Y-128423100D01*
X128155831Y-128416845D01*
X128149895Y-128406321D01*
X128145364Y-128392391D01*
X128142048Y-128372317D01*
X128139759Y-128343360D01*
X128138308Y-128302780D01*
X128137505Y-128247840D01*
X128137162Y-128175799D01*
X128137089Y-128083920D01*
X128137089Y-127774485D01*
X128164798Y-127746776D01*
X128196177Y-127724533D01*
X128229406Y-127721844D01*
X128261267Y-127741645D01*
X128269553Y-127751415D01*
X128276965Y-127767307D01*
X128281302Y-127791275D01*
X128283338Y-127828148D01*
X128283845Y-127882756D01*
X128283845Y-128001289D01*
X128780556Y-128001289D01*
X128780556Y-127885776D01*
X128780994Y-127834078D01*
X128782958Y-127799554D01*
X128787474Y-127776978D01*
X128795567Y-127761126D01*
X128808265Y-127746776D01*
X128839643Y-127724533D01*
X128872872Y-127721844D01*
X128904734Y-127741645D01*
G37*
X133610133Y-128330396D02*
X133608163Y-128363175D01*
X133605235Y-128386095D01*
X133601158Y-128401897D01*
X133595743Y-128413319D01*
X133588803Y-128423100D01*
X133565406Y-128452845D01*
X133399714Y-128452251D01*
X133364918Y-128451953D01*
X133266435Y-128448522D01*
X133185473Y-128440839D01*
X133118379Y-128428282D01*
X133061496Y-128410227D01*
X133011169Y-128386052D01*
X133007810Y-128384135D01*
X132949998Y-128347417D01*
X132907644Y-128310451D01*
X132874828Y-128266966D01*
X132845628Y-128210689D01*
X132841346Y-128201073D01*
X132818769Y-128137887D01*
X132813034Y-128092333D01*
X132962279Y-128092333D01*
X132967892Y-128117061D01*
X132973618Y-128132939D01*
X133006548Y-128192847D01*
X133053886Y-128238600D01*
X133117652Y-128271736D01*
X133199861Y-128293790D01*
X133202655Y-128294292D01*
X133248940Y-128300255D01*
X133305336Y-128304483D01*
X133360274Y-128306089D01*
X133454156Y-128306089D01*
X133454156Y-127865822D01*
X133366667Y-127866270D01*
X133299747Y-127868746D01*
X133207349Y-127879998D01*
X133128034Y-127899537D01*
X133066060Y-127926511D01*
X133035120Y-127947240D01*
X133007000Y-127977006D01*
X132983660Y-128019434D01*
X132976533Y-128035400D01*
X132964709Y-128067902D01*
X132962279Y-128092333D01*
X132813034Y-128092333D01*
X132811797Y-128082509D01*
X132820399Y-128027483D01*
X132844541Y-127965351D01*
X132845337Y-127963658D01*
X132885788Y-127894236D01*
X132936473Y-127837638D01*
X132999198Y-127793070D01*
X133075774Y-127759741D01*
X133168009Y-127736861D01*
X133277712Y-127723636D01*
X133406691Y-127719275D01*
X133410263Y-127719270D01*
X133470283Y-127719410D01*
X133512214Y-127720446D01*
X133540328Y-127723040D01*
X133558897Y-127727853D01*
X133572194Y-127735544D01*
X133584491Y-127746776D01*
X133612200Y-127774485D01*
X133612200Y-128083920D01*
X133612175Y-128145526D01*
X133611950Y-128224311D01*
X133611332Y-128285021D01*
X133610775Y-128306089D01*
X133610133Y-128330396D01*
G36*
X133610133Y-128330396D02*
G01*
X133608163Y-128363175D01*
X133605235Y-128386095D01*
X133601158Y-128401897D01*
X133595743Y-128413319D01*
X133588803Y-128423100D01*
X133565406Y-128452845D01*
X133399714Y-128452251D01*
X133364918Y-128451953D01*
X133266435Y-128448522D01*
X133185473Y-128440839D01*
X133118379Y-128428282D01*
X133061496Y-128410227D01*
X133011169Y-128386052D01*
X133007810Y-128384135D01*
X132949998Y-128347417D01*
X132907644Y-128310451D01*
X132874828Y-128266966D01*
X132845628Y-128210689D01*
X132841346Y-128201073D01*
X132818769Y-128137887D01*
X132813034Y-128092333D01*
X132962279Y-128092333D01*
X132967892Y-128117061D01*
X132973618Y-128132939D01*
X133006548Y-128192847D01*
X133053886Y-128238600D01*
X133117652Y-128271736D01*
X133199861Y-128293790D01*
X133202655Y-128294292D01*
X133248940Y-128300255D01*
X133305336Y-128304483D01*
X133360274Y-128306089D01*
X133454156Y-128306089D01*
X133454156Y-127865822D01*
X133366667Y-127866270D01*
X133299747Y-127868746D01*
X133207349Y-127879998D01*
X133128034Y-127899537D01*
X133066060Y-127926511D01*
X133035120Y-127947240D01*
X133007000Y-127977006D01*
X132983660Y-128019434D01*
X132976533Y-128035400D01*
X132964709Y-128067902D01*
X132962279Y-128092333D01*
X132813034Y-128092333D01*
X132811797Y-128082509D01*
X132820399Y-128027483D01*
X132844541Y-127965351D01*
X132845337Y-127963658D01*
X132885788Y-127894236D01*
X132936473Y-127837638D01*
X132999198Y-127793070D01*
X133075774Y-127759741D01*
X133168009Y-127736861D01*
X133277712Y-127723636D01*
X133406691Y-127719275D01*
X133410263Y-127719270D01*
X133470283Y-127719410D01*
X133512214Y-127720446D01*
X133540328Y-127723040D01*
X133558897Y-127727853D01*
X133572194Y-127735544D01*
X133584491Y-127746776D01*
X133612200Y-127774485D01*
X133612200Y-128083920D01*
X133612175Y-128145526D01*
X133611950Y-128224311D01*
X133611332Y-128285021D01*
X133610775Y-128306089D01*
X133610133Y-128330396D01*
G37*
X140701817Y-127904427D02*
X140701870Y-127985041D01*
X140701622Y-128085956D01*
X140701583Y-128161617D01*
X140701328Y-128239526D01*
X140700684Y-128299536D01*
X140699480Y-128344264D01*
X140697543Y-128376326D01*
X140694703Y-128398340D01*
X140690788Y-128412924D01*
X140685626Y-128422694D01*
X140679045Y-128430267D01*
X140672077Y-128436501D01*
X140659079Y-128443801D01*
X140639931Y-128448554D01*
X140610528Y-128451292D01*
X140566762Y-128452545D01*
X140504528Y-128452845D01*
X140455582Y-128452469D01*
X140348722Y-128448041D01*
X140259494Y-128437953D01*
X140184696Y-128421365D01*
X140121125Y-128397435D01*
X140065579Y-128365321D01*
X140014854Y-128324182D01*
X140008866Y-128318330D01*
X139971999Y-128269821D01*
X139940899Y-128209013D01*
X139919417Y-128144769D01*
X139914136Y-128106026D01*
X140061353Y-128106026D01*
X140079635Y-128156961D01*
X140109305Y-128202878D01*
X140156002Y-128245287D01*
X140217392Y-128275090D01*
X140296538Y-128294226D01*
X140298028Y-128294464D01*
X140346999Y-128300256D01*
X140405693Y-128304396D01*
X140461734Y-128306004D01*
X140554867Y-128306089D01*
X140554867Y-127865822D01*
X140478667Y-127865808D01*
X140475639Y-127865817D01*
X140424519Y-127867782D01*
X140364416Y-127872507D01*
X140307708Y-127879035D01*
X140257750Y-127888331D01*
X140182998Y-127914600D01*
X140125489Y-127953899D01*
X140083988Y-128006933D01*
X140062771Y-128058200D01*
X140061353Y-128106026D01*
X139914136Y-128106026D01*
X139911400Y-128085956D01*
X139912679Y-128064739D01*
X139924991Y-128007323D01*
X139947520Y-127947413D01*
X139976750Y-127893363D01*
X140009167Y-127853532D01*
X140028708Y-127836510D01*
X140083420Y-127797322D01*
X140143723Y-127767193D01*
X140212919Y-127745232D01*
X140294311Y-127730550D01*
X140391200Y-127722259D01*
X140506889Y-127719467D01*
X140546371Y-127719066D01*
X140592082Y-127718653D01*
X140627883Y-127720457D01*
X140654974Y-127726739D01*
X140674556Y-127739759D01*
X140687830Y-127761778D01*
X140695998Y-127795055D01*
X140700260Y-127841851D01*
X140700857Y-127865822D01*
X140701817Y-127904427D01*
G36*
X140701817Y-127904427D02*
G01*
X140701870Y-127985041D01*
X140701622Y-128085956D01*
X140701583Y-128161617D01*
X140701328Y-128239526D01*
X140700684Y-128299536D01*
X140699480Y-128344264D01*
X140697543Y-128376326D01*
X140694703Y-128398340D01*
X140690788Y-128412924D01*
X140685626Y-128422694D01*
X140679045Y-128430267D01*
X140672077Y-128436501D01*
X140659079Y-128443801D01*
X140639931Y-128448554D01*
X140610528Y-128451292D01*
X140566762Y-128452545D01*
X140504528Y-128452845D01*
X140455582Y-128452469D01*
X140348722Y-128448041D01*
X140259494Y-128437953D01*
X140184696Y-128421365D01*
X140121125Y-128397435D01*
X140065579Y-128365321D01*
X140014854Y-128324182D01*
X140008866Y-128318330D01*
X139971999Y-128269821D01*
X139940899Y-128209013D01*
X139919417Y-128144769D01*
X139914136Y-128106026D01*
X140061353Y-128106026D01*
X140079635Y-128156961D01*
X140109305Y-128202878D01*
X140156002Y-128245287D01*
X140217392Y-128275090D01*
X140296538Y-128294226D01*
X140298028Y-128294464D01*
X140346999Y-128300256D01*
X140405693Y-128304396D01*
X140461734Y-128306004D01*
X140554867Y-128306089D01*
X140554867Y-127865822D01*
X140478667Y-127865808D01*
X140475639Y-127865817D01*
X140424519Y-127867782D01*
X140364416Y-127872507D01*
X140307708Y-127879035D01*
X140257750Y-127888331D01*
X140182998Y-127914600D01*
X140125489Y-127953899D01*
X140083988Y-128006933D01*
X140062771Y-128058200D01*
X140061353Y-128106026D01*
X139914136Y-128106026D01*
X139911400Y-128085956D01*
X139912679Y-128064739D01*
X139924991Y-128007323D01*
X139947520Y-127947413D01*
X139976750Y-127893363D01*
X140009167Y-127853532D01*
X140028708Y-127836510D01*
X140083420Y-127797322D01*
X140143723Y-127767193D01*
X140212919Y-127745232D01*
X140294311Y-127730550D01*
X140391200Y-127722259D01*
X140506889Y-127719467D01*
X140546371Y-127719066D01*
X140592082Y-127718653D01*
X140627883Y-127720457D01*
X140654974Y-127726739D01*
X140674556Y-127739759D01*
X140687830Y-127761778D01*
X140695998Y-127795055D01*
X140700260Y-127841851D01*
X140700857Y-127865822D01*
X140701817Y-127904427D01*
G37*
X135756893Y-127717892D02*
X135768301Y-127724029D01*
X135778850Y-127734691D01*
X135790136Y-127748811D01*
X135794589Y-127754772D01*
X135800588Y-127765268D01*
X135805167Y-127779093D01*
X135808519Y-127798998D01*
X135810833Y-127827732D01*
X135812301Y-127868045D01*
X135813113Y-127922687D01*
X135813460Y-127994407D01*
X135813534Y-128085956D01*
X135813511Y-128144486D01*
X135813292Y-128223573D01*
X135812683Y-128284516D01*
X135811492Y-128330062D01*
X135809529Y-128362963D01*
X135806603Y-128385968D01*
X135802523Y-128401826D01*
X135797097Y-128413286D01*
X135790136Y-128423100D01*
X135759708Y-128447493D01*
X135724765Y-128450372D01*
X135687784Y-128431282D01*
X135683600Y-128427807D01*
X135675424Y-128419279D01*
X135669364Y-128407728D01*
X135664981Y-128389896D01*
X135661839Y-128362524D01*
X135659502Y-128322354D01*
X135657531Y-128266128D01*
X135655489Y-128190589D01*
X135649845Y-127971458D01*
X135384556Y-128212099D01*
X135310722Y-128278875D01*
X135245542Y-128336991D01*
X135193348Y-128381949D01*
X135152273Y-128414871D01*
X135120455Y-128436879D01*
X135096026Y-128449094D01*
X135077124Y-128452639D01*
X135061883Y-128448636D01*
X135048439Y-128438207D01*
X135034927Y-128422474D01*
X135028682Y-128413991D01*
X135023050Y-128403413D01*
X135018839Y-128389255D01*
X135015887Y-128368803D01*
X135014032Y-128339342D01*
X135013113Y-128298161D01*
X135012968Y-128242544D01*
X135013435Y-128169779D01*
X135014352Y-128077151D01*
X135017667Y-127762199D01*
X135044318Y-127740633D01*
X135070383Y-127724441D01*
X135103241Y-127721670D01*
X135137772Y-127740623D01*
X135142084Y-127744208D01*
X135150216Y-127752737D01*
X135156245Y-127764329D01*
X135160606Y-127782235D01*
X135163734Y-127809706D01*
X135166063Y-127849994D01*
X135168029Y-127906351D01*
X135170067Y-127982029D01*
X135175711Y-128201878D01*
X135356334Y-128038084D01*
X135443072Y-127959451D01*
X135518843Y-127891058D01*
X135580980Y-127835708D01*
X135631078Y-127792338D01*
X135670735Y-127759881D01*
X135701548Y-127737273D01*
X135725114Y-127723448D01*
X135743030Y-127717343D01*
X135756893Y-127717892D01*
G36*
X135756893Y-127717892D02*
G01*
X135768301Y-127724029D01*
X135778850Y-127734691D01*
X135790136Y-127748811D01*
X135794589Y-127754772D01*
X135800588Y-127765268D01*
X135805167Y-127779093D01*
X135808519Y-127798998D01*
X135810833Y-127827732D01*
X135812301Y-127868045D01*
X135813113Y-127922687D01*
X135813460Y-127994407D01*
X135813534Y-128085956D01*
X135813511Y-128144486D01*
X135813292Y-128223573D01*
X135812683Y-128284516D01*
X135811492Y-128330062D01*
X135809529Y-128362963D01*
X135806603Y-128385968D01*
X135802523Y-128401826D01*
X135797097Y-128413286D01*
X135790136Y-128423100D01*
X135759708Y-128447493D01*
X135724765Y-128450372D01*
X135687784Y-128431282D01*
X135683600Y-128427807D01*
X135675424Y-128419279D01*
X135669364Y-128407728D01*
X135664981Y-128389896D01*
X135661839Y-128362524D01*
X135659502Y-128322354D01*
X135657531Y-128266128D01*
X135655489Y-128190589D01*
X135649845Y-127971458D01*
X135384556Y-128212099D01*
X135310722Y-128278875D01*
X135245542Y-128336991D01*
X135193348Y-128381949D01*
X135152273Y-128414871D01*
X135120455Y-128436879D01*
X135096026Y-128449094D01*
X135077124Y-128452639D01*
X135061883Y-128448636D01*
X135048439Y-128438207D01*
X135034927Y-128422474D01*
X135028682Y-128413991D01*
X135023050Y-128403413D01*
X135018839Y-128389255D01*
X135015887Y-128368803D01*
X135014032Y-128339342D01*
X135013113Y-128298161D01*
X135012968Y-128242544D01*
X135013435Y-128169779D01*
X135014352Y-128077151D01*
X135017667Y-127762199D01*
X135044318Y-127740633D01*
X135070383Y-127724441D01*
X135103241Y-127721670D01*
X135137772Y-127740623D01*
X135142084Y-127744208D01*
X135150216Y-127752737D01*
X135156245Y-127764329D01*
X135160606Y-127782235D01*
X135163734Y-127809706D01*
X135166063Y-127849994D01*
X135168029Y-127906351D01*
X135170067Y-127982029D01*
X135175711Y-128201878D01*
X135356334Y-128038084D01*
X135443072Y-127959451D01*
X135518843Y-127891058D01*
X135580980Y-127835708D01*
X135631078Y-127792338D01*
X135670735Y-127759881D01*
X135701548Y-127737273D01*
X135725114Y-127723448D01*
X135743030Y-127717343D01*
X135756893Y-127717892D01*
G37*
X136554150Y-127724179D02*
X136660157Y-127740494D01*
X136753969Y-127768545D01*
X136832765Y-127807452D01*
X136893719Y-127856334D01*
X136919789Y-127889195D01*
X136949297Y-127938394D01*
X136974568Y-127992252D01*
X136992218Y-128043419D01*
X136998858Y-128084544D01*
X136997298Y-128104259D01*
X136984357Y-128155592D01*
X136961194Y-128212118D01*
X136931302Y-128266035D01*
X136898173Y-128309539D01*
X136887977Y-128319887D01*
X136820892Y-128371662D01*
X136740766Y-128411554D01*
X136654556Y-128435956D01*
X136599592Y-128444068D01*
X136506139Y-128450673D01*
X136416358Y-128448586D01*
X136333869Y-128438340D01*
X136262286Y-128420470D01*
X136205228Y-128395508D01*
X136166311Y-128363988D01*
X136164936Y-128362012D01*
X136157848Y-128336786D01*
X136153609Y-128289535D01*
X136152200Y-128220071D01*
X136153060Y-128157838D01*
X136157780Y-128110456D01*
X136169470Y-128078353D01*
X136191239Y-128058800D01*
X136226198Y-128049070D01*
X136277456Y-128046433D01*
X136348123Y-128048161D01*
X136396743Y-128051173D01*
X136446939Y-128059366D01*
X136479433Y-128073419D01*
X136496892Y-128094654D01*
X136501983Y-128124394D01*
X136501877Y-128128936D01*
X136493175Y-128163730D01*
X136469165Y-128187147D01*
X136427900Y-128200347D01*
X136367431Y-128204489D01*
X136298956Y-128204489D01*
X136298956Y-128242841D01*
X136299006Y-128251976D01*
X136301227Y-128269227D01*
X136310494Y-128279521D01*
X136331875Y-128286459D01*
X136370436Y-128293641D01*
X136375910Y-128294575D01*
X136472860Y-128304478D01*
X136562852Y-128301559D01*
X136643760Y-128286829D01*
X136713459Y-128261299D01*
X136769824Y-128225978D01*
X136810729Y-128181879D01*
X136834051Y-128130012D01*
X136837663Y-128071388D01*
X136832145Y-128042494D01*
X136805461Y-127986604D01*
X136759273Y-127940945D01*
X136694291Y-127906108D01*
X136611229Y-127882690D01*
X136586555Y-127878241D01*
X136497226Y-127867742D01*
X136417419Y-127868971D01*
X136339326Y-127881906D01*
X136304183Y-127888696D01*
X136258745Y-127889713D01*
X136227430Y-127877182D01*
X136207277Y-127850395D01*
X136200893Y-127822148D01*
X136210379Y-127790924D01*
X136219708Y-127777499D01*
X136253943Y-127753967D01*
X136306565Y-127736095D01*
X136375081Y-127724599D01*
X136457000Y-127720192D01*
X136554150Y-127724179D01*
G36*
X136554150Y-127724179D02*
G01*
X136660157Y-127740494D01*
X136753969Y-127768545D01*
X136832765Y-127807452D01*
X136893719Y-127856334D01*
X136919789Y-127889195D01*
X136949297Y-127938394D01*
X136974568Y-127992252D01*
X136992218Y-128043419D01*
X136998858Y-128084544D01*
X136997298Y-128104259D01*
X136984357Y-128155592D01*
X136961194Y-128212118D01*
X136931302Y-128266035D01*
X136898173Y-128309539D01*
X136887977Y-128319887D01*
X136820892Y-128371662D01*
X136740766Y-128411554D01*
X136654556Y-128435956D01*
X136599592Y-128444068D01*
X136506139Y-128450673D01*
X136416358Y-128448586D01*
X136333869Y-128438340D01*
X136262286Y-128420470D01*
X136205228Y-128395508D01*
X136166311Y-128363988D01*
X136164936Y-128362012D01*
X136157848Y-128336786D01*
X136153609Y-128289535D01*
X136152200Y-128220071D01*
X136153060Y-128157838D01*
X136157780Y-128110456D01*
X136169470Y-128078353D01*
X136191239Y-128058800D01*
X136226198Y-128049070D01*
X136277456Y-128046433D01*
X136348123Y-128048161D01*
X136396743Y-128051173D01*
X136446939Y-128059366D01*
X136479433Y-128073419D01*
X136496892Y-128094654D01*
X136501983Y-128124394D01*
X136501877Y-128128936D01*
X136493175Y-128163730D01*
X136469165Y-128187147D01*
X136427900Y-128200347D01*
X136367431Y-128204489D01*
X136298956Y-128204489D01*
X136298956Y-128242841D01*
X136299006Y-128251976D01*
X136301227Y-128269227D01*
X136310494Y-128279521D01*
X136331875Y-128286459D01*
X136370436Y-128293641D01*
X136375910Y-128294575D01*
X136472860Y-128304478D01*
X136562852Y-128301559D01*
X136643760Y-128286829D01*
X136713459Y-128261299D01*
X136769824Y-128225978D01*
X136810729Y-128181879D01*
X136834051Y-128130012D01*
X136837663Y-128071388D01*
X136832145Y-128042494D01*
X136805461Y-127986604D01*
X136759273Y-127940945D01*
X136694291Y-127906108D01*
X136611229Y-127882690D01*
X136586555Y-127878241D01*
X136497226Y-127867742D01*
X136417419Y-127868971D01*
X136339326Y-127881906D01*
X136304183Y-127888696D01*
X136258745Y-127889713D01*
X136227430Y-127877182D01*
X136207277Y-127850395D01*
X136200893Y-127822148D01*
X136210379Y-127790924D01*
X136219708Y-127777499D01*
X136253943Y-127753967D01*
X136306565Y-127736095D01*
X136375081Y-127724599D01*
X136457000Y-127720192D01*
X136554150Y-127724179D01*
G37*
X134604803Y-127748811D02*
X134609752Y-127755495D01*
X134615596Y-127766066D01*
X134620057Y-127780153D01*
X134623321Y-127800478D01*
X134625574Y-127829765D01*
X134627002Y-127870737D01*
X134627792Y-127926117D01*
X134628129Y-127998628D01*
X134628200Y-128090994D01*
X134628171Y-128156911D01*
X134627939Y-128235228D01*
X134627319Y-128295496D01*
X134626126Y-128340393D01*
X134624179Y-128372602D01*
X134621294Y-128394800D01*
X134617288Y-128409669D01*
X134611979Y-128419889D01*
X134605183Y-128428138D01*
X134600668Y-128432795D01*
X134592438Y-128439282D01*
X134581078Y-128444194D01*
X134563810Y-128447749D01*
X134537855Y-128450167D01*
X134500436Y-128451667D01*
X134448773Y-128452467D01*
X134380089Y-128452787D01*
X134291606Y-128452845D01*
X134271931Y-128452838D01*
X134184906Y-128452572D01*
X134117254Y-128451806D01*
X134066299Y-128450392D01*
X134029367Y-128448180D01*
X134003783Y-128445022D01*
X133986871Y-128440769D01*
X133975957Y-128435271D01*
X133965464Y-128425285D01*
X133952203Y-128394168D01*
X133953386Y-128358280D01*
X133969550Y-128326733D01*
X133971739Y-128324457D01*
X133980427Y-128318189D01*
X133993769Y-128313523D01*
X134014752Y-128310227D01*
X134046363Y-128308068D01*
X134091590Y-128306814D01*
X134153420Y-128306231D01*
X134234839Y-128306089D01*
X134481445Y-128306089D01*
X134481445Y-128148045D01*
X134319006Y-128148045D01*
X134283338Y-128147964D01*
X134227568Y-128147167D01*
X134188430Y-128145162D01*
X134161976Y-128141521D01*
X134144259Y-128135812D01*
X134131329Y-128127607D01*
X134127686Y-128124423D01*
X134109278Y-128093448D01*
X134108644Y-128057112D01*
X134126183Y-128023493D01*
X134126245Y-128023424D01*
X134135916Y-128014798D01*
X134149209Y-128008742D01*
X134169917Y-128004811D01*
X134201828Y-128002556D01*
X134248734Y-128001531D01*
X134314424Y-128001289D01*
X134482571Y-128001289D01*
X134479186Y-127936378D01*
X134475800Y-127871467D01*
X134233723Y-127868414D01*
X134208707Y-127868086D01*
X134127087Y-127866606D01*
X134064768Y-127864222D01*
X134019154Y-127860227D01*
X133987652Y-127853913D01*
X133967667Y-127844574D01*
X133956604Y-127831503D01*
X133951869Y-127813992D01*
X133950867Y-127791335D01*
X133950873Y-127788970D01*
X133952027Y-127768939D01*
X133956824Y-127753146D01*
X133967632Y-127741090D01*
X133986817Y-127732267D01*
X134016745Y-127726175D01*
X134059783Y-127722311D01*
X134118299Y-127720174D01*
X134194657Y-127719260D01*
X134291226Y-127719067D01*
X134581406Y-127719067D01*
X134604803Y-127748811D01*
G36*
X134604803Y-127748811D02*
G01*
X134609752Y-127755495D01*
X134615596Y-127766066D01*
X134620057Y-127780153D01*
X134623321Y-127800478D01*
X134625574Y-127829765D01*
X134627002Y-127870737D01*
X134627792Y-127926117D01*
X134628129Y-127998628D01*
X134628200Y-128090994D01*
X134628171Y-128156911D01*
X134627939Y-128235228D01*
X134627319Y-128295496D01*
X134626126Y-128340393D01*
X134624179Y-128372602D01*
X134621294Y-128394800D01*
X134617288Y-128409669D01*
X134611979Y-128419889D01*
X134605183Y-128428138D01*
X134600668Y-128432795D01*
X134592438Y-128439282D01*
X134581078Y-128444194D01*
X134563810Y-128447749D01*
X134537855Y-128450167D01*
X134500436Y-128451667D01*
X134448773Y-128452467D01*
X134380089Y-128452787D01*
X134291606Y-128452845D01*
X134271931Y-128452838D01*
X134184906Y-128452572D01*
X134117254Y-128451806D01*
X134066299Y-128450392D01*
X134029367Y-128448180D01*
X134003783Y-128445022D01*
X133986871Y-128440769D01*
X133975957Y-128435271D01*
X133965464Y-128425285D01*
X133952203Y-128394168D01*
X133953386Y-128358280D01*
X133969550Y-128326733D01*
X133971739Y-128324457D01*
X133980427Y-128318189D01*
X133993769Y-128313523D01*
X134014752Y-128310227D01*
X134046363Y-128308068D01*
X134091590Y-128306814D01*
X134153420Y-128306231D01*
X134234839Y-128306089D01*
X134481445Y-128306089D01*
X134481445Y-128148045D01*
X134319006Y-128148045D01*
X134283338Y-128147964D01*
X134227568Y-128147167D01*
X134188430Y-128145162D01*
X134161976Y-128141521D01*
X134144259Y-128135812D01*
X134131329Y-128127607D01*
X134127686Y-128124423D01*
X134109278Y-128093448D01*
X134108644Y-128057112D01*
X134126183Y-128023493D01*
X134126245Y-128023424D01*
X134135916Y-128014798D01*
X134149209Y-128008742D01*
X134169917Y-128004811D01*
X134201828Y-128002556D01*
X134248734Y-128001531D01*
X134314424Y-128001289D01*
X134482571Y-128001289D01*
X134479186Y-127936378D01*
X134475800Y-127871467D01*
X134233723Y-127868414D01*
X134208707Y-127868086D01*
X134127087Y-127866606D01*
X134064768Y-127864222D01*
X134019154Y-127860227D01*
X133987652Y-127853913D01*
X133967667Y-127844574D01*
X133956604Y-127831503D01*
X133951869Y-127813992D01*
X133950867Y-127791335D01*
X133950873Y-127788970D01*
X133952027Y-127768939D01*
X133956824Y-127753146D01*
X133967632Y-127741090D01*
X133986817Y-127732267D01*
X134016745Y-127726175D01*
X134059783Y-127722311D01*
X134118299Y-127720174D01*
X134194657Y-127719260D01*
X134291226Y-127719067D01*
X134581406Y-127719067D01*
X134604803Y-127748811D01*
G37*
X139281734Y-127719083D02*
X139358831Y-127719275D01*
X139417777Y-127719860D01*
X139461364Y-127721051D01*
X139492383Y-127723064D01*
X139513625Y-127726112D01*
X139527882Y-127730409D01*
X139537945Y-127736172D01*
X139546606Y-127743612D01*
X139548391Y-127745293D01*
X139555635Y-127752832D01*
X139561277Y-127761850D01*
X139565517Y-127774984D01*
X139568556Y-127794872D01*
X139570594Y-127824151D01*
X139571830Y-127865458D01*
X139572465Y-127921431D01*
X139572700Y-127994707D01*
X139572734Y-128087923D01*
X139572697Y-128160713D01*
X139572448Y-128238889D01*
X139571812Y-128299103D01*
X139570615Y-128343982D01*
X139568684Y-128376152D01*
X139565846Y-128398239D01*
X139561927Y-128412870D01*
X139556755Y-128422670D01*
X139550156Y-128430267D01*
X139546822Y-128433444D01*
X139538300Y-128439554D01*
X139526298Y-128444229D01*
X139508087Y-128447659D01*
X139480940Y-128450036D01*
X139442129Y-128451552D01*
X139388924Y-128452398D01*
X139318598Y-128452765D01*
X139228422Y-128452845D01*
X139186314Y-128452833D01*
X139105167Y-128452651D01*
X139042675Y-128452098D01*
X138996109Y-128450982D01*
X138962741Y-128449113D01*
X138939844Y-128446298D01*
X138924688Y-128442346D01*
X138914546Y-128437066D01*
X138906689Y-128430267D01*
X138891963Y-128408667D01*
X138884111Y-128379467D01*
X138889610Y-128355560D01*
X138906689Y-128328667D01*
X138911668Y-128324059D01*
X138921443Y-128317772D01*
X138935559Y-128313146D01*
X138957054Y-128309930D01*
X138988968Y-128307870D01*
X139034342Y-128306712D01*
X139096213Y-128306202D01*
X139177622Y-128306089D01*
X139425978Y-128306089D01*
X139425978Y-128148045D01*
X139264801Y-128148045D01*
X139228983Y-128147899D01*
X139163359Y-128146176D01*
X139116118Y-128141741D01*
X139084383Y-128133637D01*
X139065277Y-128120906D01*
X139055923Y-128102592D01*
X139053445Y-128077738D01*
X139054242Y-128057482D01*
X139059494Y-128035656D01*
X139072288Y-128020304D01*
X139095628Y-128010309D01*
X139132517Y-128004553D01*
X139185959Y-128001919D01*
X139258958Y-128001289D01*
X139427105Y-128001289D01*
X139423719Y-127936378D01*
X139420334Y-127871467D01*
X139172617Y-127868418D01*
X139110026Y-127867539D01*
X139041565Y-127866095D01*
X138990661Y-127864164D01*
X138954408Y-127861514D01*
X138929901Y-127857910D01*
X138914235Y-127853121D01*
X138904506Y-127846913D01*
X138898491Y-127840510D01*
X138885482Y-127808828D01*
X138889043Y-127773142D01*
X138908818Y-127742084D01*
X138912069Y-127739161D01*
X138921049Y-127732810D01*
X138933153Y-127727957D01*
X138951159Y-127724403D01*
X138977847Y-127721946D01*
X139015997Y-127720385D01*
X139068386Y-127719518D01*
X139137794Y-127719146D01*
X139227001Y-127719067D01*
X139281734Y-127719083D01*
G36*
X139281734Y-127719083D02*
G01*
X139358831Y-127719275D01*
X139417777Y-127719860D01*
X139461364Y-127721051D01*
X139492383Y-127723064D01*
X139513625Y-127726112D01*
X139527882Y-127730409D01*
X139537945Y-127736172D01*
X139546606Y-127743612D01*
X139548391Y-127745293D01*
X139555635Y-127752832D01*
X139561277Y-127761850D01*
X139565517Y-127774984D01*
X139568556Y-127794872D01*
X139570594Y-127824151D01*
X139571830Y-127865458D01*
X139572465Y-127921431D01*
X139572700Y-127994707D01*
X139572734Y-128087923D01*
X139572697Y-128160713D01*
X139572448Y-128238889D01*
X139571812Y-128299103D01*
X139570615Y-128343982D01*
X139568684Y-128376152D01*
X139565846Y-128398239D01*
X139561927Y-128412870D01*
X139556755Y-128422670D01*
X139550156Y-128430267D01*
X139546822Y-128433444D01*
X139538300Y-128439554D01*
X139526298Y-128444229D01*
X139508087Y-128447659D01*
X139480940Y-128450036D01*
X139442129Y-128451552D01*
X139388924Y-128452398D01*
X139318598Y-128452765D01*
X139228422Y-128452845D01*
X139186314Y-128452833D01*
X139105167Y-128452651D01*
X139042675Y-128452098D01*
X138996109Y-128450982D01*
X138962741Y-128449113D01*
X138939844Y-128446298D01*
X138924688Y-128442346D01*
X138914546Y-128437066D01*
X138906689Y-128430267D01*
X138891963Y-128408667D01*
X138884111Y-128379467D01*
X138889610Y-128355560D01*
X138906689Y-128328667D01*
X138911668Y-128324059D01*
X138921443Y-128317772D01*
X138935559Y-128313146D01*
X138957054Y-128309930D01*
X138988968Y-128307870D01*
X139034342Y-128306712D01*
X139096213Y-128306202D01*
X139177622Y-128306089D01*
X139425978Y-128306089D01*
X139425978Y-128148045D01*
X139264801Y-128148045D01*
X139228983Y-128147899D01*
X139163359Y-128146176D01*
X139116118Y-128141741D01*
X139084383Y-128133637D01*
X139065277Y-128120906D01*
X139055923Y-128102592D01*
X139053445Y-128077738D01*
X139054242Y-128057482D01*
X139059494Y-128035656D01*
X139072288Y-128020304D01*
X139095628Y-128010309D01*
X139132517Y-128004553D01*
X139185959Y-128001919D01*
X139258958Y-128001289D01*
X139427105Y-128001289D01*
X139423719Y-127936378D01*
X139420334Y-127871467D01*
X139172617Y-127868418D01*
X139110026Y-127867539D01*
X139041565Y-127866095D01*
X138990661Y-127864164D01*
X138954408Y-127861514D01*
X138929901Y-127857910D01*
X138914235Y-127853121D01*
X138904506Y-127846913D01*
X138898491Y-127840510D01*
X138885482Y-127808828D01*
X138889043Y-127773142D01*
X138908818Y-127742084D01*
X138912069Y-127739161D01*
X138921049Y-127732810D01*
X138933153Y-127727957D01*
X138951159Y-127724403D01*
X138977847Y-127721946D01*
X139015997Y-127720385D01*
X139068386Y-127719518D01*
X139137794Y-127719146D01*
X139227001Y-127719067D01*
X139281734Y-127719083D01*
G37*
X130714702Y-127728478D02*
X130732663Y-127746989D01*
X130753263Y-127778071D01*
X130778095Y-127823756D01*
X130808750Y-127886078D01*
X130846820Y-127967071D01*
X130861454Y-127998454D01*
X130891203Y-128061638D01*
X130917297Y-128116244D01*
X130938292Y-128159290D01*
X130952739Y-128187793D01*
X130959191Y-128198770D01*
X130960550Y-128198189D01*
X130970542Y-128184242D01*
X130987833Y-128154704D01*
X131010430Y-128113087D01*
X131036338Y-128062903D01*
X131052311Y-128031414D01*
X131081261Y-127976061D01*
X131103749Y-127937044D01*
X131121965Y-127911566D01*
X131138096Y-127896831D01*
X131154330Y-127890042D01*
X131172857Y-127888400D01*
X131183360Y-127888875D01*
X131199476Y-127893082D01*
X131214790Y-127903946D01*
X131231388Y-127924219D01*
X131251357Y-127956654D01*
X131276783Y-128004004D01*
X131309752Y-128069022D01*
X131319485Y-128088277D01*
X131343943Y-128134946D01*
X131364178Y-128171109D01*
X131378311Y-128193497D01*
X131384460Y-128198845D01*
X131385827Y-128195573D01*
X131395202Y-128174664D01*
X131412062Y-128137725D01*
X131434979Y-128087874D01*
X131462520Y-128028226D01*
X131493255Y-127961898D01*
X131519970Y-127904677D01*
X131549593Y-127842688D01*
X131572664Y-127796949D01*
X131590643Y-127764908D01*
X131604990Y-127744014D01*
X131617166Y-127731718D01*
X131628632Y-127725466D01*
X131638042Y-127722574D01*
X131663147Y-127722425D01*
X131690290Y-127737768D01*
X131691590Y-127738753D01*
X131713674Y-127761388D01*
X131724723Y-127783613D01*
X131724769Y-127784253D01*
X131720228Y-127801915D01*
X131707364Y-127836481D01*
X131687605Y-127884826D01*
X131662381Y-127943825D01*
X131633119Y-128010355D01*
X131601250Y-128081291D01*
X131568201Y-128153507D01*
X131535401Y-128223880D01*
X131504280Y-128289285D01*
X131476265Y-128346597D01*
X131452786Y-128392692D01*
X131435272Y-128424446D01*
X131425151Y-128438733D01*
X131390743Y-128452102D01*
X131349046Y-128445741D01*
X131343681Y-128441044D01*
X131327852Y-128418893D01*
X131305650Y-128382132D01*
X131279233Y-128334415D01*
X131250760Y-128279393D01*
X131170986Y-128120150D01*
X131097799Y-128266742D01*
X131088103Y-128286032D01*
X131061125Y-128338380D01*
X131037096Y-128383170D01*
X131018332Y-128416154D01*
X131007146Y-128433089D01*
X131006000Y-128434332D01*
X130977879Y-128449619D01*
X130942817Y-128451302D01*
X130911776Y-128438733D01*
X130909350Y-128435884D01*
X130897090Y-128415259D01*
X130877352Y-128377708D01*
X130851448Y-128325880D01*
X130820685Y-128262423D01*
X130786375Y-128189985D01*
X130749825Y-128111216D01*
X130729585Y-128067093D01*
X130692812Y-127986365D01*
X130664355Y-127922687D01*
X130643331Y-127873752D01*
X130628854Y-127837257D01*
X130620039Y-127810895D01*
X130616004Y-127792361D01*
X130615862Y-127779352D01*
X130618730Y-127769561D01*
X130633387Y-127748678D01*
X130659990Y-127728377D01*
X130660745Y-127728035D01*
X130680335Y-127721034D01*
X130697790Y-127720504D01*
X130714702Y-127728478D01*
G36*
X130714702Y-127728478D02*
G01*
X130732663Y-127746989D01*
X130753263Y-127778071D01*
X130778095Y-127823756D01*
X130808750Y-127886078D01*
X130846820Y-127967071D01*
X130861454Y-127998454D01*
X130891203Y-128061638D01*
X130917297Y-128116244D01*
X130938292Y-128159290D01*
X130952739Y-128187793D01*
X130959191Y-128198770D01*
X130960550Y-128198189D01*
X130970542Y-128184242D01*
X130987833Y-128154704D01*
X131010430Y-128113087D01*
X131036338Y-128062903D01*
X131052311Y-128031414D01*
X131081261Y-127976061D01*
X131103749Y-127937044D01*
X131121965Y-127911566D01*
X131138096Y-127896831D01*
X131154330Y-127890042D01*
X131172857Y-127888400D01*
X131183360Y-127888875D01*
X131199476Y-127893082D01*
X131214790Y-127903946D01*
X131231388Y-127924219D01*
X131251357Y-127956654D01*
X131276783Y-128004004D01*
X131309752Y-128069022D01*
X131319485Y-128088277D01*
X131343943Y-128134946D01*
X131364178Y-128171109D01*
X131378311Y-128193497D01*
X131384460Y-128198845D01*
X131385827Y-128195573D01*
X131395202Y-128174664D01*
X131412062Y-128137725D01*
X131434979Y-128087874D01*
X131462520Y-128028226D01*
X131493255Y-127961898D01*
X131519970Y-127904677D01*
X131549593Y-127842688D01*
X131572664Y-127796949D01*
X131590643Y-127764908D01*
X131604990Y-127744014D01*
X131617166Y-127731718D01*
X131628632Y-127725466D01*
X131638042Y-127722574D01*
X131663147Y-127722425D01*
X131690290Y-127737768D01*
X131691590Y-127738753D01*
X131713674Y-127761388D01*
X131724723Y-127783613D01*
X131724769Y-127784253D01*
X131720228Y-127801915D01*
X131707364Y-127836481D01*
X131687605Y-127884826D01*
X131662381Y-127943825D01*
X131633119Y-128010355D01*
X131601250Y-128081291D01*
X131568201Y-128153507D01*
X131535401Y-128223880D01*
X131504280Y-128289285D01*
X131476265Y-128346597D01*
X131452786Y-128392692D01*
X131435272Y-128424446D01*
X131425151Y-128438733D01*
X131390743Y-128452102D01*
X131349046Y-128445741D01*
X131343681Y-128441044D01*
X131327852Y-128418893D01*
X131305650Y-128382132D01*
X131279233Y-128334415D01*
X131250760Y-128279393D01*
X131170986Y-128120150D01*
X131097799Y-128266742D01*
X131088103Y-128286032D01*
X131061125Y-128338380D01*
X131037096Y-128383170D01*
X131018332Y-128416154D01*
X131007146Y-128433089D01*
X131006000Y-128434332D01*
X130977879Y-128449619D01*
X130942817Y-128451302D01*
X130911776Y-128438733D01*
X130909350Y-128435884D01*
X130897090Y-128415259D01*
X130877352Y-128377708D01*
X130851448Y-128325880D01*
X130820685Y-128262423D01*
X130786375Y-128189985D01*
X130749825Y-128111216D01*
X130729585Y-128067093D01*
X130692812Y-127986365D01*
X130664355Y-127922687D01*
X130643331Y-127873752D01*
X130628854Y-127837257D01*
X130620039Y-127810895D01*
X130616004Y-127792361D01*
X130615862Y-127779352D01*
X130618730Y-127769561D01*
X130633387Y-127748678D01*
X130659990Y-127728377D01*
X130660745Y-127728035D01*
X130680335Y-127721034D01*
X130697790Y-127720504D01*
X130714702Y-127728478D01*
G37*
X138265853Y-127719936D02*
X138332100Y-127725366D01*
X138387400Y-127734964D01*
X138438283Y-127749825D01*
X138509595Y-127782958D01*
X138560752Y-127825640D01*
X138591575Y-127877705D01*
X138601889Y-127938983D01*
X138600952Y-127970232D01*
X138595160Y-127995029D01*
X138580353Y-128016699D01*
X138552380Y-128044049D01*
X138544402Y-128051378D01*
X138520692Y-128072281D01*
X138498298Y-128089251D01*
X138474265Y-128103205D01*
X138445637Y-128115056D01*
X138409460Y-128125720D01*
X138362780Y-128136111D01*
X138302641Y-128147146D01*
X138226090Y-128159738D01*
X138130171Y-128174804D01*
X138111808Y-128177838D01*
X138049478Y-128191458D01*
X138004260Y-128207192D01*
X137977976Y-128224263D01*
X137972447Y-128241897D01*
X137975068Y-128246168D01*
X137993000Y-128261233D01*
X138021126Y-128277867D01*
X138033926Y-128283857D01*
X138055224Y-128291050D01*
X138081610Y-128295827D01*
X138117454Y-128298646D01*
X138167128Y-128299964D01*
X138235000Y-128300237D01*
X138252785Y-128300164D01*
X138320406Y-128299053D01*
X138385345Y-128296828D01*
X138440970Y-128293762D01*
X138480651Y-128290127D01*
X138516162Y-128286059D01*
X138545415Y-128285276D01*
X138564315Y-128289876D01*
X138579429Y-128300551D01*
X138583085Y-128304144D01*
X138599427Y-128335918D01*
X138598107Y-128371572D01*
X138579150Y-128402190D01*
X138558780Y-128413796D01*
X138522796Y-128426491D01*
X138480372Y-128436541D01*
X138476922Y-128437140D01*
X138434252Y-128442356D01*
X138376866Y-128446730D01*
X138311849Y-128449818D01*
X138246289Y-128451177D01*
X138230057Y-128451218D01*
X138131744Y-128448741D01*
X138051692Y-128440735D01*
X137986513Y-128426203D01*
X137932817Y-128404149D01*
X137887216Y-128373576D01*
X137846323Y-128333486D01*
X137826202Y-128307259D01*
X137814576Y-128277712D01*
X137811667Y-128237995D01*
X137811808Y-128226026D01*
X137815681Y-128193345D01*
X137828065Y-128166819D01*
X137853230Y-128135971D01*
X137874442Y-128113831D01*
X137900838Y-128091285D01*
X137930555Y-128072917D01*
X137966785Y-128057661D01*
X138012717Y-128044449D01*
X138071544Y-128032214D01*
X138146456Y-128019889D01*
X138240645Y-128006406D01*
X138285957Y-127999396D01*
X138353911Y-127984837D01*
X138403047Y-127968337D01*
X138432614Y-127950439D01*
X138441864Y-127931685D01*
X138430048Y-127912615D01*
X138396416Y-127893771D01*
X138393370Y-127892557D01*
X138347011Y-127880479D01*
X138284361Y-127872279D01*
X138210927Y-127868119D01*
X138132217Y-127868161D01*
X138053739Y-127872569D01*
X137981000Y-127881505D01*
X137977073Y-127882154D01*
X137928257Y-127889861D01*
X137896005Y-127893473D01*
X137875008Y-127892876D01*
X137859954Y-127887954D01*
X137845534Y-127878596D01*
X137844364Y-127877725D01*
X137819847Y-127847351D01*
X137815054Y-127811850D01*
X137830860Y-127777269D01*
X137835406Y-127772813D01*
X137865020Y-127757673D01*
X137912002Y-127744550D01*
X137972306Y-127733750D01*
X138041888Y-127725581D01*
X138116703Y-127720351D01*
X138192706Y-127718367D01*
X138265853Y-127719936D01*
G36*
X138265853Y-127719936D02*
G01*
X138332100Y-127725366D01*
X138387400Y-127734964D01*
X138438283Y-127749825D01*
X138509595Y-127782958D01*
X138560752Y-127825640D01*
X138591575Y-127877705D01*
X138601889Y-127938983D01*
X138600952Y-127970232D01*
X138595160Y-127995029D01*
X138580353Y-128016699D01*
X138552380Y-128044049D01*
X138544402Y-128051378D01*
X138520692Y-128072281D01*
X138498298Y-128089251D01*
X138474265Y-128103205D01*
X138445637Y-128115056D01*
X138409460Y-128125720D01*
X138362780Y-128136111D01*
X138302641Y-128147146D01*
X138226090Y-128159738D01*
X138130171Y-128174804D01*
X138111808Y-128177838D01*
X138049478Y-128191458D01*
X138004260Y-128207192D01*
X137977976Y-128224263D01*
X137972447Y-128241897D01*
X137975068Y-128246168D01*
X137993000Y-128261233D01*
X138021126Y-128277867D01*
X138033926Y-128283857D01*
X138055224Y-128291050D01*
X138081610Y-128295827D01*
X138117454Y-128298646D01*
X138167128Y-128299964D01*
X138235000Y-128300237D01*
X138252785Y-128300164D01*
X138320406Y-128299053D01*
X138385345Y-128296828D01*
X138440970Y-128293762D01*
X138480651Y-128290127D01*
X138516162Y-128286059D01*
X138545415Y-128285276D01*
X138564315Y-128289876D01*
X138579429Y-128300551D01*
X138583085Y-128304144D01*
X138599427Y-128335918D01*
X138598107Y-128371572D01*
X138579150Y-128402190D01*
X138558780Y-128413796D01*
X138522796Y-128426491D01*
X138480372Y-128436541D01*
X138476922Y-128437140D01*
X138434252Y-128442356D01*
X138376866Y-128446730D01*
X138311849Y-128449818D01*
X138246289Y-128451177D01*
X138230057Y-128451218D01*
X138131744Y-128448741D01*
X138051692Y-128440735D01*
X137986513Y-128426203D01*
X137932817Y-128404149D01*
X137887216Y-128373576D01*
X137846323Y-128333486D01*
X137826202Y-128307259D01*
X137814576Y-128277712D01*
X137811667Y-128237995D01*
X137811808Y-128226026D01*
X137815681Y-128193345D01*
X137828065Y-128166819D01*
X137853230Y-128135971D01*
X137874442Y-128113831D01*
X137900838Y-128091285D01*
X137930555Y-128072917D01*
X137966785Y-128057661D01*
X138012717Y-128044449D01*
X138071544Y-128032214D01*
X138146456Y-128019889D01*
X138240645Y-128006406D01*
X138285957Y-127999396D01*
X138353911Y-127984837D01*
X138403047Y-127968337D01*
X138432614Y-127950439D01*
X138441864Y-127931685D01*
X138430048Y-127912615D01*
X138396416Y-127893771D01*
X138393370Y-127892557D01*
X138347011Y-127880479D01*
X138284361Y-127872279D01*
X138210927Y-127868119D01*
X138132217Y-127868161D01*
X138053739Y-127872569D01*
X137981000Y-127881505D01*
X137977073Y-127882154D01*
X137928257Y-127889861D01*
X137896005Y-127893473D01*
X137875008Y-127892876D01*
X137859954Y-127887954D01*
X137845534Y-127878596D01*
X137844364Y-127877725D01*
X137819847Y-127847351D01*
X137815054Y-127811850D01*
X137830860Y-127777269D01*
X137835406Y-127772813D01*
X137865020Y-127757673D01*
X137912002Y-127744550D01*
X137972306Y-127733750D01*
X138041888Y-127725581D01*
X138116703Y-127720351D01*
X138192706Y-127718367D01*
X138265853Y-127719936D01*
G37*
X134413711Y-123412033D02*
X134509268Y-123429523D01*
X134673558Y-123474564D01*
X134827589Y-123537656D01*
X134973509Y-123619915D01*
X135113466Y-123722457D01*
X135249608Y-123846399D01*
X135293473Y-123891661D01*
X135405758Y-124023865D01*
X135498972Y-124161832D01*
X135575719Y-124309750D01*
X135638603Y-124471803D01*
X135642420Y-124483391D01*
X135692507Y-124669392D01*
X135725899Y-124865521D01*
X135742584Y-125067568D01*
X135742551Y-125271325D01*
X135725791Y-125472581D01*
X135692292Y-125667128D01*
X135642044Y-125850756D01*
X135598190Y-125968053D01*
X135520348Y-126130951D01*
X135426828Y-126284866D01*
X135319822Y-126426671D01*
X135201519Y-126553239D01*
X135074111Y-126661441D01*
X134996606Y-126714120D01*
X134869725Y-126783750D01*
X134732243Y-126842468D01*
X134590716Y-126887587D01*
X134451702Y-126916422D01*
X134437597Y-126918106D01*
X134394153Y-126921434D01*
X134336723Y-126924275D01*
X134271122Y-126926373D01*
X134203167Y-126927468D01*
X134076378Y-126925140D01*
X133928673Y-126912136D01*
X133790779Y-126887133D01*
X133657014Y-126849318D01*
X133633562Y-126840889D01*
X133585612Y-126821408D01*
X133529140Y-126796473D01*
X133467379Y-126767722D01*
X133403563Y-126736790D01*
X133340926Y-126705315D01*
X133282703Y-126674934D01*
X133232127Y-126647283D01*
X133192433Y-126623999D01*
X133166854Y-126606718D01*
X133158625Y-126597079D01*
X133160076Y-126593984D01*
X133171250Y-126574079D01*
X133192134Y-126538420D01*
X133221265Y-126489459D01*
X133257181Y-126429646D01*
X133298420Y-126361433D01*
X133343517Y-126287271D01*
X133524785Y-125990008D01*
X133571315Y-126034539D01*
X133662723Y-126112865D01*
X133776334Y-126187439D01*
X133894122Y-126241474D01*
X134014559Y-126274290D01*
X134136117Y-126285211D01*
X134177585Y-126283868D01*
X134295080Y-126265612D01*
X134405089Y-126226617D01*
X134506430Y-126167670D01*
X134597921Y-126089557D01*
X134678380Y-125993064D01*
X134746627Y-125878978D01*
X134762908Y-125844724D01*
X134808982Y-125721240D01*
X134844106Y-125582918D01*
X134868197Y-125433561D01*
X134881173Y-125276973D01*
X134882949Y-125116956D01*
X134873443Y-124957314D01*
X134852572Y-124801850D01*
X134820252Y-124654366D01*
X134776399Y-124518667D01*
X134738982Y-124432076D01*
X134674185Y-124318688D01*
X134598772Y-124225070D01*
X134512418Y-124150959D01*
X134414795Y-124096094D01*
X134305577Y-124060212D01*
X134184439Y-124043051D01*
X134115038Y-124041880D01*
X133992168Y-124056141D01*
X133876664Y-124091241D01*
X133769953Y-124146682D01*
X133673464Y-124221964D01*
X133657720Y-124236440D01*
X133627150Y-124262962D01*
X133604809Y-124280138D01*
X133594691Y-124284787D01*
X133592706Y-124282597D01*
X133578241Y-124263721D01*
X133554400Y-124230397D01*
X133523029Y-124185380D01*
X133485974Y-124131425D01*
X133445083Y-124071285D01*
X133402202Y-124007718D01*
X133359178Y-123943476D01*
X133317857Y-123881315D01*
X133280086Y-123823991D01*
X133247712Y-123774257D01*
X133222582Y-123734868D01*
X133206542Y-123708580D01*
X133201439Y-123698147D01*
X133206050Y-123693941D01*
X133225267Y-123688933D01*
X133234838Y-123686386D01*
X133262809Y-123675249D01*
X133304448Y-123656802D01*
X133355995Y-123632725D01*
X133413690Y-123604699D01*
X133424957Y-123599154D01*
X133602687Y-123519889D01*
X133772490Y-123460385D01*
X133936430Y-123420245D01*
X134096571Y-123399071D01*
X134254977Y-123396466D01*
X134413711Y-123412033D01*
G36*
X134413711Y-123412033D02*
G01*
X134509268Y-123429523D01*
X134673558Y-123474564D01*
X134827589Y-123537656D01*
X134973509Y-123619915D01*
X135113466Y-123722457D01*
X135249608Y-123846399D01*
X135293473Y-123891661D01*
X135405758Y-124023865D01*
X135498972Y-124161832D01*
X135575719Y-124309750D01*
X135638603Y-124471803D01*
X135642420Y-124483391D01*
X135692507Y-124669392D01*
X135725899Y-124865521D01*
X135742584Y-125067568D01*
X135742551Y-125271325D01*
X135725791Y-125472581D01*
X135692292Y-125667128D01*
X135642044Y-125850756D01*
X135598190Y-125968053D01*
X135520348Y-126130951D01*
X135426828Y-126284866D01*
X135319822Y-126426671D01*
X135201519Y-126553239D01*
X135074111Y-126661441D01*
X134996606Y-126714120D01*
X134869725Y-126783750D01*
X134732243Y-126842468D01*
X134590716Y-126887587D01*
X134451702Y-126916422D01*
X134437597Y-126918106D01*
X134394153Y-126921434D01*
X134336723Y-126924275D01*
X134271122Y-126926373D01*
X134203167Y-126927468D01*
X134076378Y-126925140D01*
X133928673Y-126912136D01*
X133790779Y-126887133D01*
X133657014Y-126849318D01*
X133633562Y-126840889D01*
X133585612Y-126821408D01*
X133529140Y-126796473D01*
X133467379Y-126767722D01*
X133403563Y-126736790D01*
X133340926Y-126705315D01*
X133282703Y-126674934D01*
X133232127Y-126647283D01*
X133192433Y-126623999D01*
X133166854Y-126606718D01*
X133158625Y-126597079D01*
X133160076Y-126593984D01*
X133171250Y-126574079D01*
X133192134Y-126538420D01*
X133221265Y-126489459D01*
X133257181Y-126429646D01*
X133298420Y-126361433D01*
X133343517Y-126287271D01*
X133524785Y-125990008D01*
X133571315Y-126034539D01*
X133662723Y-126112865D01*
X133776334Y-126187439D01*
X133894122Y-126241474D01*
X134014559Y-126274290D01*
X134136117Y-126285211D01*
X134177585Y-126283868D01*
X134295080Y-126265612D01*
X134405089Y-126226617D01*
X134506430Y-126167670D01*
X134597921Y-126089557D01*
X134678380Y-125993064D01*
X134746627Y-125878978D01*
X134762908Y-125844724D01*
X134808982Y-125721240D01*
X134844106Y-125582918D01*
X134868197Y-125433561D01*
X134881173Y-125276973D01*
X134882949Y-125116956D01*
X134873443Y-124957314D01*
X134852572Y-124801850D01*
X134820252Y-124654366D01*
X134776399Y-124518667D01*
X134738982Y-124432076D01*
X134674185Y-124318688D01*
X134598772Y-124225070D01*
X134512418Y-124150959D01*
X134414795Y-124096094D01*
X134305577Y-124060212D01*
X134184439Y-124043051D01*
X134115038Y-124041880D01*
X133992168Y-124056141D01*
X133876664Y-124091241D01*
X133769953Y-124146682D01*
X133673464Y-124221964D01*
X133657720Y-124236440D01*
X133627150Y-124262962D01*
X133604809Y-124280138D01*
X133594691Y-124284787D01*
X133592706Y-124282597D01*
X133578241Y-124263721D01*
X133554400Y-124230397D01*
X133523029Y-124185380D01*
X133485974Y-124131425D01*
X133445083Y-124071285D01*
X133402202Y-124007718D01*
X133359178Y-123943476D01*
X133317857Y-123881315D01*
X133280086Y-123823991D01*
X133247712Y-123774257D01*
X133222582Y-123734868D01*
X133206542Y-123708580D01*
X133201439Y-123698147D01*
X133206050Y-123693941D01*
X133225267Y-123688933D01*
X133234838Y-123686386D01*
X133262809Y-123675249D01*
X133304448Y-123656802D01*
X133355995Y-123632725D01*
X133413690Y-123604699D01*
X133424957Y-123599154D01*
X133602687Y-123519889D01*
X133772490Y-123460385D01*
X133936430Y-123420245D01*
X134096571Y-123399071D01*
X134254977Y-123396466D01*
X134413711Y-123412033D01*
G37*
X130610994Y-125692711D02*
X130610268Y-125770158D01*
X130601689Y-125921594D01*
X130582833Y-126058283D01*
X130552837Y-126184276D01*
X130510836Y-126303625D01*
X130455969Y-126420381D01*
X130389167Y-126531179D01*
X130298363Y-126644739D01*
X130194708Y-126740211D01*
X130078887Y-126817073D01*
X129951586Y-126874797D01*
X129813489Y-126912858D01*
X129775793Y-126918666D01*
X129696752Y-126924396D01*
X129608629Y-126924583D01*
X129519236Y-126919539D01*
X129436384Y-126909578D01*
X129367887Y-126895012D01*
X129337035Y-126885364D01*
X129259730Y-126855123D01*
X129182679Y-126817617D01*
X129113200Y-126776614D01*
X129058615Y-126735879D01*
X129035916Y-126716505D01*
X129013201Y-126698662D01*
X129001779Y-126691778D01*
X129000537Y-126693424D01*
X128997728Y-126711205D01*
X128995776Y-126744370D01*
X128995045Y-126787733D01*
X128995045Y-126883689D01*
X128136896Y-126883689D01*
X128171161Y-126822974D01*
X128176355Y-126813868D01*
X128184715Y-126799249D01*
X128192288Y-126785173D01*
X128199112Y-126770540D01*
X128205227Y-126754249D01*
X128210673Y-126735198D01*
X128215487Y-126712286D01*
X128219708Y-126684413D01*
X128223377Y-126650478D01*
X128226531Y-126609379D01*
X128229211Y-126560015D01*
X128231454Y-126501286D01*
X128233299Y-126432090D01*
X128234787Y-126351326D01*
X128235955Y-126257894D01*
X128236844Y-126150692D01*
X128237491Y-126028620D01*
X128237936Y-125890576D01*
X128238218Y-125735459D01*
X128238375Y-125562168D01*
X128238448Y-125369603D01*
X128238474Y-125156662D01*
X128238485Y-125020530D01*
X129040200Y-125020530D01*
X129040200Y-126170721D01*
X129110756Y-126217089D01*
X129151417Y-126240791D01*
X129205546Y-126266639D01*
X129254689Y-126284829D01*
X129318165Y-126300551D01*
X129414331Y-126311541D01*
X129498900Y-126303365D01*
X129572219Y-126275805D01*
X129634637Y-126228642D01*
X129686502Y-126161658D01*
X129728160Y-126074633D01*
X129759962Y-125967350D01*
X129762545Y-125955009D01*
X129771000Y-125893772D01*
X129776663Y-125816692D01*
X129779576Y-125729002D01*
X129779783Y-125635934D01*
X129777330Y-125542720D01*
X129772261Y-125454594D01*
X129764619Y-125376788D01*
X129754448Y-125314533D01*
X129753167Y-125308666D01*
X129724126Y-125198121D01*
X129689610Y-125107575D01*
X129648456Y-125034953D01*
X129599499Y-124978181D01*
X129541574Y-124935184D01*
X129509620Y-124919615D01*
X129436784Y-124900722D01*
X129355443Y-124897465D01*
X129270319Y-124909389D01*
X129186133Y-124936040D01*
X129107608Y-124976962D01*
X129040200Y-125020530D01*
X128238485Y-125020530D01*
X128238493Y-124922245D01*
X128238689Y-123237378D01*
X129144017Y-123237378D01*
X129119585Y-123274067D01*
X129113318Y-123283647D01*
X129087208Y-123329981D01*
X129069469Y-123377102D01*
X129057908Y-123432251D01*
X129050331Y-123502667D01*
X129049839Y-123509650D01*
X129048062Y-123547641D01*
X129046444Y-123601576D01*
X129044999Y-123668703D01*
X129043740Y-123746271D01*
X129042680Y-123831528D01*
X129041829Y-123921724D01*
X129041203Y-124014107D01*
X129040812Y-124105925D01*
X129040670Y-124194427D01*
X129040790Y-124276862D01*
X129041183Y-124350479D01*
X129041862Y-124412526D01*
X129042841Y-124460251D01*
X129044132Y-124490904D01*
X129045747Y-124501733D01*
X129053957Y-124497333D01*
X129075647Y-124482362D01*
X129105014Y-124460448D01*
X129153879Y-124426236D01*
X129242125Y-124379714D01*
X129340916Y-124346046D01*
X129453510Y-124324231D01*
X129583164Y-124313265D01*
X129675670Y-124312219D01*
X129797011Y-124322014D01*
X129907099Y-124346174D01*
X130010389Y-124385785D01*
X130111338Y-124441932D01*
X130156503Y-124472883D01*
X130261911Y-124564115D01*
X130353538Y-124673106D01*
X130431332Y-124799726D01*
X130495241Y-124943845D01*
X130545214Y-125105332D01*
X130581198Y-125284059D01*
X130603143Y-125479895D01*
X130608900Y-125635934D01*
X130610994Y-125692711D01*
G36*
X130610994Y-125692711D02*
G01*
X130610268Y-125770158D01*
X130601689Y-125921594D01*
X130582833Y-126058283D01*
X130552837Y-126184276D01*
X130510836Y-126303625D01*
X130455969Y-126420381D01*
X130389167Y-126531179D01*
X130298363Y-126644739D01*
X130194708Y-126740211D01*
X130078887Y-126817073D01*
X129951586Y-126874797D01*
X129813489Y-126912858D01*
X129775793Y-126918666D01*
X129696752Y-126924396D01*
X129608629Y-126924583D01*
X129519236Y-126919539D01*
X129436384Y-126909578D01*
X129367887Y-126895012D01*
X129337035Y-126885364D01*
X129259730Y-126855123D01*
X129182679Y-126817617D01*
X129113200Y-126776614D01*
X129058615Y-126735879D01*
X129035916Y-126716505D01*
X129013201Y-126698662D01*
X129001779Y-126691778D01*
X129000537Y-126693424D01*
X128997728Y-126711205D01*
X128995776Y-126744370D01*
X128995045Y-126787733D01*
X128995045Y-126883689D01*
X128136896Y-126883689D01*
X128171161Y-126822974D01*
X128176355Y-126813868D01*
X128184715Y-126799249D01*
X128192288Y-126785173D01*
X128199112Y-126770540D01*
X128205227Y-126754249D01*
X128210673Y-126735198D01*
X128215487Y-126712286D01*
X128219708Y-126684413D01*
X128223377Y-126650478D01*
X128226531Y-126609379D01*
X128229211Y-126560015D01*
X128231454Y-126501286D01*
X128233299Y-126432090D01*
X128234787Y-126351326D01*
X128235955Y-126257894D01*
X128236844Y-126150692D01*
X128237491Y-126028620D01*
X128237936Y-125890576D01*
X128238218Y-125735459D01*
X128238375Y-125562168D01*
X128238448Y-125369603D01*
X128238474Y-125156662D01*
X128238485Y-125020530D01*
X129040200Y-125020530D01*
X129040200Y-126170721D01*
X129110756Y-126217089D01*
X129151417Y-126240791D01*
X129205546Y-126266639D01*
X129254689Y-126284829D01*
X129318165Y-126300551D01*
X129414331Y-126311541D01*
X129498900Y-126303365D01*
X129572219Y-126275805D01*
X129634637Y-126228642D01*
X129686502Y-126161658D01*
X129728160Y-126074633D01*
X129759962Y-125967350D01*
X129762545Y-125955009D01*
X129771000Y-125893772D01*
X129776663Y-125816692D01*
X129779576Y-125729002D01*
X129779783Y-125635934D01*
X129777330Y-125542720D01*
X129772261Y-125454594D01*
X129764619Y-125376788D01*
X129754448Y-125314533D01*
X129753167Y-125308666D01*
X129724126Y-125198121D01*
X129689610Y-125107575D01*
X129648456Y-125034953D01*
X129599499Y-124978181D01*
X129541574Y-124935184D01*
X129509620Y-124919615D01*
X129436784Y-124900722D01*
X129355443Y-124897465D01*
X129270319Y-124909389D01*
X129186133Y-124936040D01*
X129107608Y-124976962D01*
X129040200Y-125020530D01*
X128238485Y-125020530D01*
X128238493Y-124922245D01*
X128238689Y-123237378D01*
X129144017Y-123237378D01*
X129119585Y-123274067D01*
X129113318Y-123283647D01*
X129087208Y-123329981D01*
X129069469Y-123377102D01*
X129057908Y-123432251D01*
X129050331Y-123502667D01*
X129049839Y-123509650D01*
X129048062Y-123547641D01*
X129046444Y-123601576D01*
X129044999Y-123668703D01*
X129043740Y-123746271D01*
X129042680Y-123831528D01*
X129041829Y-123921724D01*
X129041203Y-124014107D01*
X129040812Y-124105925D01*
X129040670Y-124194427D01*
X129040790Y-124276862D01*
X129041183Y-124350479D01*
X129041862Y-124412526D01*
X129042841Y-124460251D01*
X129044132Y-124490904D01*
X129045747Y-124501733D01*
X129053957Y-124497333D01*
X129075647Y-124482362D01*
X129105014Y-124460448D01*
X129153879Y-124426236D01*
X129242125Y-124379714D01*
X129340916Y-124346046D01*
X129453510Y-124324231D01*
X129583164Y-124313265D01*
X129675670Y-124312219D01*
X129797011Y-124322014D01*
X129907099Y-124346174D01*
X130010389Y-124385785D01*
X130111338Y-124441932D01*
X130156503Y-124472883D01*
X130261911Y-124564115D01*
X130353538Y-124673106D01*
X130431332Y-124799726D01*
X130495241Y-124943845D01*
X130545214Y-125105332D01*
X130581198Y-125284059D01*
X130603143Y-125479895D01*
X130608900Y-125635934D01*
X130610994Y-125692711D01*
G37*
X133152755Y-126093467D02*
X133152261Y-126127363D01*
X133148632Y-126202202D01*
X133141022Y-126264401D01*
X133128688Y-126320984D01*
X133084313Y-126447076D01*
X133021400Y-126561679D01*
X132941238Y-126662568D01*
X132844740Y-126748924D01*
X132732822Y-126819932D01*
X132606397Y-126874776D01*
X132466378Y-126912638D01*
X132430149Y-126918351D01*
X132351155Y-126924313D01*
X132262841Y-126924646D01*
X132173075Y-126919659D01*
X132089722Y-126909666D01*
X132020651Y-126894978D01*
X131934187Y-126864749D01*
X131824286Y-126810057D01*
X131726956Y-126742543D01*
X131664867Y-126691556D01*
X131661605Y-126787622D01*
X131658343Y-126883689D01*
X131235450Y-126883689D01*
X131224543Y-126883686D01*
X131130056Y-126883380D01*
X131043331Y-126882616D01*
X130966837Y-126881451D01*
X130903043Y-126879942D01*
X130854418Y-126878147D01*
X130823433Y-126876121D01*
X130812556Y-126873922D01*
X130812578Y-126873463D01*
X130819614Y-126857910D01*
X130835434Y-126835071D01*
X130839734Y-126829638D01*
X130850777Y-126815606D01*
X130860311Y-126802186D01*
X130868461Y-126787722D01*
X130875352Y-126770556D01*
X130881111Y-126749034D01*
X130885862Y-126721498D01*
X130889731Y-126686292D01*
X130892844Y-126641760D01*
X130895325Y-126586246D01*
X130897300Y-126518093D01*
X130898894Y-126435645D01*
X130900234Y-126337246D01*
X130901444Y-126221239D01*
X130902649Y-126085968D01*
X130903595Y-125974586D01*
X131704378Y-125974586D01*
X131704378Y-126170462D01*
X131749048Y-126226973D01*
X131761785Y-126242212D01*
X131808604Y-126284844D01*
X131869255Y-126320672D01*
X131879897Y-126325850D01*
X131918676Y-126342745D01*
X131953692Y-126352909D01*
X131993722Y-126358325D01*
X132047541Y-126360978D01*
X132065648Y-126361383D01*
X132141011Y-126358540D01*
X132201743Y-126346620D01*
X132253452Y-126324037D01*
X132301746Y-126289211D01*
X132306803Y-126284798D01*
X132355272Y-126229160D01*
X132383459Y-126165333D01*
X132392752Y-126090282D01*
X132385520Y-126018693D01*
X132360796Y-125955645D01*
X132316249Y-125897758D01*
X132261319Y-125850808D01*
X132188894Y-125810961D01*
X132102340Y-125783263D01*
X131999670Y-125767096D01*
X131878894Y-125761842D01*
X131870007Y-125761857D01*
X131814660Y-125762655D01*
X131767736Y-125764488D01*
X131733953Y-125767111D01*
X131718028Y-125770274D01*
X131713943Y-125776741D01*
X131709572Y-125798875D01*
X131706604Y-125837988D01*
X131704914Y-125895939D01*
X131704378Y-125974586D01*
X130903595Y-125974586D01*
X130903975Y-125929778D01*
X130905228Y-125787012D01*
X130906651Y-125641942D01*
X130908176Y-125516027D01*
X130909933Y-125407436D01*
X130912051Y-125314334D01*
X130914660Y-125234891D01*
X130917890Y-125167273D01*
X130921869Y-125109649D01*
X130926728Y-125060185D01*
X130932597Y-125017050D01*
X130939604Y-124978410D01*
X130947880Y-124942434D01*
X130957554Y-124907289D01*
X130968756Y-124871142D01*
X130981616Y-124832161D01*
X130997090Y-124789091D01*
X131039994Y-124696871D01*
X131093735Y-124617099D01*
X131162576Y-124542965D01*
X131240185Y-124479405D01*
X131344761Y-124417725D01*
X131464244Y-124370202D01*
X131599508Y-124336567D01*
X131751426Y-124316552D01*
X131920872Y-124309889D01*
X131978890Y-124310287D01*
X132044398Y-124312335D01*
X132105693Y-124316704D01*
X132167097Y-124324035D01*
X132232932Y-124334969D01*
X132307520Y-124350147D01*
X132395184Y-124370209D01*
X132500245Y-124395797D01*
X132528806Y-124402820D01*
X132604054Y-124420776D01*
X132674388Y-124436820D01*
X132735567Y-124450028D01*
X132783354Y-124459474D01*
X132813511Y-124464231D01*
X132841783Y-124467910D01*
X132868060Y-124473187D01*
X132878059Y-124477942D01*
X132874952Y-124486781D01*
X132864194Y-124514072D01*
X132846864Y-124556906D01*
X132824126Y-124612425D01*
X132797147Y-124677772D01*
X132767090Y-124750089D01*
X132760493Y-124765879D01*
X132721907Y-124856484D01*
X132690768Y-124926217D01*
X132666917Y-124975405D01*
X132650198Y-125004374D01*
X132640454Y-125013452D01*
X132632766Y-125011405D01*
X132606415Y-125001760D01*
X132567982Y-124986190D01*
X132522822Y-124966815D01*
X132428293Y-124928814D01*
X132291480Y-124887780D01*
X132150289Y-124862612D01*
X132112314Y-124858611D01*
X132009059Y-124856447D01*
X131921952Y-124869622D01*
X131850129Y-124898756D01*
X131792731Y-124944466D01*
X131748896Y-125007372D01*
X131717762Y-125088092D01*
X131698470Y-125187245D01*
X131691050Y-125246224D01*
X131852936Y-125239445D01*
X131979495Y-125237813D01*
X132130951Y-125244194D01*
X132279396Y-125258777D01*
X132415578Y-125280882D01*
X132480245Y-125295821D01*
X132612490Y-125338741D01*
X132734762Y-125395340D01*
X132844685Y-125464017D01*
X132939883Y-125543170D01*
X133017980Y-125631196D01*
X133076599Y-125726493D01*
X133100595Y-125778864D01*
X133126232Y-125849590D01*
X133142478Y-125920812D01*
X133150822Y-125999712D01*
X133152690Y-126090282D01*
X133152755Y-126093467D01*
G36*
X133152755Y-126093467D02*
G01*
X133152261Y-126127363D01*
X133148632Y-126202202D01*
X133141022Y-126264401D01*
X133128688Y-126320984D01*
X133084313Y-126447076D01*
X133021400Y-126561679D01*
X132941238Y-126662568D01*
X132844740Y-126748924D01*
X132732822Y-126819932D01*
X132606397Y-126874776D01*
X132466378Y-126912638D01*
X132430149Y-126918351D01*
X132351155Y-126924313D01*
X132262841Y-126924646D01*
X132173075Y-126919659D01*
X132089722Y-126909666D01*
X132020651Y-126894978D01*
X131934187Y-126864749D01*
X131824286Y-126810057D01*
X131726956Y-126742543D01*
X131664867Y-126691556D01*
X131661605Y-126787622D01*
X131658343Y-126883689D01*
X131235450Y-126883689D01*
X131224543Y-126883686D01*
X131130056Y-126883380D01*
X131043331Y-126882616D01*
X130966837Y-126881451D01*
X130903043Y-126879942D01*
X130854418Y-126878147D01*
X130823433Y-126876121D01*
X130812556Y-126873922D01*
X130812578Y-126873463D01*
X130819614Y-126857910D01*
X130835434Y-126835071D01*
X130839734Y-126829638D01*
X130850777Y-126815606D01*
X130860311Y-126802186D01*
X130868461Y-126787722D01*
X130875352Y-126770556D01*
X130881111Y-126749034D01*
X130885862Y-126721498D01*
X130889731Y-126686292D01*
X130892844Y-126641760D01*
X130895325Y-126586246D01*
X130897300Y-126518093D01*
X130898894Y-126435645D01*
X130900234Y-126337246D01*
X130901444Y-126221239D01*
X130902649Y-126085968D01*
X130903595Y-125974586D01*
X131704378Y-125974586D01*
X131704378Y-126170462D01*
X131749048Y-126226973D01*
X131761785Y-126242212D01*
X131808604Y-126284844D01*
X131869255Y-126320672D01*
X131879897Y-126325850D01*
X131918676Y-126342745D01*
X131953692Y-126352909D01*
X131993722Y-126358325D01*
X132047541Y-126360978D01*
X132065648Y-126361383D01*
X132141011Y-126358540D01*
X132201743Y-126346620D01*
X132253452Y-126324037D01*
X132301746Y-126289211D01*
X132306803Y-126284798D01*
X132355272Y-126229160D01*
X132383459Y-126165333D01*
X132392752Y-126090282D01*
X132385520Y-126018693D01*
X132360796Y-125955645D01*
X132316249Y-125897758D01*
X132261319Y-125850808D01*
X132188894Y-125810961D01*
X132102340Y-125783263D01*
X131999670Y-125767096D01*
X131878894Y-125761842D01*
X131870007Y-125761857D01*
X131814660Y-125762655D01*
X131767736Y-125764488D01*
X131733953Y-125767111D01*
X131718028Y-125770274D01*
X131713943Y-125776741D01*
X131709572Y-125798875D01*
X131706604Y-125837988D01*
X131704914Y-125895939D01*
X131704378Y-125974586D01*
X130903595Y-125974586D01*
X130903975Y-125929778D01*
X130905228Y-125787012D01*
X130906651Y-125641942D01*
X130908176Y-125516027D01*
X130909933Y-125407436D01*
X130912051Y-125314334D01*
X130914660Y-125234891D01*
X130917890Y-125167273D01*
X130921869Y-125109649D01*
X130926728Y-125060185D01*
X130932597Y-125017050D01*
X130939604Y-124978410D01*
X130947880Y-124942434D01*
X130957554Y-124907289D01*
X130968756Y-124871142D01*
X130981616Y-124832161D01*
X130997090Y-124789091D01*
X131039994Y-124696871D01*
X131093735Y-124617099D01*
X131162576Y-124542965D01*
X131240185Y-124479405D01*
X131344761Y-124417725D01*
X131464244Y-124370202D01*
X131599508Y-124336567D01*
X131751426Y-124316552D01*
X131920872Y-124309889D01*
X131978890Y-124310287D01*
X132044398Y-124312335D01*
X132105693Y-124316704D01*
X132167097Y-124324035D01*
X132232932Y-124334969D01*
X132307520Y-124350147D01*
X132395184Y-124370209D01*
X132500245Y-124395797D01*
X132528806Y-124402820D01*
X132604054Y-124420776D01*
X132674388Y-124436820D01*
X132735567Y-124450028D01*
X132783354Y-124459474D01*
X132813511Y-124464231D01*
X132841783Y-124467910D01*
X132868060Y-124473187D01*
X132878059Y-124477942D01*
X132874952Y-124486781D01*
X132864194Y-124514072D01*
X132846864Y-124556906D01*
X132824126Y-124612425D01*
X132797147Y-124677772D01*
X132767090Y-124750089D01*
X132760493Y-124765879D01*
X132721907Y-124856484D01*
X132690768Y-124926217D01*
X132666917Y-124975405D01*
X132650198Y-125004374D01*
X132640454Y-125013452D01*
X132632766Y-125011405D01*
X132606415Y-125001760D01*
X132567982Y-124986190D01*
X132522822Y-124966815D01*
X132428293Y-124928814D01*
X132291480Y-124887780D01*
X132150289Y-124862612D01*
X132112314Y-124858611D01*
X132009059Y-124856447D01*
X131921952Y-124869622D01*
X131850129Y-124898756D01*
X131792731Y-124944466D01*
X131748896Y-125007372D01*
X131717762Y-125088092D01*
X131698470Y-125187245D01*
X131691050Y-125246224D01*
X131852936Y-125239445D01*
X131979495Y-125237813D01*
X132130951Y-125244194D01*
X132279396Y-125258777D01*
X132415578Y-125280882D01*
X132480245Y-125295821D01*
X132612490Y-125338741D01*
X132734762Y-125395340D01*
X132844685Y-125464017D01*
X132939883Y-125543170D01*
X133017980Y-125631196D01*
X133076599Y-125726493D01*
X133100595Y-125778864D01*
X133126232Y-125849590D01*
X133142478Y-125920812D01*
X133150822Y-125999712D01*
X133152690Y-126090282D01*
X133152755Y-126093467D01*
G37*
X140700614Y-123561792D02*
X140701059Y-123693011D01*
X140701362Y-123840216D01*
X140701548Y-124004349D01*
X140701642Y-124186352D01*
X140701671Y-124387165D01*
X140701661Y-124607732D01*
X140701636Y-124848992D01*
X140701622Y-125111889D01*
X140701622Y-125154040D01*
X140701646Y-125414668D01*
X140701685Y-125653796D01*
X140701708Y-125872360D01*
X140701687Y-126071295D01*
X140701593Y-126251535D01*
X140701395Y-126414015D01*
X140701063Y-126559670D01*
X140700569Y-126689434D01*
X140699883Y-126804243D01*
X140698976Y-126905030D01*
X140697817Y-126992730D01*
X140696378Y-127068279D01*
X140694629Y-127132611D01*
X140692540Y-127186661D01*
X140690083Y-127231363D01*
X140687227Y-127267652D01*
X140683943Y-127296463D01*
X140680202Y-127318731D01*
X140675974Y-127335390D01*
X140671229Y-127347375D01*
X140665939Y-127355621D01*
X140660073Y-127361062D01*
X140653602Y-127364634D01*
X140646497Y-127367270D01*
X140638728Y-127369906D01*
X140630266Y-127373477D01*
X140625908Y-127375145D01*
X140617395Y-127377111D01*
X140604694Y-127378911D01*
X140586885Y-127380555D01*
X140563049Y-127382047D01*
X140532266Y-127383397D01*
X140493617Y-127384611D01*
X140446182Y-127385697D01*
X140389043Y-127386661D01*
X140321279Y-127387511D01*
X140241971Y-127388253D01*
X140150199Y-127388897D01*
X140045044Y-127389447D01*
X139925587Y-127389913D01*
X139790908Y-127390300D01*
X139640088Y-127390616D01*
X139472206Y-127390869D01*
X139286345Y-127391066D01*
X139081583Y-127391213D01*
X138857002Y-127391318D01*
X138611682Y-127391389D01*
X138344704Y-127391432D01*
X138306321Y-127391437D01*
X138040922Y-127391480D01*
X137797050Y-127391525D01*
X137573783Y-127391548D01*
X137370196Y-127391524D01*
X137185367Y-127391430D01*
X137018373Y-127391243D01*
X136868290Y-127390939D01*
X136734196Y-127390494D01*
X136615166Y-127389885D01*
X136510279Y-127389089D01*
X136418610Y-127388080D01*
X136339237Y-127386837D01*
X136271237Y-127385335D01*
X136213686Y-127383551D01*
X136165662Y-127381461D01*
X136126240Y-127379042D01*
X136094499Y-127376270D01*
X136069514Y-127373121D01*
X136050364Y-127369572D01*
X136036123Y-127365598D01*
X136025871Y-127361178D01*
X136018682Y-127356286D01*
X136013635Y-127350900D01*
X136009805Y-127344996D01*
X136006271Y-127338549D01*
X136002108Y-127331537D01*
X136001025Y-127329687D01*
X135998813Y-127324180D01*
X135996786Y-127315868D01*
X135994938Y-127303809D01*
X135993261Y-127287063D01*
X135991745Y-127264687D01*
X135990383Y-127235740D01*
X135989167Y-127199280D01*
X135988089Y-127154367D01*
X135987140Y-127100057D01*
X135986312Y-127035410D01*
X135985597Y-126959484D01*
X135984987Y-126871338D01*
X135984942Y-126862493D01*
X136276378Y-126862493D01*
X136280260Y-126863765D01*
X136303520Y-126865791D01*
X136345874Y-126867626D01*
X136405132Y-126869227D01*
X136479107Y-126870549D01*
X136565610Y-126871548D01*
X136662452Y-126872180D01*
X136767445Y-126872400D01*
X137465651Y-126872400D01*
X138620090Y-126872400D01*
X138619456Y-126796200D01*
X138620574Y-126754160D01*
X138626304Y-126718334D01*
X138638890Y-126680772D01*
X138660568Y-126632577D01*
X138663789Y-126625897D01*
X138689188Y-126576359D01*
X138715996Y-126528369D01*
X138738917Y-126491466D01*
X138743485Y-126484834D01*
X138765516Y-126453593D01*
X138797693Y-126408654D01*
X138838457Y-126352147D01*
X138886245Y-126286204D01*
X138939498Y-126212957D01*
X138996655Y-126134536D01*
X139056155Y-126053072D01*
X139116437Y-125970698D01*
X139175940Y-125889544D01*
X139233105Y-125811742D01*
X139286370Y-125739423D01*
X139334174Y-125674718D01*
X139374957Y-125619759D01*
X139407158Y-125576676D01*
X139429216Y-125547602D01*
X139439571Y-125534667D01*
X139444044Y-125530351D01*
X139448236Y-125528312D01*
X139451643Y-125530926D01*
X139454325Y-125539986D01*
X139456341Y-125557285D01*
X139457748Y-125584614D01*
X139458605Y-125623765D01*
X139458970Y-125676533D01*
X139458903Y-125744707D01*
X139458460Y-125830082D01*
X139457702Y-125934449D01*
X139456685Y-126059600D01*
X139456308Y-126104300D01*
X139455169Y-126225395D01*
X139453972Y-126326688D01*
X139452636Y-126410262D01*
X139451077Y-126478204D01*
X139449215Y-126532599D01*
X139446966Y-126575532D01*
X139444248Y-126609089D01*
X139440979Y-126635355D01*
X139437078Y-126656416D01*
X139432461Y-126674357D01*
X139424192Y-126700770D01*
X139400583Y-126762772D01*
X139374685Y-126815573D01*
X139349535Y-126852645D01*
X139348339Y-126854075D01*
X139346168Y-126858424D01*
X139348328Y-126862026D01*
X139356644Y-126864951D01*
X139372940Y-126867269D01*
X139399041Y-126869051D01*
X139436771Y-126870367D01*
X139487956Y-126871286D01*
X139554420Y-126871878D01*
X139637987Y-126872215D01*
X139740483Y-126872365D01*
X139863732Y-126872400D01*
X140395296Y-126872400D01*
X140356523Y-126814783D01*
X140350432Y-126805893D01*
X140339976Y-126791069D01*
X140330579Y-126777422D01*
X140322183Y-126763765D01*
X140314733Y-126748911D01*
X140308173Y-126731670D01*
X140302446Y-126710855D01*
X140297495Y-126685280D01*
X140293266Y-126653755D01*
X140289701Y-126615093D01*
X140286744Y-126568107D01*
X140284340Y-126511608D01*
X140282431Y-126444409D01*
X140280962Y-126365322D01*
X140279876Y-126273160D01*
X140279118Y-126166734D01*
X140278630Y-126044857D01*
X140278358Y-125906341D01*
X140278243Y-125749999D01*
X140278231Y-125574642D01*
X140278265Y-125379082D01*
X140278289Y-125162133D01*
X140278280Y-125039513D01*
X140278243Y-124834447D01*
X140278227Y-124650116D01*
X140278288Y-124485334D01*
X140278484Y-124338916D01*
X140278870Y-124209674D01*
X140279505Y-124096422D01*
X140280444Y-123997975D01*
X140281745Y-123913144D01*
X140283464Y-123840744D01*
X140285659Y-123779589D01*
X140288385Y-123728492D01*
X140291701Y-123686267D01*
X140295662Y-123651727D01*
X140300325Y-123623686D01*
X140305747Y-123600958D01*
X140311986Y-123582356D01*
X140319097Y-123566693D01*
X140327138Y-123552784D01*
X140336166Y-123539441D01*
X140346236Y-123525479D01*
X140357407Y-123509711D01*
X140397197Y-123451867D01*
X139337314Y-123451867D01*
X139375311Y-123514966D01*
X139389993Y-123540005D01*
X139404531Y-123567586D01*
X139416627Y-123595700D01*
X139426532Y-123626551D01*
X139434494Y-123662344D01*
X139440761Y-123705283D01*
X139445582Y-123757574D01*
X139449206Y-123821419D01*
X139451881Y-123899025D01*
X139453857Y-123992594D01*
X139455382Y-124104333D01*
X139456704Y-124236445D01*
X139457613Y-124356434D01*
X139458020Y-124473063D01*
X139457767Y-124568531D01*
X139456857Y-124642556D01*
X139455293Y-124694855D01*
X139453079Y-124725149D01*
X139450220Y-124733156D01*
X139447161Y-124729858D01*
X139429006Y-124708408D01*
X139399275Y-124671889D01*
X139359639Y-124622442D01*
X139311771Y-124562207D01*
X139257343Y-124493327D01*
X139198027Y-124417943D01*
X139135495Y-124338196D01*
X139071421Y-124256228D01*
X139007475Y-124174180D01*
X138945331Y-124094194D01*
X138886661Y-124018411D01*
X138833137Y-123948973D01*
X138786430Y-123888021D01*
X138748214Y-123837696D01*
X138720161Y-123800140D01*
X138703943Y-123777495D01*
X138658635Y-123705212D01*
X138618661Y-123625463D01*
X138597130Y-123557188D01*
X138593827Y-123499844D01*
X138599116Y-123451867D01*
X137467356Y-123452117D01*
X137506867Y-123482722D01*
X137516248Y-123490089D01*
X137579183Y-123544438D01*
X137647997Y-123612259D01*
X137724596Y-123695516D01*
X137810888Y-123796178D01*
X137828052Y-123816847D01*
X137868833Y-123866409D01*
X137918588Y-123927326D01*
X137975955Y-123997898D01*
X138039569Y-124076424D01*
X138108069Y-124161204D01*
X138180090Y-124250537D01*
X138254270Y-124342722D01*
X138269517Y-124361702D01*
X138329246Y-124436060D01*
X138403653Y-124528848D01*
X138476131Y-124619388D01*
X138545314Y-124705978D01*
X138609841Y-124786918D01*
X138668347Y-124860506D01*
X138719470Y-124925044D01*
X138761847Y-124978829D01*
X138794115Y-125020162D01*
X138814910Y-125047342D01*
X138822869Y-125058668D01*
X138821111Y-125062771D01*
X138808230Y-125083334D01*
X138783885Y-125119561D01*
X138749247Y-125169824D01*
X138705486Y-125232492D01*
X138653775Y-125305936D01*
X138595284Y-125388527D01*
X138531184Y-125478636D01*
X138462646Y-125574631D01*
X138390843Y-125674885D01*
X138316944Y-125777768D01*
X138242121Y-125881650D01*
X138167545Y-125984901D01*
X138094387Y-126085892D01*
X138023819Y-126182994D01*
X137957011Y-126274577D01*
X137895135Y-126359011D01*
X137839361Y-126434667D01*
X137790862Y-126499916D01*
X137750807Y-126553128D01*
X137720369Y-126592673D01*
X137699944Y-126618026D01*
X137653899Y-126672295D01*
X137603612Y-126728775D01*
X137556815Y-126778669D01*
X137465651Y-126872400D01*
X136767445Y-126872400D01*
X136836356Y-126872349D01*
X136934607Y-126872091D01*
X137024030Y-126871637D01*
X137102333Y-126871010D01*
X137167223Y-126870235D01*
X137216411Y-126869335D01*
X137247604Y-126868334D01*
X137258511Y-126867257D01*
X137257322Y-126864037D01*
X137247176Y-126846452D01*
X137230040Y-126820158D01*
X137221540Y-126807691D01*
X137212329Y-126793622D01*
X137204233Y-126779351D01*
X137197185Y-126763479D01*
X137191117Y-126744609D01*
X137185961Y-126721341D01*
X137181651Y-126692278D01*
X137178119Y-126656021D01*
X137175297Y-126611170D01*
X137173118Y-126556328D01*
X137171514Y-126490097D01*
X137170419Y-126411077D01*
X137169765Y-126317871D01*
X137169484Y-126209079D01*
X137169509Y-126083303D01*
X137169772Y-125939145D01*
X137170206Y-125775207D01*
X137170745Y-125590089D01*
X137171279Y-125411232D01*
X137171805Y-125252374D01*
X137172350Y-125113316D01*
X137172945Y-124992665D01*
X137173619Y-124889028D01*
X137174403Y-124801011D01*
X137175326Y-124727223D01*
X137176419Y-124666269D01*
X137177712Y-124616757D01*
X137179235Y-124577293D01*
X137181019Y-124546484D01*
X137183092Y-124522938D01*
X137185486Y-124505260D01*
X137188230Y-124492059D01*
X137191356Y-124481940D01*
X137194892Y-124473511D01*
X137198791Y-124465375D01*
X137218438Y-124428544D01*
X137237225Y-124398391D01*
X137238272Y-124396908D01*
X137252602Y-124374659D01*
X137258511Y-124361702D01*
X137257504Y-124361249D01*
X137240305Y-124359803D01*
X137203656Y-124358480D01*
X137149962Y-124357316D01*
X137081630Y-124356347D01*
X137001064Y-124355611D01*
X136910670Y-124355142D01*
X136812853Y-124354978D01*
X136367195Y-124354978D01*
X136364120Y-125531845D01*
X136361045Y-126708711D01*
X136334407Y-126767622D01*
X136322485Y-126792183D01*
X136305246Y-126822434D01*
X136292074Y-126839560D01*
X136284076Y-126847591D01*
X136276378Y-126862493D01*
X135984942Y-126862493D01*
X135984474Y-126770029D01*
X135984050Y-126654617D01*
X135983706Y-126524160D01*
X135983434Y-126377716D01*
X135983227Y-126214344D01*
X135983076Y-126033101D01*
X135982972Y-125833048D01*
X135982908Y-125613241D01*
X135982876Y-125372739D01*
X135982867Y-125110602D01*
X135982867Y-122919031D01*
X136021249Y-122880649D01*
X136048355Y-122856911D01*
X136075253Y-122845111D01*
X136111560Y-122842267D01*
X136163489Y-122842267D01*
X136163489Y-122930206D01*
X136165427Y-122980102D01*
X136184199Y-123090523D01*
X136221217Y-123191987D01*
X136274369Y-123283152D01*
X136341546Y-123362673D01*
X136420638Y-123429205D01*
X136509534Y-123481406D01*
X136606125Y-123517930D01*
X136708300Y-123537434D01*
X136813950Y-123538573D01*
X136920964Y-123520005D01*
X137027232Y-123480384D01*
X137124219Y-123422516D01*
X137209293Y-123347684D01*
X137278015Y-123259615D01*
X137328918Y-123160616D01*
X137360535Y-123052993D01*
X137371400Y-122939054D01*
X137371400Y-122842267D01*
X138991753Y-122842267D01*
X139202897Y-122842280D01*
X139407020Y-122842330D01*
X139590686Y-122842430D01*
X139754991Y-122842592D01*
X139901029Y-122842829D01*
X140029894Y-122843153D01*
X140142683Y-122843575D01*
X140240488Y-122844109D01*
X140324404Y-122844767D01*
X140395527Y-122845561D01*
X140454950Y-122846504D01*
X140503768Y-122847608D01*
X140543077Y-122848884D01*
X140573969Y-122850347D01*
X140597541Y-122852007D01*
X140614886Y-122853878D01*
X140627099Y-122855972D01*
X140635275Y-122858300D01*
X140640508Y-122860876D01*
X140646504Y-122864445D01*
X140653279Y-122867978D01*
X140659478Y-122871488D01*
X140665126Y-122875918D01*
X140670247Y-122882208D01*
X140674869Y-122891301D01*
X140679015Y-122904139D01*
X140682713Y-122921662D01*
X140685987Y-122944813D01*
X140688863Y-122974534D01*
X140691367Y-123011765D01*
X140693524Y-123057449D01*
X140695360Y-123112527D01*
X140696900Y-123177941D01*
X140698170Y-123254633D01*
X140699195Y-123343544D01*
X140700001Y-123445617D01*
X140700034Y-123451867D01*
X140700614Y-123561792D01*
G36*
X140700614Y-123561792D02*
G01*
X140701059Y-123693011D01*
X140701362Y-123840216D01*
X140701548Y-124004349D01*
X140701642Y-124186352D01*
X140701671Y-124387165D01*
X140701661Y-124607732D01*
X140701636Y-124848992D01*
X140701622Y-125111889D01*
X140701622Y-125154040D01*
X140701646Y-125414668D01*
X140701685Y-125653796D01*
X140701708Y-125872360D01*
X140701687Y-126071295D01*
X140701593Y-126251535D01*
X140701395Y-126414015D01*
X140701063Y-126559670D01*
X140700569Y-126689434D01*
X140699883Y-126804243D01*
X140698976Y-126905030D01*
X140697817Y-126992730D01*
X140696378Y-127068279D01*
X140694629Y-127132611D01*
X140692540Y-127186661D01*
X140690083Y-127231363D01*
X140687227Y-127267652D01*
X140683943Y-127296463D01*
X140680202Y-127318731D01*
X140675974Y-127335390D01*
X140671229Y-127347375D01*
X140665939Y-127355621D01*
X140660073Y-127361062D01*
X140653602Y-127364634D01*
X140646497Y-127367270D01*
X140638728Y-127369906D01*
X140630266Y-127373477D01*
X140625908Y-127375145D01*
X140617395Y-127377111D01*
X140604694Y-127378911D01*
X140586885Y-127380555D01*
X140563049Y-127382047D01*
X140532266Y-127383397D01*
X140493617Y-127384611D01*
X140446182Y-127385697D01*
X140389043Y-127386661D01*
X140321279Y-127387511D01*
X140241971Y-127388253D01*
X140150199Y-127388897D01*
X140045044Y-127389447D01*
X139925587Y-127389913D01*
X139790908Y-127390300D01*
X139640088Y-127390616D01*
X139472206Y-127390869D01*
X139286345Y-127391066D01*
X139081583Y-127391213D01*
X138857002Y-127391318D01*
X138611682Y-127391389D01*
X138344704Y-127391432D01*
X138306321Y-127391437D01*
X138040922Y-127391480D01*
X137797050Y-127391525D01*
X137573783Y-127391548D01*
X137370196Y-127391524D01*
X137185367Y-127391430D01*
X137018373Y-127391243D01*
X136868290Y-127390939D01*
X136734196Y-127390494D01*
X136615166Y-127389885D01*
X136510279Y-127389089D01*
X136418610Y-127388080D01*
X136339237Y-127386837D01*
X136271237Y-127385335D01*
X136213686Y-127383551D01*
X136165662Y-127381461D01*
X136126240Y-127379042D01*
X136094499Y-127376270D01*
X136069514Y-127373121D01*
X136050364Y-127369572D01*
X136036123Y-127365598D01*
X136025871Y-127361178D01*
X136018682Y-127356286D01*
X136013635Y-127350900D01*
X136009805Y-127344996D01*
X136006271Y-127338549D01*
X136002108Y-127331537D01*
X136001025Y-127329687D01*
X135998813Y-127324180D01*
X135996786Y-127315868D01*
X135994938Y-127303809D01*
X135993261Y-127287063D01*
X135991745Y-127264687D01*
X135990383Y-127235740D01*
X135989167Y-127199280D01*
X135988089Y-127154367D01*
X135987140Y-127100057D01*
X135986312Y-127035410D01*
X135985597Y-126959484D01*
X135984987Y-126871338D01*
X135984942Y-126862493D01*
X136276378Y-126862493D01*
X136280260Y-126863765D01*
X136303520Y-126865791D01*
X136345874Y-126867626D01*
X136405132Y-126869227D01*
X136479107Y-126870549D01*
X136565610Y-126871548D01*
X136662452Y-126872180D01*
X136767445Y-126872400D01*
X137465651Y-126872400D01*
X138620090Y-126872400D01*
X138619456Y-126796200D01*
X138620574Y-126754160D01*
X138626304Y-126718334D01*
X138638890Y-126680772D01*
X138660568Y-126632577D01*
X138663789Y-126625897D01*
X138689188Y-126576359D01*
X138715996Y-126528369D01*
X138738917Y-126491466D01*
X138743485Y-126484834D01*
X138765516Y-126453593D01*
X138797693Y-126408654D01*
X138838457Y-126352147D01*
X138886245Y-126286204D01*
X138939498Y-126212957D01*
X138996655Y-126134536D01*
X139056155Y-126053072D01*
X139116437Y-125970698D01*
X139175940Y-125889544D01*
X139233105Y-125811742D01*
X139286370Y-125739423D01*
X139334174Y-125674718D01*
X139374957Y-125619759D01*
X139407158Y-125576676D01*
X139429216Y-125547602D01*
X139439571Y-125534667D01*
X139444044Y-125530351D01*
X139448236Y-125528312D01*
X139451643Y-125530926D01*
X139454325Y-125539986D01*
X139456341Y-125557285D01*
X139457748Y-125584614D01*
X139458605Y-125623765D01*
X139458970Y-125676533D01*
X139458903Y-125744707D01*
X139458460Y-125830082D01*
X139457702Y-125934449D01*
X139456685Y-126059600D01*
X139456308Y-126104300D01*
X139455169Y-126225395D01*
X139453972Y-126326688D01*
X139452636Y-126410262D01*
X139451077Y-126478204D01*
X139449215Y-126532599D01*
X139446966Y-126575532D01*
X139444248Y-126609089D01*
X139440979Y-126635355D01*
X139437078Y-126656416D01*
X139432461Y-126674357D01*
X139424192Y-126700770D01*
X139400583Y-126762772D01*
X139374685Y-126815573D01*
X139349535Y-126852645D01*
X139348339Y-126854075D01*
X139346168Y-126858424D01*
X139348328Y-126862026D01*
X139356644Y-126864951D01*
X139372940Y-126867269D01*
X139399041Y-126869051D01*
X139436771Y-126870367D01*
X139487956Y-126871286D01*
X139554420Y-126871878D01*
X139637987Y-126872215D01*
X139740483Y-126872365D01*
X139863732Y-126872400D01*
X140395296Y-126872400D01*
X140356523Y-126814783D01*
X140350432Y-126805893D01*
X140339976Y-126791069D01*
X140330579Y-126777422D01*
X140322183Y-126763765D01*
X140314733Y-126748911D01*
X140308173Y-126731670D01*
X140302446Y-126710855D01*
X140297495Y-126685280D01*
X140293266Y-126653755D01*
X140289701Y-126615093D01*
X140286744Y-126568107D01*
X140284340Y-126511608D01*
X140282431Y-126444409D01*
X140280962Y-126365322D01*
X140279876Y-126273160D01*
X140279118Y-126166734D01*
X140278630Y-126044857D01*
X140278358Y-125906341D01*
X140278243Y-125749999D01*
X140278231Y-125574642D01*
X140278265Y-125379082D01*
X140278289Y-125162133D01*
X140278280Y-125039513D01*
X140278243Y-124834447D01*
X140278227Y-124650116D01*
X140278288Y-124485334D01*
X140278484Y-124338916D01*
X140278870Y-124209674D01*
X140279505Y-124096422D01*
X140280444Y-123997975D01*
X140281745Y-123913144D01*
X140283464Y-123840744D01*
X140285659Y-123779589D01*
X140288385Y-123728492D01*
X140291701Y-123686267D01*
X140295662Y-123651727D01*
X140300325Y-123623686D01*
X140305747Y-123600958D01*
X140311986Y-123582356D01*
X140319097Y-123566693D01*
X140327138Y-123552784D01*
X140336166Y-123539441D01*
X140346236Y-123525479D01*
X140357407Y-123509711D01*
X140397197Y-123451867D01*
X139337314Y-123451867D01*
X139375311Y-123514966D01*
X139389993Y-123540005D01*
X139404531Y-123567586D01*
X139416627Y-123595700D01*
X139426532Y-123626551D01*
X139434494Y-123662344D01*
X139440761Y-123705283D01*
X139445582Y-123757574D01*
X139449206Y-123821419D01*
X139451881Y-123899025D01*
X139453857Y-123992594D01*
X139455382Y-124104333D01*
X139456704Y-124236445D01*
X139457613Y-124356434D01*
X139458020Y-124473063D01*
X139457767Y-124568531D01*
X139456857Y-124642556D01*
X139455293Y-124694855D01*
X139453079Y-124725149D01*
X139450220Y-124733156D01*
X139447161Y-124729858D01*
X139429006Y-124708408D01*
X139399275Y-124671889D01*
X139359639Y-124622442D01*
X139311771Y-124562207D01*
X139257343Y-124493327D01*
X139198027Y-124417943D01*
X139135495Y-124338196D01*
X139071421Y-124256228D01*
X139007475Y-124174180D01*
X138945331Y-124094194D01*
X138886661Y-124018411D01*
X138833137Y-123948973D01*
X138786430Y-123888021D01*
X138748214Y-123837696D01*
X138720161Y-123800140D01*
X138703943Y-123777495D01*
X138658635Y-123705212D01*
X138618661Y-123625463D01*
X138597130Y-123557188D01*
X138593827Y-123499844D01*
X138599116Y-123451867D01*
X137467356Y-123452117D01*
X137506867Y-123482722D01*
X137516248Y-123490089D01*
X137579183Y-123544438D01*
X137647997Y-123612259D01*
X137724596Y-123695516D01*
X137810888Y-123796178D01*
X137828052Y-123816847D01*
X137868833Y-123866409D01*
X137918588Y-123927326D01*
X137975955Y-123997898D01*
X138039569Y-124076424D01*
X138108069Y-124161204D01*
X138180090Y-124250537D01*
X138254270Y-124342722D01*
X138269517Y-124361702D01*
X138329246Y-124436060D01*
X138403653Y-124528848D01*
X138476131Y-124619388D01*
X138545314Y-124705978D01*
X138609841Y-124786918D01*
X138668347Y-124860506D01*
X138719470Y-124925044D01*
X138761847Y-124978829D01*
X138794115Y-125020162D01*
X138814910Y-125047342D01*
X138822869Y-125058668D01*
X138821111Y-125062771D01*
X138808230Y-125083334D01*
X138783885Y-125119561D01*
X138749247Y-125169824D01*
X138705486Y-125232492D01*
X138653775Y-125305936D01*
X138595284Y-125388527D01*
X138531184Y-125478636D01*
X138462646Y-125574631D01*
X138390843Y-125674885D01*
X138316944Y-125777768D01*
X138242121Y-125881650D01*
X138167545Y-125984901D01*
X138094387Y-126085892D01*
X138023819Y-126182994D01*
X137957011Y-126274577D01*
X137895135Y-126359011D01*
X137839361Y-126434667D01*
X137790862Y-126499916D01*
X137750807Y-126553128D01*
X137720369Y-126592673D01*
X137699944Y-126618026D01*
X137653899Y-126672295D01*
X137603612Y-126728775D01*
X137556815Y-126778669D01*
X137465651Y-126872400D01*
X136767445Y-126872400D01*
X136836356Y-126872349D01*
X136934607Y-126872091D01*
X137024030Y-126871637D01*
X137102333Y-126871010D01*
X137167223Y-126870235D01*
X137216411Y-126869335D01*
X137247604Y-126868334D01*
X137258511Y-126867257D01*
X137257322Y-126864037D01*
X137247176Y-126846452D01*
X137230040Y-126820158D01*
X137221540Y-126807691D01*
X137212329Y-126793622D01*
X137204233Y-126779351D01*
X137197185Y-126763479D01*
X137191117Y-126744609D01*
X137185961Y-126721341D01*
X137181651Y-126692278D01*
X137178119Y-126656021D01*
X137175297Y-126611170D01*
X137173118Y-126556328D01*
X137171514Y-126490097D01*
X137170419Y-126411077D01*
X137169765Y-126317871D01*
X137169484Y-126209079D01*
X137169509Y-126083303D01*
X137169772Y-125939145D01*
X137170206Y-125775207D01*
X137170745Y-125590089D01*
X137171279Y-125411232D01*
X137171805Y-125252374D01*
X137172350Y-125113316D01*
X137172945Y-124992665D01*
X137173619Y-124889028D01*
X137174403Y-124801011D01*
X137175326Y-124727223D01*
X137176419Y-124666269D01*
X137177712Y-124616757D01*
X137179235Y-124577293D01*
X137181019Y-124546484D01*
X137183092Y-124522938D01*
X137185486Y-124505260D01*
X137188230Y-124492059D01*
X137191356Y-124481940D01*
X137194892Y-124473511D01*
X137198791Y-124465375D01*
X137218438Y-124428544D01*
X137237225Y-124398391D01*
X137238272Y-124396908D01*
X137252602Y-124374659D01*
X137258511Y-124361702D01*
X137257504Y-124361249D01*
X137240305Y-124359803D01*
X137203656Y-124358480D01*
X137149962Y-124357316D01*
X137081630Y-124356347D01*
X137001064Y-124355611D01*
X136910670Y-124355142D01*
X136812853Y-124354978D01*
X136367195Y-124354978D01*
X136364120Y-125531845D01*
X136361045Y-126708711D01*
X136334407Y-126767622D01*
X136322485Y-126792183D01*
X136305246Y-126822434D01*
X136292074Y-126839560D01*
X136284076Y-126847591D01*
X136276378Y-126862493D01*
X135984942Y-126862493D01*
X135984474Y-126770029D01*
X135984050Y-126654617D01*
X135983706Y-126524160D01*
X135983434Y-126377716D01*
X135983227Y-126214344D01*
X135983076Y-126033101D01*
X135982972Y-125833048D01*
X135982908Y-125613241D01*
X135982876Y-125372739D01*
X135982867Y-125110602D01*
X135982867Y-122919031D01*
X136021249Y-122880649D01*
X136048355Y-122856911D01*
X136075253Y-122845111D01*
X136111560Y-122842267D01*
X136163489Y-122842267D01*
X136163489Y-122930206D01*
X136165427Y-122980102D01*
X136184199Y-123090523D01*
X136221217Y-123191987D01*
X136274369Y-123283152D01*
X136341546Y-123362673D01*
X136420638Y-123429205D01*
X136509534Y-123481406D01*
X136606125Y-123517930D01*
X136708300Y-123537434D01*
X136813950Y-123538573D01*
X136920964Y-123520005D01*
X137027232Y-123480384D01*
X137124219Y-123422516D01*
X137209293Y-123347684D01*
X137278015Y-123259615D01*
X137328918Y-123160616D01*
X137360535Y-123052993D01*
X137371400Y-122939054D01*
X137371400Y-122842267D01*
X138991753Y-122842267D01*
X139202897Y-122842280D01*
X139407020Y-122842330D01*
X139590686Y-122842430D01*
X139754991Y-122842592D01*
X139901029Y-122842829D01*
X140029894Y-122843153D01*
X140142683Y-122843575D01*
X140240488Y-122844109D01*
X140324404Y-122844767D01*
X140395527Y-122845561D01*
X140454950Y-122846504D01*
X140503768Y-122847608D01*
X140543077Y-122848884D01*
X140573969Y-122850347D01*
X140597541Y-122852007D01*
X140614886Y-122853878D01*
X140627099Y-122855972D01*
X140635275Y-122858300D01*
X140640508Y-122860876D01*
X140646504Y-122864445D01*
X140653279Y-122867978D01*
X140659478Y-122871488D01*
X140665126Y-122875918D01*
X140670247Y-122882208D01*
X140674869Y-122891301D01*
X140679015Y-122904139D01*
X140682713Y-122921662D01*
X140685987Y-122944813D01*
X140688863Y-122974534D01*
X140691367Y-123011765D01*
X140693524Y-123057449D01*
X140695360Y-123112527D01*
X140696900Y-123177941D01*
X140698170Y-123254633D01*
X140699195Y-123343544D01*
X140700001Y-123445617D01*
X140700034Y-123451867D01*
X140700614Y-123561792D01*
G37*
%TD*%
%LPC*%
D12*
%TO.C,J4*%
X160122500Y-125642500D03*
D13*
X162662500Y-125642500D03*
X165202500Y-125642500D03*
%TD*%
D14*
%TO.C,J6*%
X124850000Y-74575000D03*
D15*
X124850000Y-77075000D03*
%TD*%
D16*
%TO.C,J5*%
X145805000Y-122650000D03*
D17*
X148305000Y-122650000D03*
X150805000Y-122650000D03*
X153305000Y-122650000D03*
%TD*%
D12*
%TO.C,J10*%
X151090000Y-64600000D03*
D13*
X153630000Y-64600000D03*
X156170000Y-64600000D03*
X158710000Y-64600000D03*
X161250000Y-64600000D03*
%TD*%
D18*
%TO.C,J8*%
X169388000Y-107600000D03*
X163608000Y-107600000D03*
D19*
X170818000Y-108130000D03*
D20*
X170818000Y-103950000D03*
D19*
X162178000Y-108130000D03*
D20*
X162178000Y-103950000D03*
%TD*%
D12*
%TO.C,J9*%
X172935000Y-113470000D03*
D13*
X172935000Y-116010000D03*
X172935000Y-118550000D03*
X172935000Y-121090000D03*
X172935000Y-123630000D03*
%TD*%
D12*
%TO.C,J1*%
X121840000Y-124237500D03*
D13*
X121840000Y-121697500D03*
%TD*%
%LPD*%
M02*
