M48
; DRILL file {KiCad 9.0.7} date 2026-07-07T23:05:03+0530
; FORMAT={-:-/ absolute / metric / decimal}
; #@! TF.CreationDate,2026-07-07T23:05:03+05:30
; #@! TF.GenerationSoftware,Kicad,Pcbnew,9.0.7
; #@! TF.FileFunction,Plated,1,4,PTH
FMAT,2
METRIC
; #@! TA.AperFunction,Plated,PTH,ViaDrill
T1C0.300
; #@! TA.AperFunction,Plated,PTH,ComponentDrill
T2C0.600
; #@! TA.AperFunction,Plated,PTH,ComponentDrill
T3C0.950
; #@! TA.AperFunction,Plated,PTH,ComponentDrill
T4C1.000
%
G90
G05
T1
X120.15Y-126.8
X121.615Y-109.857
X124.222Y-119.409
X124.675Y-108.89
X126.975Y-83.3
X127.675Y-116.99
X129.125Y-116.75
X131.4Y-115.35
X132.3Y-84.85
X132.625Y-104.7
X132.95Y-127.925
X133.076Y-115.35
X138.1Y-89.275
X138.975Y-66.025
X139.425Y-107.25
X139.525Y-74.525
X143.725Y-92.4
X146.376Y-92.676
X147.475Y-86.7
X148.063Y-93.987
X148.102Y-96.727
X148.109Y-94.785
X148.15Y-89.625
X148.289Y-104.888
X148.925Y-98.8
X148.975Y-105.3
X149.25Y-66.425
X149.475Y-89.575
X150.375Y-108.1
X150.657Y-93.785
X150.693Y-91.982
X150.725Y-94.65
X150.856Y-84.175
X151.0Y-95.525
X151.0Y-97.2
X151.228Y-81.868
X152.22Y-118.25
X152.675Y-72.3
X152.8Y-87.2
X153.475Y-106.4
X153.905Y-118.65
X154.275Y-87.0
X155.9Y-66.75
X156.575Y-89.8
X157.183Y-86.8
X157.501Y-92.424
X157.539Y-89.735
X158.025Y-125.075
X158.05Y-120.85
X158.575Y-90.525
X158.844Y-93.574
X158.95Y-120.25
X159.275Y-92.9
X159.575Y-100.3
X159.675Y-88.2
X159.775Y-109.1
X160.499Y-98.55
X160.503Y-103.256
X160.947Y-112.303
X160.975Y-100.9
X161.125Y-120.775
X161.125Y-124.15
X161.275Y-66.0
X162.025Y-114.45
X162.065Y-96.71
X162.393Y-95.288
X162.475Y-89.5
X162.575Y-88.2
X162.6Y-114.85
X162.875Y-98.55
X162.975Y-100.5
X163.275Y-88.875
X163.575Y-67.0
X164.275Y-93.2
X164.653Y-113.495
X164.675Y-97.3
X165.15Y-120.625
X165.275Y-67.1
X166.335Y-106.75
X166.875Y-110.97
X167.273Y-107.728
X167.775Y-97.3
X168.972Y-118.745
X169.011Y-114.235
X169.3Y-112.475
X170.129Y-115.513
X170.154Y-112.183
X170.375Y-118.8
X170.675Y-121.1
X170.935Y-114.05
X171.256Y-116.473
X172.007Y-114.814
X172.235Y-102.15
X172.275Y-100.95
X174.45Y-120.975
T3
X145.805Y-122.65
X148.305Y-122.65
X150.805Y-122.65
X153.305Y-122.65
T4
X121.84Y-121.697
X121.84Y-124.237
X124.85Y-74.575
X124.85Y-77.075
X151.09Y-64.6
X153.63Y-64.6
X156.17Y-64.6
X158.71Y-64.6
X160.123Y-125.642
X161.25Y-64.6
X162.662Y-125.642
X165.202Y-125.642
X172.935Y-113.47
X172.935Y-116.01
X172.935Y-118.55
X172.935Y-121.09
X172.935Y-123.63
T2
G00X162.178Y-104.25
M15
G01X162.178Y-103.65
M16
G05
G00X162.178Y-108.68
M15
G01X162.178Y-107.58
M16
G05
G00X170.818Y-104.25
M15
G01X170.818Y-103.65
M16
G05
G00X170.818Y-108.68
M15
G01X170.818Y-107.58
M16
G05
M30
