M48
; DRILL file {KiCad 9.0.7} date 2026-07-07T23:05:03+0530
; FORMAT={-:-/ absolute / metric / decimal}
; #@! TF.CreationDate,2026-07-07T23:05:03+05:30
; #@! TF.GenerationSoftware,Kicad,Pcbnew,9.0.7
; #@! TF.FileFunction,Plated,1,2,Blind
FMAT,2
METRIC
; #@! TA.AperFunction,Plated,Buried,ViaDrill
T1C0.300
%
G90
G05
T1
X119.775Y-118.925
X119.775Y-121.7
X121.55Y-84.825
X121.6Y-81.85
X121.925Y-87.025
X122.275Y-107.05
X122.85Y-117.35
X123.275Y-118.375
X123.775Y-104.575
X124.8Y-128.425
X125.95Y-69.825
X126.675Y-120.0
X127.325Y-120.375
X127.475Y-107.275
X127.95Y-91.9
X127.984Y-109.216
X128.3Y-105.6
X128.675Y-119.725
X128.7Y-127.575
X130.45Y-81.0
X134.325Y-75.05
X137.875Y-76.9
X139.225Y-67.525
X140.8Y-127.125
X140.875Y-84.75
X142.0Y-64.55
X142.55Y-85.35
X142.65Y-102.825
X143.075Y-69.475
X144.075Y-94.375
X145.87Y-118.925
X146.375Y-105.25
X146.725Y-107.9
X146.925Y-103.8
X146.992Y-100.667
X147.008Y-89.367
X147.262Y-95.41
X147.477Y-97.45
X147.9Y-118.85
X148.075Y-65.525
X151.802Y-86.098
X151.952Y-87.021
X152.85Y-110.275
X153.55Y-62.675
X153.775Y-72.425
X154.425Y-110.3
X154.575Y-109.1
X156.4Y-86.375
X156.8Y-105.9
X156.825Y-97.904
X158.175Y-82.45
X158.274Y-104.875
X158.274Y-106.05
X159.025Y-113.35
X159.467Y-91.225
X159.95Y-120.275
X160.135Y-111.49
X160.735Y-115.625
X161.771Y-100.82
X161.8Y-109.675
X162.0Y-97.65
X162.375Y-86.875
X162.675Y-127.675
X163.2Y-103.975
X163.417Y-112.203
X163.999Y-111.845
X165.1Y-92.3
X165.347Y-112.896
X165.778Y-115.419
X167.125Y-113.3
X167.776Y-93.425
X168.175Y-63.65
X168.4Y-112.296
X169.026Y-90.4
X170.175Y-63.375
X170.475Y-123.625
X171.525Y-93.8
X172.175Y-65.525
X172.275Y-103.925
X172.775Y-86.35
M30
