%TF.GenerationSoftware,KiCad,Pcbnew,9.0.7*%
%TF.CreationDate,2026-01-15T12:26:01+05:30*%
%TF.ProjectId,actodc,6163746f-6463-42e6-9b69-6361645f7063,rev?*%
%TF.SameCoordinates,Original*%
%TF.FileFunction,Legend,Top*%
%TF.FilePolarity,Positive*%
%FSLAX46Y46*%
G04 Gerber Fmt 4.6, Leading zero omitted, Abs format (unit mm)*
G04 Created by KiCad (PCBNEW 9.0.7) date 2026-01-15 12:26:01*
%MOMM*%
%LPD*%
G01*
G04 APERTURE LIST*
%ADD10C,0.100000*%
%ADD11C,0.150000*%
%ADD12C,0.120000*%
%ADD13C,0.000000*%
G04 APERTURE END LIST*
D10*
X117986704Y-93943734D02*
X117986704Y-93467544D01*
X118272419Y-94038972D02*
X117272419Y-93705639D01*
X117272419Y-93705639D02*
X118272419Y-93372306D01*
X118177180Y-92467544D02*
X118224800Y-92515163D01*
X118224800Y-92515163D02*
X118272419Y-92658020D01*
X118272419Y-92658020D02*
X118272419Y-92753258D01*
X118272419Y-92753258D02*
X118224800Y-92896115D01*
X118224800Y-92896115D02*
X118129561Y-92991353D01*
X118129561Y-92991353D02*
X118034323Y-93038972D01*
X118034323Y-93038972D02*
X117843847Y-93086591D01*
X117843847Y-93086591D02*
X117700990Y-93086591D01*
X117700990Y-93086591D02*
X117510514Y-93038972D01*
X117510514Y-93038972D02*
X117415276Y-92991353D01*
X117415276Y-92991353D02*
X117320038Y-92896115D01*
X117320038Y-92896115D02*
X117272419Y-92753258D01*
X117272419Y-92753258D02*
X117272419Y-92658020D01*
X117272419Y-92658020D02*
X117320038Y-92515163D01*
X117320038Y-92515163D02*
X117367657Y-92467544D01*
X118272419Y-91277067D02*
X117605752Y-91277067D01*
X117272419Y-91277067D02*
X117320038Y-91324686D01*
X117320038Y-91324686D02*
X117367657Y-91277067D01*
X117367657Y-91277067D02*
X117320038Y-91229448D01*
X117320038Y-91229448D02*
X117272419Y-91277067D01*
X117272419Y-91277067D02*
X117367657Y-91277067D01*
X117605752Y-90800877D02*
X118272419Y-90800877D01*
X117700990Y-90800877D02*
X117653371Y-90753258D01*
X117653371Y-90753258D02*
X117605752Y-90658020D01*
X117605752Y-90658020D02*
X117605752Y-90515163D01*
X117605752Y-90515163D02*
X117653371Y-90419925D01*
X117653371Y-90419925D02*
X117748609Y-90372306D01*
X117748609Y-90372306D02*
X118272419Y-90372306D01*
X146056265Y-83986704D02*
X146532455Y-83986704D01*
X145961027Y-84272419D02*
X146294360Y-83272419D01*
X146294360Y-83272419D02*
X146627693Y-84272419D01*
X147532455Y-84177180D02*
X147484836Y-84224800D01*
X147484836Y-84224800D02*
X147341979Y-84272419D01*
X147341979Y-84272419D02*
X147246741Y-84272419D01*
X147246741Y-84272419D02*
X147103884Y-84224800D01*
X147103884Y-84224800D02*
X147008646Y-84129561D01*
X147008646Y-84129561D02*
X146961027Y-84034323D01*
X146961027Y-84034323D02*
X146913408Y-83843847D01*
X146913408Y-83843847D02*
X146913408Y-83700990D01*
X146913408Y-83700990D02*
X146961027Y-83510514D01*
X146961027Y-83510514D02*
X147008646Y-83415276D01*
X147008646Y-83415276D02*
X147103884Y-83320038D01*
X147103884Y-83320038D02*
X147246741Y-83272419D01*
X147246741Y-83272419D02*
X147341979Y-83272419D01*
X147341979Y-83272419D02*
X147484836Y-83320038D01*
X147484836Y-83320038D02*
X147532455Y-83367657D01*
X148580075Y-83605752D02*
X148961027Y-83605752D01*
X148722932Y-83272419D02*
X148722932Y-84129561D01*
X148722932Y-84129561D02*
X148770551Y-84224800D01*
X148770551Y-84224800D02*
X148865789Y-84272419D01*
X148865789Y-84272419D02*
X148961027Y-84272419D01*
X149437218Y-84272419D02*
X149341980Y-84224800D01*
X149341980Y-84224800D02*
X149294361Y-84177180D01*
X149294361Y-84177180D02*
X149246742Y-84081942D01*
X149246742Y-84081942D02*
X149246742Y-83796228D01*
X149246742Y-83796228D02*
X149294361Y-83700990D01*
X149294361Y-83700990D02*
X149341980Y-83653371D01*
X149341980Y-83653371D02*
X149437218Y-83605752D01*
X149437218Y-83605752D02*
X149580075Y-83605752D01*
X149580075Y-83605752D02*
X149675313Y-83653371D01*
X149675313Y-83653371D02*
X149722932Y-83700990D01*
X149722932Y-83700990D02*
X149770551Y-83796228D01*
X149770551Y-83796228D02*
X149770551Y-84081942D01*
X149770551Y-84081942D02*
X149722932Y-84177180D01*
X149722932Y-84177180D02*
X149675313Y-84224800D01*
X149675313Y-84224800D02*
X149580075Y-84272419D01*
X149580075Y-84272419D02*
X149437218Y-84272419D01*
X150961028Y-84272419D02*
X150961028Y-83272419D01*
X150961028Y-83272419D02*
X151199123Y-83272419D01*
X151199123Y-83272419D02*
X151341980Y-83320038D01*
X151341980Y-83320038D02*
X151437218Y-83415276D01*
X151437218Y-83415276D02*
X151484837Y-83510514D01*
X151484837Y-83510514D02*
X151532456Y-83700990D01*
X151532456Y-83700990D02*
X151532456Y-83843847D01*
X151532456Y-83843847D02*
X151484837Y-84034323D01*
X151484837Y-84034323D02*
X151437218Y-84129561D01*
X151437218Y-84129561D02*
X151341980Y-84224800D01*
X151341980Y-84224800D02*
X151199123Y-84272419D01*
X151199123Y-84272419D02*
X150961028Y-84272419D01*
X152532456Y-84177180D02*
X152484837Y-84224800D01*
X152484837Y-84224800D02*
X152341980Y-84272419D01*
X152341980Y-84272419D02*
X152246742Y-84272419D01*
X152246742Y-84272419D02*
X152103885Y-84224800D01*
X152103885Y-84224800D02*
X152008647Y-84129561D01*
X152008647Y-84129561D02*
X151961028Y-84034323D01*
X151961028Y-84034323D02*
X151913409Y-83843847D01*
X151913409Y-83843847D02*
X151913409Y-83700990D01*
X151913409Y-83700990D02*
X151961028Y-83510514D01*
X151961028Y-83510514D02*
X152008647Y-83415276D01*
X152008647Y-83415276D02*
X152103885Y-83320038D01*
X152103885Y-83320038D02*
X152246742Y-83272419D01*
X152246742Y-83272419D02*
X152341980Y-83272419D01*
X152341980Y-83272419D02*
X152484837Y-83320038D01*
X152484837Y-83320038D02*
X152532456Y-83367657D01*
X154294361Y-84177180D02*
X154246742Y-84224800D01*
X154246742Y-84224800D02*
X154103885Y-84272419D01*
X154103885Y-84272419D02*
X154008647Y-84272419D01*
X154008647Y-84272419D02*
X153865790Y-84224800D01*
X153865790Y-84224800D02*
X153770552Y-84129561D01*
X153770552Y-84129561D02*
X153722933Y-84034323D01*
X153722933Y-84034323D02*
X153675314Y-83843847D01*
X153675314Y-83843847D02*
X153675314Y-83700990D01*
X153675314Y-83700990D02*
X153722933Y-83510514D01*
X153722933Y-83510514D02*
X153770552Y-83415276D01*
X153770552Y-83415276D02*
X153865790Y-83320038D01*
X153865790Y-83320038D02*
X154008647Y-83272419D01*
X154008647Y-83272419D02*
X154103885Y-83272419D01*
X154103885Y-83272419D02*
X154246742Y-83320038D01*
X154246742Y-83320038D02*
X154294361Y-83367657D01*
X154865790Y-84272419D02*
X154770552Y-84224800D01*
X154770552Y-84224800D02*
X154722933Y-84177180D01*
X154722933Y-84177180D02*
X154675314Y-84081942D01*
X154675314Y-84081942D02*
X154675314Y-83796228D01*
X154675314Y-83796228D02*
X154722933Y-83700990D01*
X154722933Y-83700990D02*
X154770552Y-83653371D01*
X154770552Y-83653371D02*
X154865790Y-83605752D01*
X154865790Y-83605752D02*
X155008647Y-83605752D01*
X155008647Y-83605752D02*
X155103885Y-83653371D01*
X155103885Y-83653371D02*
X155151504Y-83700990D01*
X155151504Y-83700990D02*
X155199123Y-83796228D01*
X155199123Y-83796228D02*
X155199123Y-84081942D01*
X155199123Y-84081942D02*
X155151504Y-84177180D01*
X155151504Y-84177180D02*
X155103885Y-84224800D01*
X155103885Y-84224800D02*
X155008647Y-84272419D01*
X155008647Y-84272419D02*
X154865790Y-84272419D01*
X155627695Y-83605752D02*
X155627695Y-84272419D01*
X155627695Y-83700990D02*
X155675314Y-83653371D01*
X155675314Y-83653371D02*
X155770552Y-83605752D01*
X155770552Y-83605752D02*
X155913409Y-83605752D01*
X155913409Y-83605752D02*
X156008647Y-83653371D01*
X156008647Y-83653371D02*
X156056266Y-83748609D01*
X156056266Y-83748609D02*
X156056266Y-84272419D01*
X156437219Y-83605752D02*
X156675314Y-84272419D01*
X156675314Y-84272419D02*
X156913409Y-83605752D01*
X157675314Y-84224800D02*
X157580076Y-84272419D01*
X157580076Y-84272419D02*
X157389600Y-84272419D01*
X157389600Y-84272419D02*
X157294362Y-84224800D01*
X157294362Y-84224800D02*
X157246743Y-84129561D01*
X157246743Y-84129561D02*
X157246743Y-83748609D01*
X157246743Y-83748609D02*
X157294362Y-83653371D01*
X157294362Y-83653371D02*
X157389600Y-83605752D01*
X157389600Y-83605752D02*
X157580076Y-83605752D01*
X157580076Y-83605752D02*
X157675314Y-83653371D01*
X157675314Y-83653371D02*
X157722933Y-83748609D01*
X157722933Y-83748609D02*
X157722933Y-83843847D01*
X157722933Y-83843847D02*
X157246743Y-83939085D01*
X158151505Y-84272419D02*
X158151505Y-83605752D01*
X158151505Y-83796228D02*
X158199124Y-83700990D01*
X158199124Y-83700990D02*
X158246743Y-83653371D01*
X158246743Y-83653371D02*
X158341981Y-83605752D01*
X158341981Y-83605752D02*
X158437219Y-83605752D01*
X158627696Y-83605752D02*
X159008648Y-83605752D01*
X158770553Y-83272419D02*
X158770553Y-84129561D01*
X158770553Y-84129561D02*
X158818172Y-84224800D01*
X158818172Y-84224800D02*
X158913410Y-84272419D01*
X158913410Y-84272419D02*
X159008648Y-84272419D01*
X159722934Y-84224800D02*
X159627696Y-84272419D01*
X159627696Y-84272419D02*
X159437220Y-84272419D01*
X159437220Y-84272419D02*
X159341982Y-84224800D01*
X159341982Y-84224800D02*
X159294363Y-84129561D01*
X159294363Y-84129561D02*
X159294363Y-83748609D01*
X159294363Y-83748609D02*
X159341982Y-83653371D01*
X159341982Y-83653371D02*
X159437220Y-83605752D01*
X159437220Y-83605752D02*
X159627696Y-83605752D01*
X159627696Y-83605752D02*
X159722934Y-83653371D01*
X159722934Y-83653371D02*
X159770553Y-83748609D01*
X159770553Y-83748609D02*
X159770553Y-83843847D01*
X159770553Y-83843847D02*
X159294363Y-83939085D01*
X160199125Y-84272419D02*
X160199125Y-83605752D01*
X160199125Y-83796228D02*
X160246744Y-83700990D01*
X160246744Y-83700990D02*
X160294363Y-83653371D01*
X160294363Y-83653371D02*
X160389601Y-83605752D01*
X160389601Y-83605752D02*
X160484839Y-83605752D01*
X122903884Y-113872419D02*
X122903884Y-112872419D01*
X122903884Y-112872419D02*
X123141979Y-112872419D01*
X123141979Y-112872419D02*
X123284836Y-112920038D01*
X123284836Y-112920038D02*
X123380074Y-113015276D01*
X123380074Y-113015276D02*
X123427693Y-113110514D01*
X123427693Y-113110514D02*
X123475312Y-113300990D01*
X123475312Y-113300990D02*
X123475312Y-113443847D01*
X123475312Y-113443847D02*
X123427693Y-113634323D01*
X123427693Y-113634323D02*
X123380074Y-113729561D01*
X123380074Y-113729561D02*
X123284836Y-113824800D01*
X123284836Y-113824800D02*
X123141979Y-113872419D01*
X123141979Y-113872419D02*
X122903884Y-113872419D01*
X124475312Y-113777180D02*
X124427693Y-113824800D01*
X124427693Y-113824800D02*
X124284836Y-113872419D01*
X124284836Y-113872419D02*
X124189598Y-113872419D01*
X124189598Y-113872419D02*
X124046741Y-113824800D01*
X124046741Y-113824800D02*
X123951503Y-113729561D01*
X123951503Y-113729561D02*
X123903884Y-113634323D01*
X123903884Y-113634323D02*
X123856265Y-113443847D01*
X123856265Y-113443847D02*
X123856265Y-113300990D01*
X123856265Y-113300990D02*
X123903884Y-113110514D01*
X123903884Y-113110514D02*
X123951503Y-113015276D01*
X123951503Y-113015276D02*
X124046741Y-112920038D01*
X124046741Y-112920038D02*
X124189598Y-112872419D01*
X124189598Y-112872419D02*
X124284836Y-112872419D01*
X124284836Y-112872419D02*
X124427693Y-112920038D01*
X124427693Y-112920038D02*
X124475312Y-112967657D01*
X125808646Y-113872419D02*
X125713408Y-113824800D01*
X125713408Y-113824800D02*
X125665789Y-113777180D01*
X125665789Y-113777180D02*
X125618170Y-113681942D01*
X125618170Y-113681942D02*
X125618170Y-113396228D01*
X125618170Y-113396228D02*
X125665789Y-113300990D01*
X125665789Y-113300990D02*
X125713408Y-113253371D01*
X125713408Y-113253371D02*
X125808646Y-113205752D01*
X125808646Y-113205752D02*
X125951503Y-113205752D01*
X125951503Y-113205752D02*
X126046741Y-113253371D01*
X126046741Y-113253371D02*
X126094360Y-113300990D01*
X126094360Y-113300990D02*
X126141979Y-113396228D01*
X126141979Y-113396228D02*
X126141979Y-113681942D01*
X126141979Y-113681942D02*
X126094360Y-113777180D01*
X126094360Y-113777180D02*
X126046741Y-113824800D01*
X126046741Y-113824800D02*
X125951503Y-113872419D01*
X125951503Y-113872419D02*
X125808646Y-113872419D01*
X126999122Y-113205752D02*
X126999122Y-113872419D01*
X126570551Y-113205752D02*
X126570551Y-113729561D01*
X126570551Y-113729561D02*
X126618170Y-113824800D01*
X126618170Y-113824800D02*
X126713408Y-113872419D01*
X126713408Y-113872419D02*
X126856265Y-113872419D01*
X126856265Y-113872419D02*
X126951503Y-113824800D01*
X126951503Y-113824800D02*
X126999122Y-113777180D01*
X127332456Y-113205752D02*
X127713408Y-113205752D01*
X127475313Y-112872419D02*
X127475313Y-113729561D01*
X127475313Y-113729561D02*
X127522932Y-113824800D01*
X127522932Y-113824800D02*
X127618170Y-113872419D01*
X127618170Y-113872419D02*
X127713408Y-113872419D01*
D11*
X141234819Y-92158094D02*
X140234819Y-92158094D01*
X140234819Y-92158094D02*
X140234819Y-91919999D01*
X140234819Y-91919999D02*
X140282438Y-91777142D01*
X140282438Y-91777142D02*
X140377676Y-91681904D01*
X140377676Y-91681904D02*
X140472914Y-91634285D01*
X140472914Y-91634285D02*
X140663390Y-91586666D01*
X140663390Y-91586666D02*
X140806247Y-91586666D01*
X140806247Y-91586666D02*
X140996723Y-91634285D01*
X140996723Y-91634285D02*
X141091961Y-91681904D01*
X141091961Y-91681904D02*
X141187200Y-91777142D01*
X141187200Y-91777142D02*
X141234819Y-91919999D01*
X141234819Y-91919999D02*
X141234819Y-92158094D01*
X140234819Y-91253332D02*
X140234819Y-90634285D01*
X140234819Y-90634285D02*
X140615771Y-90967618D01*
X140615771Y-90967618D02*
X140615771Y-90824761D01*
X140615771Y-90824761D02*
X140663390Y-90729523D01*
X140663390Y-90729523D02*
X140711009Y-90681904D01*
X140711009Y-90681904D02*
X140806247Y-90634285D01*
X140806247Y-90634285D02*
X141044342Y-90634285D01*
X141044342Y-90634285D02*
X141139580Y-90681904D01*
X141139580Y-90681904D02*
X141187200Y-90729523D01*
X141187200Y-90729523D02*
X141234819Y-90824761D01*
X141234819Y-90824761D02*
X141234819Y-91110475D01*
X141234819Y-91110475D02*
X141187200Y-91205713D01*
X141187200Y-91205713D02*
X141139580Y-91253332D01*
X141604819Y-96761904D02*
X140604819Y-96761904D01*
X141604819Y-96190476D02*
X141033390Y-96619047D01*
X140604819Y-96190476D02*
X141176247Y-96761904D01*
X119134819Y-106833333D02*
X119849104Y-106833333D01*
X119849104Y-106833333D02*
X119991961Y-106880952D01*
X119991961Y-106880952D02*
X120087200Y-106976190D01*
X120087200Y-106976190D02*
X120134819Y-107119047D01*
X120134819Y-107119047D02*
X120134819Y-107214285D01*
X119230057Y-106404761D02*
X119182438Y-106357142D01*
X119182438Y-106357142D02*
X119134819Y-106261904D01*
X119134819Y-106261904D02*
X119134819Y-106023809D01*
X119134819Y-106023809D02*
X119182438Y-105928571D01*
X119182438Y-105928571D02*
X119230057Y-105880952D01*
X119230057Y-105880952D02*
X119325295Y-105833333D01*
X119325295Y-105833333D02*
X119420533Y-105833333D01*
X119420533Y-105833333D02*
X119563390Y-105880952D01*
X119563390Y-105880952D02*
X120134819Y-106452380D01*
X120134819Y-106452380D02*
X120134819Y-105833333D01*
X148884819Y-91176666D02*
X148408628Y-91509999D01*
X148884819Y-91748094D02*
X147884819Y-91748094D01*
X147884819Y-91748094D02*
X147884819Y-91367142D01*
X147884819Y-91367142D02*
X147932438Y-91271904D01*
X147932438Y-91271904D02*
X147980057Y-91224285D01*
X147980057Y-91224285D02*
X148075295Y-91176666D01*
X148075295Y-91176666D02*
X148218152Y-91176666D01*
X148218152Y-91176666D02*
X148313390Y-91224285D01*
X148313390Y-91224285D02*
X148361009Y-91271904D01*
X148361009Y-91271904D02*
X148408628Y-91367142D01*
X148408628Y-91367142D02*
X148408628Y-91748094D01*
X148884819Y-90224285D02*
X148884819Y-90795713D01*
X148884819Y-90509999D02*
X147884819Y-90509999D01*
X147884819Y-90509999D02*
X148027676Y-90605237D01*
X148027676Y-90605237D02*
X148122914Y-90700475D01*
X148122914Y-90700475D02*
X148170533Y-90795713D01*
X157191905Y-95014819D02*
X157191905Y-94014819D01*
X157191905Y-94014819D02*
X157430000Y-94014819D01*
X157430000Y-94014819D02*
X157572857Y-94062438D01*
X157572857Y-94062438D02*
X157668095Y-94157676D01*
X157668095Y-94157676D02*
X157715714Y-94252914D01*
X157715714Y-94252914D02*
X157763333Y-94443390D01*
X157763333Y-94443390D02*
X157763333Y-94586247D01*
X157763333Y-94586247D02*
X157715714Y-94776723D01*
X157715714Y-94776723D02*
X157668095Y-94871961D01*
X157668095Y-94871961D02*
X157572857Y-94967200D01*
X157572857Y-94967200D02*
X157430000Y-95014819D01*
X157430000Y-95014819D02*
X157191905Y-95014819D01*
X158668095Y-94014819D02*
X158191905Y-94014819D01*
X158191905Y-94014819D02*
X158144286Y-94491009D01*
X158144286Y-94491009D02*
X158191905Y-94443390D01*
X158191905Y-94443390D02*
X158287143Y-94395771D01*
X158287143Y-94395771D02*
X158525238Y-94395771D01*
X158525238Y-94395771D02*
X158620476Y-94443390D01*
X158620476Y-94443390D02*
X158668095Y-94491009D01*
X158668095Y-94491009D02*
X158715714Y-94586247D01*
X158715714Y-94586247D02*
X158715714Y-94824342D01*
X158715714Y-94824342D02*
X158668095Y-94919580D01*
X158668095Y-94919580D02*
X158620476Y-94967200D01*
X158620476Y-94967200D02*
X158525238Y-95014819D01*
X158525238Y-95014819D02*
X158287143Y-95014819D01*
X158287143Y-95014819D02*
X158191905Y-94967200D01*
X158191905Y-94967200D02*
X158144286Y-94919580D01*
X133734819Y-107068094D02*
X132734819Y-107068094D01*
X132734819Y-107068094D02*
X132734819Y-106829999D01*
X132734819Y-106829999D02*
X132782438Y-106687142D01*
X132782438Y-106687142D02*
X132877676Y-106591904D01*
X132877676Y-106591904D02*
X132972914Y-106544285D01*
X132972914Y-106544285D02*
X133163390Y-106496666D01*
X133163390Y-106496666D02*
X133306247Y-106496666D01*
X133306247Y-106496666D02*
X133496723Y-106544285D01*
X133496723Y-106544285D02*
X133591961Y-106591904D01*
X133591961Y-106591904D02*
X133687200Y-106687142D01*
X133687200Y-106687142D02*
X133734819Y-106829999D01*
X133734819Y-106829999D02*
X133734819Y-107068094D01*
X132830057Y-106115713D02*
X132782438Y-106068094D01*
X132782438Y-106068094D02*
X132734819Y-105972856D01*
X132734819Y-105972856D02*
X132734819Y-105734761D01*
X132734819Y-105734761D02*
X132782438Y-105639523D01*
X132782438Y-105639523D02*
X132830057Y-105591904D01*
X132830057Y-105591904D02*
X132925295Y-105544285D01*
X132925295Y-105544285D02*
X133020533Y-105544285D01*
X133020533Y-105544285D02*
X133163390Y-105591904D01*
X133163390Y-105591904D02*
X133734819Y-106163332D01*
X133734819Y-106163332D02*
X133734819Y-105544285D01*
X134104819Y-111671904D02*
X133104819Y-111671904D01*
X134104819Y-111100476D02*
X133533390Y-111529047D01*
X133104819Y-111100476D02*
X133676247Y-111671904D01*
X133734819Y-92158094D02*
X132734819Y-92158094D01*
X132734819Y-92158094D02*
X132734819Y-91919999D01*
X132734819Y-91919999D02*
X132782438Y-91777142D01*
X132782438Y-91777142D02*
X132877676Y-91681904D01*
X132877676Y-91681904D02*
X132972914Y-91634285D01*
X132972914Y-91634285D02*
X133163390Y-91586666D01*
X133163390Y-91586666D02*
X133306247Y-91586666D01*
X133306247Y-91586666D02*
X133496723Y-91634285D01*
X133496723Y-91634285D02*
X133591961Y-91681904D01*
X133591961Y-91681904D02*
X133687200Y-91777142D01*
X133687200Y-91777142D02*
X133734819Y-91919999D01*
X133734819Y-91919999D02*
X133734819Y-92158094D01*
X133734819Y-90634285D02*
X133734819Y-91205713D01*
X133734819Y-90919999D02*
X132734819Y-90919999D01*
X132734819Y-90919999D02*
X132877676Y-91015237D01*
X132877676Y-91015237D02*
X132972914Y-91110475D01*
X132972914Y-91110475D02*
X133020533Y-91205713D01*
X134104819Y-96761904D02*
X133104819Y-96761904D01*
X134104819Y-96190476D02*
X133533390Y-96619047D01*
X133104819Y-96190476D02*
X133676247Y-96761904D01*
X147709580Y-108316666D02*
X147757200Y-108364285D01*
X147757200Y-108364285D02*
X147804819Y-108507142D01*
X147804819Y-108507142D02*
X147804819Y-108602380D01*
X147804819Y-108602380D02*
X147757200Y-108745237D01*
X147757200Y-108745237D02*
X147661961Y-108840475D01*
X147661961Y-108840475D02*
X147566723Y-108888094D01*
X147566723Y-108888094D02*
X147376247Y-108935713D01*
X147376247Y-108935713D02*
X147233390Y-108935713D01*
X147233390Y-108935713D02*
X147042914Y-108888094D01*
X147042914Y-108888094D02*
X146947676Y-108840475D01*
X146947676Y-108840475D02*
X146852438Y-108745237D01*
X146852438Y-108745237D02*
X146804819Y-108602380D01*
X146804819Y-108602380D02*
X146804819Y-108507142D01*
X146804819Y-108507142D02*
X146852438Y-108364285D01*
X146852438Y-108364285D02*
X146900057Y-108316666D01*
X147804819Y-107364285D02*
X147804819Y-107935713D01*
X147804819Y-107649999D02*
X146804819Y-107649999D01*
X146804819Y-107649999D02*
X146947676Y-107745237D01*
X146947676Y-107745237D02*
X147042914Y-107840475D01*
X147042914Y-107840475D02*
X147090533Y-107935713D01*
X141234819Y-107068094D02*
X140234819Y-107068094D01*
X140234819Y-107068094D02*
X140234819Y-106829999D01*
X140234819Y-106829999D02*
X140282438Y-106687142D01*
X140282438Y-106687142D02*
X140377676Y-106591904D01*
X140377676Y-106591904D02*
X140472914Y-106544285D01*
X140472914Y-106544285D02*
X140663390Y-106496666D01*
X140663390Y-106496666D02*
X140806247Y-106496666D01*
X140806247Y-106496666D02*
X140996723Y-106544285D01*
X140996723Y-106544285D02*
X141091961Y-106591904D01*
X141091961Y-106591904D02*
X141187200Y-106687142D01*
X141187200Y-106687142D02*
X141234819Y-106829999D01*
X141234819Y-106829999D02*
X141234819Y-107068094D01*
X140568152Y-105639523D02*
X141234819Y-105639523D01*
X140187200Y-105877618D02*
X140901485Y-106115713D01*
X140901485Y-106115713D02*
X140901485Y-105496666D01*
X141604819Y-111671904D02*
X140604819Y-111671904D01*
X141604819Y-111100476D02*
X141033390Y-111529047D01*
X140604819Y-111100476D02*
X141176247Y-111671904D01*
X119134819Y-92033333D02*
X119849104Y-92033333D01*
X119849104Y-92033333D02*
X119991961Y-92080952D01*
X119991961Y-92080952D02*
X120087200Y-92176190D01*
X120087200Y-92176190D02*
X120134819Y-92319047D01*
X120134819Y-92319047D02*
X120134819Y-92414285D01*
X120134819Y-91033333D02*
X120134819Y-91604761D01*
X120134819Y-91319047D02*
X119134819Y-91319047D01*
X119134819Y-91319047D02*
X119277676Y-91414285D01*
X119277676Y-91414285D02*
X119372914Y-91509523D01*
X119372914Y-91509523D02*
X119420533Y-91604761D01*
X151623333Y-97284819D02*
X151290000Y-96808628D01*
X151051905Y-97284819D02*
X151051905Y-96284819D01*
X151051905Y-96284819D02*
X151432857Y-96284819D01*
X151432857Y-96284819D02*
X151528095Y-96332438D01*
X151528095Y-96332438D02*
X151575714Y-96380057D01*
X151575714Y-96380057D02*
X151623333Y-96475295D01*
X151623333Y-96475295D02*
X151623333Y-96618152D01*
X151623333Y-96618152D02*
X151575714Y-96713390D01*
X151575714Y-96713390D02*
X151528095Y-96761009D01*
X151528095Y-96761009D02*
X151432857Y-96808628D01*
X151432857Y-96808628D02*
X151051905Y-96808628D01*
X152004286Y-96380057D02*
X152051905Y-96332438D01*
X152051905Y-96332438D02*
X152147143Y-96284819D01*
X152147143Y-96284819D02*
X152385238Y-96284819D01*
X152385238Y-96284819D02*
X152480476Y-96332438D01*
X152480476Y-96332438D02*
X152528095Y-96380057D01*
X152528095Y-96380057D02*
X152575714Y-96475295D01*
X152575714Y-96475295D02*
X152575714Y-96570533D01*
X152575714Y-96570533D02*
X152528095Y-96713390D01*
X152528095Y-96713390D02*
X151956667Y-97284819D01*
X151956667Y-97284819D02*
X152575714Y-97284819D01*
D12*
%TO.C,D3*%
X141780000Y-93120000D02*
X144720000Y-93120000D01*
X141780000Y-93240000D02*
X144720000Y-93240000D01*
X141780000Y-93360000D02*
X144720000Y-93360000D01*
X143250000Y-87680000D02*
X143250000Y-88700000D01*
X143250000Y-95160000D02*
X143250000Y-94140000D01*
X141780000Y-94140000D02*
X144720000Y-94140000D01*
X144720000Y-88700000D01*
X141780000Y-88700000D01*
X141780000Y-94140000D01*
%TO.C,J2*%
X120680000Y-101380000D02*
X129920000Y-101380000D01*
X120680000Y-111620000D02*
X120680000Y-101380000D01*
X127800000Y-111620000D02*
X127800000Y-101380000D01*
X129920000Y-101380000D02*
X129920000Y-108700000D01*
X129920000Y-109300000D02*
X129920000Y-111620000D01*
X129920000Y-111620000D02*
X120680000Y-111620000D01*
X123600000Y-104000000D02*
G75*
G02*
X121600000Y-104000000I-1000000J0D01*
G01*
X121600000Y-104000000D02*
G75*
G02*
X123600000Y-104000000I1000000J0D01*
G01*
X123600000Y-109000000D02*
G75*
G02*
X121600000Y-109000000I-1000000J0D01*
G01*
X121600000Y-109000000D02*
G75*
G02*
X123600000Y-109000000I1000000J0D01*
G01*
X130530000Y-109440000D02*
X129920000Y-109000000D01*
X130530000Y-108560000D01*
X130530000Y-109440000D01*
G36*
X130530000Y-109440000D02*
G01*
X129920000Y-109000000D01*
X130530000Y-108560000D01*
X130530000Y-109440000D01*
G37*
%TO.C,R1*%
X149430000Y-87740000D02*
X149760000Y-87740000D01*
X149430000Y-94280000D02*
X149430000Y-87740000D01*
X149760000Y-94280000D02*
X149430000Y-94280000D01*
X151840000Y-94280000D02*
X152170000Y-94280000D01*
X152170000Y-87740000D02*
X151840000Y-87740000D01*
X152170000Y-94280000D02*
X152170000Y-87740000D01*
%TO.C,D5*%
X160490000Y-92145000D02*
X160490000Y-89055000D01*
X154940000Y-90600000D02*
G75*
G02*
X160490000Y-89055170I2990000J0D01*
G01*
X160490000Y-92144830D02*
G75*
G02*
X154940000Y-90600000I-2560000J1544830D01*
G01*
X160430000Y-90600000D02*
G75*
G02*
X155430000Y-90600000I-2500000J0D01*
G01*
X155430000Y-90600000D02*
G75*
G02*
X160430000Y-90600000I2500000J0D01*
G01*
%TO.C,D2*%
X134280000Y-108030000D02*
X137220000Y-108030000D01*
X134280000Y-108150000D02*
X137220000Y-108150000D01*
X134280000Y-108270000D02*
X137220000Y-108270000D01*
X135750000Y-102590000D02*
X135750000Y-103610000D01*
X135750000Y-110070000D02*
X135750000Y-109050000D01*
X134280000Y-109050000D02*
X137220000Y-109050000D01*
X137220000Y-103610000D01*
X134280000Y-103610000D01*
X134280000Y-109050000D01*
%TO.C,D1*%
X134280000Y-93120000D02*
X137220000Y-93120000D01*
X134280000Y-93240000D02*
X137220000Y-93240000D01*
X134280000Y-93360000D02*
X137220000Y-93360000D01*
X135750000Y-87680000D02*
X135750000Y-88700000D01*
X135750000Y-95160000D02*
X135750000Y-94140000D01*
X134280000Y-94140000D02*
X137220000Y-94140000D01*
X137220000Y-88700000D01*
X134280000Y-88700000D01*
X134280000Y-94140000D01*
%TO.C,C1*%
X148520000Y-108110000D02*
X156680000Y-108110000D01*
X148520000Y-108150000D02*
X156680000Y-108150000D01*
X148521000Y-108070000D02*
X156679000Y-108070000D01*
X148522000Y-108030000D02*
X156678000Y-108030000D01*
X148523000Y-107990000D02*
X156677000Y-107990000D01*
X148525000Y-107950000D02*
X156675000Y-107950000D01*
X148527000Y-107910000D02*
X151560000Y-107910000D01*
X148530000Y-107870000D02*
X151560000Y-107870000D01*
X148532000Y-107830000D02*
X151560000Y-107830000D01*
X148536000Y-107790000D02*
X151560000Y-107790000D01*
X148539000Y-107750000D02*
X151560000Y-107750000D01*
X148544000Y-107710000D02*
X151560000Y-107710000D01*
X148548000Y-107670000D02*
X151560000Y-107670000D01*
X148553000Y-107630000D02*
X151560000Y-107630000D01*
X148558000Y-107590000D02*
X151560000Y-107590000D01*
X148564000Y-107550000D02*
X151560000Y-107550000D01*
X148570000Y-107510000D02*
X151560000Y-107510000D01*
X148577000Y-107470000D02*
X151560000Y-107470000D01*
X148583000Y-107430000D02*
X151560000Y-107430000D01*
X148591000Y-107390000D02*
X151560000Y-107390000D01*
X148598000Y-107350000D02*
X151560000Y-107350000D01*
X148607000Y-107310000D02*
X151560000Y-107310000D01*
X148615000Y-107270000D02*
X151560000Y-107270000D01*
X148624000Y-107230000D02*
X151560000Y-107230000D01*
X148633000Y-107190000D02*
X151560000Y-107190000D01*
X148643000Y-107150000D02*
X151560000Y-107150000D01*
X148653000Y-107110000D02*
X151560000Y-107110000D01*
X148664000Y-107070000D02*
X151560000Y-107070000D01*
X148675000Y-107030000D02*
X151560000Y-107030000D01*
X148687000Y-106990000D02*
X151560000Y-106990000D01*
X148699000Y-106950000D02*
X151560000Y-106950000D01*
X148711000Y-106910000D02*
X151560000Y-106910000D01*
X148724000Y-106870000D02*
X151560000Y-106870000D01*
X148737000Y-106830000D02*
X151560000Y-106830000D01*
X148751000Y-106790000D02*
X151560000Y-106790000D01*
X148765000Y-106750000D02*
X151560000Y-106750000D01*
X148780000Y-106710000D02*
X151560000Y-106710000D01*
X148795000Y-106670000D02*
X151560000Y-106670000D01*
X148811000Y-106630000D02*
X151560000Y-106630000D01*
X148827000Y-106590000D02*
X151560000Y-106590000D01*
X148843000Y-106550000D02*
X151560000Y-106550000D01*
X148860000Y-106510000D02*
X151560000Y-106510000D01*
X148878000Y-106470000D02*
X151560000Y-106470000D01*
X148896000Y-106430000D02*
X151560000Y-106430000D01*
X148915000Y-106390000D02*
X151560000Y-106390000D01*
X148934000Y-106350000D02*
X151560000Y-106350000D01*
X148954000Y-106310000D02*
X151560000Y-106310000D01*
X148974000Y-106270000D02*
X151560000Y-106270000D01*
X148995000Y-106230000D02*
X151560000Y-106230000D01*
X149016000Y-106190000D02*
X151560000Y-106190000D01*
X149038000Y-106150000D02*
X151560000Y-106150000D01*
X149061000Y-106110000D02*
X151560000Y-106110000D01*
X149084000Y-106070000D02*
X151560000Y-106070000D01*
X149107000Y-106030000D02*
X151560000Y-106030000D01*
X149132000Y-105990000D02*
X151560000Y-105990000D01*
X149157000Y-105950000D02*
X151560000Y-105950000D01*
X149182000Y-105910000D02*
X151560000Y-105910000D01*
X149208000Y-105870000D02*
X151560000Y-105870000D01*
X149235000Y-105830000D02*
X155965000Y-105830000D01*
X149263000Y-105790000D02*
X155937000Y-105790000D01*
X149291000Y-105750000D02*
X155909000Y-105750000D01*
X149320000Y-105710000D02*
X155880000Y-105710000D01*
X149350000Y-105670000D02*
X155850000Y-105670000D01*
X149381000Y-105630000D02*
X155819000Y-105630000D01*
X149412000Y-105590000D02*
X155788000Y-105590000D01*
X149444000Y-105550000D02*
X155756000Y-105550000D01*
X149477000Y-105510000D02*
X155723000Y-105510000D01*
X149511000Y-105470000D02*
X155689000Y-105470000D01*
X149545000Y-105430000D02*
X155655000Y-105430000D01*
X149581000Y-105390000D02*
X155619000Y-105390000D01*
X149618000Y-105350000D02*
X155582000Y-105350000D01*
X149655000Y-105310000D02*
X155545000Y-105310000D01*
X149694000Y-105270000D02*
X155506000Y-105270000D01*
X149733000Y-105230000D02*
X155467000Y-105230000D01*
X149774000Y-105190000D02*
X155426000Y-105190000D01*
X149816000Y-105150000D02*
X155384000Y-105150000D01*
X149859000Y-105110000D02*
X155341000Y-105110000D01*
X149885000Y-112159698D02*
X150685000Y-112159698D01*
X149904000Y-105070000D02*
X155296000Y-105070000D01*
X149949000Y-105030000D02*
X155251000Y-105030000D01*
X149996000Y-104990000D02*
X155204000Y-104990000D01*
X150045000Y-104950000D02*
X155155000Y-104950000D01*
X150095000Y-104910000D02*
X155105000Y-104910000D01*
X150147000Y-104870000D02*
X155053000Y-104870000D01*
X150200000Y-104830000D02*
X155000000Y-104830000D01*
X150256000Y-104790000D02*
X154944000Y-104790000D01*
X150285000Y-112559698D02*
X150285000Y-111759698D01*
X150313000Y-104750000D02*
X154887000Y-104750000D01*
X150373000Y-104710000D02*
X154827000Y-104710000D01*
X150435000Y-104670000D02*
X154765000Y-104670000D01*
X150499000Y-104630000D02*
X154701000Y-104630000D01*
X150566000Y-104590000D02*
X154634000Y-104590000D01*
X150636000Y-104550000D02*
X154564000Y-104550000D01*
X150710000Y-104510000D02*
X154490000Y-104510000D01*
X150787000Y-104470000D02*
X154413000Y-104470000D01*
X150869000Y-104430000D02*
X154331000Y-104430000D01*
X150956000Y-104390000D02*
X154244000Y-104390000D01*
X151048000Y-104350000D02*
X154152000Y-104350000D01*
X151147000Y-104310000D02*
X154053000Y-104310000D01*
X151254000Y-104270000D02*
X153946000Y-104270000D01*
X151372000Y-104230000D02*
X153828000Y-104230000D01*
X151503000Y-104190000D02*
X153697000Y-104190000D01*
X151653000Y-104150000D02*
X153547000Y-104150000D01*
X151832000Y-104110000D02*
X153368000Y-104110000D01*
X152067000Y-104070000D02*
X153133000Y-104070000D01*
X153640000Y-105870000D02*
X155992000Y-105870000D01*
X153640000Y-105910000D02*
X156018000Y-105910000D01*
X153640000Y-105950000D02*
X156043000Y-105950000D01*
X153640000Y-105990000D02*
X156068000Y-105990000D01*
X153640000Y-106030000D02*
X156093000Y-106030000D01*
X153640000Y-106070000D02*
X156116000Y-106070000D01*
X153640000Y-106110000D02*
X156139000Y-106110000D01*
X153640000Y-106150000D02*
X156162000Y-106150000D01*
X153640000Y-106190000D02*
X156184000Y-106190000D01*
X153640000Y-106230000D02*
X156205000Y-106230000D01*
X153640000Y-106270000D02*
X156226000Y-106270000D01*
X153640000Y-106310000D02*
X156246000Y-106310000D01*
X153640000Y-106350000D02*
X156266000Y-106350000D01*
X153640000Y-106390000D02*
X156285000Y-106390000D01*
X153640000Y-106430000D02*
X156304000Y-106430000D01*
X153640000Y-106470000D02*
X156322000Y-106470000D01*
X153640000Y-106510000D02*
X156340000Y-106510000D01*
X153640000Y-106550000D02*
X156357000Y-106550000D01*
X153640000Y-106590000D02*
X156373000Y-106590000D01*
X153640000Y-106630000D02*
X156389000Y-106630000D01*
X153640000Y-106670000D02*
X156405000Y-106670000D01*
X153640000Y-106710000D02*
X156420000Y-106710000D01*
X153640000Y-106750000D02*
X156435000Y-106750000D01*
X153640000Y-106790000D02*
X156449000Y-106790000D01*
X153640000Y-106830000D02*
X156463000Y-106830000D01*
X153640000Y-106870000D02*
X156476000Y-106870000D01*
X153640000Y-106910000D02*
X156489000Y-106910000D01*
X153640000Y-106950000D02*
X156501000Y-106950000D01*
X153640000Y-106990000D02*
X156513000Y-106990000D01*
X153640000Y-107030000D02*
X156525000Y-107030000D01*
X153640000Y-107070000D02*
X156536000Y-107070000D01*
X153640000Y-107110000D02*
X156547000Y-107110000D01*
X153640000Y-107150000D02*
X156557000Y-107150000D01*
X153640000Y-107190000D02*
X156567000Y-107190000D01*
X153640000Y-107230000D02*
X156576000Y-107230000D01*
X153640000Y-107270000D02*
X156585000Y-107270000D01*
X153640000Y-107310000D02*
X156593000Y-107310000D01*
X153640000Y-107350000D02*
X156602000Y-107350000D01*
X153640000Y-107390000D02*
X156609000Y-107390000D01*
X153640000Y-107430000D02*
X156617000Y-107430000D01*
X153640000Y-107470000D02*
X156623000Y-107470000D01*
X153640000Y-107510000D02*
X156630000Y-107510000D01*
X153640000Y-107550000D02*
X156636000Y-107550000D01*
X153640000Y-107590000D02*
X156642000Y-107590000D01*
X153640000Y-107630000D02*
X156647000Y-107630000D01*
X153640000Y-107670000D02*
X156652000Y-107670000D01*
X153640000Y-107710000D02*
X156656000Y-107710000D01*
X153640000Y-107750000D02*
X156661000Y-107750000D01*
X153640000Y-107790000D02*
X156664000Y-107790000D01*
X153640000Y-107830000D02*
X156668000Y-107830000D01*
X153640000Y-107870000D02*
X156670000Y-107870000D01*
X153640000Y-107910000D02*
X156673000Y-107910000D01*
X156720000Y-108150000D02*
G75*
G02*
X148480000Y-108150000I-4120000J0D01*
G01*
X148480000Y-108150000D02*
G75*
G02*
X156720000Y-108150000I4120000J0D01*
G01*
%TO.C,D4*%
X141780000Y-108030000D02*
X144720000Y-108030000D01*
X141780000Y-108150000D02*
X144720000Y-108150000D01*
X141780000Y-108270000D02*
X144720000Y-108270000D01*
X143250000Y-102590000D02*
X143250000Y-103610000D01*
X143250000Y-110070000D02*
X143250000Y-109050000D01*
X141780000Y-109050000D02*
X144720000Y-109050000D01*
X144720000Y-103610000D01*
X141780000Y-103610000D01*
X141780000Y-109050000D01*
D13*
%TO.C,REF\u002A\u002A*%
G36*
X162129339Y-107192414D02*
G01*
X158633777Y-107192414D01*
X158633777Y-106341218D01*
X162129339Y-106341218D01*
X162129339Y-107192414D01*
G37*
G36*
X161109894Y-104610495D02*
G01*
X161115855Y-104610949D01*
X161121729Y-104611695D01*
X161127508Y-104612727D01*
X161133187Y-104614038D01*
X161138756Y-104615620D01*
X161144210Y-104617465D01*
X161149540Y-104619567D01*
X161154739Y-104621917D01*
X161159800Y-104624509D01*
X161164715Y-104627336D01*
X161169477Y-104630389D01*
X161174079Y-104633661D01*
X161178513Y-104637146D01*
X161182772Y-104640835D01*
X161186848Y-104644721D01*
X161190735Y-104648798D01*
X161194424Y-104653057D01*
X161197908Y-104657491D01*
X161201181Y-104662093D01*
X161204234Y-104666855D01*
X161207060Y-104671770D01*
X161209652Y-104676831D01*
X161212003Y-104682030D01*
X161214105Y-104687360D01*
X161215950Y-104692813D01*
X161217532Y-104698383D01*
X161218842Y-104704061D01*
X161219875Y-104709841D01*
X161220621Y-104715715D01*
X161221074Y-104721675D01*
X161221227Y-104727715D01*
X161221074Y-104733755D01*
X161220621Y-104739715D01*
X161219875Y-104745589D01*
X161218842Y-104751368D01*
X161217532Y-104757046D01*
X161215950Y-104762616D01*
X161214105Y-104768069D01*
X161212003Y-104773399D01*
X161209652Y-104778597D01*
X161207060Y-104783658D01*
X161204234Y-104788573D01*
X161201181Y-104793334D01*
X161197908Y-104797936D01*
X161194424Y-104802369D01*
X161190735Y-104806628D01*
X161186848Y-104810703D01*
X161182772Y-104814589D01*
X161178513Y-104818278D01*
X161174079Y-104821762D01*
X161169477Y-104825034D01*
X161164715Y-104828087D01*
X161159800Y-104830913D01*
X161154739Y-104833504D01*
X161149540Y-104835855D01*
X161144210Y-104837956D01*
X161138756Y-104839801D01*
X161133187Y-104841383D01*
X161127508Y-104842693D01*
X161121729Y-104843725D01*
X161115855Y-104844471D01*
X161109894Y-104844925D01*
X161103855Y-104845077D01*
X161097815Y-104844925D01*
X161091855Y-104844471D01*
X161085981Y-104843725D01*
X161080201Y-104842693D01*
X161074523Y-104841383D01*
X161068953Y-104839801D01*
X161063500Y-104837956D01*
X161058170Y-104835855D01*
X161052970Y-104833504D01*
X161047910Y-104830913D01*
X161042994Y-104828087D01*
X161038232Y-104825034D01*
X161033630Y-104821762D01*
X161029196Y-104818278D01*
X161024937Y-104814589D01*
X161020861Y-104810703D01*
X161016975Y-104806628D01*
X161013285Y-104802369D01*
X161009801Y-104797936D01*
X161006528Y-104793334D01*
X161003475Y-104788572D01*
X161000649Y-104783658D01*
X160998057Y-104778597D01*
X160995706Y-104773399D01*
X160993605Y-104768069D01*
X160991759Y-104762616D01*
X160990178Y-104757046D01*
X160988867Y-104751368D01*
X160987835Y-104745589D01*
X160987088Y-104739715D01*
X160986635Y-104733755D01*
X160986482Y-104727715D01*
X160986635Y-104721676D01*
X160987088Y-104715715D01*
X160987835Y-104709841D01*
X160988867Y-104704062D01*
X160990178Y-104698383D01*
X160991759Y-104692814D01*
X160993605Y-104687360D01*
X160995706Y-104682030D01*
X160998057Y-104676831D01*
X161000649Y-104671770D01*
X161003475Y-104666855D01*
X161006528Y-104662093D01*
X161009801Y-104657491D01*
X161013285Y-104653057D01*
X161016975Y-104648798D01*
X161020861Y-104644722D01*
X161024937Y-104640835D01*
X161029196Y-104637146D01*
X161033630Y-104633661D01*
X161038232Y-104630389D01*
X161042994Y-104627336D01*
X161047910Y-104624510D01*
X161052970Y-104621917D01*
X161058170Y-104619567D01*
X161063500Y-104617465D01*
X161068953Y-104615620D01*
X161074523Y-104614038D01*
X161080201Y-104612727D01*
X161085981Y-104611695D01*
X161091855Y-104610949D01*
X161097815Y-104610495D01*
X161103855Y-104610343D01*
X161109894Y-104610495D01*
G37*
G36*
X162520808Y-101327235D02*
G01*
X161597785Y-102267430D01*
X161616999Y-102267430D01*
X161616999Y-102688117D01*
X161342209Y-102688117D01*
X161195478Y-104262478D01*
X162280875Y-105405587D01*
X162208868Y-105473925D01*
X161446551Y-104669773D01*
X161447664Y-104676862D01*
X161448634Y-104683998D01*
X161449459Y-104691180D01*
X161450138Y-104698405D01*
X161450669Y-104705672D01*
X161451050Y-104712981D01*
X161451280Y-104720329D01*
X161451357Y-104727715D01*
X161450905Y-104745598D01*
X161449563Y-104763246D01*
X161447353Y-104780637D01*
X161444297Y-104797750D01*
X161440417Y-104814562D01*
X161435734Y-104831052D01*
X161430271Y-104847198D01*
X161424049Y-104862979D01*
X161417090Y-104878371D01*
X161409416Y-104893355D01*
X161401049Y-104907907D01*
X161392010Y-104922005D01*
X161382322Y-104935629D01*
X161372006Y-104948756D01*
X161361084Y-104961365D01*
X161349578Y-104973433D01*
X161337510Y-104984938D01*
X161324902Y-104995860D01*
X161311774Y-105006176D01*
X161298150Y-105015864D01*
X161284052Y-105024902D01*
X161269500Y-105033269D01*
X161254516Y-105040942D01*
X161239124Y-105047901D01*
X161223344Y-105054123D01*
X161207198Y-105059586D01*
X161190708Y-105064268D01*
X161173896Y-105068148D01*
X161156784Y-105071204D01*
X161139393Y-105073413D01*
X161121746Y-105074755D01*
X161103864Y-105075207D01*
X161079092Y-105074338D01*
X161054788Y-105071769D01*
X161031012Y-105067559D01*
X161007821Y-105061766D01*
X160985276Y-105054449D01*
X160963433Y-105045666D01*
X160942352Y-105035475D01*
X160922091Y-105023936D01*
X160902709Y-105011106D01*
X160884264Y-104997045D01*
X160866814Y-104981810D01*
X160850419Y-104965460D01*
X160835136Y-104948054D01*
X160821024Y-104929649D01*
X160808143Y-104910305D01*
X160796549Y-104890080D01*
X159946771Y-104890080D01*
X159946771Y-105071608D01*
X159723196Y-105071608D01*
X159723196Y-104889617D01*
X159720746Y-104889211D01*
X159718305Y-104888684D01*
X159715879Y-104888039D01*
X159713471Y-104887282D01*
X159711085Y-104886415D01*
X159708726Y-104885442D01*
X159706396Y-104884366D01*
X159704101Y-104883192D01*
X159699629Y-104880563D01*
X159695342Y-104877582D01*
X159691272Y-104874280D01*
X159687450Y-104870687D01*
X159683909Y-104866830D01*
X159680680Y-104862739D01*
X159677795Y-104858445D01*
X159676492Y-104856230D01*
X159675287Y-104853975D01*
X159674184Y-104851684D01*
X159673188Y-104849360D01*
X159672301Y-104847007D01*
X159671528Y-104844628D01*
X159670874Y-104842228D01*
X159670341Y-104839809D01*
X159669934Y-104837377D01*
X159669658Y-104834933D01*
X159621921Y-104280073D01*
X158437530Y-105486503D01*
X158366728Y-105416928D01*
X159595348Y-104166662D01*
X159733250Y-104166662D01*
X159785100Y-104769440D01*
X160758826Y-104769440D01*
X160758252Y-104764297D01*
X160757752Y-104759133D01*
X160757327Y-104753946D01*
X160756978Y-104748740D01*
X160756706Y-104743512D01*
X160756510Y-104738265D01*
X160756392Y-104733000D01*
X160756352Y-104727715D01*
X160923131Y-104727715D01*
X160923366Y-104737015D01*
X160924064Y-104746193D01*
X160925213Y-104755237D01*
X160926802Y-104764136D01*
X160928820Y-104772880D01*
X160931255Y-104781456D01*
X160934096Y-104789853D01*
X160937332Y-104798060D01*
X160940951Y-104806065D01*
X160944942Y-104813857D01*
X160949293Y-104821425D01*
X160953994Y-104828758D01*
X160959032Y-104835844D01*
X160964397Y-104842671D01*
X160970077Y-104849228D01*
X160976061Y-104855505D01*
X160982337Y-104861489D01*
X160988895Y-104867169D01*
X160995722Y-104872534D01*
X161002807Y-104877573D01*
X161010140Y-104882274D01*
X161017708Y-104886626D01*
X161025500Y-104890617D01*
X161033506Y-104894236D01*
X161041713Y-104897472D01*
X161050110Y-104900313D01*
X161058686Y-104902749D01*
X161067430Y-104904767D01*
X161076330Y-104906356D01*
X161085375Y-104907506D01*
X161094554Y-104908204D01*
X161103854Y-104908439D01*
X161113154Y-104908204D01*
X161122332Y-104907506D01*
X161131376Y-104906356D01*
X161140276Y-104904767D01*
X161149019Y-104902749D01*
X161157595Y-104900313D01*
X161165992Y-104897472D01*
X161174199Y-104894236D01*
X161182204Y-104890617D01*
X161189997Y-104886626D01*
X161197565Y-104882274D01*
X161204897Y-104877573D01*
X161211983Y-104872534D01*
X161218810Y-104867169D01*
X161225368Y-104861489D01*
X161231644Y-104855505D01*
X161237628Y-104849228D01*
X161243309Y-104842671D01*
X161248674Y-104835844D01*
X161253712Y-104828758D01*
X161258413Y-104821425D01*
X161262765Y-104813857D01*
X161266756Y-104806065D01*
X161270375Y-104798060D01*
X161273611Y-104789853D01*
X161276453Y-104781456D01*
X161278888Y-104772880D01*
X161280906Y-104764136D01*
X161282496Y-104755237D01*
X161283645Y-104746193D01*
X161284343Y-104737015D01*
X161284578Y-104727715D01*
X161284343Y-104718415D01*
X161283645Y-104709236D01*
X161282496Y-104700191D01*
X161280906Y-104691291D01*
X161278888Y-104682547D01*
X161276453Y-104673971D01*
X161273611Y-104665574D01*
X161270375Y-104657366D01*
X161266756Y-104649361D01*
X161262765Y-104641568D01*
X161258413Y-104634000D01*
X161253712Y-104626668D01*
X161248674Y-104619582D01*
X161243309Y-104612755D01*
X161237628Y-104606198D01*
X161231644Y-104599922D01*
X161225368Y-104593938D01*
X161218810Y-104588258D01*
X161211983Y-104582893D01*
X161204897Y-104577854D01*
X161197565Y-104573154D01*
X161189997Y-104568802D01*
X161182204Y-104564812D01*
X161174199Y-104561193D01*
X161165992Y-104557957D01*
X161157595Y-104555116D01*
X161149019Y-104552681D01*
X161140276Y-104550663D01*
X161131376Y-104549074D01*
X161122332Y-104547924D01*
X161113154Y-104547226D01*
X161103854Y-104546991D01*
X161094554Y-104547226D01*
X161085375Y-104547924D01*
X161076331Y-104549074D01*
X161067430Y-104550663D01*
X161058687Y-104552681D01*
X161050110Y-104555116D01*
X161041713Y-104557957D01*
X161033506Y-104561193D01*
X161025500Y-104564812D01*
X161017708Y-104568802D01*
X161010140Y-104573154D01*
X161002807Y-104577854D01*
X160995722Y-104582893D01*
X160988895Y-104588258D01*
X160982337Y-104593938D01*
X160976061Y-104599922D01*
X160970077Y-104606198D01*
X160964397Y-104612755D01*
X160959032Y-104619582D01*
X160953994Y-104626668D01*
X160949293Y-104634000D01*
X160944942Y-104641568D01*
X160940951Y-104649361D01*
X160937332Y-104657366D01*
X160934096Y-104665574D01*
X160931255Y-104673971D01*
X160928820Y-104682547D01*
X160926802Y-104691291D01*
X160925213Y-104700191D01*
X160924064Y-104709236D01*
X160923366Y-104718415D01*
X160923131Y-104727715D01*
X160756352Y-104727715D01*
X160756742Y-104711109D01*
X160757900Y-104694704D01*
X160759808Y-104678517D01*
X160762449Y-104662567D01*
X160765806Y-104646869D01*
X160769860Y-104631442D01*
X160774595Y-104616304D01*
X160779994Y-104601471D01*
X160786038Y-104586961D01*
X160792710Y-104572792D01*
X160799993Y-104558980D01*
X160807869Y-104545545D01*
X160816321Y-104532502D01*
X160825332Y-104519870D01*
X160834883Y-104507665D01*
X160844958Y-104495906D01*
X160855539Y-104484610D01*
X160866609Y-104473794D01*
X160878150Y-104463476D01*
X160890144Y-104453673D01*
X160902574Y-104444402D01*
X160915424Y-104435682D01*
X160928674Y-104427529D01*
X160942308Y-104419961D01*
X160956309Y-104412996D01*
X160970658Y-104406651D01*
X160985339Y-104400943D01*
X161000334Y-104395890D01*
X161015626Y-104391509D01*
X161031196Y-104387818D01*
X161047029Y-104384835D01*
X161063105Y-104382576D01*
X161073059Y-104275790D01*
X160362239Y-103525971D01*
X159733250Y-104166662D01*
X159595348Y-104166662D01*
X159610811Y-104150928D01*
X159488783Y-102732325D01*
X159609876Y-102732325D01*
X159722161Y-104037617D01*
X160293077Y-103456637D01*
X160430306Y-103456637D01*
X161085124Y-104146273D01*
X161221016Y-102688117D01*
X161207613Y-102688117D01*
X161207613Y-102664852D01*
X160430306Y-103456637D01*
X160293077Y-103456637D01*
X160294826Y-103454857D01*
X159609876Y-102732325D01*
X159488783Y-102732325D01*
X159476698Y-102591838D01*
X158293162Y-101343362D01*
X158293162Y-101205871D01*
X159463497Y-102438432D01*
X159433091Y-102084957D01*
X159554186Y-102084957D01*
X159596654Y-102578667D01*
X160362862Y-103385615D01*
X160816074Y-102924430D01*
X160177112Y-102924430D01*
X160177112Y-102683130D01*
X160916103Y-102683130D01*
X160916103Y-102822632D01*
X161154902Y-102579632D01*
X161352303Y-102579632D01*
X161511411Y-102579632D01*
X161511411Y-102375935D01*
X161491272Y-102375935D01*
X161358707Y-102510962D01*
X161352303Y-102579632D01*
X161154902Y-102579632D01*
X161207613Y-102525993D01*
X161207613Y-102267451D01*
X161260217Y-102267451D01*
X161277218Y-102084957D01*
X159554186Y-102084957D01*
X159433091Y-102084957D01*
X159432661Y-102079960D01*
X159287318Y-102079960D01*
X159287318Y-101959310D01*
X159415197Y-101959310D01*
X159870490Y-101959310D01*
X161272483Y-101959310D01*
X161266864Y-101947341D01*
X161260344Y-101935769D01*
X161252951Y-101924589D01*
X161244715Y-101913794D01*
X161235665Y-101903377D01*
X161225829Y-101893332D01*
X161215238Y-101883652D01*
X161203921Y-101874330D01*
X161191906Y-101865360D01*
X161179224Y-101856736D01*
X161165903Y-101848451D01*
X161151973Y-101840498D01*
X161122400Y-101825564D01*
X161090741Y-101811880D01*
X161057229Y-101799394D01*
X161022098Y-101788055D01*
X160985583Y-101777809D01*
X160947916Y-101768604D01*
X160909332Y-101760387D01*
X160870064Y-101753107D01*
X160830348Y-101746710D01*
X160790426Y-101741146D01*
X160790426Y-101853752D01*
X160197240Y-101853752D01*
X160197240Y-101733102D01*
X160197240Y-101728457D01*
X160157367Y-101731714D01*
X160116719Y-101735631D01*
X160075545Y-101740258D01*
X160034095Y-101745644D01*
X159992615Y-101751842D01*
X159951356Y-101758900D01*
X159910564Y-101766870D01*
X159870490Y-101775802D01*
X159870490Y-101959310D01*
X159415197Y-101959310D01*
X159415200Y-101959300D01*
X159544192Y-101959300D01*
X159664319Y-101959300D01*
X159664319Y-101849519D01*
X159654255Y-101855142D01*
X159644485Y-101860921D01*
X159635019Y-101866857D01*
X159625867Y-101872953D01*
X159617039Y-101879210D01*
X159608546Y-101885631D01*
X159600396Y-101892218D01*
X159592601Y-101898973D01*
X159585171Y-101905897D01*
X159578114Y-101912994D01*
X159571441Y-101920265D01*
X159565163Y-101927711D01*
X159559289Y-101935336D01*
X159553829Y-101943141D01*
X159548793Y-101951129D01*
X159544192Y-101959300D01*
X159415200Y-101959300D01*
X159416056Y-101956716D01*
X159416985Y-101954017D01*
X159417986Y-101951215D01*
X159419060Y-101948314D01*
X159420211Y-101945315D01*
X159421441Y-101942222D01*
X159422751Y-101939038D01*
X159424145Y-101935763D01*
X159432643Y-101917663D01*
X159442168Y-101900207D01*
X159452687Y-101883386D01*
X159464165Y-101867187D01*
X159476569Y-101851599D01*
X159489864Y-101836612D01*
X159504016Y-101822214D01*
X159518991Y-101808392D01*
X159534755Y-101795137D01*
X159551274Y-101782436D01*
X159560683Y-101775802D01*
X159568514Y-101770279D01*
X159586440Y-101758654D01*
X159605019Y-101747549D01*
X159624216Y-101736954D01*
X159643997Y-101726857D01*
X159664329Y-101717246D01*
X159664329Y-101677784D01*
X160317870Y-101677784D01*
X160317870Y-101733102D01*
X160669756Y-101733102D01*
X160669756Y-101677784D01*
X160317870Y-101677784D01*
X159664329Y-101677784D01*
X159664329Y-101637507D01*
X159870490Y-101637507D01*
X159870490Y-101649843D01*
X159911029Y-101641106D01*
X159951982Y-101633370D01*
X159993185Y-101626580D01*
X160034476Y-101620682D01*
X160075690Y-101615622D01*
X160116664Y-101611345D01*
X160157235Y-101607796D01*
X160197240Y-101604921D01*
X160197240Y-101557144D01*
X160790426Y-101557144D01*
X160790426Y-101618295D01*
X160870683Y-101629867D01*
X160910604Y-101636957D01*
X160950157Y-101644986D01*
X160989173Y-101654006D01*
X161027483Y-101664072D01*
X161064918Y-101675236D01*
X161101310Y-101687550D01*
X161136488Y-101701068D01*
X161170283Y-101715842D01*
X161202527Y-101731926D01*
X161233051Y-101749371D01*
X161261685Y-101768232D01*
X161288260Y-101788561D01*
X161312607Y-101810411D01*
X161334557Y-101833834D01*
X161340267Y-101826964D01*
X161346344Y-101820424D01*
X161352772Y-101814229D01*
X161359535Y-101808395D01*
X161366617Y-101802938D01*
X161374003Y-101797874D01*
X161381678Y-101793217D01*
X161389625Y-101788984D01*
X161397830Y-101785190D01*
X161406275Y-101781852D01*
X161414946Y-101778984D01*
X161423828Y-101776602D01*
X161432903Y-101774723D01*
X161442157Y-101773361D01*
X161451575Y-101772532D01*
X161461139Y-101772253D01*
X161469418Y-101772462D01*
X161477588Y-101773083D01*
X161485639Y-101774106D01*
X161493561Y-101775521D01*
X161501344Y-101777317D01*
X161508978Y-101779484D01*
X161516452Y-101782013D01*
X161523758Y-101784894D01*
X161530884Y-101788115D01*
X161537820Y-101791667D01*
X161544557Y-101795541D01*
X161551083Y-101799725D01*
X161557390Y-101804210D01*
X161563467Y-101808985D01*
X161569304Y-101814041D01*
X161574891Y-101819368D01*
X161580217Y-101824954D01*
X161585273Y-101830791D01*
X161590049Y-101836868D01*
X161594534Y-101843175D01*
X161598718Y-101849702D01*
X161602591Y-101856439D01*
X161606144Y-101863375D01*
X161609365Y-101870501D01*
X161612245Y-101877806D01*
X161614774Y-101885281D01*
X161616942Y-101892915D01*
X161618738Y-101900698D01*
X161620153Y-101908620D01*
X161621176Y-101916671D01*
X161621797Y-101924841D01*
X161622006Y-101933119D01*
X161621797Y-101941397D01*
X161621176Y-101949566D01*
X161620153Y-101957616D01*
X161618738Y-101965538D01*
X161616942Y-101973320D01*
X161614774Y-101980954D01*
X161612245Y-101988428D01*
X161609365Y-101995733D01*
X161606144Y-102002859D01*
X161602591Y-102009795D01*
X161598718Y-102016532D01*
X161594534Y-102023059D01*
X161590049Y-102029366D01*
X161585273Y-102035443D01*
X161580217Y-102041280D01*
X161574891Y-102046867D01*
X161569304Y-102052194D01*
X161563467Y-102057250D01*
X161557390Y-102062026D01*
X161551083Y-102066511D01*
X161544557Y-102070695D01*
X161537820Y-102074569D01*
X161530884Y-102078122D01*
X161523758Y-102081343D01*
X161516452Y-102084224D01*
X161508978Y-102086753D01*
X161501344Y-102088921D01*
X161493561Y-102090717D01*
X161485639Y-102092132D01*
X161477588Y-102093155D01*
X161469418Y-102093777D01*
X161461139Y-102093986D01*
X161457004Y-102093934D01*
X161452895Y-102093778D01*
X161448812Y-102093521D01*
X161444758Y-102093162D01*
X161440732Y-102092704D01*
X161436738Y-102092147D01*
X161432775Y-102091493D01*
X161428845Y-102090743D01*
X161424950Y-102089899D01*
X161421091Y-102088961D01*
X161417268Y-102087930D01*
X161413484Y-102086809D01*
X161409739Y-102085598D01*
X161406034Y-102084298D01*
X161402372Y-102082911D01*
X161398753Y-102081438D01*
X161381410Y-102267440D01*
X161461702Y-102267440D01*
X162520808Y-101189674D01*
X162520808Y-101327235D01*
G37*
D12*
%TO.C,J1*%
X120680000Y-86580000D02*
X129920000Y-86580000D01*
X120680000Y-96820000D02*
X120680000Y-86580000D01*
X127800000Y-96820000D02*
X127800000Y-86580000D01*
X129920000Y-86580000D02*
X129920000Y-93900000D01*
X129920000Y-94500000D02*
X129920000Y-96820000D01*
X129920000Y-96820000D02*
X120680000Y-96820000D01*
X123600000Y-89200000D02*
G75*
G02*
X121600000Y-89200000I-1000000J0D01*
G01*
X121600000Y-89200000D02*
G75*
G02*
X123600000Y-89200000I1000000J0D01*
G01*
X123600000Y-94200000D02*
G75*
G02*
X121600000Y-94200000I-1000000J0D01*
G01*
X121600000Y-94200000D02*
G75*
G02*
X123600000Y-94200000I1000000J0D01*
G01*
X130530000Y-94640000D02*
X129920000Y-94200000D01*
X130530000Y-93760000D01*
X130530000Y-94640000D01*
G36*
X130530000Y-94640000D02*
G01*
X129920000Y-94200000D01*
X130530000Y-93760000D01*
X130530000Y-94640000D01*
G37*
%TO.C,R2*%
X148520000Y-97830000D02*
X155060000Y-97830000D01*
X148520000Y-98160000D02*
X148520000Y-97830000D01*
X148520000Y-100240000D02*
X148520000Y-100570000D01*
X148520000Y-100570000D02*
X155060000Y-100570000D01*
X155060000Y-97830000D02*
X155060000Y-98160000D01*
X155060000Y-100570000D02*
X155060000Y-100240000D01*
%TD*%
M02*
