M48
; DRILL file {KiCad 9.0.7} date 2026-01-15T12:27:32+0530
; FORMAT={-:-/ absolute / metric / decimal}
; #@! TF.CreationDate,2026-01-15T12:27:32+05:30
; #@! TF.GenerationSoftware,Kicad,Pcbnew,9.0.7
; #@! TF.FileFunction,Plated,1,2,PTH
FMAT,2
METRIC
; #@! TA.AperFunction,Plated,PTH,ComponentDrill
T1C0.800
; #@! TA.AperFunction,Plated,PTH,ComponentDrill
T2C0.900
; #@! TA.AperFunction,Plated,PTH,ComponentDrill
T3C1.100
; #@! TA.AperFunction,Plated,PTH,ComponentDrill
T4C1.300
%
G90
G05
T1
X147.98Y-99.2
X150.8Y-87.2
X150.8Y-94.82
X152.6Y-106.9
X152.6Y-109.4
X155.6Y-99.2
T2
X156.66Y-90.6
X159.2Y-90.6
T3
X135.75Y-86.34
X135.75Y-96.5
X135.75Y-101.25
X135.75Y-111.41
X143.25Y-86.34
X143.25Y-96.5
X143.25Y-101.25
X143.25Y-111.41
T4
X125.8Y-89.2
X125.8Y-94.2
X125.8Y-104.0
X125.8Y-109.0
M30
